<?xml version="1.0" encoding="utf-8"?>
<!-- Generator: Adobe Illustrator 19.0.0, SVG Export Plug-In . SVG Version: 6.00 Build 0)  -->
<svg version="1.1" id="Layer_1" xmlns="http://www.w3.org/2000/svg" xmlns:xlink="http://www.w3.org/1999/xlink" x="0px" y="0px"
	 viewBox="-370 -100 100 100" style="enable-background:new -370 -100 100 100;" xml:space="preserve">
<style type="text/css">
	.st0{fill:#0F91FF;}
	.st1{fill:#EEEEEE;}
</style>
<g>
	<circle class="st0" cx="-320" cy="-50" r="50"/>
	<path class="st1" d="M-311.1-70.5c3,0,7.1,0,7.1,0v-10.6c0,0-4.3,0-10,0s-13.3,3.7-13.3,14.5c0,2,0,5,0,8.4h-9.6v11h9.6
		c0,13.7,0,28.5,0,28.5h4.3h3.4h3.8c0,0,0-15.4,0-28.5h9.5l1.6-11h-11.2c0-3.6,0-6.2,0-7C-315.9-68.7-314.1-70.5-311.1-70.5z"/>
</g>
</svg>
