<?xml version="1.0" encoding="utf-8"?>
<!-- Generator: Adobe Illustrator 17.1.0, SVG Export Plug-In . SVG Version: 6.00 Build 0)  -->
<!DOCTYPE svg PUBLIC "-//W3C//DTD SVG 1.1//EN" "http://www.w3.org/Graphics/SVG/1.1/DTD/svg11.dtd">
<svg version="1.1" id="Layer_1" xmlns="http://www.w3.org/2000/svg" xmlns:xlink="http://www.w3.org/1999/xlink" x="0px" y="0px"
	 viewBox="0 0 100 100" enable-background="new 0 0 100 100" xml:space="preserve">
<g>
	<circle fill="#A41C42" cx="50" cy="50" r="50"/>
	<path fill="#EEEEEE" d="M58.9,29.5c3,0,7.1,0,7.1,0V18.9c0,0-4.3,0-10,0s-13.3,3.7-13.3,14.5c0,2,0,5,0,8.4h-9.6v11h9.6
		c0,13.7,0,28.5,0,28.5h4.3h3.4h3.8c0,0,0-15.4,0-28.5h9.5l1.6-11H54.1c0-3.6,0-6.2,0-7C54.1,31.3,55.9,29.5,58.9,29.5z"/>
</g>
</svg>
