<?xml version="1.0" encoding="utf-8"?>
<!-- Generator: Adobe Illustrator 17.1.0, SVG Export Plug-In . SVG Version: 6.00 Build 0)  -->
<!DOCTYPE svg PUBLIC "-//W3C//DTD SVG 1.1//EN" "http://www.w3.org/Graphics/SVG/1.1/DTD/svg11.dtd">
<svg version="1.1" id="Calque_1" xmlns="http://www.w3.org/2000/svg" xmlns:xlink="http://www.w3.org/1999/xlink" x="0px" y="0px"
	 viewBox="0 0 100 100" enable-background="new 0 0 100 100" xml:space="preserve">
<g id="social_x5F_8">
	<g>
		<g>
			<circle fill="#141414" cx="50" cy="50" r="50"/>
			<path fill="#141414" d="M50,100c27.6,0,50-22.4,50-50c0-13.3-5.2-25.4-13.7-34.4L15.2,85.9C24.2,94.6,36.5,100,50,100z"/>
		</g>
		<path fill="#EFEEEE" d="M65.1,29.3c0.7,0,1.4,0,2.1,0c0.1,0.1,0.2,0.1,0.3,0c0.1,0,0.2,0,0.3,0c0,0.2,0.1,0.1,0.2,0.1
			c0.4,0.1,0.7,0.1,1.1,0.2c2.7,0.6,5,1.8,7,3.8c0.1,0.1,0.2,0.2,0.5,0.2c2.3-0.5,4.6-1.2,6.7-2.3c0.6-0.3,1.2-0.6,1.9-1
			c-0.5,1.6-1.3,3-2.3,4.3c-1,1.3-2.2,2.3-3.6,3.2c2.7-0.3,5.2-1,7.8-2.1c-0.1,0.2-0.2,0.3-0.3,0.4c-1.8,2.5-3.9,4.6-6.3,6.4
			c-0.2,0.1-0.2,0.3-0.2,0.5c0,0.8,0,1.7,0,2.5c-0.1,2.2-0.3,4.4-0.8,6.6c-0.9,4.3-2.5,8.4-4.7,12.2c-2.1,3.7-4.8,6.9-8,9.7
			c-2.9,2.6-6.2,4.6-9.8,6.2c-3,1.3-6.1,2.1-9.3,2.6c-1.2,0.2-2.4,0.3-3.6,0.4c-0.1,0-0.3-0.1-0.3,0.1c-0.2,0-0.4,0-0.5,0
			c-0.1-0.1-0.3-0.1-0.4,0c-1.3,0-2.5,0-3.8,0c-0.1-0.1-0.2-0.1-0.3,0c-0.2,0-0.5,0-0.7,0c0,0,0,0,0,0c0,0,0,0,0,0
			c-0.1-0.1-0.2-0.1-0.4-0.1c-2.3-0.2-4.5-0.5-6.8-1.1c-3.5-0.9-6.9-2.3-10.1-4.1c-0.4-0.2-0.8-0.5-1.3-0.8
			c7.6,0.8,14.4-1.1,20.5-5.6c-7.2-0.3-11.6-5.2-12.9-9.5c2,0.4,4.1,0.3,6.1-0.2c-3.2-0.7-5.9-2.3-7.9-4.9c-2.1-2.5-3-5.4-3.1-8.7
			c1,0.5,2,0.9,3,1.2c1,0.3,2.1,0.5,3.2,0.5c-7.3-5.1-7.2-13.7-4.2-18.2c0.8,1,1.7,2,2.6,2.9c2.5,2.5,5.4,4.6,8.5,6.4
			c5.3,3,11.1,4.6,17.2,5c0.2,0,0.2,0,0.2-0.2c-0.2-0.7-0.3-1.4-0.3-2c-0.2-3,0.5-5.7,2.2-8.2c2.3-3.5,5.6-5.6,9.8-6.2
			c0.1,0,0.2,0.1,0.2-0.1c0.1,0,0.2,0,0.3,0C65,29.3,65.1,29.3,65.1,29.3z"/>
		<path fill="#EFEEEE" d="M86.9,35.7c-2.6,1.1-5.1,1.8-7.8,2.1c1.4-0.9,2.6-1.9,3.6-3.2c1-1.3,1.8-2.7,2.3-4.3
			c-0.7,0.3-1.3,0.7-1.9,1c-2.1,1.1-4.4,1.8-6.7,2.3c-0.2,0-0.3,0-0.5-0.2c-1.4-1.4-2.9-2.4-4.6-3.1L32.2,69.1
			c2.1,1.4,4.6,2.4,7.8,2.6c-4.9,3.7-10.3,5.6-16.2,5.8l-1.5,1.5c2.7,1.4,5.6,2.5,8.6,3.3c2.2,0.6,4.5,0.9,6.8,1.1
			c0.1,0,0.2,0,0.4,0.1c0,0,0,0,0,0c0,0,0,0,0,0c0.2,0,0.5,0,0.7,0c0.1-0.1,0.2-0.1,0.3,0c1.3,0,2.5,0,3.8,0c0.1-0.1,0.3-0.1,0.4,0
			c0.2,0,0.4,0,0.5,0c0-0.2,0.2-0.1,0.3-0.1c1.2-0.1,2.4-0.2,3.6-0.4c3.2-0.5,6.3-1.4,9.3-2.6c3.6-1.5,6.9-3.6,9.8-6.2
			c3.2-2.8,5.9-6.1,8-9.7c2.2-3.8,3.8-7.9,4.7-12.2c0.5-2.2,0.7-4.4,0.8-6.6c0-0.8,0-1.7,0-2.5c0-0.2,0.1-0.4,0.2-0.5
			c2.5-1.8,4.6-3.9,6.3-6.4C86.7,36,86.8,35.9,86.9,35.7z"/>
	</g>
</g>
<g id="Layer_1_1_">
</g>
</svg>
