<?xml version="1.0" encoding="utf-8"?>
<!-- Generator: Adobe Illustrator 18.1.1, SVG Export Plug-In . SVG Version: 6.00 Build 0)  -->
<svg version="1.1" xmlns="http://www.w3.org/2000/svg" xmlns:xlink="http://www.w3.org/1999/xlink" x="0px" y="0px"
	 viewBox="0 0 352.7 357.2" enable-background="new 0 0 352.7 357.2" xml:space="preserve">
<g id="_x35_">
	<path fill-rule="evenodd" clip-rule="evenodd" fill="#EA4D5E" d="M176.3,357.2c97.4,0,176.3-78.9,176.3-176.3
		c0-97.4-78.9-176.3-176.3-176.3C78.9,4.6,0,83.5,0,180.9C0,278.3,78.9,357.2,176.3,357.2L176.3,357.2z"/>
	<path fill-rule="evenodd" clip-rule="evenodd" fill="#FFFFFF" d="M102.6,211L102.6,211c1.9,0,3.4-1.5,3.4-3.4v-53.5
		c0-1.9-1.5-3.4-3.4-3.4h0c-1.9,0-3.4,1.5-3.4,3.4v53.5C99.2,209.5,100.7,211,102.6,211L102.6,211z"/>
	<path fill-rule="evenodd" clip-rule="evenodd" fill="#FFFFFF" d="M248.6,156.3L248.6,156.3c2.7,0,4.9-2.2,4.9-4.9v-12.9
		c0-2.7-2.2-4.9-4.9-4.9l0,0c-2.7,0-4.9,2.2-4.9,4.9v12.9C243.7,154.1,245.9,156.3,248.6,156.3L248.6,156.3z"/>
	<path fill-rule="evenodd" clip-rule="evenodd" fill="#FFFFFF" d="M248.6,197.1L248.6,197.1c1.9,0,3.4-1.5,3.4-3.4v-26.8
		c0-1.9-1.5-3.4-3.4-3.4h0c-1.9,0-3.4,1.5-3.4,3.4v26.8C245.2,195.6,246.7,197.1,248.6,197.1L248.6,197.1z"/>
	<path fill-rule="evenodd" clip-rule="evenodd" fill="#FFFFFF" d="M235.8,265.1c-1.1,0.7-2.2,1.5-3.1,2.3
		c-9.1,10.6-9.3,22.4-10.1,32c-0.1,3.3-0.5,6.4-1.4,9.1c-1.6,5.5-5.1,9.4-13.9,10.6c-0.6,0.1-1.2,0.1-1.8,0.2c-0.9,0.1-2,0.3-3,0.3
		c-16.8,1.8-35.6,1.8-52.3,0c-1.1-0.1-2.1-0.2-3-0.3c-0.6-0.1-1.2-0.1-1.8-0.2c-8.8-1.2-12.3-5.1-13.9-10.6
		c-0.9-2.7-1.2-5.8-1.4-9.1c-0.8-9.6-1-21.4-10.1-32c-0.9-0.8-2-1.6-3.1-2.3c-2.3-1.5-4.6-3.7-6.7-6.2c-3.6-2.9-5.3-7.3-6.4-12.3
		c-0.2-1.1-0.4-2.3-0.4-3.4v-1V241v-2.1c0-41.1,0-82.1,0-123.2c0-6.7,5-13.5,10.5-17c0.2-0.1,0.3-0.2,0.5-0.3
		c0.1-0.1,0.3-0.2,0.4-0.3c2-1.4,3.7-3,5.3-4.6c7-7.9,9.7-19.4,10.6-30.1c0.1-1.7,0.2-3.3,0.3-5c0-0.5,0-1,0-1.5
		c0-9.6,4.5-14.1,13.5-14.7c0.8-0.1,1.7-0.1,2.5-0.2c19.2-1.8,39.5-1.8,58.7,0c0.8,0.1,1.7,0.1,2.5,0.2c9,0.6,13.5,5.1,13.5,14.7
		c0,0.5,0,1,0,1.5c0.1,1.7,0.2,3.3,0.3,5c1.1,13.1,4.7,26.7,15.9,34.7c0.1,0.1,0.3,0.2,0.4,0.3c0.2,0.1,0.3,0.2,0.5,0.3
		c5.5,3.5,10.5,10.3,10.5,17c0,41.1,0,82.1,0,123.2v2.1v1.2v1c0,1.1-0.1,2.2-0.4,3.4C247.8,254.5,242.2,260.8,235.8,265.1
		L235.8,265.1z"/>
	<path fill-rule="evenodd" clip-rule="evenodd" fill="#FFFFFF" d="M235.8,265.1c-3.8,2.5-8.5,2.7-13,2.7h-92.6
		c-4.6,0-8.7-0.7-12.2-1.9c-0.4-0.3-0.8-0.5-1.1-0.8c-6.5-4.3-12-10.6-13.1-18.4c-0.2-1.1-0.4-2.3-0.4-3.4v-1V241v-2.1
		c0-41.1,0-82.1,0-123.2c0-6.7,5-13.5,10.5-17c0.2-0.1,0.3-0.2,0.5-0.3c0.1-0.1,0.3-0.2,0.4-0.3c5.2-3.8,9.4-4.2,16-4.2h91.7
		c7,0,10,0.3,15.4,4.2c0.1,0.1,0.3,0.2,0.4,0.3c0.2,0.1,0.3,0.2,0.5,0.3c5.5,3.5,10.5,10.3,10.5,17c0,41.1,0,82.1,0,123.2v2.1v1.2v1
		c0,1.1-0.1,2.2-0.4,3.4C247.8,254.5,242.2,260.8,235.8,265.1L235.8,265.1z"/>
	<path fill-rule="evenodd" clip-rule="evenodd" fill="#2F383D" d="M119.8,262.5c3.3,1.1,6.9,1.5,10.4,1.5h92.6c3.6,0,7.8,0,10.9-2.1
		c5.5-3.6,10.5-9.1,11.4-15.8l0-0.1l0-0.1c0.2-0.8,0.3-1.7,0.3-2.6v-4.3c0-41.1,0-82.1,0-123.2c0-5.4-4.4-11-8.8-13.8
		c-0.2-0.1-0.4-0.2-0.5-0.3l-0.1-0.1l-0.1-0.1c-0.1-0.1-0.2-0.2-0.3-0.3c-4.6-3.3-7.3-3.5-13.2-3.5h-91.7c-5.5,0-9.3,0.2-13.8,3.5
		c-0.1,0.1-0.2,0.2-0.3,0.3l-0.1,0.1l-0.1,0.1c-0.2,0.1-0.4,0.2-0.5,0.3c-4.4,2.8-8.8,8.4-8.8,13.8c0,41.1,0,82.1,0,123.2v4.3
		c0,0.9,0.1,1.7,0.3,2.6l0,0.1l0,0.1c0.9,6.6,6,12.2,11.4,15.8C119.3,262.1,119.5,262.3,119.8,262.5L119.8,262.5z"/>
	<path fill="#FFFFFF" d="M212.5,159l1.1,1.9l9.2-5.3l-1.1-1.9L212.5,159L212.5,159z M154.4,144.7l1.9-1.1l-5.3-9.2l-1.9,1.1
		L154.4,144.7L154.4,144.7z M196.7,143.8l1.9,1.1l5.3-9.2l-1.9-1.1L196.7,143.8L196.7,143.8z M175.5,138.6h2.2v-10.7h-2.2V138.6
		L175.5,138.6z M139.3,160.5l1.1-1.9l-9.2-5.3l-1.1,1.9L139.3,160.5L139.3,160.5z M134,181.8v-2.2h-10.7v2.2H134L134,181.8z
		 M140.1,202.8l-1.1-1.9l-9.2,5.3l1.1,1.9L140.1,202.8L140.1,202.8z M155.9,218l-1.9-1.1l-5.3,9.2l1.9,1.1L155.9,218L155.9,218z
		 M177.2,223.2H175v10.7h2.2V223.2L177.2,223.2z M198.2,217.1l-1.9,1.1l5.3,9.2l1.9-1.1L198.2,217.1L198.2,217.1z M213.4,201.3
		l-1.1,1.9l9.2,5.3l1.1-1.9L213.4,201.3L213.4,201.3z M218.6,180v2.2h10.7V180H218.6L218.6,180z"/>
	<path fill-rule="evenodd" clip-rule="evenodd" fill="#FFFFFF" d="M176.5,178.2c-1.4,0-2.5,1.1-2.5,2.5c0,0.5,0.2,1,0.5,1.4
		l-19.3,20.3l1.2,1l19.4-20.3c0.2,0.1,0.5,0.1,0.8,0.1c1.4,0,2.5-1.1,2.5-2.5C179,179.3,177.8,178.2,176.5,178.2L176.5,178.2z"/>
	<path fill-rule="evenodd" clip-rule="evenodd" fill="#FFFFFF" d="M207.9,166.9l-0.5-1.2l-27,12.6c-0.8-1.3-2.2-2.2-3.9-2.2
		c-0.9,0-1.7,0.2-2.4,0.7l-14.5-11.6l-2,2.5l14.5,11.6c-0.1,0.4-0.2,0.9-0.2,1.4c0,2.5,2,4.6,4.6,4.6c2.5,0,4.6-2,4.6-4.6
		c0-0.4-0.1-0.8-0.2-1.2L207.9,166.9L207.9,166.9z M176.5,183.2L176.5,183.2c-1.4,0-2.5-1.1-2.5-2.5c0-1.4,1.1-2.5,2.5-2.5
		c1.4,0,2.5,1.1,2.5,2.5C179,182.1,177.8,183.2,176.5,183.2L176.5,183.2z"/>
	<path fill-rule="evenodd" clip-rule="evenodd" fill="#2F383D" d="M179,180.7c0-1.4-1.1-2.5-2.5-2.5c-1.4,0-2.5,1.1-2.5,2.5
		c0,0.5,0.2,1,0.5,1.4c0.3,0.4,0.8,0.8,1.3,0.9c0.2,0.1,0.5,0.1,0.8,0.1C177.8,183.2,179,182.1,179,180.7L179,180.7z"/>
	<path fill-rule="evenodd" clip-rule="evenodd" fill="#E6E6E6" d="M248.6,156.3L248.6,156.3c2.7,0,4.9-2.2,4.9-4.9v-12.9
		c0-2.7-2.2-4.9-4.9-4.9l0,0c-2.7,0-4.9,2.2-4.9,4.9v12.9C243.7,154.1,245.9,156.3,248.6,156.3L248.6,156.3z"/>
	<path fill-rule="evenodd" clip-rule="evenodd" fill="#E6E6E6" d="M248.6,197.1L248.6,197.1c1.9,0,3.4-1.5,3.4-3.4v-26.8
		c0-1.9-1.5-3.4-3.4-3.4h0c-1.9,0-3.4,1.5-3.4,3.4v26.8C245.2,195.6,246.7,197.1,248.6,197.1L248.6,197.1z"/>
	<path fill-rule="evenodd" clip-rule="evenodd" fill="#DBD1D2" d="M235.8,265.1c-1.1,0.7-2.2,1.5-3.1,2.3
		c-9.1,10.6-9.3,22.4-10.1,32c-0.1,3.3-0.5,6.4-1.4,9.1c-1.6,5.5-5.1,9.4-13.9,10.6c-0.6,0.1-1.2,0.1-1.8,0.2c-0.9,0.1-2,0.3-3,0.3
		c-8.3,0.9-17.2,1.3-26,1.3V40.8c9.8,0,19.7,0.4,29.2,1.3c0.8,0.1,1.7,0.1,2.5,0.2c9,0.6,13.5,5.1,13.5,14.7c0,0.5,0,1,0,1.5
		c0.1,1.7,0.2,3.3,0.3,5c1.1,13.1,4.7,26.7,15.9,34.7c0.1,0.1,0.3,0.2,0.4,0.3c0.2,0.1,0.3,0.2,0.5,0.3c5.5,3.5,10.5,10.3,10.5,17
		c0,41.1,0,82.1,0,123.2v2.1v1.2v1c0,1.1-0.1,2.2-0.4,3.4C247.8,254.5,242.2,260.8,235.8,265.1L235.8,265.1z"/>
	<path fill-rule="evenodd" clip-rule="evenodd" fill="#E6E6E6" d="M235.8,265.1c-3.8,2.5-8.5,2.7-13,2.7h-46.3V94h46
		c7,0,10,0.3,15.4,4.2c0.1,0.1,0.3,0.2,0.4,0.3c0.2,0.1,0.3,0.2,0.5,0.3c5.5,3.5,10.5,10.3,10.5,17c0,41.1,0,82.1,0,123.2v2.1v1.2v1
		c0,1.1-0.1,2.2-0.4,3.4C247.8,254.5,242.2,260.8,235.8,265.1L235.8,265.1z"/>
	<path fill-rule="evenodd" clip-rule="evenodd" fill="#2A3237" d="M176.5,264h46.3c3.6,0,7.8,0,10.9-2.1c5.5-3.6,10.5-9.1,11.4-15.8
		l0-0.1l0-0.1c0.2-0.8,0.3-1.7,0.3-2.6v-4.3c0-41.1,0-82.1,0-123.2c0-5.4-4.4-11-8.8-13.8c-0.2-0.1-0.4-0.2-0.5-0.3l-0.1-0.1
		l-0.1-0.1c-0.1-0.1-0.2-0.2-0.3-0.3c-4.6-3.3-7.3-3.5-13.2-3.5h-46V264L176.5,264z"/>
	<path fill="#E6E6E6" d="M212.5,159l1.1,1.9l9.2-5.3l-1.1-1.9L212.5,159L212.5,159z M176.5,127.9v10.7h1.2v-10.7H176.5L176.5,127.9z
		 M176.5,223.2v10.7h0.7v-10.7H176.5L176.5,223.2z M196.7,143.8l1.9,1.1l5.3-9.2l-1.9-1.1L196.7,143.8L196.7,143.8z M198.2,217.1
		l-1.9,1.1l5.3,9.2l1.9-1.1L198.2,217.1L198.2,217.1z M213.4,201.3l-1.1,1.9l9.2,5.3l1.1-1.9L213.4,201.3L213.4,201.3z M218.6,180
		v2.2h10.7V180H218.6L218.6,180z"/>
	<path fill-rule="evenodd" clip-rule="evenodd" fill="#E6E6E6" d="M176.5,178.2L176.5,178.2l0,5h0c1.4,0,2.5-1.1,2.5-2.5
		C179,179.3,177.8,178.2,176.5,178.2L176.5,178.2z"/>
	<path fill-rule="evenodd" clip-rule="evenodd" fill="#E6E6E6" d="M207.9,166.9l-0.5-1.2l-27,12.6c-0.8-1.3-2.2-2.2-3.9-2.2h0v2.1h0
		c1.4,0,2.5,1.1,2.5,2.5c0,1.4-1.1,2.5-2.5,2.5l0,0h0v2.1h0c2.5,0,4.6-2,4.6-4.6c0-0.4-0.1-0.8-0.2-1.2L207.9,166.9L207.9,166.9z"/>
	<path fill-rule="evenodd" clip-rule="evenodd" fill="#2A3237" d="M179,180.7c0-1.4-1.1-2.5-2.5-2.5h0v5h0
		C177.8,183.2,179,182.1,179,180.7L179,180.7z"/>
</g>
<g id="Layer_1">
</g>
</svg>
