<?xml version="1.0" encoding="utf-8"?>
<!-- Generator: Adobe Illustrator 18.1.1, SVG Export Plug-In . SVG Version: 6.00 Build 0)  -->
<svg version="1.1" id="Capa_1" xmlns="http://www.w3.org/2000/svg" xmlns:xlink="http://www.w3.org/1999/xlink" x="0px" y="0px"
	 viewBox="0 0 3553.7 3703.4" enable-background="new 0 0 3553.7 3703.4" xml:space="preserve">
<polygon fill="#FFFFFF" points="0,-265.1 0,3703.4 3968.5,3703.4 3968.5,-265.1 0,-265.1 "/>
<g>
	<path fill="#DDAB89" d="M2950.7,1393.4c0,0,53,189.1-249.3,263.1l-858.7,210.2c0,0-94.2,23.1-120.4-70.3l-26.8-95.7
		c0,0-52.9-189.1,249.3-263.1l763.5-186.9c0,0,189.4-46.4,242,141.4L2950.7,1393.4L2950.7,1393.4z"/>
	<path fill="#DDAB89" d="M2902.6,1998.4c0,0,18.5,187.5-279.4,207.1l-846.6,55.6c0,0-92.8,6.1-101.9-86.5l-9.4-95
		c0,0-18.5-187.5,279.4-207.1l752.8-49.4c0,0,186.6-12.3,205,173.8L2902.6,1998.4L2902.6,1998.4z"/>
	<path fill="#DDAB89" d="M2868.3,2459.1c0,0,19.5,197.4-294.1,218l-891.1,58.5c0,0-97.8,6.4-107.4-91.1l-9.9-99.9
		c0,0-19.5-197.4,294.1-218l792.3-52c0,0,196.6-12.9,215.9,183.1L2868.3,2459.1L2868.3,2459.1z"/>
	<path fill="#DDAB89" d="M2522.6,3070c0,0-16.6,176.9-295.9,141.4l-794.2-101c0,0-86.3-11-78.2-97.6l8.5-90.3
		c0,0,16.6-176.9,295.9-141.4l706,89.7c0,0,174.6,22.2,158.2,197.4L2522.6,3070L2522.6,3070z"/>
	<g>
		<defs>
			<polygon id="SVGID_1_" points="1194.6,301.9 1194.6,2697.6 2743.8,2697.6 2743.8,301.9 1194.6,301.9 			"/>
		</defs>
		<use xlink:href="#SVGID_1_"  overflow="visible" fill="#EDEDED"/>
		<clipPath id="SVGID_2_">
			<use xlink:href="#SVGID_1_"  overflow="visible"/>
		</clipPath>
		<polygon clip-path="url(#SVGID_2_)" fill="#FFFFFF" points="1290.3,301.8 1290.3,2697.6 2648.1,2697.6 2648.1,301.8 1290.3,301.8 
					"/>
	</g>
	<path fill="#254553" d="M2743.2,304.1v-66.8c0,0,0-237.3-296.1-237.3h-956.8c0,0-296.1-22.3-296.1,237.3v66.8H2743.2L2743.2,304.1z
		 M1194.1,2699.7v201.9c0,0,0,178.5,296.1,178.5h956.8c0,0,296.1,13.5,296.1-245.7v-134.7H1194.1L1194.1,2699.7z"/>
	<polygon fill="#EDEDED" points="1844.3,138.9 1844.3,182.3 2189.9,182.3 2189.9,138.9 1844.3,138.9 	"/>
	<polygon fill="#EDEDED" points="1749,138.9 1749,182.3 1806.7,182.3 1806.7,138.9 1749,138.9 	"/>
	<path fill="#6DCAF3" d="M3553.7,1097.3V847.6c0,0,0-171.1-154-171.1h-831.8h-10.3h-325.1l171.4,158.1c-0.2,4.2-0.3,8.5-0.3,13
		v249.7c0,0,0,171.1,154,171.1h842.1C3399.7,1268.4,3553.7,1268.4,3553.7,1097.3L3553.7,1097.3z"/>
	<polygon fill="#FFFFFF" points="2547.9,842.5 2547.9,880.5 3411.2,880.5 3411.2,842.5 2547.9,842.5 	"/>
	<polygon fill="#FFFFFF" points="2547.9,953.4 2547.9,991.4 3411.2,991.4 3411.2,953.4 2547.9,953.4 	"/>
	<polygon fill="#FFFFFF" points="2547.9,1064.3 2547.9,1102.4 3158.3,1102.4 3158.3,1064.3 2547.9,1064.3 	"/>
	<path fill="#6DCAF3" d="M2575.3,2379.6v-116.2c0,0,0-79.6-71.7-79.6h-599.9h-4.8h-151.3l79.8,73.6c-0.1,2-0.2,4-0.2,6v116.2
		c0,0,0,79.7,71.7,79.7h604.7C2503.7,2459.2,2575.3,2459.2,2575.3,2379.6L2575.3,2379.6z"/>
	<polygon fill="#FFFFFF" points="1894.4,2261 1894.4,2278.7 2509,2278.7 2509,2261 1894.4,2261 	"/>
	<polygon fill="#FFFFFF" points="1894.4,2312.6 1894.4,2330.3 2509,2330.3 2509,2312.6 1894.4,2312.6 	"/>
	<polygon fill="#FFFFFF" points="1894.4,2364.2 1894.4,2381.9 2137.3,2381.9 2137.3,2364.2 1894.4,2364.2 	"/>
	<path fill="#E8BA9C" d="M1729.2,3086.4c0,0,600.3-476.1,301.2-717.6c-183.5-148.2-297.3,145.8-471.2,222.8
		c-280.2,123.9-365,214.6-365,214.6v-991.5c-43.7,12.3-238.1,105.4-312.9,213.5c-74.9,108.1-461.2,1174.7-484.5,1246.5
		c-11.1,34.3-160.6,378.8-200.3,428.3h1215.3C1508.1,3620.7,1662.3,3427.9,1729.2,3086.4L1729.2,3086.4z"/>
	<path fill="#EFCFB9" d="M1791.1,2623.2c0,0-129.9-76.6-70.1-156.9c0,0,132.8-195.7,246.3-94.7c14.1,12.6,111.6,78.1,36.1,185.9
		l-25.3,36.1c0,0-75.5,107.8-183.2,32.3L1791.1,2623.2L1791.1,2623.2z"/>
	<path fill="#EDEDED" d="M2400.7,1888.3c96.4,0,174.6-78.2,174.6-174.6c0-96.4-78.2-174.6-174.6-174.6
		c-96.4,0-174.6,78.2-174.6,174.6C2226.1,1810.1,2304.3,1888.3,2400.7,1888.3L2400.7,1888.3z"/>
	<path fill="#EAA182" d="M2469.5,1691.7c-7.9-3.2-10-16.2-4.8-29.1c5.2-12.9,15.8-20.8,23.7-17.6c7.9,3.2,10,16.2,4.8,29.1
		C2488,1687,2477.4,1694.8,2469.5,1691.7L2469.5,1691.7z"/>
	<path fill="#EAA182" d="M2332,1691.7c7.9-3.2,10-16.2,4.8-29.1c-5.2-12.9-15.8-20.8-23.7-17.6c-7.9,3.2-10,16.2-4.8,29.1
		C2313.5,1687,2324.1,1694.8,2332,1691.7L2332,1691.7z"/>
	<g>
		<defs>
			<polygon id="SVGID_3_" points="2439.6,1710.5 2429.9,1833.4 2371.6,1833.4 2361.8,1710.5 2439.6,1710.5 			"/>
		</defs>
		<use xlink:href="#SVGID_3_"  overflow="visible" fill="#FABF97"/>
		<clipPath id="SVGID_4_">
			<use xlink:href="#SVGID_3_"  overflow="visible"/>
		</clipPath>
		<path clip-path="url(#SVGID_4_)" fill="#EAA182" d="M2400.7,1792c-46.6,0-97.3-69.5-97.3-148.9c0-79.4-28.5-143.7,97.3-143.7
			c125.8,0,97.3,64.3,97.3,143.7C2498,1722.5,2447.3,1792,2400.7,1792L2400.7,1792z"/>
	</g>
	<path fill="#FABF97" d="M2400.7,1779.7c-14.9,0-55.8-19.4-71.1-40.1c-10.4-14.1-5.7-23.2-5.7-49c0-63.5-23.9-140.9,76.8-140.9
		c100.6,0,76.8,77.4,76.8,140.9c0,26.2,4.5,35-6.2,49.2C2456,1760,2415.7,1779.7,2400.7,1779.7L2400.7,1779.7z"/>
	<path fill="#284354" d="M2364.1,1659.3c8,0.6,15.6,6.3,16.3-1.1c0.8-8.5-7.1-14.1-15.1-14.9c-6.2-0.6-15,5.8-14.8,13.2
		C2350.9,1664.8,2356.1,1658.8,2364.1,1659.3L2364.1,1659.3z"/>
	<path fill="#284354" d="M2437.4,1659.3c-8,0.6-15.6,6.3-16.2-1.1c-0.8-8.5,7.1-14.1,15.1-14.9c6.2-0.6,15.1,5.8,14.8,13.2
		C2450.6,1664.8,2445.3,1658.8,2437.4,1659.3L2437.4,1659.3z"/>
	<g>
		<defs>
			<path id="SVGID_5_" d="M2365.2,1717c5.2,0,65.9,0,71,0c34.3,0,6.6,34.3-31.8,36.9c-0.9,0.1-3.4,0.2-3.7,0.2
				c-0.3,0-2.8-0.1-3.7-0.2C2358.7,1751.3,2330.9,1717,2365.2,1717L2365.2,1717z"/>
		</defs>
		<use xlink:href="#SVGID_5_"  overflow="visible" fill="#E26668"/>
		<clipPath id="SVGID_6_">
			<use xlink:href="#SVGID_5_"  overflow="visible"/>
		</clipPath>
		<path clip-path="url(#SVGID_6_)" fill="#FFFFFF" d="M2431.5,1705.6c0,0,8.3,0,8.3,8.3v4.1c0,0,0,8.3-8.3,8.3h-61.6
			c0,0-8.3,0-8.3-8.3v-4.1c0,0,0-8.3,8.3-8.3H2431.5L2431.5,1705.6z"/>
		<path clip-path="url(#SVGID_6_)" fill="#FC9493" d="M2365.2,1765.5c5.2,0,65.9,0,71,0c34.3,0,6.6-34.3-31.8-36.9
			c-0.9-0.1-3.4-0.2-3.7-0.2c-0.3,0-2.8,0.1-3.7,0.2C2358.7,1731.2,2330.9,1765.5,2365.2,1765.5L2365.2,1765.5z"/>
		<path clip-path="url(#SVGID_6_)" fill="#FFFFFF" d="M2423.2,1745.5c0,0,6,0,6,6v3c0,0,0,6-6,6h-44.9c0,0-6,0-6-6v-3c0,0,0-6,6-6
			H2423.2L2423.2,1745.5z"/>
	</g>
	<path fill="#416170" d="M2493.3,1549.2c-0.6-4.5-5.1-3.8-9.6-3.5c-14.1,0.9-17.5-3.8-46.2-20.8c-28.6-16.8-57.9-10.1-77.4,4.4
		c-89.7,20.7-37.2,142.5-37.2,142.5s-0.3-64.1,27.4-83.6c46.5,31.7,93.9,33.4,121,14.6c10.4,24.3,7,69,7,69s17.9-45.2,8.1-85.2
		C2492.5,1576.4,2495.1,1563.8,2493.3,1549.2L2493.3,1549.2z"/>
	<path fill="#688DA7" d="M2527.2,1890c-14.5-39-28.8-72.4-28.8-72.4s-0.3-0.6-1-0.8c-19.4-14-65-17.8-65-17.8l0,0l0,0l0,0
		c0,0-2,23.4-31.7,23.4c-29.7,0-31.8-23.4-31.8-23.4s-45.6,3.8-65,17.8c-0.6,0.2-0.8,0.7-0.8,0.7s-14.3,33.4-28.8,72.4
		c17.3,6.4,35.3,11.5,53.9,15.2l0,0c0,0,0.1,0,0.1,0c2.6,0.5,5.1,1,7.7,1.4c0.7,0.1,1.5,0.2,2.2,0.4c2.1,0.4,4.3,0.7,6.4,1
		c0.6,0.1,1.1,0.2,1.7,0.3c2.5,0.4,5,0.7,7.5,1c1,0.1,2,0.2,3,0.4c1.7,0.2,3.3,0.4,5,0.6c1.1,0.1,2.2,0.2,3.3,0.3
		c2.3,0.2,4.6,0.4,6.9,0.6l0,0c9.5,0.7,19.1,1.1,28.8,1.1c9.7,0,19.3-0.4,28.7-1.1l0,0c2.3-0.2,4.7-0.4,7-0.6
		c1.1-0.1,2.2-0.2,3.3-0.3c1.7-0.2,3.3-0.4,5-0.6c1-0.1,2-0.2,2.9-0.4c2.5-0.3,5-0.7,7.5-1c0.6-0.1,1.1-0.2,1.6-0.3
		c2.2-0.3,4.3-0.7,6.5-1c0.7-0.1,1.4-0.2,2.1-0.4c21.4-3.8,42-9.4,61.6-16.6C2527.1,1890.1,2527.2,1890.1,2527.2,1890L2527.2,1890z"
		/>
	<path fill="#B2CE5B" d="M1373.3,1961.6v-306c0,0,0-79.6,71.7-79.6h599.9h4.8H2201l-79.8,73.6c0.1,2,0.2,4,0.2,6v306
		c0,0,0,79.6-71.7,79.6h-604.7C1444.9,2041.2,1373.3,2041.2,1373.3,1961.6L1373.3,1961.6z"/>
	<polygon fill="#FFFFFF" points="1442.3,1653.9 1442.3,1671.6 2056.8,1671.6 2056.8,1653.9 1442.3,1653.9 	"/>
	<polygon fill="#FFFFFF" points="1442.3,1825.1 1442.3,1842.8 2056.8,1842.8 2056.8,1825.1 1442.3,1825.1 	"/>
	<polygon fill="#FFFFFF" points="1442.3,1768 1442.3,1785.7 2056.8,1785.7 2056.8,1768 1442.3,1768 	"/>
	<polygon fill="#FFFFFF" points="1442.3,1882.1 1442.3,1899.8 2056.8,1899.8 2056.8,1882.1 1442.3,1882.1 	"/>
	<polygon fill="#FFFFFF" points="1442.3,1939.2 1442.3,1956.9 1944.6,1956.9 1944.6,1939.2 1442.3,1939.2 	"/>
	<polygon fill="#FFFFFF" points="1442.3,1711 1442.3,1728.7 2056.8,1728.7 2056.8,1711 1442.3,1711 	"/>
	<path fill="#EDEDED" d="M1798.3,1357.8c236.9,0,429-192,429-428.9c0-236.9-192.1-429-429-429c-236.9,0-428.9,192-428.9,429
		C1369.4,1165.8,1561.4,1357.8,1798.3,1357.8L1798.3,1357.8z"/>
	<path fill="#416170" d="M1652.1,661.4c0,0-98.9,0-98.9,98.9v205.7c0,0,0,98.9,98.9,98.9h292.5c0,0,98.9,0,98.9-98.9V760.4
		c0,0,0-98.9-98.9-98.9H1652.1L1652.1,661.4z"/>
	<path fill="#FCD9C1" d="M2110.7,1382.7c-18.2-78.8-42.9-137-76.5-147.9c-99.6-32.2-211.5-39.6-187.7-110.2
		c15-44.6-107.1-44.6-92.1,0c23.8,70.6-75.9,78-175.4,110.2c-43.2,14-72.8,71.1-93,147.4c96.7,34.9,202.3,54.1,313,54.1
		C1909.1,1436.4,2014.4,1417.3,2110.7,1382.7L2110.7,1382.7z"/>
	<path fill="#F4C8B3" d="M1647,884.1c18.7-7.6,23.8-38.5,11.4-69.1c-12.4-30.6-37.6-49.3-56.3-41.8c-18.7,7.6-23.8,38.5-11.4,69.1
		C1603.1,873,1628.3,891.7,1647,884.1L1647,884.1z"/>
	<path fill="#F4C8B3" d="M1949.6,884.1c-18.7-7.6-23.8-38.5-11.4-69.1c12.4-30.6,37.5-49.3,56.2-41.8c18.7,7.6,23.8,38.5,11.4,69.1
		C1993.5,873,1968.3,891.7,1949.6,884.1L1949.6,884.1z"/>
	<g>
		<defs>
			<polygon id="SVGID_7_" points="1725.1,965.3 1743.6,1232.9 1854.3,1232.9 1872.8,965.3 1725.1,965.3 			"/>
		</defs>
		<use xlink:href="#SVGID_7_"  overflow="visible" fill="#FCD9C1"/>
		<clipPath id="SVGID_8_">
			<use xlink:href="#SVGID_7_"  overflow="visible"/>
		</clipPath>
		<path clip-path="url(#SVGID_8_)" fill="#F4C8B3" d="M1798.9,1121.5c88.3,0,184.5-122.1,184.5-272.7
			c0-150.6,54.1-272.7-184.5-272.7c-238.7,0-184.6,122.1-184.6,272.7C1614.4,999.4,1710.6,1121.5,1798.9,1121.5L1798.9,1121.5z"/>
	</g>
	<path fill="#FCD9C1" d="M1798.9,1092.9c88.3,0,184.5-122.1,184.5-272.7c0-150.6,54.1-272.7-184.5-272.7
		c-238.7,0-184.6,122.1-184.6,272.7C1614.4,970.8,1710.6,1092.9,1798.9,1092.9L1798.9,1092.9z"/>
	<path fill="#FC9493" d="M2110.7,1382.7c-18.2-78.8-42.9-137-76.5-147.9c-38.1-12.3-77.9-21-111.3-30.9
		c-25.4,32.3-71.7,53.9-124.6,53.9c-51.2,0-96.1-20.2-122-50.8c-29.2,8.7-63.2,16.8-97.3,27.8c-43.2,14-72.8,71.1-93,147.4
		c96.7,34.9,202.3,54.1,313,54.1C1909.1,1436.4,2014.4,1417.3,2110.7,1382.7L2110.7,1382.7z"/>
	<path fill="#416170" d="M2043.5,737.3c0-244.9-148.6-315.9-243.3-315.9s-247.1,71-247.1,315.9c0,113.8,22.3,84.1,22.3,84.1
		l185.5-65l37.4-154.8l37.4,154.8l185.5,65C2021.3,821.5,2043.5,851.1,2043.5,737.3L2043.5,737.3z"/>
	<path fill="#FC9493" d="M1873.2,981.7c-2.5-3.5-12.8,11.9-50-3.5c-10.3-4.3-21.9,6.7-25,9.8c-3-3.1-14.7-14.1-25-9.8
		c-37.1,15.4-47.5,0-50,3.5c-0.9,1.3,29.3,42.9,74.9,42.9C1844,1024.6,1874.1,983,1873.2,981.7L1873.2,981.7z"/>
	<path fill="#284354" d="M1888.8,817.1c-19.6,1.4-38.1,15.3-39.8-2.7c-1.9-20.9,17.4-34.6,37-36.6c15.2-1.6,36.9,14.3,36.2,32.4
		C1921.3,830.5,1908.3,815.8,1888.8,817.1L1888.8,817.1z"/>
	<path fill="#284354" d="M1707.9,817.1c19.6,1.4,38.2,15.3,39.8-2.7c1.9-20.9-17.4-34.6-37-36.6c-15.2-1.6-36.9,14.3-36.2,32.4
		C1675.4,830.5,1688.3,815.8,1707.9,817.1L1707.9,817.1z"/>
	<path fill="#EDEDED" d="M1539.6,2480.2c91.8,0,166.3-74.4,166.3-166.3c0-91.8-74.4-166.3-166.3-166.3
		c-91.8,0-166.3,74.4-166.3,166.3C1373.3,2405.8,1447.7,2480.2,1539.6,2480.2L1539.6,2480.2z"/>
	<path fill="#416170" d="M1482.9,2210.3c0,0-38.4,0-38.4,38.4v79.8c0,0,0,38.4,38.4,38.4h113.4c0,0,38.4,0,38.4-38.4v-79.8
		c0,0,0-38.4-38.4-38.4H1482.9L1482.9,2210.3z"/>
	<path fill="#FCD9C1" d="M1660.7,2489.9c-7.1-30.6-16.7-53.1-29.6-57.3c-38.6-12.5-82-15.3-72.8-42.7c5.8-17.3-41.5-17.3-35.7,0
		c9.2,27.4-29.4,30.3-68,42.7c-16.8,5.4-28.2,27.6-36.1,57.2c37.5,13.5,78.4,21,121.3,21C1582.5,2510.7,1623.3,2503.3,1660.7,2489.9
		L1660.7,2489.9z"/>
	<path fill="#F4C8B3" d="M1480.9,2296.6c7.3-2.9,9.2-14.9,4.4-26.8c-4.8-11.9-14.6-19.1-21.8-16.2c-7.2,2.9-9.2,14.9-4.4,26.8
		C1463.9,2292.3,1473.6,2299.5,1480.9,2296.6L1480.9,2296.6z"/>
	<path fill="#F4C8B3" d="M1598.2,2296.6c-7.3-2.9-9.2-14.9-4.4-26.8c4.8-11.9,14.6-19.1,21.8-16.2c7.2,2.9,9.2,14.9,4.4,26.8
		C1615.2,2292.3,1605.5,2299.5,1598.2,2296.6L1598.2,2296.6z"/>
	<g>
		<defs>
			<polygon id="SVGID_9_" points="1511.2,2328.1 1518.3,2431.8 1561.3,2431.8 1568.4,2328.1 1511.2,2328.1 			"/>
		</defs>
		<use xlink:href="#SVGID_9_"  overflow="visible" fill="#FCD9C1"/>
		<clipPath id="SVGID_10_">
			<use xlink:href="#SVGID_9_"  overflow="visible"/>
		</clipPath>
		<path clip-path="url(#SVGID_10_)" fill="#F4C8B3" d="M1539.8,2388.6c34.2,0,71.5-47.3,71.5-105.7c0-58.4,21-105.7-71.5-105.7
			c-92.5,0-71.5,47.3-71.5,105.7C1468.3,2341.3,1505.6,2388.6,1539.8,2388.6L1539.8,2388.6z"/>
	</g>
	<path fill="#FCD9C1" d="M1539.8,2377.5c34.2,0,71.5-47.3,71.5-105.7c0-58.4,21-105.7-71.5-105.7c-92.5,0-71.5,47.3-71.5,105.7
		C1468.3,2330.2,1505.6,2377.5,1539.8,2377.5L1539.8,2377.5z"/>
	<path fill="#FC9493" d="M1660.7,2489.9c-7-30.6-16.6-53.1-29.6-57.3c-14.8-4.8-30.2-8.1-43.2-12c-9.8,12.5-27.8,20.9-48.3,20.9
		c-19.8,0-37.3-7.8-47.3-19.7c-11.3,3.4-24.5,6.5-37.7,10.8c-16.8,5.4-28.2,27.6-36.1,57.2c37.5,13.5,78.4,21,121.3,21
		C1582.5,2510.7,1623.3,2503.3,1660.7,2489.9L1660.7,2489.9z"/>
	<path fill="#416170" d="M1634.6,2239.7c0-94.9-57.6-122.5-94.3-122.5s-95.8,27.5-95.8,122.5c0,44.1,8.6,32.6,8.6,32.6l71.9-25.2
		l14.5-60l14.5,60l71.9,25.2C1626,2272.3,1634.6,2283.8,1634.6,2239.7L1634.6,2239.7z"/>
	<path fill="#FC9493" d="M1568.6,2334.4c-0.9-1.4-5,4.6-19.4-1.4c-4-1.6-8.5,2.6-9.7,3.8c-1.2-1.2-5.7-5.5-9.7-3.8
		c-14.4,6-18.4,0-19.4,1.4c-0.3,0.5,11.3,16.6,29,16.6C1557.3,2351.1,1568.9,2334.9,1568.6,2334.4L1568.6,2334.4z"/>
	<path fill="#284354" d="M1574.6,2270.6c-7.6,0.5-14.8,5.9-15.4-1.1c-0.8-8.1,6.8-13.4,14.3-14.2c5.9-0.6,14.3,5.5,14,12.6
		C1587.2,2275.8,1582.2,2270.1,1574.6,2270.6L1574.6,2270.6z"/>
	<path fill="#284354" d="M1504.5,2270.6c7.6,0.5,14.8,5.9,15.4-1.1c0.8-8.1-6.8-13.4-14.3-14.2c-5.9-0.6-14.3,5.5-14,12.6
		C1491.9,2275.8,1496.9,2270.1,1504.5,2270.6L1504.5,2270.6z"/>
</g>
</svg>
