<?xml version="1.0" encoding="utf-8"?>
<!-- Generator: Adobe Illustrator 18.1.1, SVG Export Plug-In . SVG Version: 6.00 Build 0)  -->
<svg version="1.1" id="Layer_6" xmlns="http://www.w3.org/2000/svg" xmlns:xlink="http://www.w3.org/1999/xlink" x="0px" y="0px"
	 viewBox="0 0 788.4 499.5" enable-background="new 0 0 788.4 499.5" xml:space="preserve">
<g>
	<path fill="#1CA69F" d="M554.9,204.2h122.5c61.1,0,111,49.8,111,110.8v7.4c0,61.1-49.9,111.2-111,111.2h-39.6l24.9,65.8l-94.7-65.8
		h-13c-61.1,0-111-50.2-111-111.2v-7.4C444,254,493.9,204.2,554.9,204.2z"/>
	<g>
		<g>
			<g>
				<path fill="#F4BB2D" d="M410.2,306.9c0-17.3,3.4-34.1,10.1-49.9c6.5-15.3,15.8-29,27.6-40.7c11.8-11.8,25.5-21,40.8-27.5
					c14.6-6.2,30.1-9.6,46-10V172c0-94.8-77.5-172-172.3-172H172.3C77.5,0,0,77.2,0,172v11.5C0,278.4,77.5,356,172.3,356h61.5
					l-38.6,102.1l147-102.1h20.1c18.2,0,35.8-2.9,52.3-8.2c-3-10.9-4.4-22.1-4.4-33.5V306.9z"/>
			</g>
		</g>
	</g>
	<circle fill="#2F4358" cx="133.3" cy="171" r="34.2"/>
	<circle fill="#2F4358" cx="253.7" cy="171" r="34.2"/>
	<circle fill="#2F4358" cx="374.1" cy="171" r="34.2"/>
</g>
</svg>
