<?xml version="1.0" encoding="utf-8"?>
<!-- Generator: Adobe Illustrator 17.1.0, SVG Export Plug-In . SVG Version: 6.00 Build 0)  -->
<!DOCTYPE svg PUBLIC "-//W3C//DTD SVG 1.1//EN" "http://www.w3.org/Graphics/SVG/1.1/DTD/svg11.dtd">
<svg version="1.1" id="Calque_1" xmlns="http://www.w3.org/2000/svg" xmlns:xlink="http://www.w3.org/1999/xlink" x="0px" y="0px"
	 viewBox="0 0 1250 591" enable-background="new 0 0 1250 591" xml:space="preserve">
<g>
	<g>
		<path fill="#333333" d="M695.5,490.1c0-3.2-2.6-5.8-5.8-5.8c-1.8,0-3.4,0.8-4.4,2.1l-1.1,0.1l0,0l-22.6,2.4l-6.4-3.9l-2.8-1.7
			c-0.3-0.2-0.5-0.3-0.8-0.4c-0.1,0-0.1-0.1-0.2-0.1c-0.6-0.3-3.6-1.5-5.6-2.3c0.1,0,0.2-0.1,0.2-0.1c0.5-0.2,1.1-0.5,1.6-0.8
			c0.1-0.1,0.2-0.1,0.4-0.2c0.5-0.3,1.1-0.6,1.6-0.9c0.1-0.1,0.2-0.1,0.3-0.2c0.6-0.3,1.1-0.6,1.6-1c0.1-0.1,0.2-0.1,0.2-0.2
			c0.6-0.4,1.1-0.7,1.6-1.1c0.1,0,0.1-0.1,0.2-0.1c0.6-0.4,1.1-0.8,1.6-1.2c0,0,0.1-0.1,0.1-0.1c0.5-0.4,1.1-0.9,1.6-1.3
			c0,0,0,0,0.1-0.1c0.5-0.5,1.1-1,1.6-1.4c0,0,0,0,0,0c0.5-0.5,1-1,1.5-1.6c0,0,0,0,0,0h0c1.4-1.4,2.6-3,3.8-4.6v0l0,0
			c1.3-1.8,2.5-3.7,3.5-5.7c0-0.1,0.1-0.1,0.1-0.2c0.8-1.7,1.6-3.4,2.2-5.1c3.7-0.9,6.5-4.3,6.5-8.3c0-3-1.6-5.7-3.9-7.2
			c0-0.7,0-1.3-0.1-2c0.1,0,0.2,0,0.4-0.1c3.7-0.9,6-4.7,5.1-8.5c-0.3-1-0.7-1.9-1.3-2.7c0.8-1.7,0.9-3.8,0.1-5.6
			c-0.5-1.2-1.3-2.1-2.2-2.8c0.3-1.6,0-3.3-1-4.8c-0.7-1.1-1.6-1.9-2.7-2.5c0-1.7-0.5-3.3-1.7-4.7c-1.2-1.3-2.8-2.1-4.4-2.3
			c0-2.1-1-4.2-2.8-5.6c-1.9-1.4-4.4-1.7-6.5-1c0.2-2.9-1.4-5.7-4.1-6.9c-2.3-1-4.9-0.6-6.8,0.7c-0.9-2.4-3-4.3-5.7-4.6
			c-2-0.3-4,0.4-5.4,1.6c-1.4-1.9-3.8-3-6.3-2.8c-2,0.2-3.7,1.3-4.8,2.8c-1.8-1.5-4.3-2-6.7-1.2c-2.5,0.9-4.2,3-4.6,5.5
			c-2.4-1.8-5.7-2.1-8.3-0.3c-2.2,1.5-3.2,4.1-2.9,6.6c-2.8-1.2-6.1-0.5-8.1,1.9c-1.6,1.9-2,4.4-1.2,6.7c-2.8-0.2-5.6,1.3-6.8,4.1
			c-0.7,1.6-0.8,3.4-0.3,5c-2.4,0.8-4.2,2.8-4.7,5.5c-0.3,1.8,0.1,3.6,1,5c-1.1,1.2-1.9,2.9-1.9,4.7c0,3.4,2.4,6.2,5.6,6.9
			c0,0.4,0,0.8,0,1.2c-2.3,1.5-3.9,4.2-3.9,7.2c0,4,2.8,7.4,6.5,8.3c0.6,1.8,1.4,3.5,2.2,5.1c0,0.1,0.1,0.1,0.1,0.2
			c1,2,2.2,3.9,3.5,5.7c0,0,0,0,0,0v0c1.2,1.6,2.4,3.1,3.8,4.6h0c0,0,0,0,0,0c0.5,0.5,1,1.1,1.5,1.6c0,0,0,0,0,0
			c0.5,0.5,1.1,1,1.6,1.5c0,0,0,0,0.1,0.1c0.5,0.5,1.1,0.9,1.6,1.3c0,0,0.1,0.1,0.1,0.1c0.5,0.4,1.1,0.8,1.6,1.2
			c0.1,0,0.1,0.1,0.2,0.1c0.5,0.4,1.1,0.7,1.6,1.1c0.1,0,0.2,0.1,0.2,0.1c0.5,0.3,1.1,0.7,1.6,1c0.1,0.1,0.2,0.1,0.3,0.2
			c0.5,0.3,1.1,0.6,1.6,0.9c0.1,0.1,0.2,0.1,0.4,0.2c0.5,0.3,1.1,0.5,1.6,0.8c0.1,0,0.1,0.1,0.2,0.1c-2,0.8-5.1,2-5.7,2.3
			c-0.3,0.1-0.5,0.3-0.6,0.5c-0.8,0.6-1.4,1.4-1.7,2.4l-10.9,34.9l0,0l-1.4,4.6c-0.1,0.2-0.1,0.4-0.1,0.6c-0.3,0.7-0.6,1.6-0.6,2.4
			c0,3.2,2.6,5.8,5.8,5.8c3.2,0,5.8-2.6,5.8-5.8c0-1.2-0.4-2.4-1-3.3l5.5-17.6l2.1,26.3h2.2v2.3v4.5v4v31.3c-0.3,0-0.5,0-0.6,0
			c0.1,0-1.6,2.1-1.9,2.3c-1.2,0.9-2.5,1.5-3.8,2.2c-2.1,1.1-5.3,3.6-5,6.7c0.2,2.4,2.1,2.1,3.7,2.2c3.3,0.3,6.5,0.3,9.8,0l3.6-1.2
			c1.7,0.3,3.4,0.5,5.1,0.7c3.8,0.3,2.8-5.7,2.8-8.6l0-4.2c0,0-0.4,0-1,0v-31.3h13.9l3.8,4.6c0.1,0.2,0.3,0.3,0.4,0.4l-3.8,21.8
			c-1.1-0.2-1.8-0.3-1.8-0.3l-0.8,4.1c-0.6,2.8-2.7,8.6,1.2,9c1.7,0.2,3.4,0.2,5.1,0.3l3.3,1.8c3.2,1,6.3,1.5,9.7,1.8
			c1.7,0.2,3.4,0.8,4.1-1.5c0.9-3-1.9-6-3.7-7.5c-1.1-0.9-2.3-1.7-3.3-2.8c-0.2-0.3-1.5-2.6-1.4-2.6c0,0-0.4-0.1-0.9-0.2l4.8-27.2
			c0.1-0.5,0.1-1,0.1-1.4c0.1-1.7-0.4-3.5-1.6-4.9l-4.3-5.2v-1h2.2l3.1-38.9l6.2,3.7c0.2,0.1,0.4,0.2,0.6,0.3c0.6,0.3,1.3,0.4,2,0.4
			c0.2,0,0.4,0,0.5,0l28-3c0.4,0,0.8-0.1,1.1-0.3C693.1,495.7,695.5,493.2,695.5,490.1z"/>
		<g>
			
				<rect x="677.2" y="470.4" transform="matrix(0.9441 0.3298 -0.3298 0.9441 211.3061 -194.3111)" fill="#E05B5A" width="2.5" height="110.5"/>
			<path fill="#E05B5A" d="M663.7,576.8l-0.6-1.9c-0.1-0.2-0.2-0.3-0.3-0.3l-2-0.7c-0.1,0-0.3,0-0.4,0.1l-1.7,1.1
				c-5.9-1.8-16.1-3.8-17.4,0c-0.1,0.4,0,0.8,0.3,0.9l35.1,12.3c0.3,0.1,0.6-0.1,0.8-0.5C678.7,583.9,669.5,579.1,663.7,576.8z"/>
			<g>
				<g>
					<g>
						
							<ellipse transform="matrix(0.6373 -0.7706 0.7706 0.6373 -108.0879 699.3628)" fill="#676767" cx="688.9" cy="464.5" rx="4.7" ry="4.9"/>
						<g>
							<g>
								<g>
									
										<rect x="691.3" y="463.5" transform="matrix(-0.6374 0.7705 -0.7705 -0.6374 1489.798 226.4596)" fill="#8D8E8E" width="0.6" height="0.6"/>
								</g>
								<g>
									
										<rect x="689.4" y="465.8" transform="matrix(-0.7706 -0.6373 0.6373 -0.7706 924.0287 1264.8453)" fill="#8D8E8E" width="0.6" height="0.6"/>
								</g>
								<g>
									
										<rect x="684.6" y="462.9" transform="matrix(0.77 0.638 -0.638 0.77 452.9695 -330.4379)" fill="#8D8E8E" width="0.6" height="0.6"/>
								</g>
								<g>
									
										<rect x="691.1" y="461.3" transform="matrix(-0.6376 0.7704 -0.7704 -0.6376 1487.7437 223.2282)" fill="#8D8E8E" width="0.6" height="0.6"/>
								</g>
								<g>
									
										<rect x="690" y="466.3" transform="matrix(0.6377 -0.7703 0.7703 0.6377 -109.3544 700.7365)" fill="#8D8E8E" width="0.6" height="0.6"/>
								</g>
								<g>
									
										<rect x="688.9" y="466.4" transform="matrix(-0.7704 -0.6376 0.6376 -0.7704 922.5548 1265.6482)" fill="#8D8E8E" width="0.6" height="0.6"/>
								</g>
								<g>
									<path fill="#8D8E8E" d="M690.5,468.4l-0.4,0.4l0.3,0.3c0.1,0,0.2-0.1,0.3-0.1l0.2-0.2L690.5,468.4z"/>
								</g>
								<g>
									
										<rect x="691.6" y="465.7" transform="matrix(-0.7706 -0.6373 0.6373 -0.7706 928.058 1265.9529)" fill="#8D8E8E" width="0.6" height="0.6"/>
								</g>
								<g>
									<path fill="#8D8E8E" d="M693.4,464.9l-0.4,0.4l0.5,0.4l0.2-0.2c0-0.1,0-0.2,0-0.3L693.4,464.9z"/>
								</g>
								<g>
									
										<rect x="689.6" y="463" transform="matrix(-0.6372 0.7707 -0.7707 -0.6372 1486.5804 226.8251)" fill="#8D8E8E" width="0.6" height="0.6"/>
								</g>
								<g>
									
										<rect x="690.2" y="463.5" transform="matrix(-0.6376 0.7703 -0.7703 -0.6376 1488.1224 227.6711)" fill="#8D8E8E" width="0.6" height="0.6"/>
								</g>
								<g>
									
										<rect x="689" y="462.5" transform="matrix(-0.6373 0.7706 -0.7706 -0.6373 1485.229 226.62)" fill="#8D8E8E" width="0.6" height="0.6"/>
								</g>
								<g>
									
										<rect x="690.6" y="466.8" transform="matrix(-0.7705 -0.6374 0.6374 -0.7705 925.5044 1267.4434)" fill="#8D8E8E" width="0.6" height="0.6"/>
								</g>
								<g>
									
										<rect x="689.9" y="465.2" transform="matrix(-0.7709 -0.6369 0.6369 -0.7709 925.7244 1263.9775)" fill="#8D8E8E" width="0.6" height="0.6"/>
								</g>
								<g>
									
										<rect x="688.4" y="462" transform="matrix(-0.6367 0.7711 -0.7711 -0.6367 1483.6477 225.6428)" fill="#8D8E8E" width="0.6" height="0.6"/>
								</g>
								<g>
									
										<rect x="690.8" y="464" transform="matrix(-0.6366 0.7712 -0.7712 -0.6366 1489.2028 226.9602)" fill="#8D8E8E" width="0.6" height="0.6"/>
								</g>
								<g>
									
										<rect x="690.3" y="464.6" transform="matrix(-0.7711 -0.6368 0.6368 -0.7711 927.1124 1263.1989)" fill="#8D8E8E" width="0.6" height="0.6"/>
								</g>
								<g>
									<path fill="#8D8E8E" d="M684.1,464.1c0,0.1,0,0.3,0,0.4l0.2-0.3L684.1,464.1z"/>
								</g>
								<g>
									
										<rect x="691.1" y="466.3" transform="matrix(-0.7705 -0.6374 0.6374 -0.7705 926.7114 1266.7189)" fill="#8D8E8E" width="0.6" height="0.6"/>
								</g>
								<g>
									
										<rect x="691.7" y="461.8" transform="matrix(-0.6371 0.7708 -0.7708 -0.6371 1488.9994 223.114)" fill="#8D8E8E" width="0.6" height="0.6"/>
								</g>
								<g>
									
										<rect x="687.4" y="463.2" transform="matrix(0.7705 0.6374 -0.6374 0.7705 453.2267 -331.9781)" fill="#8D8E8E" width="0.6" height="0.6"/>
								</g>
								<g>
									
										<rect x="686" y="461.1" transform="matrix(0.7707 0.6373 -0.6373 0.7707 451.4222 -331.557)" fill="#8D8E8E" width="0.6" height="0.6"/>
								</g>
								<g>
									
										<rect x="689.9" y="460.2" transform="matrix(-0.6378 0.7702 -0.7702 -0.6378 1485.0155 222.7323)" fill="#8D8E8E" width="0.6" height="0.6"/>
								</g>
								<g>
									
										<rect x="685.6" y="461.7" transform="matrix(0.7705 0.6375 -0.6375 0.7705 451.9032 -331.1742)" fill="#8D8E8E" width="0.6" height="0.6"/>
								</g>
								<g>
									
										<rect x="687.9" y="462.6" transform="matrix(0.7707 0.6371 -0.6371 0.7707 452.7083 -332.3501)" fill="#8D8E8E" width="0.6" height="0.6"/>
								</g>
								<g>
									
										<rect x="686.9" y="463.8" transform="matrix(0.7703 0.6377 -0.6377 0.7703 453.7793 -331.6163)" fill="#8D8E8E" width="0.6" height="0.6"/>
								</g>
								<g>
									<path fill="#8D8E8E" d="M689.1,460.1l0.5,0.4l0.4-0.4l-0.2-0.1c-0.1,0-0.3-0.1-0.4-0.1L689.1,460.1z"/>
								</g>
								<g>
									<path fill="#8D8E8E" d="M693.7,463.8c0-0.1-0.1-0.3-0.1-0.4l-0.1,0.2L693.7,463.8z"/>
								</g>
								<g>
									
										<rect x="691" y="465.2" transform="matrix(-0.7713 -0.6364 0.6364 -0.7713 928.2369 1264.3835)" fill="#8D8E8E" width="0.6" height="0.6"/>
								</g>
								<g>
									
										<rect x="686.5" y="460.5" transform="matrix(0.7708 0.6371 -0.6371 0.7708 450.9602 -331.9449)" fill="#8D8E8E" width="0.6" height="0.6"/>
								</g>
								<g>
									<path fill="#8D8E8E" d="M692.8,463.1l0.5,0.4l0.2-0.3c0-0.1-0.1-0.3-0.2-0.4l-0.2-0.1L692.8,463.1z"/>
								</g>
								<g>
									
										<rect x="685.1" y="462.3" transform="matrix(0.7712 0.6366 -0.6366 0.7712 451.3058 -330.4738)" fill="#8D8E8E" width="0.6" height="0.6"/>
								</g>
								<g>
									
										<rect x="691.9" y="464" transform="matrix(-0.6374 0.7705 -0.7705 -0.6374 1491.189 226.7989)" fill="#8D8E8E" width="0.6" height="0.6"/>
								</g>
								<g>
									
										<rect x="688.3" y="465.9" transform="matrix(0.6375 -0.7704 0.7704 0.6375 -109.5889 699.4634)" fill="#8D8E8E" width="0.6" height="0.6"/>
								</g>
								<g>
									
										<rect x="687.7" y="465.4" transform="matrix(0.6368 -0.771 0.771 0.6368 -109.2112 699.5201)" fill="#8D8E8E" width="0.6" height="0.6"/>
								</g>
								<g>
									
										<rect x="686.4" y="464.4" transform="matrix(0.6372 -0.7707 0.7707 0.6372 -108.9893 697.8105)" fill="#8D8E8E" width="0.6" height="0.6"/>
								</g>
								<g>
									
										<rect x="691.4" y="464.6" transform="matrix(-0.7705 -0.6375 0.6375 -0.7705 928.3546 1263.9813)" fill="#8D8E8E" width="0.6" height="0.6"/>
								</g>
								<g>
									
										<rect x="692.3" y="462.3" transform="matrix(-0.6382 0.7699 -0.7699 -0.6382 1490.7343 224.6022)" fill="#8D8E8E" width="0.6" height="0.6"/>
								</g>
								<g>
									
										<rect x="687" y="464.9" transform="matrix(0.6371 -0.7708 0.7708 0.6371 -109.125 698.5813)" fill="#8D8E8E" width="0.6" height="0.6"/>
								</g>
								<g>
									
										<rect x="685.9" y="465" transform="matrix(0.6366 -0.7712 0.7712 0.6366 -109.4418 698.2625)" fill="#8D8E8E" width="0.6" height="0.6"/>
								</g>
								<g>
									
										<rect x="692.2" y="466.2" transform="matrix(-0.7706 -0.6374 0.6374 -0.7706 928.7877 1267.2544)" fill="#8D8E8E" width="0.6" height="0.6"/>
								</g>
								<g>
									
										<rect x="687.2" y="466" transform="matrix(0.6368 -0.771 0.771 0.6368 -109.8381 699.3776)" fill="#8D8E8E" width="0.6" height="0.6"/>
								</g>
								<g>
									
										<rect x="692.7" y="465.6" transform="matrix(-0.7707 -0.6372 0.6372 -0.7707 930.1573 1266.4819)" fill="#8D8E8E" width="0.6" height="0.6"/>
								</g>
								<g>
									
										<rect x="686.6" y="465.5" transform="matrix(0.637 -0.7709 0.7709 0.637 -109.7185 698.5531)" fill="#8D8E8E" width="0.6" height="0.6"/>
								</g>
								<g>
									<path fill="#8D8E8E" d="M687.4,460.6l0.4-0.4l-0.3-0.3c-0.1,0-0.2,0.1-0.3,0.1l-0.2,0.2L687.4,460.6z"/>
								</g>
								<g>
									
										<rect x="690.7" y="467.9" transform="matrix(-0.7701 -0.6379 0.6379 -0.7701 924.4612 1269.6342)" fill="#8D8E8E" width="0.6" height="0.6"/>
								</g>
								<g>
									
										<rect x="691.2" y="467.4" transform="matrix(-0.7704 -0.6376 0.6376 -0.7704 926.0863 1268.7874)" fill="#8D8E8E" width="0.6" height="0.6"/>
								</g>
								<g>
									
										<rect x="685" y="466.1" transform="matrix(0.6374 -0.7706 0.7706 0.6374 -110.925 697.1917)" fill="#8D8E8E" width="0.6" height="0.6"/>
								</g>
								<g>
									<path fill="#8D8E8E" d="M685,465.9l-0.5-0.4l-0.2,0.3c0,0.1,0.1,0.3,0.2,0.4l0.2,0.1L685,465.9z"/>
								</g>
								<g>
									
										<rect x="691.7" y="466.8" transform="matrix(-0.7699 -0.6381 0.6381 -0.7699 926.7445 1268.224)" fill="#8D8E8E" width="0.6" height="0.6"/>
								</g>
								<g>
									
										<rect x="685.3" y="464.5" transform="matrix(0.637 -0.7709 0.7709 0.637 -109.3765 697.2518)" fill="#8D8E8E" width="0.6" height="0.6"/>
								</g>
								<g>
									
										<rect x="686.3" y="463.3" transform="matrix(0.7708 0.6371 -0.6371 0.7708 452.7571 -331.1774)" fill="#8D8E8E" width="0.6" height="0.6"/>
								</g>
								<g>
									
										<rect x="685.8" y="463.9" transform="matrix(0.7711 0.6367 -0.6367 0.7711 452.6218 -330.6135)" fill="#8D8E8E" width="0.6" height="0.6"/>
								</g>
								<g>
									<path fill="#8D8E8E" d="M693.8,464.9c0-0.1,0-0.3,0-0.4l-0.2,0.3L693.8,464.9z"/>
								</g>
								<g>
									
										<rect x="687.3" y="462.1" transform="matrix(-0.6376 0.7704 -0.7704 -0.6376 1482.1719 227.5245)" fill="#8D8E8E" width="0.6" height="0.6"/>
								</g>
								<g>
									
										<rect x="690.1" y="462.4" transform="matrix(-0.6372 0.7707 -0.7707 -0.6372 1486.9469 225.5562)" fill="#8D8E8E" width="0.6" height="0.6"/>
								</g>
								<g>
									
										<rect x="689.5" y="461.9" transform="matrix(-0.6379 0.7701 -0.7701 -0.6379 1485.7504 225.872)" fill="#8D8E8E" width="0.6" height="0.6"/>
								</g>
								<g>
									
										<rect x="688.9" y="461.4" transform="matrix(-0.6379 0.7701 -0.7701 -0.6379 1484.3531 225.5125)" fill="#8D8E8E" width="0.6" height="0.6"/>
								</g>
								<g>
									
										<rect x="687.8" y="461.5" transform="matrix(0.77 0.6381 -0.6381 0.77 452.9543 -332.8106)" fill="#8D8E8E" width="0.6" height="0.6"/>
								</g>
								<g>
									<path fill="#8D8E8E" d="M684.4,464.1l0.4-0.4l-0.5-0.4l-0.2,0.2c0,0.1,0,0.2,0,0.3L684.4,464.1z"/>
								</g>
								<g>
									
										<rect x="686.2" y="467.2" transform="matrix(0.6368 -0.771 0.771 0.6368 -111.094 699.0871)" fill="#8D8E8E" width="0.6" height="0.6"/>
								</g>
								<g>
									
										<rect x="688.3" y="460.9" transform="matrix(-0.6377 0.7703 -0.7703 -0.6377 1482.9001 224.9673)" fill="#8D8E8E" width="0.6" height="0.6"/>
								</g>
								<g>
									
										<rect x="686.8" y="467.7" transform="matrix(-0.7704 -0.6376 0.6376 -0.7704 918.0673 1266.5597)" fill="#8D8E8E" width="0.6" height="0.6"/>
								</g>
								<g>
									<path fill="#8D8E8E" d="M688.7,469l-0.5-0.4l-0.4,0.4l0.2,0.1c0.1,0,0.3,0.1,0.4,0.1L688.7,469z"/>
								</g>
								<g>
									
										<rect x="689" y="467.5" transform="matrix(-0.7708 -0.637 0.637 -0.7708 922.6332 1267.5117)" fill="#8D8E8E" width="0.6" height="0.6"/>
								</g>
								<g>
									
										<rect x="690.5" y="460.8" transform="matrix(0.7708 0.637 -0.637 0.7708 452.0061 -334.3785)" fill="#8D8E8E" width="0.6" height="0.6"/>
								</g>
								<g>
									<path fill="#8D8E8E" d="M684.2,465.2c0,0.1,0.1,0.3,0.1,0.4l0.1-0.2L684.2,465.2z"/>
								</g>
								<g>
									
										<rect x="689.5" y="466.9" transform="matrix(-0.7708 -0.6371 0.6371 -0.7708 923.8073 1266.7969)" fill="#8D8E8E" width="0.6" height="0.6"/>
								</g>
								<g>
									
										<rect x="686.8" y="462.7" transform="matrix(0.7715 0.6363 -0.6363 0.7715 451.5911 -331.3574)" fill="#8D8E8E" width="0.6" height="0.6"/>
								</g>
								<g>
									
										<rect x="690.7" y="462.9" transform="matrix(-0.6372 0.7707 -0.7707 -0.6372 1488.3226 225.8401)" fill="#8D8E8E" width="0.6" height="0.6"/>
								</g>
								<g>
									
										<rect x="688.4" y="467" transform="matrix(0.6373 -0.7706 0.7706 0.6373 -110.3344 700.1502)" fill="#8D8E8E" width="0.6" height="0.6"/>
								</g>
								<g>
									
										<rect x="686.7" y="461.6" transform="matrix(0.7714 0.6363 -0.6363 0.7714 450.9164 -331.5439)" fill="#8D8E8E" width="0.6" height="0.6"/>
								</g>
								<g>
									<path fill="#8D8E8E" d="M689.8,469.3c0.1,0,0.3,0,0.4-0.1L690,469L689.8,469.3z"/>
								</g>
								<g>
									
										<rect x="690.5" y="465.7" transform="matrix(-0.7708 -0.6371 0.6371 -0.7708 926.2891 1265.3276)" fill="#8D8E8E" width="0.6" height="0.6"/>
								</g>
								<g>
									
										<rect x="686.2" y="462.2" transform="matrix(0.7714 0.6364 -0.6364 0.7714 451.2318 -331.1136)" fill="#8D8E8E" width="0.6" height="0.6"/>
								</g>
								<g>
									<path fill="#8D8E8E" d="M689.1,459.8c-0.1,0-0.3,0-0.4,0l0.2,0.2L689.1,459.8z"/>
								</g>
								<g>
									
										<rect x="687.8" y="466.5" transform="matrix(0.6367 -0.7711 0.7711 0.6367 -109.9679 700.1691)" fill="#8D8E8E" width="0.6" height="0.6"/>
								</g>
								<g>
									
										<rect x="685.7" y="462.8" transform="matrix(0.77 0.638 -0.638 0.77 453.1776 -331.1625)" fill="#8D8E8E" width="0.6" height="0.6"/>
								</g>
								<g>
									
										<rect x="687.4" y="468.2" transform="matrix(0.6371 -0.7708 0.7708 0.6371 -111.5184 700.1036)" fill="#8D8E8E" width="0.6" height="0.6"/>
								</g>
								<g>
									<path fill="#8D8E8E" d="M688.7,469.3c0.1,0,0.3,0,0.4,0l-0.2-0.2L688.7,469.3z"/>
								</g>
								<g>
									
										<rect x="685.6" y="466.7" transform="matrix(0.6374 -0.7706 0.7706 0.6374 -111.0937 697.8489)" fill="#8D8E8E" width="0.6" height="0.6"/>
								</g>
								<g>
									
										<rect x="684.7" y="464" transform="matrix(0.7698 0.6382 -0.6382 0.7698 453.9573 -330.3404)" fill="#8D8E8E" width="0.6" height="0.6"/>
								</g>
								<g>
									
										<rect x="691.8" y="462.9" transform="matrix(-0.6365 0.7713 -0.7713 -0.6365 1489.8607 224.1752)" fill="#8D8E8E" width="0.6" height="0.6"/>
								</g>
								<g>
									
										<rect x="685.2" y="463.4" transform="matrix(0.7706 0.6373 -0.6373 0.7706 452.755 -330.514)" fill="#8D8E8E" width="0.6" height="0.6"/>
								</g>
								<g>
									
										<rect x="691.2" y="462.4" transform="matrix(-0.6373 0.7706 -0.7706 -0.6373 1488.7064 224.6294)" fill="#8D8E8E" width="0.6" height="0.6"/>
								</g>
								<g>
									<path fill="#8D8E8E" d="M691.2,468.8L691.2,468.8c0.2,0,0.4-0.1,0.6-0.3l-0.2-0.2L691.2,468.8z"/>
								</g>
								<g>
									<path fill="#8D8E8E" d="M693.4,464.6l0.3-0.4c0,0,0,0,0-0.1l-0.4-0.3l-0.4,0.4L693.4,464.6z"/>
								</g>
								<g>
									<path fill="#8D8E8E" d="M692.2,467.6l0.3,0.3c0.1-0.1,0.1-0.1,0.2-0.2c0.1-0.1,0.1-0.2,0.2-0.2l-0.3-0.3L692.2,467.6z"/>
								</g>
								<g>
									
										<rect x="692.4" y="463.4" transform="matrix(-0.6376 0.7704 -0.7704 -0.6376 1491.5851 225.6291)" fill="#8D8E8E" width="0.6" height="0.6"/>
								</g>
								<g>
									<path fill="#8D8E8E" d="M691.7,468.2l0.3,0.2c0.2-0.1,0.3-0.2,0.4-0.4l-0.3-0.3L691.7,468.2z"/>
								</g>
								<g>
									<path fill="#8D8E8E" d="M692.7,467l0.3,0.3c0.1-0.2,0.2-0.3,0.3-0.5l-0.3-0.2L692.7,467z"/>
								</g>
								<g>
									
										<rect x="687.2" y="461" transform="matrix(-0.6367 0.7711 -0.7711 -0.6367 1480.8474 224.9071)" fill="#8D8E8E" width="0.6" height="0.6"/>
								</g>
								<g>
									<path fill="#8D8E8E" d="M685.9,467.6l-0.2,0.3c0.1,0.1,0.1,0.1,0.2,0.2c0.1,0.1,0.2,0.1,0.2,0.2l0.2-0.3L685.9,467.6z"/>
								</g>
								<g>
									<path fill="#8D8E8E" d="M686.6,468.2l-0.2,0.2c0.2,0.1,0.3,0.2,0.5,0.3l0.1-0.2L686.6,468.2z"/>
								</g>
								<g>
									<path fill="#8D8E8E" d="M684.7,466.6c0.1,0.2,0.2,0.3,0.3,0.5l0.1-0.1L684.7,466.6z"/>
								</g>
								<g>
									<path fill="#8D8E8E" d="M685.3,467.1l-0.1,0.2c0.1,0.2,0.3,0.3,0.4,0.5l0.2-0.2L685.3,467.1z"/>
								</g>
								<g>
									
										<rect x="690.6" y="461.9" transform="matrix(0.7712 0.6365 -0.6365 0.7712 452.2097 -334.0496)" fill="#8D8E8E" width="0.6" height="0.6"/>
								</g>
								<g>
									
										<rect x="686.7" y="466.6" transform="matrix(-0.7706 -0.6373 0.6373 -0.7706 918.7965 1264.4612)" fill="#8D8E8E" width="0.6" height="0.6"/>
								</g>
								<g>
									
										<rect x="688.6" y="464.2" transform="matrix(-0.6374 0.7705 -0.7705 -0.6374 1485.9645 229.7578)" fill="#8D8E8E" width="0.6" height="0.6"/>
								</g>
								<g>
									
										<rect x="688" y="463.7" transform="matrix(0.7714 0.6364 -0.6364 0.7714 452.642 -331.9435)" fill="#8D8E8E" width="0.6" height="0.6"/>
								</g>
								<g>
									<path fill="#8D8E8E" d="M687.1,468.8c0.2,0.1,0.4,0.2,0.6,0.2l-0.4-0.4L687.1,468.8z"/>
								</g>
								<g>
									<path fill="#8D8E8E" d="M691.9,461.4l0.2-0.3c-0.1-0.1-0.1-0.1-0.2-0.2c-0.1-0.1-0.2-0.1-0.2-0.2l-0.2,0.3L691.9,461.4z"/>
								</g>
								<g>
									<path fill="#8D8E8E" d="M692.5,461.9l0.1-0.2c-0.1-0.2-0.3-0.3-0.4-0.4l-0.2,0.2L692.5,461.9z"/>
								</g>
								<g>
									<path fill="#8D8E8E" d="M689,468.9l0.4,0.3c0,0,0,0,0.1,0l0.3-0.4l-0.5-0.4L689,468.9z"/>
								</g>
								<g>
									
										<rect x="688.5" y="468.1" transform="matrix(0.637 -0.7709 0.7709 0.637 -111.0268 701.017)" fill="#8D8E8E" width="0.6" height="0.6"/>
								</g>
								<g>
									
										<rect x="690.1" y="467.4" transform="matrix(0.638 -0.77 0.77 0.638 -110.2326 700.9651)" fill="#8D8E8E" width="0.6" height="0.6"/>
								</g>
								<g>
									
										<rect x="689.6" y="468" transform="matrix(-0.7706 -0.6373 0.6373 -0.7706 923.0969 1268.8901)" fill="#8D8E8E" width="0.6" height="0.6"/>
								</g>
								<g>
									<path fill="#8D8E8E" d="M693.2,466.4l0.2,0.2c0.1-0.2,0.1-0.4,0.2-0.6l-0.1,0L693.2,466.4z"/>
								</g>
								<g>
									<path fill="#8D8E8E" d="M693.1,462.4c-0.1-0.2-0.2-0.3-0.3-0.5l-0.1,0.1L693.1,462.4z"/>
								</g>
								<g>
									<path fill="#8D8E8E" d="M691.3,460.9l0.2-0.2c-0.2-0.1-0.3-0.2-0.5-0.3l-0.1,0.2L691.3,460.9z"/>
								</g>
								<g>
									<path fill="#8D8E8E" d="M690.8,460.2c-0.2-0.1-0.4-0.2-0.6-0.2l0.4,0.4L690.8,460.2z"/>
								</g>
								<g>
									<path fill="#8D8E8E" d="M684.5,464.4l-0.3,0.4c0,0,0,0,0,0.1l0.4,0.3l0.4-0.4L684.5,464.4z"/>
								</g>
								<g>
									
										<rect x="692.1" y="465.1" transform="matrix(-0.7704 -0.6376 0.6376 -0.7704 929.0058 1265.306)" fill="#8D8E8E" width="0.6" height="0.6"/>
								</g>
								<g>
									
										<rect x="684.8" y="465" transform="matrix(0.6373 -0.7706 0.7706 0.6373 -110.1071 696.7546)" fill="#8D8E8E" width="0.6" height="0.6"/>
								</g>
								<g>
									
										<rect x="692.5" y="464.5" transform="matrix(-0.7713 -0.6364 0.6364 -0.7713 931.4476 1264.2145)" fill="#8D8E8E" width="0.6" height="0.6"/>
								</g>
								<g>
									
										<rect x="686.1" y="466.1" transform="matrix(0.637 -0.7709 0.7709 0.637 -110.3468 698.405)" fill="#8D8E8E" width="0.6" height="0.6"/>
								</g>
								<g>
									
										<rect x="685.5" y="465.6" transform="matrix(0.6377 -0.7703 0.7703 0.6377 -110.3912 697.015)" fill="#8D8E8E" width="0.6" height="0.6"/>
								</g>
								<g>
									
										<rect x="687.3" y="467.1" transform="matrix(0.6361 -0.7716 0.7716 0.6361 -110.4165 700.6359)" fill="#8D8E8E" width="0.6" height="0.6"/>
								</g>
								<g>
									
										<rect x="687.9" y="467.6" transform="matrix(0.6369 -0.771 0.771 0.6369 -110.8194 700.4922)" fill="#8D8E8E" width="0.6" height="0.6"/>
								</g>
								<g>
									
										<rect x="687.6" y="460.4" transform="matrix(0.7703 0.6377 -0.6377 0.7703 451.8475 -332.871)" fill="#8D8E8E" width="0.6" height="0.6"/>
								</g>
								<g>
									
										<rect x="688.7" y="460.3" transform="matrix(-0.638 0.77 -0.77 -0.638 1483.3401 223.9429)" fill="#8D8E8E" width="0.6" height="0.6"/>
								</g>
								<g>
									<path fill="#8D8E8E" d="M684.7,462.6l-0.2-0.2c-0.1,0.2-0.1,0.4-0.2,0.6l0.1,0L684.7,462.6z"/>
								</g>
								<g>
									<path fill="#8D8E8E" d="M685.2,462l-0.3-0.3c-0.1,0.2-0.2,0.3-0.3,0.5l0.3,0.2L685.2,462z"/>
								</g>
								<g>
									
										<rect x="689.7" y="464.1" transform="matrix(-0.6373 0.7706 -0.7706 -0.6373 1487.6613 228.6203)" fill="#8D8E8E" width="0.6" height="0.6"/>
								</g>
								<g>
									
										<rect x="689.4" y="460.8" transform="matrix(-0.637 0.7709 -0.7709 -0.637 1484.4253 223.2554)" fill="#8D8E8E" width="0.6" height="0.6"/>
								</g>
								<g>
									
										<rect x="688.8" y="465.3" transform="matrix(-0.7704 -0.6375 0.6375 -0.7704 923.089 1263.606)" fill="#8D8E8E" width="0.6" height="0.6"/>
								</g>
								<g>
									
										<rect x="689.2" y="464.7" transform="matrix(-0.7714 -0.6364 0.6364 -0.7714 925.5229 1262.5205)" fill="#8D8E8E" width="0.6" height="0.6"/>
								</g>
								<g>
									
										<rect x="688.5" y="463.1" transform="matrix(-0.6372 0.7707 -0.7707 -0.6372 1484.8568 227.8692)" fill="#8D8E8E" width="0.6" height="0.6"/>
								</g>
								<g>
									
										<rect x="689.1" y="463.6" transform="matrix(-0.6369 0.771 -0.771 -0.6369 1486.149 227.8726)" fill="#8D8E8E" width="0.6" height="0.6"/>
								</g>
								<g>
									<path fill="#8D8E8E" d="M688,460.1l0.5,0.4l0.4-0.4l-0.4-0.3c0,0,0,0-0.1,0L688,460.1z"/>
								</g>
								<g>
									<path fill="#8D8E8E" d="M688.1,459.8c-0.1,0-0.3,0-0.4,0.1l0.2,0.2L688.1,459.8z"/>
								</g>
								<g>
									<path fill="#8D8E8E" d="M686.6,460.2L686.6,460.2c-0.2,0-0.4,0.1-0.6,0.3l0.2,0.2L686.6,460.2z"/>
								</g>
								<g>
									<path fill="#8D8E8E" d="M685.6,461.4l-0.3-0.3c-0.1,0.1-0.1,0.1-0.2,0.2c-0.1,0.1-0.1,0.2-0.2,0.2l0.3,0.3L685.6,461.4z"/>
								</g>
								<g>
									<path fill="#8D8E8E" d="M686.1,460.8l-0.3-0.2c-0.2,0.1-0.3,0.2-0.4,0.4l0.3,0.3L686.1,460.8z"/>
								</g>
								<g>
									
										<rect x="690" y="461.3" transform="matrix(-0.6378 0.7702 -0.7702 -0.6378 1486.0674 224.4346)" fill="#8D8E8E" width="0.6" height="0.6"/>
								</g>
								<g>
									
										<rect x="688.1" y="464.8" transform="matrix(0.6378 -0.7702 0.7702 0.6378 -108.8603 698.7224)" fill="#8D8E8E" width="0.6" height="0.6"/>
								</g>
								<g>
									
										<rect x="687.5" y="464.3" transform="matrix(0.6365 -0.7713 0.7713 0.6365 -108.2996 699.3974)" fill="#8D8E8E" width="0.6" height="0.6"/>
								</g>
							</g>
						</g>
						<path fill="#C2C1C1" d="M692.2,461C692.2,461.1,692.2,461.1,692.2,461l-6,7.3c0,0-0.1,0-0.1,0l-0.5-0.4c0,0,0-0.1,0-0.1l6-7.2
							c0,0,0.1,0,0.1,0L692.2,461z"/>
					</g>
					<polygon fill="#B3B3B3" points="694.1,465.3 693.8,464.7 691.9,467 690,469.3 690.7,469.5 					"/>
					<polygon fill="#282828" points="708.8,478.5 694.4,465.6 692.7,467.7 691,469.7 706.4,481.4 					"/>
					<polygon fill="#282828" points="697.1,468 694.4,465.6 692.7,467.7 691,469.7 693.9,471.9 					"/>
					
						<rect x="689.9" y="467.3" transform="matrix(0.6373 -0.7706 0.7706 0.6373 -109.1005 703.3787)" fill="#8D8E8E" width="5.5" height="0.6"/>
				</g>
				<polygon fill="#E05B5A" points="693.3,472.2 698.4,475.7 701.7,471.7 697.3,467.4 				"/>
			</g>
		</g>
	</g>
	<g>
		<path fill="#333333" d="M177,493.8l-1.8-26.1c-0.2-2.5-2.3-4.4-4.8-4.2c-2.5,0.2-4.4,2.3-4.2,4.8l1.3,19.3l-16.5-3.5
			c0.5-1.7,0.8-3.2,0.8-3.2s8.7,4.8,11.8,2.2c3.2-2.6,2.5-6.9,2.4-7.5c-0.1-0.6-0.6,1.1-1.3,1.6c-0.7,0.6-1.9,1.6-1.5-0.2
			c0.4-1.7,1.7-4.2,1.7-4.2s-0.9,1.4-3.4,1.3c-2.5-0.2-6.6-3.3-7.1-6.4c-0.4-3.2,2.8-5.3,7.9-3c0,0-2.1-3.8-2.9-6.4
			c-0.2-0.9-0.6-2.2-1-3.7c1-3.7,0.8-4.8,1.5-5.5c0.8-0.9,1.3-1,1.3-1l0.3-3.4c0,0-0.1-0.6-1.5-1c-0.1,0-0.1,0-0.2-0.1
			c0-1.4-0.1-2.8-0.2-4.2c0.2-1,0.4-2,0.6-3l8,0.8c0.3,0,0.6-0.2,0.7-0.5l1.4-13.9c0-0.3-0.2-0.6-0.5-0.7l-6.5-0.7l3-29.4
			c0.2-2-1.3-3.8-3.3-4l-82-8.3c-2-0.2-3.8,1.3-4,3.3l-3,29.4l-6.5-0.7c-0.3,0-0.6,0.2-0.7,0.5l-1.4,13.9c0,0.3,0.2,0.6,0.5,0.7
			l7.9,0.8c0,3.7,0.2,7.4,0.4,9.3c0.5,3.7-2.7,10.1-3.9,12.5c-1.2,2.4-4.1,5.7-4.1,5.7c3.4-0.8,5.8,0,6.8,1.5
			c-4,1.9-9.9,0.8-13.9,0.3c2.2,3.2,6,5.3,10.3,6.5c-1.5,0.8-3.1,1.2-4.3,1c-2.5-0.3-3.1-1.9-3.1-1.9s0.8,2.7,0.9,4.5
			c0.1,1.8-1,0.6-1.5-0.2c-0.5-0.7-0.7-2.4-1-1.9c-0.2,0.6-1.7,4.6,0.9,7.8c2.6,3.2,12,0.2,12,0.2s0.1,5.2,1,8.1
			c0.9,2.9-1.1,6.8-3.2,6.3c-2.2-0.5-4.3-5-4.3-5c-0.3,6.4,4,8.8,4,8.8c-1.4,6.1,0.3,5.3,6.1,5.1c5.7-0.2,9.7-0.8,12.8-1.4
			c0.4-0.1,0.8-0.1,1.1-0.1l3.6,44.3h2.2v1.6v8.1l-2.2,28.2c-0.9-0.1-1.4-0.1-1.4-0.1l-0.3,3.8c-0.3,2.7-1.6,8.1,1.9,8.1
			c1.6,0,3.1-0.1,4.7-0.2l3.2,1.4c3,0.6,5.9,0.8,9,0.7c1.6,0,3.2,0.4,3.6-1.8c0.5-2.8-2.3-5.3-4.1-6.5c-1.1-0.7-2.3-1.4-3.3-2.3
			c-0.2-0.2-1.7-2.3-1.6-2.3c0,0-0.4,0-1-0.1l2.1-26.6h19.3v25.8c-0.3,0-0.4,0-0.4,0l0,3.8c0,2.7-1,8.2,2.6,7.9
			c1.6-0.1,3.1-0.4,4.7-0.6l3.3,1.1c3.1,0.4,6,0.3,9.1,0c1.5-0.1,3.2,0.1,3.4-2c0.3-2.8-2.7-5.1-4.6-6.1c-1.2-0.6-2.4-1.2-3.5-2
			c-0.3-0.2-1.8-2.1-1.7-2.1c0,0-0.4,0-1,0v-25.8v-10.6v-1.6h2.2l2.9-36.2c0.1,0,0.1,0,0.2,0.1c5.6,1.3,7.1,2.4,7-3.8
			c0,0,2.3-0.7,4.1-3.4l15.8,3.3c0.4,0.1,0.7,0.1,1.1,0.1c1.9,0,3.7-1,4.6-2.7C176.8,495.8,177.1,494.8,177,493.8z M151.2,495.5
			c-0.6,0-1.1-0.3-1.5-0.7l2.4,0.5C151.8,495.4,151.5,495.5,151.2,495.5z"/>
		<g>
			<g>
				<circle fill="#736050" cx="138.2" cy="588.8" r="0.8"/>
				<polygon fill="#736050" points="140.2,576.3 138.5,585.3 137.9,588.6 138.6,588.7 139.5,585.5 141.9,576.7 				"/>
			</g>
			<path fill="#D6864F" d="M177.9,550.8c-0.5-10.4-4.9-11.3-5.8-12.2c-0.9-0.8-3.2-3.7-1.7-10.2c1.5-6.4,6.6-6.7,6.6-6.7
				s1.3-5,2.1-9.2c0.8-4.2-2.4-10.5-3.6-12.5c-1.2-2-8-10.3-9.8-12.8c-1.8-2.4-3.5-3.3-3.5-3.3s-1.9,0.1-4.6,1.5
				c-2.7,1.4-12.4,6-14.4,7.3c-1.9,1.3-7.6,5.6-8.7,9.7c-1.1,4.1-2.1,9.2-2.1,9.2s4.5,2.5,3,8.9c-1.5,6.4-4.8,8.1-6,8.4
				c-1.2,0.4-5.6-0.7-10.5,8.4c-2.9,5.4-6,11.5-5.6,17.8c0.4,5.5,4.8,12.3,9.6,15.7c3.6,2.6,8.9,4.6,11.9,5.3
				c3.1,0.7,5.9,1.3,5.9,1.3s2.8,0.6,5.9,1.3c3.1,0.7,8.7,1.1,13.1,0.4c5.8-1,12.7-5.3,15.4-10C178.3,563.9,178.2,557,177.9,550.8z"
				/>
			<polygon fill="#5E4B45" points="169.7,438.2 150.1,516.9 154.4,517.9 158.7,518.8 175.1,439.4 			"/>
			
				<radialGradient id="SVGID_1_" cx="176.5254" cy="647.8204" r="4.0209" gradientTransform="matrix(0.975 0.2222 -0.2222 0.975 121.217 -130.9569)" gradientUnits="userSpaceOnUse">
				<stop  offset="0" style="stop-color:#E5D4B3"/>
				<stop  offset="1" style="stop-color:#E5D4B4"/>
			</radialGradient>
			<path fill="url(#SVGID_1_)" d="M154.9,541.3c0,0.2-0.2,0.2-0.3,0.2l-10.6-2.4c-0.1,0-0.2-0.2-0.2-0.3l0.1-0.3
				c0-0.2,0.2-0.2,0.3-0.2l10.6,2.4c0.1,0,0.2,0.2,0.2,0.3L154.9,541.3z"/>
			<g>
				<g>
					<g>
						<g>
							<g>
								<g>
									<path fill="#5E4B45" d="M176.9,436.7c-0.1,0.3-0.3,0.4-0.6,0.4l-7.3-1.7c-0.3-0.1-0.4-0.3-0.4-0.6l0-0.1
										c0.1-0.3,0.3-0.4,0.6-0.4l7.3,1.7C176.8,436.1,176.9,436.4,176.9,436.7L176.9,436.7z"/>
								</g>
								<path fill="#5E4B45" d="M169,435.6c-0.1,0.5-0.7,0.9-1.2,0.8l0,0c-0.5-0.1-0.9-0.7-0.8-1.2l0.3-1.4c0.1-0.5,0.7-0.9,1.2-0.8
									l0,0c0.5,0.1,0.9,0.7,0.8,1.2L169,435.6z"/>
							</g>
							<g>
								<g>
									<path fill="#5E4B45" d="M177.9,432c-0.1,0.3-0.3,0.4-0.6,0.4l-7.3-1.7c-0.3-0.1-0.4-0.3-0.4-0.6l0-0.1
										c0.1-0.3,0.3-0.4,0.6-0.4l7.3,1.7C177.9,431.4,178,431.6,177.9,432L177.9,432z"/>
								</g>
								<path fill="#5E4B45" d="M170.1,430.8c-0.1,0.5-0.7,0.9-1.2,0.8l0,0c-0.5-0.1-0.9-0.7-0.8-1.2l0.3-1.4
									c0.1-0.5,0.7-0.9,1.2-0.8l0,0c0.5,0.1,0.9,0.7,0.8,1.2L170.1,430.8z"/>
							</g>
						</g>
						<g>
							<g>
								<g>
									<path fill="#5E4B45" d="M171,427.6c0.1-0.3,0.3-0.4,0.6-0.4l7.3,1.7c0.3,0.1,0.4,0.3,0.4,0.6l0,0.1
										c-0.1,0.3-0.3,0.4-0.6,0.4l-7.3-1.7C171.1,428.2,170.9,428,171,427.6L171,427.6z"/>
								</g>
								<path fill="#5E4B45" d="M178.9,428.8c0.1-0.5,0.7-0.9,1.2-0.8l0,0c0.5,0.1,0.9,0.7,0.8,1.2l-0.3,1.4
									c-0.1,0.5-0.7,0.9-1.2,0.8l0,0c-0.5-0.1-0.9-0.7-0.8-1.2L178.9,428.8z"/>
							</g>
							<g>
								<g>
									<path fill="#5E4B45" d="M169.9,432.4c0.1-0.3,0.3-0.4,0.6-0.4l7.3,1.7c0.3,0.1,0.4,0.3,0.4,0.6l0,0.1
										c-0.1,0.3-0.3,0.4-0.6,0.4l-7.3-1.7C170,433,169.9,432.7,169.9,432.4L169.9,432.4z"/>
								</g>
								<path fill="#5E4B45" d="M177.8,433.5c0.1-0.5,0.7-0.9,1.2-0.8l0,0c0.5,0.1,0.9,0.7,0.8,1.2l-0.3,1.4
									c-0.1,0.5-0.7,0.9-1.2,0.8l0,0c-0.5-0.1-0.9-0.7-0.8-1.2L177.8,433.5z"/>
							</g>
						</g>
					</g>
					<g>
						<g>
							<path fill="#5E4B45" d="M178.8,425.1c-0.2,0.7-0.9,1.1-1.6,0.9l-3.4-0.8c-0.7-0.2-1.2-0.8-1.1-1.5l1.4-6.1
								c0.2-0.7,0.9-1.1,1.6-0.9l3.4,0.8c0.7,0.2,1.2,0.8,1.1,1.5L178.8,425.1z"/>
						</g>
						<path fill="#5E4B45" d="M181.1,424.1c-0.1,0.4-0.4,0.6-0.7,0.5l-9-2.1c-0.3-0.1-0.5-0.4-0.4-0.8l0.4-1.8
							c0.1-0.4,0.4-0.6,0.7-0.5l9,2.1c0.3,0.1,0.5,0.4,0.4,0.8L181.1,424.1z"/>
					</g>
					<g>
						<g>
							<path fill="#5E4B45" d="M177.4,426l-4-0.9l-4,13.1l5.9,1.3L177.4,426z M172.2,437c0,0.2-0.2,0.3-0.3,0.2l-0.3-0.1
								c-0.1,0-0.2-0.2-0.2-0.3l2.2-9.5c0-0.2,0.2-0.3,0.3-0.2l0.3,0.1c0.1,0,0.2,0.2,0.2,0.3L172.2,437z M174.2,437.5
								c0,0.2-0.2,0.3-0.3,0.2l-0.3-0.1c-0.1,0-0.2-0.2-0.2-0.3l2.2-9.5c0-0.2,0.2-0.3,0.3-0.2l0.3,0.1c0.1,0,0.2,0.2,0.2,0.3
								L174.2,437.5z"/>
						</g>
					</g>
					
						<rect x="169.3" y="438.7" transform="matrix(0.975 0.2222 -0.2222 0.975 101.8445 -27.3275)" fill="#5E4B45" width="6.2" height="0.7"/>
				</g>
			</g>
			<g>
				<path fill="#736050" d="M143.7,578.8c0,0.2-0.2,0.3-0.4,0.2l-5.4-1.2c-0.2,0-0.3-0.2-0.2-0.4l0.3-1.2c0-0.2,0.2-0.3,0.4-0.2
					l5.4,1.2c0.2,0,0.3,0.2,0.2,0.4L143.7,578.8z"/>
				<path fill="#5E4B45" d="M151.5,553.5l-4.9-1.1l-4.9-1.1c-0.6,2.5,0.2,11.6,0.2,11.6c0.4,3.4-1.8,8.1-2.7,11.8
					c-0.9,3.7,1.4,3.9,1.4,3.9s2.1,0.8,3-2.9c0.9-3.7,0.9-8.9,2.7-11.8C146.2,563.8,150.9,556,151.5,553.5z"/>
			</g>
			<g>
				<path fill="#FFFFFF" d="M143.3,552.5c1-7.3,4.4-21.1,4.5-21.2l22.8-92.8l0.2,0.1L148,531.3c0,0.1-3.5,13.9-4.5,21.2L143.3,552.5
					z"/>
				
					<rect x="158.4" y="437.2" transform="matrix(0.975 0.2221 -0.2221 0.975 114.0898 -22.8323)" fill="#FFFFFF" width="0.3" height="117.3"/>
				<path fill="#FFFFFF" d="M149.4,553.9l-0.2-0.1c2.3-7,5.1-20.9,5.9-20.6l19.6-93.6l-0.5-0.4l-19.6,93.6
					C154.6,532.9,151.7,546.9,149.4,553.9z"/>
				
					<rect x="160.1" y="437.5" transform="matrix(0.9749 0.2226 -0.2226 0.9749 114.4784 -23.2198)" fill="#FFFFFF" width="0.3" height="117.3"/>
			</g>
			<g>
				<g>
					<g>
						<path fill="#5E4B45" d="M131.6,535.5c1.5,0,2-2,0.7-2.7c-0.8-0.4-1.8-0.1-2.1,0.7c-0.3,0.9,0.1,2,0.6,2.7
							c0.8,1.2,2.6,1.5,3.8,1c1.1-0.5,2.1-1.4,2.8-2.3c0.5-0.8,0.9-1.6,1.2-2.5c1.1-3.2,2.3-9.9,3.2-11c0.9-1.2,1.2-2,2-1.9
							c0.3,0,0.9,0.1,1.1,0.4c0.3,0.3,0,0.4-0.2,0.7c-0.6,0.8-0.2,2.1,1,1.9c0.6-0.1,0.8-0.8,0.8-1.3c0-0.7-0.5-1.3-1.1-1.6
							c-1.4-1-3.2-0.6-4.3,0.6c-1.8,1.9-2.2,4.3-2.2,4.3l-1.8,6.9c-0.2,0.7-0.5,1.5-0.8,2.2c-0.5,1.1-1.2,2.3-2.3,3
							c-0.3,0.2-0.7,0.4-1.1,0.4c-0.3,0-1.1-0.2-1.3-0.5C131.6,536.1,131.6,535.8,131.6,535.5z"/>
					</g>
					<g>
						<path fill="#5E4B45" d="M167.3,543.6c-1.3-0.7-1-2.7,0.6-2.7c0.9,0,1.6,0.7,1.5,1.6c-0.1,0.9-0.9,1.7-1.7,2.2
							c-1.3,0.7-3,0.3-3.9-0.7c-0.8-0.9-1.3-2.2-1.5-3.3c-0.1-0.9-0.1-1.9,0-2.8c0.4-3.4,2.2-9.9,1.9-11.3c-0.3-1.4-0.3-2.3-1-2.6
							c-0.3-0.1-0.8-0.3-1.2-0.1c-0.4,0.2-0.2,0.4-0.1,0.7c0.2,1-0.7,1.9-1.7,1.2c-0.5-0.4-0.4-1.1-0.2-1.5c0.3-0.6,1-0.9,1.7-1
							c1.7-0.2,3.1,0.9,3.6,2.4c0.8,2.5,0.1,4.8,0.1,4.8l-1.4,7c-0.1,0.8-0.2,1.5-0.2,2.3c0,1.3,0,2.6,0.7,3.7
							c0.2,0.3,0.5,0.7,0.9,0.9c0.3,0.1,1.1,0.3,1.4,0.1C167,544.2,167.2,543.9,167.3,543.6z"/>
					</g>
				</g>
			</g>
		</g>
		<circle fill="#333333" cx="168.6" cy="468.4" r="6"/>
		<path fill="#333333" d="M152.4,521.2c-1.3-1.8-3.4-2.7-5.4-2.5c-0.3-0.1-0.6-0.2-0.9-0.3l-6.4-1.4l0,0L98,507.7l1-19.2
			c0.2-2.9-2.1-5.5-5.1-5.6c-3-0.1-5.5,2.1-5.6,5.1l-1.2,23.7c-0.1,2.6,1.6,4.9,4.2,5.5l51.1,11.3c0,0,0,0,0,0
			c2,2.8,5.9,3.4,8.7,1.4C153.8,527.9,154.4,524,152.4,521.2z"/>
	</g>
	<g>
		<g>
			<path fill="#333333" d="M341,559.9h-40.5c-0.9,0-1.6-0.7-1.6-1.6v-2.6c0-0.9,0.7-1.6,1.6-1.6H341c0.9,0,1.6,0.7,1.6,1.6v2.6
				C342.6,559.2,341.9,559.9,341,559.9z"/>
			<g>
				<rect x="300.9" y="559.1" fill="#333333" width="5" height="30.2"/>
				<rect x="335.6" y="559.1" fill="#333333" width="5" height="30.2"/>
			</g>
		</g>
		<path fill="#333333" d="M364.5,521.9c-0.4,0-0.9,0.1-1.3,0.2c-0.2-0.1-0.4-0.2-0.6-0.3l-13.2-5.7l-2.6-8.9
			c4.2-1.9,8.8-3.7,9.9-7.4c0,0,3.9-2,4.9-7.1c0,0-1.1,0.7-2.9-0.4c-1.8-1.1-2.3-2.5-2.3-2.5s1.8-0.3,1.9-1.7c0,0-1.1,1-2.1-0.3
			c-1.1-1.3-1.7-7.5,0.1-11.8c1.4-3.3,3.9-8.3,4.2-16.3l4.9,0.6c0.3,0,0.5-0.2,0.6-0.4l1.4-11.7c0-0.3-0.2-0.5-0.4-0.6l-5.5-0.7
			l3-24.8c0.2-1.7-1-3.2-2.7-3.4l-69.1-8.4c-1.7-0.2-3.2,1-3.4,2.7l-2.7,22.4h0l-0.3,2.4l-5.5-0.7c-0.3,0-0.5,0.2-0.6,0.4l-1.4,11.7
			c0,0.3,0.2,0.5,0.4,0.6l4.9,0.6c-1.5,7-0.6,12.2,0,15.8c-2.2-0.3-4.5-1-6.2-1.4c1.3,2.5,3.7,4.4,6.5,5.8c-0.3,3.7-1.8,7.3-2.8,8.1
			c-1.3,1-2.1-0.3-2.1-0.3c-0.2,1.5,1.5,2.1,1.5,2.1s-0.8,1.3-2.8,1.9c-2,0.6-2.9-0.4-2.9-0.4c-0.2,5.2,3.1,8,3.1,8
			c0.1,3.9,4.2,6.7,7.8,9.5c2.9,2.2,6.2,0.5,8.1-0.3l-7.2,17c-0.5,1.2-0.4,2.5,0.1,3.6c0.4,1.1,1.2,2,2.4,2.4l8.8,2.9l0.1,0.9h0
			l1.4,17h1.8v0.1v2v5.6c0,2,1.5,3.7,3.4,4c0.2,0.1,0.4,0.2,0.7,0.3l11.6,3.1v20.3c-0.4,0-0.6,0-0.6,0l0,3.2c0,2.3-0.8,6.9,2.2,6.7
			c1.3-0.1,2.6-0.3,4-0.5l2.8,0.9c2.6,0.3,5.1,0.3,7.6,0c1.3-0.1,2.7,0.1,2.9-1.7c0.2-2.4-2.3-4.3-3.9-5.2c-1-0.5-2-1-2.9-1.7
			c-0.2-0.2-1.5-1.8-1.5-1.8c0,0-0.1,0-0.4,0v-23.6h4c0.2,0.1,0.3,0.1,0.5,0.2l11.6,3.1v20.3c-0.4,0-0.6,0-0.6,0l0,3.2
			c0,2.3-0.8,6.9,2.2,6.7c1.3-0.1,2.6-0.3,4-0.5l2.8,0.9c2.6,0.3,5.1,0.3,7.6,0c1.3-0.1,2.7,0.1,2.9-1.7c0.2-2.4-2.3-4.3-3.9-5.2
			c-1-0.5-2-1-2.9-1.7c-0.2-0.2-1.5-1.8-1.5-1.8c0,0-0.1,0-0.4,0v-25c0-2.2-1.4-4.1-3.3-4.8c-0.4-0.2-0.8-0.4-1.2-0.5l-12.6-3.4
			v-1.7v-0.1h1.8l2.1-26.2l0.5,1.7c0.1,0.5,0.4,0.9,0.7,1.3c0.4,0.8,1,1.4,1.9,1.8l15.4,6.6c0.6,2.2,2.7,3.9,5.1,3.9
			c2.9,0,5.3-2.4,5.3-5.3C369.8,524.3,367.4,521.9,364.5,521.9z M297.8,517.2l-1.2-0.4l1-2.4L297.8,517.2z"/>
		<g>
			<g>
				<rect x="351.4" y="534" fill="#282828" width="6.1" height="52"/>
				<path fill="#282828" d="M357.5,589.4h-5.9c-0.6,0-1.1-0.5-1.1-1.1V580c0-0.6,0.5-1.1,1.1-1.1h5.9c0.6,0,1.1,0.5,1.1,1.1v8.2
					C358.6,588.8,358.1,589.4,357.5,589.4z"/>
			</g>
			<g>
				<rect x="396.1" y="534" fill="#282828" width="6.1" height="52"/>
				<path fill="#282828" d="M402.1,589.4h-5.9c-0.6,0-1.1-0.5-1.1-1.1V580c0-0.6,0.5-1.1,1.1-1.1h5.9c0.6,0,1.1,0.5,1.1,1.1v8.2
					C403.3,588.8,402.8,589.4,402.1,589.4z"/>
			</g>
			<g>
				<rect x="470.3" y="534" fill="#282828" width="6.1" height="52"/>
				<path fill="#282828" d="M476.3,589.4h-5.9c-0.6,0-1.1-0.5-1.1-1.1V580c0-0.6,0.5-1.1,1.1-1.1h5.9c0.6,0,1.1,0.5,1.1,1.1v8.2
					C477.4,588.8,476.9,589.4,476.3,589.4z"/>
			</g>
			<g>
				<rect x="438.9" y="534" fill="#282828" width="6.1" height="52"/>
				<path fill="#282828" d="M445,589.4H439c-0.6,0-1.1-0.5-1.1-1.1V580c0-0.6,0.5-1.1,1.1-1.1h5.9c0.6,0,1.1,0.5,1.1,1.1v8.2
					C446.1,588.8,445.6,589.4,445,589.4z"/>
			</g>
			<rect x="396.1" y="503.6" fill="#282828" width="80.2" height="41"/>
			<path fill="#282828" d="M398.8,483.6l-27.6-39.9c-1.2-1.7-0.3-4.5,1.3-4.5h27c0.5,0,0.9,0.3,1.3,0.8l5.9,8.5
				c0.1,0.1,0.1,0.2,0.2,0.3c0.8,1.6,8.3,15.1,28,15.1h27.8c0.1,0,0.3,0,0.4,0.1c1.7,0.6,13.4,4.9,13.4,19.5v7.4
				c0,0,0.7,12.8-11.2,12.8c-11.9,0-51.6,0-51.6,0h-1c-0.5,0-1-0.3-1.3-0.8L398.8,483.6z"/>
			<path fill="#3E3E3E" d="M351.5,544.6v-41h-10.1c0,0,2,23.3-10.8,23.3c-12.8,0-14.1,6.4-14.1,17.7H351.5z"/>
			<g>
				<g>
					<path fill="#282828" d="M385,508l-1.5-0.6c-0.2-0.1-0.4-0.5-0.3-0.8l4-21.8c0.1-0.4,0.3-0.6,0.6-0.5l1.5,0.6
						c0.2,0.1,0.4,0.5,0.3,0.8l-4,21.8C385.5,507.9,385.2,508.1,385,508z"/>
					<polygon fill="#282828" points="388.1,491 386.5,490.4 395.6,440.2 397.3,440.8 					"/>
				</g>
			</g>
			<rect x="351.5" y="503.6" fill="#282828" width="44.7" height="41"/>
		</g>
	</g>
	<g>
		<path fill="#333333" d="M919.2,465.4c0.8-1.8,1.5-3.6,2-5.6c2.8-11.2,5.6-20.3,2.1-29.2c-2-5-5.2-9.4-8-12.4
			c-2.9-7.4-7.1-13.7-13.3-16.6c-14.3-6.7-15.2-5.8-23-2.5c-2.7,1.1-5.2,2.9-6.9,4.9c-3.9,0.8-8.6,2.2-12.8,4.7
			c-8.2,4.8-11.6,13.8-16.2,24.4c-2,4.7-2.7,9.6-2.7,14.2c0,0.1,0,0.1-0.1,0.2c-0.6,1.9-0.4,3.8,0.4,5.5c0.4,3.6,1.1,6.9,1.7,9.7
			c1.6,7.6-4.8,13.6-6.1,14.3c-1.2,0.7-5.6,0.8-3.4,1c2.2,0.2,2.3,2.7,2.3,2.7c-1.5,0.1-2.5,1.7-2.5,1.7c1.4-0.3,3.1,2.1,3.1,2.1
			c-1.9,1.4-4.7,2.5-4.7,2.5c1.8,1.5,8.8,1.5,8.8,1.5c-1.8,1.1-9.4,1.4-8,2.2c1.4,0.8,6.3,4,8,4.2c1.7,0.2,4.8-1.4,7.2-1.7
			c2.4-0.3,0.3,2.9,0.3,2.9c1,0.1,1.9-0.1,2.6-0.4l0.1,0.9l3.4,45.3h0.1l-5.1,3.8c-1.5,1.1-2.4,3-2.4,4.9v24.3c0,0,0,0.1,0,0.1
			c-0.3,0-0.6,0-0.6,0c0.1,0-1.5,2.2-1.7,2.5c-1.1,1-2.3,1.6-3.5,2.3c-1.9,1.2-4.9,3.8-4.6,7.1c0.2,2.5,1.9,2.2,3.4,2.4
			c3.1,0.3,6,0.4,9,0l3.3-1.3c1.6,0.3,3.1,0.6,4.7,0.7c3.5,0.3,2.6-6.1,2.6-9.2l0-4.4c0,0-0.2,0-0.5,0c0,0,0-0.1,0-0.1v-21.3
			l6.6-4.9L873,570l-6.1,15.5h-0.8c-0.3,0-0.6,0.3-0.6,0.6v2.6c0,0.3,0.3,0.6,0.6,0.6h4.4c0.3,0,0.6-0.3,0.6-0.6v-2.6
			c0-0.3-0.3-0.6-0.6-0.6h-0.1l4.3-11.1l4.3,11.1H879c-0.3,0-0.6,0.3-0.6,0.6v2.6c0,0.3,0.3,0.6,0.6,0.6h4.4c0.3,0,0.6-0.3,0.6-0.6
			v-2.6c0-0.3-0.3-0.6-0.6-0.6h-0.8l-6.1-15.5l9-23.1h1.8v7.1c-0.3,0-0.5,0-0.5,0l0,4.4c0,2.8-0.8,8.5,1.8,9.1v2.2
			c0,0.5,0.4,0.9,0.9,0.9h0.4v13.8h-0.4c-0.5,0-0.9,0.4-0.9,0.9v2.3c0,0.5,0.4,0.9,0.9,0.9h16.1c0.5,0,0.9-0.4,0.9-0.9v-2.3
			c0-0.5-0.4-0.9-0.9-0.9h-0.4v-13.8h0.4c0.5,0,0.9-0.4,0.9-0.9v-1.6c1.5-0.1,3,0,3.2-2.4c0.3-3.3-2.7-5.9-4.6-7.1
			c-1.2-0.7-2.4-1.4-3.5-2.3c-0.3-0.2-1.8-2.5-1.7-2.5c0,0-0.2,0-0.6,0v-17.2c0-2.3-1.3-4.3-3.2-5.3l1.6-21.8c0,0,0,0,0.1,0
			c0,0,0,0,0-0.1l0.3-3.4l10.2,11.6c0.9,1,2.1,1.5,3.3,1.5c1,0,2.1-0.4,2.9-1.1c1.8-1.6,2-4.4,0.4-6.2l-9-10.2
			c1.9-3.7,4.7-9.1,5.8-11.2C912.9,488.3,916.9,477.3,919.2,465.4z M903.1,584.6h-11.1v-13.8h11.1V584.6z M874.7,565.6l-7.3-18.7
			H882L874.7,565.6z M899.2,494.3c0-2.9,0.7-6.6,3.3-9.6c0.2-0.2,0.4-0.3,0.6-0.5c0,0.5,0,1-0.1,1.5c-0.4,3-0.6,8.1-0.5,12.5
			L899.2,494.3z"/>
		<g>
			<path fill="#7CAAAA" d="M887,546.2c2.2-3.5,2.7-7.5,4.8-11c1.1-1.8,2.4-3.4,4.3-4.4c2.8-1.5,6-1.5,8.5-3.5
				c2.3-1.8,3.9-4.5,4.2-7.4c0.5-4.8-2.3-9.5-5.1-13.1c-2.8-3.7-6.5-7.6-11.3-8.5c-2.9-0.5-5.9,0.3-8.3,2.1c-2.6,1.9-3.5,5-5.7,7.3
				c-1.5,1.5-3.4,2.4-5.4,2.9c-3.9,1.1-8,0.5-11.9,1.7c-4.8,1.5-9.3,4.7-11.4,9.3c-4.3,9.4,5.5,22,5.5,22s9.5,12.8,19.7,11.2
				C880,553.8,884.3,550.4,887,546.2z"/>
			<path fill="#453939" d="M875.1,538.9c-0.1,0.1-0.2,0.1-0.3,0L865,526c-0.1-0.1,0-0.2,0.1-0.3l2.7-2.1c0.1-0.1,0.2-0.1,0.3,0
				l9.8,12.9c0.1,0.1,0,0.2-0.1,0.3L875.1,538.9z"/>
			<g>
				<path fill="#BAB8BD" d="M875,534.9c-0.1,0.1-0.2,0.1-0.3,0l-5.9-7.8c-0.1-0.1-0.1-0.2,0-0.3l0,0c0.1-0.1,0.2-0.1,0.3,0l5.9,7.8
					C875.1,534.7,875.1,534.9,875,534.9L875,534.9z"/>
				<path fill="#BAB8BD" d="M874,535.7c-0.1,0.1-0.2,0.1-0.3,0l-5.9-7.8c-0.1-0.1-0.1-0.2,0-0.3l0,0c0.1-0.1,0.2-0.1,0.3,0l5.9,7.8
					C874.1,535.5,874.1,535.6,874,535.7L874,535.7z"/>
			</g>
			<g>
				<g>
					
						<ellipse transform="matrix(0.604 0.797 -0.797 0.604 750.8035 -557.4908)" fill="#BBBBBB" cx="936.4" cy="476.8" rx="0.4" ry="0.9"/>
					
						<ellipse transform="matrix(0.6041 0.7969 -0.7969 0.6041 757.7844 -558.8179)" fill="#BBBBBB" cx="941.4" cy="483.3" rx="0.4" ry="0.9"/>
				</g>
				
					<rect x="935" y="479.6" transform="matrix(0.6041 0.7969 -0.7969 0.6041 754.2495 -558.1463)" fill="#BBBBBB" width="7.8" height="1"/>
			</g>
			<g>
				<g>
					
						<ellipse transform="matrix(0.6043 0.7968 -0.7968 0.6043 751.3307 -555.1151)" fill="#BBBBBB" cx="934.5" cy="478.8" rx="0.4" ry="0.9"/>
					
						<ellipse transform="matrix(0.6042 0.7968 -0.7968 0.6042 757.7706 -556.3372)" fill="#BBBBBB" cx="938.9" cy="484.6" rx="0.4" ry="0.9"/>
				</g>
				
					<rect x="933.1" y="481.2" transform="matrix(0.6041 0.7969 -0.7969 0.6041 754.6699 -555.747)" fill="#BBBBBB" width="7.3" height="1"/>
			</g>
			<g>
				<g>
					<g>
						
							<ellipse transform="matrix(0.604 0.797 -0.797 0.604 750.2494 -559.8649)" fill="#BBBBBB" cx="938.5" cy="475" rx="0.4" ry="0.9"/>
						
							<ellipse transform="matrix(0.6043 0.7967 -0.7967 0.6043 757.2985 -561.2076)" fill="#BBBBBB" cx="943.7" cy="481.8" rx="0.4" ry="0.9"/>
					</g>
					
						<rect x="937" y="477.9" transform="matrix(0.6041 0.7969 -0.7969 0.6041 753.7658 -560.5344)" fill="#BBBBBB" width="8.2" height="1"/>
				</g>
				<path fill="#725D4D" d="M944.7,480.2c1-0.8,0.7-3.3,0.7-3.3s-0.1-0.7-0.1-0.9c0.1-0.2-0.1-0.6-0.1-0.6s-0.3-0.3-0.6-0.3
					c-0.3,0-0.9-0.3-0.9-0.3s-2.3-1-3.4-0.2c-1.1,0.7-6.9,6.5-6.9,6.5l1.5,2l1.5,2C936.5,485.1,943.7,481,944.7,480.2z M935.5,481.7
					c-0.1,0.1-0.2,0-0.3-0.1l-0.5-0.7c-0.1-0.1-0.1-0.2,0-0.3l6-4.5c0.1-0.1,0.2,0,0.3,0.1l0.5,0.7c0.1,0.1,0.1,0.2,0,0.3
					L935.5,481.7z M937.3,484c-0.1,0.1-0.2,0-0.3-0.1l-0.5-0.7c-0.1-0.1-0.1-0.2,0-0.3l6-4.5c0.1-0.1,0.2,0,0.3,0.1l0.5,0.7
					c0.1,0.1,0.1,0.2,0,0.3L937.3,484z"/>
			</g>
			
				<rect x="932.1" y="482.9" transform="matrix(0.6041 0.7969 -0.7969 0.6041 755.0981 -553.5609)" fill="#BBBBBB" width="5.2" height="0.6"/>
			<g>
				<g>
					<path fill="#342D2D" d="M895.6,512.9c-2.6-3.4-7.5-4.1-10.9-1.5c-3.4,2.6-4.1,7.5-1.5,10.9c2.6,3.4,7.5,4.1,10.9,1.5
						C897.5,521.2,898.2,516.3,895.6,512.9z M883.6,522c-2.4-3.2-1.8-7.8,1.4-10.2c3.2-2.4,7.8-1.8,10.2,1.4
						c2.4,3.2,1.8,7.8-1.4,10.2C890.6,525.8,886,525.2,883.6,522z"/>
					<path fill="#342D2D" d="M894.9,513.4c-2.3-3-6.7-3.6-9.7-1.3c-3,2.3-3.6,6.7-1.3,9.7c2.3,3,6.7,3.6,9.7,1.3
						C896.6,520.8,897.2,516.4,894.9,513.4z M884.3,521.5c-2.1-2.8-1.6-6.9,1.2-9c2.8-2.1,6.9-1.6,9,1.2c2.1,2.8,1.6,6.9-1.2,9
						C890.5,524.8,886.4,524.3,884.3,521.5z"/>
				</g>
			</g>
			<polygon fill="#342D2D" points="932.9,481.3 889.4,513.4 891.4,516.1 893.4,518.7 936.1,485.5 			"/>
			<g>
				<path fill="#BAB8BD" d="M933.5,487.5c0,0-0.1,0-0.1,0l-3-4c0,0,0-0.1,0-0.1l0,0c0,0,0.1,0,0.1,0l3,4
					C933.5,487.4,933.5,487.4,933.5,487.5L933.5,487.5z"/>
				<path fill="#BAB8BD" d="M930.4,489.8c0,0-0.1,0-0.1,0l-3-4c0,0,0-0.1,0-0.1l0,0c0,0,0.1,0,0.1,0l3,4
					C930.4,489.7,930.4,489.8,930.4,489.8L930.4,489.8z"/>
				<path fill="#BAB8BD" d="M927.4,492.2c0,0-0.1,0-0.1,0l-3.2-4.2c0,0,0-0.1,0-0.1l0,0c0,0,0.1,0,0.1,0l3.2,4.2
					C927.4,492.1,927.4,492.2,927.4,492.2L927.4,492.2z"/>
				<path fill="#BAB8BD" d="M924.3,494.6c0,0-0.1,0-0.1,0l-3.2-4.3c0,0,0-0.1,0-0.1l0,0c0,0,0.1,0,0.1,0l3.2,4.3
					C924.4,494.5,924.4,494.6,924.3,494.6L924.3,494.6z"/>
				<path fill="#BAB8BD" d="M921.3,497c0,0-0.1,0-0.1,0l-3.3-4.4c0,0,0-0.1,0-0.1l0,0c0,0,0.1,0,0.1,0l3.3,4.4
					C921.3,496.9,921.3,497,921.3,497L921.3,497z"/>
				<path fill="#BAB8BD" d="M918.2,499.4c0,0-0.1,0-0.1,0l-3.4-4.4c0,0,0-0.1,0-0.1l0,0c0,0,0.1,0,0.1,0l3.4,4.4
					C918.3,499.3,918.3,499.3,918.2,499.4L918.2,499.4z"/>
				<path fill="#BAB8BD" d="M915.2,501.7c0,0-0.1,0-0.1,0l-3.4-4.5c0,0,0-0.1,0-0.1l0,0c0,0,0.1,0,0.1,0l3.4,4.5
					C915.2,501.6,915.2,501.7,915.2,501.7L915.2,501.7z"/>
				<path fill="#BAB8BD" d="M912.1,504.1c0,0-0.1,0-0.1,0l-3.5-4.6c0-0.1,0-0.1,0-0.1l0,0c0,0,0.1,0,0.1,0l3.5,4.6
					C912.2,504,912.2,504.1,912.1,504.1L912.1,504.1z"/>
				<path fill="#BAB8BD" d="M909.1,506.5c0,0-0.1,0-0.1-0.1l-3.5-4.7c0-0.1,0-0.1,0-0.1l0,0c0,0,0.1,0,0.1,0.1l3.5,4.7
					C909.1,506.4,909.1,506.5,909.1,506.5L909.1,506.5z"/>
				<path fill="#BAB8BD" d="M906,508.9c0,0-0.1,0-0.1-0.1l-3.6-4.7c0-0.1,0-0.1,0-0.1l0,0c0,0,0.1,0,0.1,0.1l3.6,4.7
					C906.1,508.8,906.1,508.8,906,508.9L906,508.9z"/>
				<path fill="#BAB8BD" d="M903,511.2c0,0-0.1,0-0.1-0.1l-3.7-4.8c0-0.1,0-0.1,0-0.1l0,0c0,0,0.1,0,0.1,0.1l3.7,4.8
					C903,511.1,903,511.2,903,511.2L903,511.2z"/>
				<path fill="#BAB8BD" d="M899.9,513.6c0,0-0.1,0-0.1-0.1l-3.7-4.9c0-0.1,0-0.1,0-0.1l0,0c0,0,0.1,0,0.1,0.1l3.7,4.9
					C900,513.5,900,513.6,899.9,513.6L899.9,513.6z"/>
				<path fill="#BAB8BD" d="M896.9,516c0,0-0.1,0-0.1-0.1l-3.8-5c0-0.1,0-0.1,0-0.1l0,0c0,0,0.1,0,0.1,0.1l3.8,5
					C896.9,515.9,896.9,516,896.9,516L896.9,516z"/>
			</g>
			<circle fill="#342D2D" cx="889.4" cy="517.6" r="5.9"/>
			<g>
				
					<rect x="902.8" y="467.9" transform="matrix(0.6069 0.7948 -0.7948 0.6069 758.7047 -517.8283)" fill="#BAB8BD" width="0.1" height="80.2"/>
				
					<rect x="903.3" y="468.7" transform="matrix(0.6027 0.798 -0.798 0.6027 764.894 -518.7234)" fill="#BAB8BD" width="0.1" height="80.2"/>
				
					<rect x="903.9" y="469.4" transform="matrix(0.6057 0.7957 -0.7957 0.6057 761.8464 -518.3514)" fill="#BAB8BD" width="0.1" height="80.2"/>
				
					<rect x="901.1" y="465.6" transform="matrix(0.6043 0.7968 -0.7968 0.6043 759.5848 -517.8239)" fill="#BAB8BD" width="0.1" height="80.2"/>
				
					<rect x="901.6" y="466.4" transform="matrix(0.603 0.7977 -0.7977 0.603 762.0381 -518.2036)" fill="#BAB8BD" width="0.1" height="80.2"/>
				
					<rect x="902.2" y="467.1" transform="matrix(0.6003 0.7998 -0.7998 0.6003 766.3207 -518.8235)" fill="#BAB8BD" width="0.1" height="80.2"/>
			</g>
		</g>
		<path fill="#333333" d="M881.5,517.4c-0.6,0-1.2,0.2-1.8,0.4l-1.5-0.6l0-0.1c-0.3-0.2-0.6-0.3-0.9-0.5l-25.3-10l4.8-7.3
			c1.3-2,0.8-4.7-1.3-6.1c-2-1.3-4.7-0.8-6.1,1.3l-7.7,11.8c-0.7,1.1-0.9,2.5-0.5,3.7c0.4,1.3,1.3,2.3,2.6,2.8l30.3,12
			c0.4,0.1,0.7,0.2,1.1,0.3l0.1-0.2l4.1,1.5l0,0c0.7,0.4,1.6,0.6,2.5,0.6c2.7-0.1,4.7-2.4,4.6-5.1
			C886.4,519.3,884.1,517.2,881.5,517.4z"/>
		<g>
			<circle fill="#333333" cx="924.5" cy="494.2" r="4.8"/>
			<polygon fill="#333333" points="924.9,501.5 919.7,497.8 921.7,494.5 926.9,498.3 			"/>
			<path fill="#333333" d="M918.8,496.8l-9.8,15.8c-1.2,1.9-0.7,4.5,1,5.7c0.8,0.6,1.6,0.8,2.5,0.7c1.1-0.1,2.2-0.7,2.8-1.8
				l10.1-16.1L918.8,496.8z"/>
		</g>
	</g>
	<g>
		<path fill="#333333" d="M1180.6,407.9L1099,385c-2-0.6-4.1,0.6-4.6,2.6l-7.4,26.4l0,0l-0.8,2.8l-6.5-1.8c-0.3-0.1-0.7,0.1-0.8,0.4
			l-3.9,13.8c-0.1,0.3,0.1,0.7,0.4,0.8l2.9,0.8c-2.9,4-6.9,8.1-6.9,8.1c-2.5,2.2-8.6,10.1-8.6,10.1s2.7-0.7,6.2-3.1
			c3.4-2.4,3.7-1,3.2,0.9c-0.5,1.9-7.5,9.4-7.5,9.4s3.1-1.1,4.5-1.2s-1.4,5.7-5,7.9c-3.6,2.2-6.8-1.9-6.8-1.9s-0.4,2.1,2.5,4.9
			c2.9,2.8,7.6,0.7,11.3,0.7c3.7,0.1,2,2,0.3,4c-1.7,2-8.2,0.4-6.2,1.7c1.9,1.3,4.2,2.4,8.1,2.5c3.9,0.1,1.5,1.9-0.4,3.6
			c-1.9,1.7-1.8,6.4-1.8,6.4c0.3-1.9,1.6-0.8,5.9-1.8c4.3-1,1.8,3,1.5,6.6c-0.3,3.6,1.1,3.3,3.9,3.3c2.8,0,6.8,2.2,7.8,5.1
			c0.5,1.4,2,2,3.9,2.3l1.2,15h0l0.7,9.1h0l1.5,18.7h2v1.5v2.5l-2.4,31.1c-0.6,0-0.9-0.1-0.9-0.1l-0.3,3.5c-0.2,2.5-1.5,7.5,1.8,7.5
			c1.5,0,2.9-0.1,4.4-0.2l2.9,1.3c2.8,0.5,5.5,0.7,8.3,0.7c1.4,0,3,0.3,3.3-1.6c0.5-2.6-2.1-4.9-3.8-6c-1-0.7-2.1-1.3-3-2.1
			c-0.2-0.2-1.5-2.1-1.4-2.1c0,0-0.2,0-0.4,0l1.9-24.6h17.3v23.9c-0.2,0-0.4,0-0.4,0l0,3.5c0,2.5-0.9,7.6,2.4,7.3
			c1.5-0.1,2.9-0.3,4.3-0.6l3,1c2.8,0.3,5.5,0.3,8.4,0c1.4-0.1,3,0.1,3.2-1.9c0.3-2.6-2.5-4.7-4.2-5.7c-1.1-0.6-2.2-1.1-3.2-1.9
			c-0.2-0.2-1.7-2-1.6-2c0,0-0.4,0-0.9,0v-23.9v-9.8v-1.5h2l2.3-28.9l3.1,9.1c0.7,1.9,2.5,3.2,4.4,3.2c0.5,0,1-0.1,1.5-0.3
			c2.4-0.8,3.7-3.5,2.9-6l-5.2-15c0.8,0.6,1.1,1,0.8,1.9c0,0,2.5-3.9,1.8-6.4c-0.7-2.4-1.9-5.2,1.5-3.2s5.9,2.2,8.2,2.1
			c2.3-0.1-4-2.1-4.4-4.7c-0.4-2.6-0.8-5.1,2.3-3.3c3.2,1.9,6.1,6.1,10,5.3c3.9-0.9,4.7-2.8,4.7-2.8s-4.9,1.8-6.8-1.9
			c-1.9-3.7-1.3-10.2-0.1-9.4c1.2,0.8,3.2,3.4,3.2,3.4s-2-10-1.5-11.9c0.5-1.9,1.5-3,3.2,0.9c1.7,3.9,3.6,5.9,3.6,5.9
			s-1.1-9.9-2.1-13.1c0,0-1.2-5.7-1.6-10.7l5.2,1.5c0.3,0.1,0.7-0.1,0.8-0.4l3.9-13.8c0.1-0.3-0.1-0.7-0.4-0.8l-6.5-1.8l0.8-2.8l0,0
			l7.4-26.4C1183.8,410.6,1182.6,408.5,1180.6,407.9z"/>
		<g>
			<path fill="#C75555" d="M1144.1,507.1c0,0-0.4-0.7-1.4-0.7c-0.9,0-8.5,0.8-11-1.7c-2.5-2.4-4-5.3-0.9-10.2
				c3.1-4.9,8.8-6.4,10.8-6.8c2.1-0.4,6.6-0.1,8.2,1.2c1.6,1.4,3.3,1.7,4.2,1.7c0,0-1.2,2.7,3.4,3.9c4.6,1.2,6.5,1.3,7.1-0.4
				c0,0,1.5,0.9,3.4,0.9c1.8-0.1,7.8,0.9,8.8,4.4c1.1,3.5-3.3,12.7-11.4,11.9c-8.1-0.8-5.8-3-8.7-2.4c0,0-0.4-3.2-4.5-3.6
				C1147.9,504.8,1145.8,504.4,1144.1,507.1z"/>
			<path fill="#E05B5A" d="M1144.7,505.1c0,0-0.4-0.7-1.4-0.7c-0.9,0-8.5,0.8-11-1.7c-2.5-2.4-4-5.3-0.9-10.2
				c3.1-4.9,8.8-6.4,10.8-6.8c2.1-0.4,6.6-0.1,8.2,1.2c1.6,1.4,3.3,1.7,4.2,1.7c0,0-1.2,2.7,3.4,3.9c4.6,1.2,6.5,1.3,7.1-0.4
				c0,0,1.5,0.9,3.4,0.9c1.8-0.1,7.8,0.9,8.8,4.4c1.1,3.5-3.3,12.7-11.4,11.9c-8.1-0.8-5.8-3-8.7-2.4c0,0-0.4-3.2-4.5-3.6
				C1148.5,502.8,1146.4,502.4,1144.7,505.1z"/>
			<path fill="#725D4D" d="M1157.2,498.3l1.8-3.7c0-0.1,0.1-0.1,0.2-0.1l34.1,11.7c0.1,0,0.1,0.1,0.1,0.2l-1.1,2
				c0,0.1-0.1,0.1-0.2,0.1l-34.8-10C1157.2,498.5,1157.2,498.4,1157.2,498.3z"/>
			<path fill="#484848" d="M1146.3,502.1c0,0-0.3,0.3-0.9-0.2c-0.5-0.5-0.9-1.5,0-1.9c0.9-0.4,2.5-0.8,3.9-0.4c1.4,0.4,3.3,1,4,1.1
				c0.5,0,1.2,0.1,1.6-0.2c0.2-0.1,0.3-0.3,0.3-0.5c0-0.1,0-0.1,0-0.2c-0.2-0.2-0.5,0.1-0.7,0c-0.1-0.1-0.3-0.3-0.1-0.5
				c0.2-0.2,0.3-0.2,0.6-0.1c0.2,0.1,1,0.5,0.6,1.2c-0.4,0.7-1.8,1-2.8,0.9c-1-0.1-2.8-0.5-3.6-0.8c-0.9-0.3-1.6-0.4-2.2-0.3
				c-0.5,0.1-1.4,0.1-1.4,0.6c0,0.5,0.1,0.7,0.3,0.6c0.1,0,0.4-0.2,0.6-0.1C1146.6,501.5,1146.7,502.1,1146.3,502.1z"/>
			<path fill="#484848" d="M1153.3,490.1c0,0-0.1-0.3-0.5-0.2s-1,0.4-0.7,1c0.3,0.5,1,1.4,1.8,1.7c0.8,0.3,2,0.7,2.4,1
				c0.2,0.2,0.6,0.4,0.7,0.7c0,0.1,0,0.3,0,0.4c0,0-0.1,0.1-0.1,0.1c-0.2,0.1-0.2-0.2-0.4-0.2c-0.1,0-0.3,0.1-0.3,0.2
				c0,0.1,0.1,0.2,0.2,0.3c0.1,0.1,0.7,0.1,0.8-0.4c0.1-0.5-0.5-1.2-1.1-1.5c-0.5-0.4-1.6-0.8-2.1-1c-0.5-0.2-1-0.4-1.2-0.7
				c-0.2-0.2-0.7-0.6-0.5-0.8c0.2-0.2,0.3-0.3,0.4-0.2c0,0.1,0.1,0.2,0.3,0.3C1153.3,490.6,1153.5,490.3,1153.3,490.1z"/>
			<path fill="#5F4E41" d="M1133.4,490.1c-0.7,0.7-1.4,1.5-2,2.4c-0.1,0.1-0.1,0.2-0.2,0.3c0.9-0.1,2.1,0,3.9,0.3
				c3.7,0.6,6.6,1.8,7.5,2.9c0.9,1.1,2.7-4.7,2.7-4.7s-7.9-0.6-11.7-1.1C1133.6,490.1,1133.5,490.1,1133.4,490.1z"/>
			<path fill="#5F4E41" d="M1153.6,493.6l-1.4-1.7c-0.1-0.1-0.1-0.1-0.2-0.1c-0.1,0-0.2,0.1-0.2,0.1l-1.8,4.4c0,0.1,0,0.1,0,0.2
				l0.7,1.3c0,0.1,0.1,0.1,0.1,0.1c0,0,0,0,0.1,0c0.1,0,0.2,0,0.2-0.1l2.5-3.9C1153.7,493.8,1153.7,493.7,1153.6,493.6z"/>
			<path fill="#5F4E41" d="M1146.9,492.9l-1.3-1.6c0,0-0.1-0.1-0.2-0.1c-0.1,0-0.1,0-0.2,0.1l-1.9,2.3c0,0,0,0,0,0.1l-0.6,2.1
				c0,0.1,0,0.2,0.1,0.3l1.8,0.5c0.1,0,0.2,0,0.2-0.1l2-3.4C1146.9,493.1,1146.9,493,1146.9,492.9z"/>
			<path fill="#F0EFEF" d="M1193.3,506.7C1193.3,506.7,1193.3,506.7,1193.3,506.7l-41.3-14.8l-7.2-0.6c0,0-0.1,0-0.1-0.1
				c0,0,0-0.1,0.1-0.1l7.2,0.6c0,0,0,0,0,0l41.3,14.8C1193.3,506.6,1193.4,506.6,1193.3,506.7
				C1193.3,506.7,1193.3,506.7,1193.3,506.7z"/>
			<path fill="#F0EFEF" d="M1193,507.2L1193,507.2l-41.5-14.5l-6.9-0.8c0,0-0.1,0-0.1-0.1c0,0,0-0.1,0.1-0.1l6.9,0.8l41.5,14.5
				C1193.1,507.1,1193.1,507.1,1193,507.2C1193.1,507.2,1193.1,507.2,1193,507.2z"/>
			<path fill="#F0EFEF" d="M1143.9,493.1C1143.9,493.1,1143.9,493,1143.9,493.1c0-0.1,0-0.1,0-0.1l7.2,0.8l41.7,13.7c0,0,0,0,0,0.1
				c0,0,0,0-0.1,0l-41.7-13.7L1143.9,493.1C1143.9,493.1,1143.9,493.1,1143.9,493.1z"/>
			<path fill="#F0EFEF" d="M1142.9,494.1C1142.9,494.1,1142.9,494,1142.9,494.1c0-0.1,0-0.1,0-0.1l7.5,1.2l41.9,13.2c0,0,0,0,0,0.1
				c0,0,0,0-0.1,0l0,0l-41.9-13.2L1142.9,494.1C1142.9,494.1,1142.9,494.1,1142.9,494.1z"/>
			<g>
				<g>
					
						<rect x="1196" y="506.4" transform="matrix(0.8695 0.494 -0.494 0.8695 406.9267 -524.7208)" fill="#482E27" width="0.7" height="2.6"/>
					<circle fill="#482E27" cx="1197" cy="506.5" r="0.7"/>
				</g>
			</g>
			<g>
				<g>
					
						<rect x="1199.4" y="509.1" transform="matrix(0.8693 0.4944 -0.4944 0.8693 409.182 -526.3557)" fill="#482E27" width="0.7" height="2.6"/>
					<circle fill="#482E27" cx="1200.4" cy="509.3" r="0.7"/>
				</g>
			</g>
			<g>
				<g>
					
						<rect x="1198.4" y="514.5" transform="matrix(-0.8694 -0.4942 0.4942 -0.8694 1985.9695 1556.6396)" fill="#482E27" width="0.7" height="2.6"/>
					<circle fill="#482E27" cx="1198.1" cy="517" r="0.7"/>
				</g>
			</g>
			<g>
				<g>
					
						<rect x="1195" y="511.7" transform="matrix(-0.8694 -0.4941 0.4941 -0.8694 1981.2103 1549.7474)" fill="#482E27" width="0.7" height="2.6"/>
					<circle fill="#482E27" cx="1194.7" cy="514.2" r="0.7"/>
				</g>
			</g>
			<path fill="#5E4B45" d="M1192.8,511.5c0,0-0.7-0.3-0.8-0.7c-0.1-0.3,0.6-1.8,0.3-2c-0.2-0.2-0.2-0.2-0.2-0.2l1.2-2.2
				c0,0,0.2,0.7,1,1.1c0.8,0.4,1.7,0.2,2.4,0.7c0.7,0.5,3.1,2.1,4.5,4c0,0,0.6-0.2,0.6-0.6c0-0.5,1.1-0.9,1.9-0.7
				c0.7,0.2,3.4,1.8,2.5,3.8c-0.9,2-3.4,2.5-5.2,1.7c-1.8-0.8-4.1-2.6-4.6-3.1C1196,512.7,1195.2,512.2,1192.8,511.5z"/>
			
				<radialGradient id="SVGID_2_" cx="1281.8177" cy="353.3824" r="2.6916" gradientTransform="matrix(0.958 0.2868 -0.2868 0.958 70.0393 -194.7445)" gradientUnits="userSpaceOnUse">
				<stop  offset="0" style="stop-color:#E5D4B3"/>
				<stop  offset="1" style="stop-color:#E5D4B4"/>
			</radialGradient>
			<path fill="url(#SVGID_2_)" d="M1199.8,513.4C1199.8,513.4,1199.8,513.4,1199.8,513.4c-0.4-0.3-1.7-1.4-3.1-2.5
				c-1.4-1.1-3.2-1-3.2-1c-0.1,0-0.1,0-0.1-0.1c0-0.1,0-0.1,0.1-0.1c0.1,0,1.9-0.1,3.4,1c1.4,1.1,2.7,2.2,3.1,2.5c0,0,0.1,0.1,0,0.2
				C1199.9,513.4,1199.8,513.4,1199.8,513.4z"/>
			
				<radialGradient id="SVGID_3_" cx="1281.8177" cy="352.1192" r="2.6916" gradientTransform="matrix(0.958 0.2868 -0.2868 0.958 70.0393 -194.7445)" gradientUnits="userSpaceOnUse">
				<stop  offset="0" style="stop-color:#E5D4B3"/>
				<stop  offset="1" style="stop-color:#E5D4B4"/>
			</radialGradient>
			<path fill="url(#SVGID_3_)" d="M1200.1,512.2C1200.1,512.2,1200.1,512.2,1200.1,512.2c-0.4-0.4-1.7-1.4-3.1-2.5
				c-1.4-1.1-3.2-1-3.2-1c-0.1,0-0.1,0-0.1-0.1c0-0.1,0-0.1,0.1-0.1c0.1,0,1.9-0.1,3.4,1c1.4,1.1,2.7,2.2,3.1,2.5c0,0,0.1,0.1,0,0.2
				C1200.2,512.2,1200.2,512.2,1200.1,512.2z"/>
		</g>
		<g>
			<g>
				<path fill="#333333" d="M1151,526.1c-1.5,0-3-0.8-3.7-2.3c-1-2.1-0.2-4.5,1.9-5.5l30.6-15.1c2.1-1,4.5-0.2,5.5,1.9
					c1,2.1,0.2,4.5-1.9,5.5l-30.6,15.1C1152.3,526,1151.7,526.1,1151,526.1z"/>
				<path fill="#333333" d="M1175.8,505.1l-26.6,13.1c-2.1,1-2.9,3.5-1.9,5.5c0.7,1.5,2.2,2.3,3.7,2.3c0.6,0,1.2-0.1,1.8-0.4
					l26.8-13.2L1175.8,505.1z"/>
			</g>
			<circle fill="#333333" cx="1183" cy="505.2" r="5.5"/>
		</g>
		<g>
			<polygon fill="#5F4E41" points="1174.1,478.2 1173.8,478 1162.4,489.8 1128,525.6 1128.4,526 1128.9,526.3 1162.8,490.2 			"/>
			
				<rect x="1129.1" y="499.3" transform="matrix(-0.6688 0.7434 -0.7434 -0.6688 2301.3496 -26.306)" fill="#F0EFEF" width="54.9" height="0.3"/>
			<path fill="#5F4E41" d="M1175.6,478.3c0,0,0-0.1,0-0.1c0,0-0.1,0-0.1,0l-0.4,0.2l-1-0.6c0,0-0.1,0-0.1,0l-0.6,0.7
				c0,0,0,0.1,0,0.1l1.3,1.2c0,0,0.1,0,0.1,0c0,0,0.1,0,0.1,0L1175.6,478.3z"/>
			<path fill="#5F4E41" d="M1138.3,519.9l-0.4-0.4c-0.1-0.1-0.2-0.1-0.3,0l-0.8,0.8c-0.1,0.1-0.4,0.1-0.5,0c-0.2-0.2-0.2-0.4,0-0.5
				l0.8-0.8c0.1-0.1,0.1-0.2,0-0.3l-0.4-0.4c-0.2-0.2-0.6-0.2-0.8,0l-3.1,3.2c-0.2,0.2-0.2,0.6,0.1,0.8l1.7,1.6
				c0.2,0.2,0.6,0.2,0.8,0l3.1-3.2C1138.5,520.5,1138.5,520.2,1138.3,519.9z"/>
		</g>
		<g>
			<path fill="#333333" d="M1087.9,520.5c-0.6,0-1.3-0.1-1.9-0.4c-2.5-1-3.6-3.9-2.6-6.3l8.2-19.5c1-2.5,3.9-3.6,6.3-2.6
				c2.5,1,3.6,3.9,2.6,6.3l-8.2,19.5C1091.6,519.4,1089.8,520.5,1087.9,520.5z"/>
			<path fill="#333333" d="M1126.4,533.2c-0.4,0-0.9-0.1-1.3-0.2l-38.9-12.6c-2.2-0.7-3.4-3.1-2.7-5.3c0.7-2.2,3.1-3.4,5.3-2.7
				l38.9,12.6c2.2,0.7,3.4,3.1,2.7,5.3C1129.8,532.1,1128.2,533.2,1126.4,533.2z"/>
			<path fill="#333333" d="M1121.2,522.8l-32.4-10.5c-2.2-0.7-4.6,0.5-5.3,2.7c-0.7,2.2,0.5,4.6,2.7,5.3l32.4,10.5L1121.2,522.8z"/>
			<circle fill="#333333" cx="1126.6" cy="527.7" r="5.5"/>
		</g>
	</g>
	<g>
		<polygon opacity="0.24" fill="#FFFFFF" points="977.7,588.7 955.8,462.4 889,76 863.5,76 741,446.4 693.9,588.7 		"/>
		<polygon opacity="0.24" fill="#FFFFFF" points="121,588.7 451.6,588.7 364.6,451.2 127.7,76.7 110.9,74.7 119.8,527.2 		"/>
		<polygon opacity="0.24" fill="#FFFFFF" points="364.2,588.7 650,588.7 571.4,436.8 384.7,75.8 363.5,75.8 364.1,490.5 		"/>
		<polygon opacity="0.24" fill="#FFFFFF" points="756.2,588.7 733.8,487.9 642.5,76.9 617.1,78.6 518.4,485.1 493.2,588.7 		"/>
		<polygon opacity="0.24" fill="#FFFFFF" points="1138.7,588.7 1139,481.9 1140,72.5 1117.5,78.5 927.5,432.8 843.8,588.7 		"/>
		<g>
			<rect y="0.1" fill="#333333" width="1250" height="14.9"/>
			<rect y="64.6" fill="#333333" width="1250" height="7.4"/>
			<rect y="22.8" fill="#333333" width="1250" height="5.1"/>
			<g>
				<g>
					<path fill="#333333" d="M83.4,6L69.2,33.4L56.1,58.6L43,33.4L28.8,6h27.3H83.4 M93.5,0.1H56.1H18.7l18.7,36l18.7,36l18.7-36
						L93.5,0.1L93.5,0.1z"/>
					<rect x="53.7" y="7.5" fill="#333333" width="4.7" height="57.1"/>
				</g>
				<g>
					<path fill="#333333" d="M150.3,6l-14.2,27.4L123,58.6l-13.1-25.2L95.7,6H123H150.3 M160.4,0.1H123H85.6l18.7,36l18.7,36
						l18.7-36L160.4,0.1L160.4,0.1z"/>
					<rect x="120.7" y="7.5" fill="#333333" width="4.7" height="57.1"/>
				</g>
				<g>
					<path fill="#333333" d="M217.3,6L203,33.4l-13.1,25.2l-13.1-25.2L162.6,6h27.3H217.3 M227.3,0.1h-37.4h-37.4l18.7,36l18.7,36
						l18.7-36L227.3,0.1L227.3,0.1z"/>
					<rect x="187.6" y="7.5" fill="#333333" width="4.7" height="57.1"/>
				</g>
				<g>
					<path fill="#333333" d="M284.2,6L270,33.4l-13.1,25.2l-13.1-25.2L229.6,6h27.3H284.2 M294.3,0.1h-37.4h-37.4l18.7,36l18.7,36
						l18.7-36L294.3,0.1L294.3,0.1z"/>
					<rect x="254.5" y="7.5" fill="#333333" width="4.7" height="57.1"/>
				</g>
				<g>
					<path fill="#333333" d="M351.1,6l-14.2,27.4l-13.1,25.2l-13.1-25.2L296.5,6h27.3H351.1 M361.2,0.1h-37.4h-37.4l18.7,36l18.7,36
						l18.7-36L361.2,0.1L361.2,0.1z"/>
					<rect x="321.5" y="7.5" fill="#333333" width="4.7" height="57.1"/>
				</g>
				<g>
					<path fill="#333333" d="M418.1,6l-14.2,27.4l-13.1,25.2l-13.1-25.2L363.4,6h27.3H418.1 M428.1,0.1h-37.4h-37.4l18.7,36l18.7,36
						l18.7-36L428.1,0.1L428.1,0.1z"/>
					<rect x="388.4" y="7.5" fill="#333333" width="4.7" height="57.1"/>
				</g>
				<g>
					<path fill="#333333" d="M485,6l-14.2,27.4l-13.1,25.2l-13.1-25.2L430.4,6h27.3H485 M495.1,0.1h-37.4h-37.4l18.7,36l18.7,36
						l18.7-36L495.1,0.1L495.1,0.1z"/>
					<rect x="455.3" y="7.5" fill="#333333" width="4.7" height="57.1"/>
				</g>
				<g>
					<path fill="#333333" d="M551.9,6l-14.2,27.4l-13.1,25.2l-13.1-25.2L497.3,6h27.3H551.9 M562,0.1h-37.4h-37.4l18.7,36l18.7,36
						l18.7-36L562,0.1L562,0.1z"/>
					<rect x="522.3" y="7.5" fill="#333333" width="4.7" height="57.1"/>
				</g>
				<g>
					<path fill="#333333" d="M618.9,6l-14.2,27.4l-13.1,25.2l-13.1-25.2L564.2,6h27.3H618.9 M628.9,0.1h-37.4h-37.4l18.7,36l18.7,36
						l18.7-36L628.9,0.1L628.9,0.1z"/>
					<rect x="589.2" y="7.5" fill="#333333" width="4.7" height="57.1"/>
				</g>
				<g>
					<path fill="#333333" d="M685.8,6l-14.2,27.4l-13.1,25.2l-13.1-25.2L631.1,6h27.3H685.8 M695.9,0.1h-37.4h-37.4l18.7,36l18.7,36
						l18.7-36L695.9,0.1L695.9,0.1z"/>
					<rect x="656.1" y="7.5" fill="#333333" width="4.7" height="57.1"/>
				</g>
				<g>
					<path fill="#333333" d="M752.7,6l-14.2,27.4l-13.1,25.2l-13.1-25.2L698.1,6h27.3H752.7 M762.8,0.1h-37.4H688l18.7,36l18.7,36
						l18.7-36L762.8,0.1L762.8,0.1z"/>
					<rect x="723.1" y="7.5" fill="#333333" width="4.7" height="57.1"/>
				</g>
				<g>
					<path fill="#333333" d="M819.6,6l-14.2,27.4l-13.1,25.2l-13.1-25.2L765,6h27.3H819.6 M829.7,0.1h-37.4h-37.4l18.7,36l18.7,36
						l18.7-36L829.7,0.1L829.7,0.1z"/>
					<rect x="790" y="7.5" fill="#333333" width="4.7" height="57.1"/>
				</g>
				<g>
					<path fill="#333333" d="M886.6,6l-14.2,27.4l-13.1,25.2l-13.1-25.2L831.9,6h27.3H886.6 M896.6,0.1h-37.4h-37.4l18.7,36l18.7,36
						l18.7-36L896.6,0.1L896.6,0.1z"/>
					<rect x="856.9" y="7.5" fill="#333333" width="4.7" height="57.1"/>
				</g>
				<g>
					<path fill="#333333" d="M953.5,6l-14.2,27.4l-13.1,25.2l-13.1-25.2L898.9,6h27.3H953.5 M963.6,0.1h-37.4h-37.4l18.7,36l18.7,36
						l18.7-36L963.6,0.1L963.6,0.1z"/>
					<rect x="923.8" y="7.5" fill="#333333" width="4.7" height="57.1"/>
				</g>
				<g>
					<path fill="#333333" d="M1020.4,6l-14.2,27.4l-13.1,25.2L980,33.4L965.8,6h27.3H1020.4 M1030.5,0.1h-37.4h-37.4l18.7,36
						l18.7,36l18.7-36L1030.5,0.1L1030.5,0.1z"/>
					<rect x="990.8" y="7.5" fill="#333333" width="4.7" height="57.1"/>
				</g>
				<g>
					<path fill="#333333" d="M1087.4,6l-14.2,27.4l-13.1,25.2L1047,33.4L1032.7,6h27.3H1087.4 M1097.4,0.1h-37.4h-37.4l18.7,36
						l18.7,36l18.7-36L1097.4,0.1L1097.4,0.1z"/>
					<rect x="1057.7" y="7.5" fill="#333333" width="4.7" height="57.1"/>
				</g>
				<g>
					<path fill="#333333" d="M1154.3,6l-14.2,27.4L1127,58.6l-13.1-25.2L1099.7,6h27.3H1154.3 M1164.4,0.1H1127h-37.4l18.7,36
						l18.7,36l18.7-36L1164.4,0.1L1164.4,0.1z"/>
					<rect x="1124.6" y="7.5" fill="#333333" width="4.7" height="57.1"/>
				</g>
				<g>
					<path fill="#333333" d="M1221.2,6L1207,33.4l-13.1,25.2l-13.1-25.2L1166.6,6h27.3H1221.2 M1231.3,0.1h-37.4h-37.4l18.7,36
						l18.7,36l18.7-36L1231.3,0.1L1231.3,0.1z"/>
					<rect x="1191.6" y="7.5" fill="#333333" width="4.7" height="57.1"/>
				</g>
			</g>
		</g>
		<ellipse fill="#333333" cx="121.4" cy="75.8" rx="22.9" ry="22.9"/>
		<ellipse fill="#333333" cx="372.7" cy="75.8" rx="22.9" ry="22.9"/>
		<ellipse fill="#333333" cx="624" cy="75.8" rx="22.9" ry="22.9"/>
		<ellipse fill="#333333" cx="875.2" cy="75.8" rx="22.9" ry="22.9"/>
		<ellipse fill="#333333" cx="1126.5" cy="75.8" rx="22.9" ry="22.9"/>
	</g>
</g>
</svg>
