<?xml version="1.0" encoding="utf-8"?>
<!-- Generator: Adobe Illustrator 17.1.0, SVG Export Plug-In . SVG Version: 6.00 Build 0)  -->
<!DOCTYPE svg PUBLIC "-//W3C//DTD SVG 1.1//EN" "http://www.w3.org/Graphics/SVG/1.1/DTD/svg11.dtd">
<svg version="1.1" id="Calque_1" xmlns="http://www.w3.org/2000/svg" xmlns:xlink="http://www.w3.org/1999/xlink" x="0px" y="0px"
	 viewBox="0 0 1250 437" enable-background="new 0 0 1250 437" xml:space="preserve">
<path fill="#A6BCE2" d="M1249.1,369.3l0-1.2h-6.9v0h-5.5l-2.1-1l-1.6-0.8v-0.7l-10.9,0l0-2.9l0.3-0.6v-0.8l-3.2,0v-0.8l-0.5-0.7v-2
	l0.2-0.7v-0.6l-0.9,0v-0.8l0-24.4h0.1l0.1-1.5l0-2l0.3-0.6l0.1-1.9v-0.6l-0.4-0.2v-1.1l0-0.5l-0.3-0.2l-0.2-0.1l-0.3,0.3l-0.1,0.3
	v0.2l-0.7-0.5v-1l-0.1-0.4l-0.3-0.1l-0.3-0.1l-0.3,0.3l-0.1,0.6v0.1l-3-0.1v-0.1l-0.1-0.6l-0.3-0.3l-0.3,0.1l-0.2,0.1l-0.1,0.4v1
	l-0.8,0.5l0-0.2l-0.1-0.4l-0.3-0.3l-0.2,0.1l-0.3,0.2l0,0.5v1l-0.4,0.2v0.6l0.3,1.9l0.1,0.2l0,2.4l0.2,1l-0.1,25.1v0.8h-0.9v0.6
	l0.2,0.7l0,2l-0.6,0.7v0.8l-3.4,0l0,0.8l0.3,0.6l0,3.4l-0.2,0v-0.5l-3.8,0l0-0.2l-9.6-1.8l0-2.5l0.3-0.1v-0.7l0-2.3l-2.2,0l0,2.3
	l-0.7,0l0.7-4.3l0.5-3.6l0.2-1.3l0,0l0.2-1l0-0.1l1-6.5l1.9-12.4l-0.1-0.7v0l-0.1-0.5l-0.1-1.2l-0.2,1.2l0-0.2l0,0l0.1-0.3l-0.1-0.9
	l-0.1,0.3l0-0.1l0.1-0.3l0-0.5l-0.1,0l-0.1-1l0,0l0.3,0.1l0-0.2h0l-0.5-3l-0.2-0.2l0.1-0.2l0,0l-0.7-0.7l-0.1-0.1l-0.4-0.5l-1-1.2
	l0,0l-0.2,0h0l-0.3-0.1l-1.1-0.4l-0.1-0.2l-0.2-0.1l-0.2,0l0,0l-0.2-0.1l-0.3,0l0,0l-0.1-0.1l-0.3-0.1l-1-0.2l-0.2-0.2l-0.2-0.1
	l-0.4,0l-1-0.4l-0.1-0.1l-0.3-0.1l-0.5-0.1l-0.8-0.3l-3.1-0.5l-1.2,0l-0.6-0.1l-0.4,0l-0.3,0.1l-0.8,0l-1.2-0.1l-0.8,0l-0.7,0.1
	l-0.3,0l-0.4-0.1l-0.6,0h-0.5l-0.2,0.1l-2.8,0l-0.7-0.1l-0.5,0l-0.4,0.1l-2.6,0l-3,0.3l-0.4-0.1l-0.7,0.1l-0.7,0.2l-4.9,0.6
	l-0.5-0.1l-0.8,0.1l-0.8,0.1l-0.1,0.1l-3.3,0.4l-0.7,0l-0.9,0.1l-0.1,0l0,0l-0.7,0.1l-0.3,0.2l-4.2,0.5l-3,0.5l-0.1-0.1l-0.8,0.1
	l-0.3,0.2l-7.9,1.3l-0.4,0l-1,0.2l-1,0.2l-0.1,0.1l-1.7,0.3l-0.4-0.1l-1,0.2l-0.9,0.3l-2.7,0.4l0-0.1l-1.9,0.3l-1.2,0.3l-2.5,0.4
	l-1.9,0.3l0-0.1l-0.9,0.2l-0.1,0.1l-10.4,1.7l-0.3-0.1l-1.1,0.2l-1.1,0.2l-0.2,0.2l-2.1,0.3l-1.4,0.1l-0.1,0l-1.1,0.2l-0.7,0.2
	l-3,0.5h-0.3l-0.2,0l-1.4,0.2l-0.3,0.2l-0.6,0.1l-5.1-1l-0.3-0.1l-0.6-0.1l0,0.1l-2.2-0.4l-2.3-0.4l-1.2-0.3l-0.1-0.1l-0.6-0.1h0
	l-0.1,0l-0.8-0.1l-0.3,0l-2.2-0.4l-0.8-0.2l0,0l-0.7-0.1l-0.6-0.1l-0.2,0l-4-0.7l-1.2-0.3l-0.6-0.1l-0.2,0l-2.9-0.5l-2.5-0.3
	l-0.8-0.2l-0.5-0.1l-0.2,0.1l-3.5-0.4l-0.4-0.1l-0.1-0.1l-0.6-0.1l-0.7-0.1l-0.2,0l-1.5-0.2l-1-0.1l-0.5,0l-1.9-0.2l-0.5-0.1
	l-0.5-0.1l-0.2,0.1l-2.1-0.2l-1.3,0l-0.5-0.1h-0.4l-0.4,0.1h-0.1l-0.3-0.1l-0.4,0l-0.3,0.1l-2.9,0l-0.2-0.1h-0.5h-0.5l-0.5,0.1h-1.5
	l-0.2-0.1h-0.6h0l-0.5,0l-0.3,0.1l-1.5,0l-0.8-0.1l-0.6,0l-0.6,0.1l-0.2,0l-0.9,0.1l-0.2-0.1l-0.4,0.1l-0.8,0.2l-2.6,0.4l-0.2-0.1
	l-0.4,0.1l-0.4,0.1l-0.4,0.1h-0.1l-0.6,0.1l-1.3,0.3l-0.1,0l-0.4,0.1l-1.2,0.3l-1.2,0.2l-1.3,0.3l-0.5,0l-0.9,0.2l-0.2,0.1l-0.1,0.3
	l-0.9,0.2l-0.2,0.1l-0.2,0.2l-0.8,0.5l-0.3,0l-0.2,0.1l-0.1,0.1l-0.2,0.1l-0.2,0.1l-0.1,0.2l-0.1,0l-0.1,0l-0.1,0l-1,0.6l0,0.1
	l-0.7,0.4l-0.3,0l-0.2,0.1l-0.1,0.1l-0.2,0l-0.1,0.1l-1.2,1.4l0,0l-1.1,1.5l-0.3,4l0,0.1l0.5,2.3l0.2,1.1l0.3,1.1l0.1,0.6l0.2,1.2
	l0,0l1.2,5.3l-0.1-0.5l-0.1-0.5l-0.1-0.6l-0.1-0.6l-0.2-1l-0.1-0.3l-0.2-0.9l0.3,1.6l-0.4-2l-0.1-0.3l0.8,3.8l-0.9-3.9l0,0l0.1,0.5
	l-0.1-0.5l0,0l-0.9-4.4v0l0,0.2l0.6,3l-0.2-0.9l-0.4-1.7l0,0.2l0.2,1l-0.2-0.8l0.1,0.3l0.4,1.7l1.2,5.6l0.6,2.8l-2.1-9.6l0,0.2
	l0.8,3.5l0.1,0.4l1.3,5.8l0.1,0.4l0.1,0.3l-0.6-2.7l0.9,3.9l-1.1-4.9l-0.3-1.2l-0.1-0.5l-0.1-0.2l0.1,0.2l0.4,1.9l-0.3-1.4l0.8,3.7
	l0.2,0.8l0,0l-0.4-1.9l0.4,1.9h0l2,9.2l-0.2-0.9l0-0.2l-0.5-2.2l0.2,0.9l0.7,3.2v0l-0.6-2.9l0.3,1.4l0.3,1.5v0l-0.1-0.6l0.1,0.4
	l0,0.2v0h0h0l0.1,0.4l0,0l0,0l0.2,0.9l1.1,5l0,0l0.2,1.1l0,0l0.1,0.3l-3.9,0.5l-0.1-2.9l0.4,0l0-0.8l-1.6-0.1l-5.6,0.3l1.8-31.2
	l-14.3-1.6l2.7-15.2l-9.1,1.1v-0.4l-11.6-0.1l-2.3,0.5l0,1.6l-1.2,0.1l-1.1-15.5l-4.6-0.1l0-4l-1.1-0.2l-12.7,0.5l-0.8,0.7v2.6h-0.2
	l-0.3,0.3l-2.1,0v-0.5l-6-0.1l-0.4,0.5l-3.4,0l-1.2,1.7l0.1,44l-0.7,14.5l-24.6,0.4l-1.2-17.5l-1-14l0.6-14.9l2.2-14.6l-10.9,0
	l0-3.9l-1.5-0.2l-12,0.5l0,0.9l0,0l-0.1,0.1l-0.1,0.1l0,0.1l0,0.1l0,0.2l0.1,0.1l0.1,0v0.5l-0.2,0v0.1l0,0.1l0,0.1l0,0.1l0.1,0.1
	l0,0l0,0.7l-2.1,0l0,0.3l-2.4,0l-2.3-0.1l-0.1-0.1h-0.2v-0.2l-0.4-0.3l-3.2,0l0,0.4l-1.8-0.1v-0.1l-0.4-0.3l-3.2,0l0,0.3l-6.4-0.2
	l4.1,30.2l-1.9,37.9h-0.2l0-0.2l-1-8l-12.5-95.9l-57.8-7.8l-2.8,24.6l0,0.3l1.5,6.6l1,5.2l-2.4,28l0,0.4l-3,33.4l-10.8-0.3
	l-1.3-102.8l0-1.5l0-1.1l3.8-3.2v-0.2l0-0.9l-6.1,0v0l0.1-0.2l0-3.7l-12.4,0l-0.1,0.2l-14,0l-0.3,2.3h-0.4l-0.1,1v0.4l-4.1,0l0,0.9
	v0.2l1.5,1.9v1.5l1.4,1.2l0,0.9h-1.3l0,1.9h-0.1l0,0.7l1.4,1.2l0,7.2H742l0,1.9h-0.1l0,0.7l1.1,0.8l-0.7,0.5l0,0.2l0,6.9l-0.3,0v2
	h-0.1l0,0.7l0.4,0.3l0,8.2H742l0,2H742l0,0.7l0.4,0.2l0,8.3h-0.3l0,2H742v0.7l0.4,0.2l0,8.4h-0.3l0,2H742v0.7l0.4,0.1l0,8.5h-0.3
	l0,2h-0.1v0.7l0.4,0.1l0,8.6h-0.3l0,2h-0.1l0,0.7l0.4,0.1l0,8.7h-0.3l0,2.1h-0.1v0.7l0.4,0l0,10.2h-10.4l0-87.3h0.9v-0.2v-0.8
	l-0.9-0.3l-0.7-0.2v-7.9v-1.9l0-2.4h-1.8l-22.1,0l0,3.4h-0.2l-0.1,8.6l-1.7,0.7l0,0.8l0,0l0,3.3h-1l-0.7,84.4h-3.5l-0.3-137.9
	l-23-0.8l-2.5,7.8l0,117.3l-3.8,0l0,2.5l-3.3,0l0.2-166.6l-19-0.9l-0.5,167.6l-3,0l0-2.6l-3.7,0l0.6-119.5l-2-8.2l-24.1-0.9
	l-0.9,134.6l-3,0l-0.1-4.2l-3.8-0.1l-0.8-72.4l-1.9-0.3l0-3.3l-1.4-5.3l-3.5-0.1l-1.2-3.8l-4.8-0.1l-1.8-5.5l0.8-4.2l-4.8-0.1
	l-0.7-3.1l0-9l-0.8-22l-1.8,0l-0.1,0.9l-1,22.6l0,8.2l-0.5,2.3l-4.3-0.1l-0.5,5.8l0.6,0l-1.2,3.9l-4.4-0.1l-1,3.7l-3,0l-1.3,5.3
	l0,3.3l0,1.9l-1.9,0l-0.4,0.4l-1.2,74.4h-0.1l0,0.4l0,0.1l-0.2,9.3l-5.8-0.1l-10.5,0.4v-9.9h0.1l4.8-1.1l-9.1-5l1,0h0v-3.7h0h0
	l3.6-1.5l-7.1-5.2V328h0l4.2-1.1l-17.3-11.6l0.2,0h0.3l0.2,0h0.1v-1.1l0,0h-0.1h-0.2h-0.3v-1.8l0.2-0.3l0.1-0.4l0-0.5l0-0.5
	l-0.1-0.4l-0.2-0.4l-0.2-0.3l-0.3-0.2l-0.3-0.1h0h0h0h0h0h0h0h0h0h0l0,0h0l-0.3,0.1l-0.3,0.2l-0.2,0.3l-0.2,0.4l-0.1,0.4l0,0.5
	l0,0.5l0.1,0.4l0.1,0.3h0v1.9h-0.1h-0.3h-0.2h-0.1v1.2h0l0.1,0h0.2l0.3,0h0.1l-17.2,11.6l3.9,0.9h0.2l-0.1,0.1v0v2.9l0.1,0l-7.2,5.2
	l3.6,1.5h0l0,0v0.1v3.6l0.1,0l-8.1,5l4.9,1l-1,0l0.2,0l0.8,0v12.7l-0.3,0h0v2.3l-8.3,0l-1.5-13.6l-0.3-2.3l-31.7,0.1l-0.4-1l-13.8,0
	l0-5l6-3l-9.1-3.2l0-1.5l4.1-2.8l-8.9-3.2l-4.3-11.6h0.2l0.1-0.1l0.3-1.1v-2.6l-0.3-0.3l-0.1,0.1l-0.4,2.1l-0.5,0l-0.4-1.2l-0.7-0.8
	l-1.1,0.2l-0.1,0.1l-0.3,0.9l0.7,2.1l-74.2,0.6l0.6-2.1l-0.3-0.9l-0.1-0.1l-1.1-0.2l-0.7,0.8l-0.4,1.2l-0.5,0l-0.4-2.1l-0.1-0.1
	l-0.3,0.3l0,2.5l0.3,1l0.1,0.1h0.2l-4.4,11.5l-8.7,3.3l4,2.6l0,1.7l-8.9,3.2l5.7,2.7l0,5.2l-12.3,0l-0.4,0.9l-18.7,0.1l0-16.2
	l-1.7-0.4l0-10.3l-3.4-1.1V314l1.4-0.5l0.4-4l-11-7.5l-0.6-0.3v-1.9l-0.1-0.2l-0.1-0.1l-0.2-0.1l-0.3-0.1l-0.3-0.1l-0.3,0l-0.3,0
	l-0.3,0.1l-0.2,0.1l-0.2,0.1l-0.1,0.1l0,0.2l0,1.8l-0.7,0.4l-12,7.1l1.9,3.4l0,5.8l-3.8,1.5l0.1,10.3l-1.9,0.5l0.1,18.7l-35.1,0
	l-0.3-17.9l-0.2-13.9l-0.1-0.1l-0.2-0.1l-0.3-0.1l-0.3,0l0-0.5l-0.1-0.9l0-0.3l0-0.5l0.1-0.1l0-0.2l0-0.1l-0.1-0.1l-0.1-0.1
	l-0.1-0.1h-0.9l-0.1,0.1v0.3l0,0.3l0,0.4l-0.3,1.2l0,0.9l-0.1,0l-0.3,0.1l-0.2,0.1l-0.1,0.1l0,0.1l0.1,9.5h-1.4l-0.1,0.1l0,2.1
	l-15.6-0.1l0-2.2h-1.1l0-5.5l-0.1-11.7l0-0.1l-0.1-0.1l-0.2-0.1l-0.3-0.1l-0.3,0l0,0l0-0.5l-0.1-0.9l0-0.3v-0.5l0.1-0.2v-0.2l0-0.1
	l0-0.1l0-0.1l0-0.1l-0.9,0l-0.1,0.2l0,0.3l0,0.3v0.4l-0.2,1.3l0,0.7l0,0l-0.3,0.1l-0.3,0.1l-0.2,0.1l-0.1,0.1l0,5.2l-2.4,0l-0.1,0.2
	l0,2l-25.9-0.1l0-2l0-0.2l-1.8,0l0-5.2l-0.1-0.1l-0.2-0.1l-0.3-0.1l-0.3-0.1l-0.2,0l0-0.7l0-1.3v-0.4l0-0.3v-0.3l0-0.2l-0.9,0l0,0.1
	l0,0.1l0,0.1l0,0.1l0,0.2l0,0.2v0.5l0,0.3l0,0.9v0.5v0l-0.3,0l-0.3,0.1l-0.2,0.1l-0.1,0.1l0,0.1l-0.1,11.7l0,5.5l-1.2,0l0,2.2
	L172,329l0-2.1l-0.1-0.1l-1.2,0l0,3.6h-0.1l0.1-13.1l0-0.1l-0.1-0.1l-0.2-0.1l-0.3-0.1l-0.2,0l0-0.8l-0.2-1.2v-0.4l0-0.3l0-0.3
	l-0.1-0.1l-0.9,0l-0.1,0.1l-0.1,0.2l0,0.1l0,0.1v0.2l0.1,0.1v0.5l0,0.3l-0.1,0.9l0,0.5l-0.3,0l-0.3,0.1l-0.2,0.1l-0.1,0.1l-0.2,13.9
	l-0.2,20.1l-0.1,9.5l-1.3-0.5l-1.5-0.6l-1.5-0.7l-1.4-0.8l-1.4-0.9l-1.4-0.9l-1.4-1l-1.3-1.1l-1.3-1.2l-0.9-0.8V351h0H153h-0.1v1.1
	L152,353l-1.3,1.1l-0.9,0.7l-1.5,0v0l-4.5-1.6l0-6.1h-0.1v-0.4h-3.6l0-3.6v0h0l1-0.8l-2.2-1.6l-1.9,0.4l-2.1,1.6l1,0.8l0,0l0,3.3h-4
	v-0.2h0v-0.5l-9.6,0v-1.6v0h-0.3v-5.8l0.1,0l5.3-2h-0.9l-0.1,0l-0.5-0.1l-0.5-0.1l-0.5-0.1l-0.5-0.2l-0.5-0.2l-0.4-0.2l-0.4-0.3
	l-0.4-0.3l-0.4-0.3l-0.3-0.2l0.2-0.1l-1.7-10.4v-1.5v-1.9l-0.1,0l-0.1-0.1l0-0.1l0-0.1l-0.1-0.1l-0.1-0.1l-0.1-0.1l-0.1-0.2
	l-0.2-0.1l-0.2-0.1l0,0l-0.1,0l-0.1,0l-0.1-0.1h-1.1l-0.1,0.1v0.1l-0.4,0.1l-0.1,0.1v0.5l0.1,0.1l0.1,0.1l0.2,0.1l0.2,0.1l0.2,0
	l0.1,0l0.1,0.1l0.1,0l0.1,0.1l0.1,0.2l0.1,0.8l0,0.2l-0.2,0.2l-0.1,0.1l-55.6-0.1l-0.2-0.2l-0.1-0.1l0-0.1l0.1-0.8l0.2-0.2l0.1-0.1
	l0.1,0l0.1-0.1l0.1,0l0.2,0l0.2,0l0.2-0.1l0.1-0.1l0.1-0.1v-0.5l-0.1-0.1l-0.4-0.1l-0.1,0v-0.1l-0.1-0.1h-1.1l-0.1,0.1l-0.1,0h-0.1
	l0,0l-0.2,0.1l-0.2,0.1l-0.1,0.2l-0.1,0.1l0,0.1l-0.1,0.1l-0.1,0.1l0,0.1l-0.1,0.1l0,0v1.9v1.5l-0.8,10.4l-0.3,0.3l-0.4,0.3
	l-0.4,0.3l-0.4,0.3l-0.4,0.2l-0.4,0.2l-0.4,0.2l-0.5,0.1l-0.5,0.1l-0.5,0.1l-0.1,0h-0.8l2.9,2l2.5,0.8v4l-0.2,0.3l-0.5,0.8l-4.8,0
	v1.7h-4.7v0.5l0.1,0v0.2l-7.7,0v-3.3l1-0.8l-2.2-1.6l-1.3-0.4l-2.3,1.7l1,0.9l0,3.6h-2.5v0.4l0.1,0l0,6.1l-4.8,1.7h-0.2h-0.1
	l-0.8-0.7l-0.8-0.8l0-1.1l-0.1,0h0H29v1.1l-0.8,0.8l-1.2,1.1l-1.3,1.1l-1.3,1l-1.3,0.9l-1.3,0.8l-1.3,0.8l-1.4,0.7l-1.4,0.6
	l-1.4,0.5l-1.4,0.5l-1.4,0.4l3.3,3.7v3.1H3v37.9h1247v-37.9H1249.1z M1005.7,337.1L1005.7,337.1L1005.7,337.1l-0.4-1.6l0,0.1l0,0.1
	l0,0.1l0,0.2l0,0.1l0,0.2L1005.7,337.1z M188.8,361l-0.2,0l-0.5,0l-0.4,0l-0.2,0v0.5h-0.4l0,2.6l0,0l0.1,0l0.3,0.1h0.1l0,0l0.1,0.1
	l0.1,0.1l0,0.1l0,0.1l0,0.1l0,0.1l0,0.2l-0.1,0.1l-0.1,0.1l-0.1,0.1l-0.1,0.1l-0.1,0.1l-0.1,0.1l-0.1,0.2l0,0.2l0,0.2l0,0.2l0,0.2
	l0,0.2l0.1,0.2l0.1,0.2l0.1,0.2l0.1,0.1v1.3l-0.3,0v0.4h-15.4l0-0.4h-0.4l0-1.3l0.1-0.1l0.1-0.1l0.1-0.2l0.1-0.2l0-0.2l0-0.2l0-0.2
	l0-0.2l0-0.2l-0.1-0.2l-0.1-0.1l-0.1-0.1l-0.1-0.1l-0.1-0.1l-0.1-0.1l0-0.1l0-0.1l0-0.1l0-0.1l0-0.1l0.1-0.1l0.1-0.1l0.1-0.1
	l0.1-0.1h0.4l0-2.5l-0.6-0.1l0-0.6l-0.1,0l-0.3,0l-0.4,0l-0.4,0h0l0-1.9h1l0.8-4.2l1.1,0l1-0.6h0.7l0.9,0l0.7-1.4l6.6,0l0.7,1.4
	l0.1,0.1h0.9h0.7l1,0.6l1.1,0l0.8,4.1l0,0l0.6,0L188.8,361z M222.1,361l-0.4,0l-0.3,0l-0.1,0l0,0.5l-0.5,0.1l0,2.5h0.3h0l0.1,0.1
	l0.1,0.1l0.1,0.1l0,0.1l0,0.1l0,0.1l0,0.1l0,0.1l0,0.1l-0.1,0.1l-0.1,0.1l-0.1,0.1l-0.1,0.1L221,366l-0.1,0.2l-0.1,0.2l0,0.2v0.2
	v0.2l0,0.2l0.1,0.2l0.1,0.2l0.1,0.1l0.1,0.1l0,1.3h-0.3v0.4h-27.5v-0.4H193v-1.3l0.1-0.1l0.1-0.1l0.1-0.2l0.1-0.2l0-0.2l0-0.2l0-0.2
	l0-0.2l0-0.2l-0.1-0.2l-0.1-0.1l-0.1-0.1l-0.1-0.1l-0.1-0.1l-0.1-0.1l0-0.1l0-0.1l0-0.1l0-0.1l0-0.2l0-0.1l0.1-0.1l0.1-0.1l0.1-0.1
	h0.3l0-2.5l-0.2-0.2H193V361l-0.2,0l-0.4,0l-0.4,0H192h-0.1l0.1-14.3l0,0.1h1.1l0.8-4.1h1.1l1-0.6h0.7l0.9,0l0.7-1.4l18.1,0l0.6,1.1
	h0.9l0.7,0l1,0.6h1.1l0.8,4.1l0.9,0l0.1,14.5L222.1,361z M243.8,360.9l-0.5,0l-0.3,0l-0.2,0l0,0.6l-0.8,0.1l0,2.5h0.3h0.1l0.1,0.1
	l0.1,0.1l0.1,0.1l0.1,0.1l0,0.1l0,0.1l0,0.1l0,0.1l0,0.1l-0.1,0.1l-0.1,0.1l-0.1,0.1l-0.1,0.1l-0.1,0.1l-0.1,0.2l-0.1,0.2l0,0.2
	l0,0.2l0,0.2l0,0.2l0.1,0.2l0.1,0.2l0.1,0.1l0.1,0.1l0,1.3h-0.4l0,0.4h-14.8l0-0.4l-0.4,0l0-1.3l0.1-0.1l0.1-0.2l0.1-0.2l0-0.2
	l0-0.2l0-0.2l0-0.2l0-0.2l-0.1-0.2l-0.1-0.2l-0.1-0.2l-0.1-0.1l-0.1-0.1l-0.1-0.1l-0.1-0.1l0-0.1l0-0.1l0-0.1l0-0.1l0-0.1l0-0.1
	l0.1-0.1l0.1-0.1l0.1-0.1l0.4,0l0,0l0-2.5h-0.6v-0.5l-0.1,0l-0.3,0l-0.3,0l-0.1,0l-0.4,0l0-2h1l0.1,0l0.8-4.1h1l0.1-0.1l0.9-0.5h0.7
	h0.9l0.1,0l0.7-1.3l6,0l0.7,1.4l0.9,0h0.7l1,0.6l1.1,0l0.9,4.1h0.9l0,1.9L243.8,360.9z M434.5,363.7l0.2-0.6l0.4-0.5l0.5-0.4
	l0.5-0.2l0.6-0.1l0.6,0.1l0.6,0.3l0.5,0.4l0.4,0.5l0.3,0.6l0.1,0.8l0,3.9h-4.9l0-1.7l0-2.3L434.5,363.7z M416.8,362.6l0.3-0.8
	l0.5-0.7l0.6-0.5l0.8-0.3l0.8-0.1l0.8,0.1l0.8,0.3l0.7,0.5l0.5,0.7l0.3,0.8l0.1,1l0,4.8h-6.6v-1.7l0-3.2L416.8,362.6z M394.7,361.5
	l0.4-1.1l0.7-0.9l0.9-0.7l1-0.4l1.1-0.1l1.1,0.1l1,0.4l0.9,0.7l0.7,0.9l0.4,1.1l0.1,1.1l0,5.8h-8.3v-5.8L394.7,361.5z M374.6,362.6
	l0.3-0.8l0.5-0.7l0.7-0.5l0.8-0.3l0.8-0.1l0.8,0.1l0.8,0.3l0.6,0.5l0.5,0.7l0.3,0.8l0.1,1l0,3.2v1.7h-6.5l0-4.8L374.6,362.6z
	 M358.8,363.7l0.3-0.6l0.4-0.5l0.5-0.4l0.6-0.3l0.6-0.1l0.6,0.1l0.5,0.2l0.5,0.4l0.4,0.5l0.2,0.6l0.1,0.8l0,2.3l0,1.7h-4.8l0-3.9
	L358.8,363.7z M827,345.3l-21.3-0.1l2.8-31l2.2-24.4l12.8,0.2l5.3,52.7L827,345.3z M1002.9,369.3L1002.9,369.3h0.2H1002.9z
	 M1004.3,369.3L1004.3,369.3l0.9,0v0H1004.3z M1007.1,369.3l0-0.3l1-0.1l0,0.4H1007.1z M1009.1,352.6l-0.5-2.5l-0.1-0.4l0-0.1l0-0.1
	l-0.1-0.3l0.3,1.2l0.1,0.5l0.1,0.6l0.5,2.1l0.1,0.5l0,0l-0.2-1L1009.1,352.6z M1012.5,369.3h-4.2l0-0.4l4.2-0.6l0,0V369.3z
	 M1012.5,368.2L1012.5,368.2l-2.1-9.4l0-0.1l-0.9-4.1l-0.1-0.5l0-0.1v0l0,0l0,0v0v0l0,0l0,0l2.8,12.7l-2.8-12.7l2.8,12.7l-0.5-2.1
	l0.3,1.1l0.5,2.2L1012.5,368.2L1012.5,368.2z"/>
<polygon fill-rule="evenodd" clip-rule="evenodd" fill="#BBD0EC" points="745.9,312.2 764.7,312.2 764.7,327.8 771.3,320.7 
	790.3,320.7 790.5,364.1 803.7,364.4 803.7,289.6 823.9,289.6 823.9,297.3 827.9,301 827.9,346 846.9,346 846.9,275.7 865.7,275.7 
	884.5,295.3 884.5,343.3 899.4,343.3 899.4,362.9 900.7,362.9 900.7,292.6 922.3,292.6 922.3,323.4 922.3,371.4 945.1,371.4 
	945.1,323.4 945.1,291.1 966.7,291.1 966.7,364.4 969.4,364.4 969.4,344.5 982.9,344.5 982.9,293.9 1001.7,274.2 1020.7,274.2 
	1020.7,344.5 1039.5,344.5 1039.5,299.6 1043.5,295.8 1043.5,291.1 1048.6,291.1 1050.2,289.6 1061.1,289.6 1061.1,291.1 
	1063.8,291.1 1063.8,362.9 1075.9,362.9 1075.9,337.6 1077.3,337.6 1077.3,319.2 1096.1,319.2 1102.8,326.2 1102.8,313.7 
	1121.8,313.7 1121.8,282.7 1136.5,267.3 1151.3,267.3 1151.3,343.3 1175.5,343.3 1175.5,357.2 1182.4,357.2 1182.4,281.2 
	1197.1,265.8 1210.7,265.8 1210.7,298.1 1222.8,298.1 1222.8,253.1 1241.6,253.1 1241.6,339.1 1247,339.1 1247,402.3 0,402.3 
	0,377.3 9.4,377.3 9.4,336.5 36.9,336.5 36.9,346.8 74.3,346.8 74.3,326.2 93,326.2 93,346.8 101.1,346.8 101.1,361.9 105.4,361.9 
	105.4,321.1 115.8,321.1 115.8,361.9 149.1,361.9 149.1,377.3 161.5,377.3 161.5,333.6 205.2,333.6 205.3,210.4 241.9,210.6 
	241.8,377.3 248.8,377.3 248.8,343.9 252,343.9 252,290 266,290 266,266.7 286.2,235.7 317.4,235.7 317.4,287.4 332.8,287.4 
	332.8,310.6 344.4,310.6 344.4,274.5 369.3,274.5 369.3,310.6 376.6,310.6 376.6,343.9 379.7,343.9 379.7,377.3 382.9,377.3 
	382.9,320.9 409.9,320.9 409.9,361.9 432.9,361.9 432.9,354.5 460.5,328.4 460.5,242.5 506.5,242.5 506.5,335.7 535.1,335.7 
	535.1,307.7 574.8,333.9 574.8,318.4 604.1,318.4 604.1,333.9 612.4,333.9 612.4,344.3 619.2,344.3 619.2,339.1 625.8,339.1 
	625.8,254.6 644.8,254.6 644.8,299.6 656.9,299.6 656.9,267.3 670.3,267.3 685.2,282.7 685.2,358.7 691.9,358.7 691.9,344.5 
	716.2,344.5 716.2,268.5 730.9,268.5 745.9,284.1 745.9,312.2 "/>
<path fill="#8EA8D7" d="M1172.4,391.2h-14.1l-9.5-71.7c1.9-2,3.2-3.3,3.3-3.5c0,0,0,0,0,0s0.4-0.4,1.2-1.3l2.8-3.4
	c2.3-2.7,5.2-7,7.5-10.8c2.7-4.4,4.9-8.8,6-11.1c1.3-2.8,2-4.3,2.3-5.2c0,0,0,0,0.1-0.1c0,0,0.3-0.6,0.6-1.6l1.5-4
	c0.6-1.7,1.2-3.7,1.9-5.9c0.2-0.6,0.3-1.2,0.5-1.9c0.4-1.6,0.9-3.3,1.2-5c0.8-3.8,1.3-8.3,1.5-13.8l-0.1-4.6c0-0.7-0.1-1.3-0.2-1.7
	c0,0,0-0.1,0-0.1l-0.4-3.8c0,0,0-0.2,0-0.3l-0.4-2.4c-0.7-4.3-2.3-9.6-4.4-14.1c-1.7-4-4.3-8.3-7.6-12.7l-3.1-3.7l-1.2-1.3
	c0,0,0,0,0,0l-1.2-1.2c-0.8-0.9-2-1.9-3.4-3.2c-0.9-0.9-2-1.7-3.1-2.5c2.9-0.7,5.3-3.9,6.5-7.8c1.7-5.6-0.2-11.7-4.3-15.5
	c0.5-0.8,1-1.7,1.3-2.7c1.3-4.4-0.3-9-3.6-10.2c-2.1-0.8-4.3-0.1-6,1.6c-0.5-2.5-1.9-4.5-3.9-5.3c-2.2-0.8-4.6,0.1-6.4,2
	c-0.3-2.7-1.8-5-4-5.9c-2.5-0.9-5.2,0.3-6.9,2.7c-0.1-3.1-1.6-5.9-4.1-6.8c-3.3-1.2-7.1,1.3-8.4,5.7c-0.2,0.8-0.3,1.6-0.4,2.4
	c-11.2-2.4-33-4.7-34.9,1.5c-1.4,4.7,4.4,11.9,10.8,15.7l-1.1-0.1c-1.1-0.1-2.4-0.2-3.8-0.3c-0.7,0-1.4-0.1-2.1-0.1l-3.4-0.2l-3.4,0
	l-1,0c-4.2,0-8.4,0.4-12.1,0.8l-5.9,0.9h0c0,0-0.6,0.1-1.7,0.4l-4.3,1c-2.5,0.7-7.6,2.1-12.8,4.6c-1.6,0.6-3.1,1.5-4.6,2.3
	c-0.7,0.4-1.3,0.7-2,1.1c-1.4,0.8-2.8,1.7-3.9,2.5c-0.5,0.3-1,0.7-1.5,1c-1.1,0.7-2,1.4-2.8,2c-0.3,0.3-0.6,0.5-0.9,0.7l-1.3,1.1
	c0,0,0,0,0,0c-0.3,0.2-0.7,0.5-1.4,1.1l-3.3,3.1c-2.8,2.7-6.1,6.5-9.1,10.4l-1,1.5c-1,1.5-2.1,3-3,4.6c-0.3,0.6-0.7,1.2-1,1.8
	c-0.7,1.3-1.4,2.5-2,3.6l-1.9,3.9c-0.4,0.9-0.6,1.5-0.7,1.6l-0.6,1.5c-0.1,0.3-0.3,0.6-0.4,1c-0.4,0.8-0.8,1.9-1.2,3
	c-1.1,3-2.5,7.6-3.6,12.5c-0.6,2.6-1,4.9-1.3,6.8c-0.3,1.9-0.6,3.8-0.8,5.9c-0.2,1.7-0.3,3.2-0.4,4.2l-0.1,1.6c0,0,0,0,0,0
	c0,0,0,0,0,0l-0.1,1.6c-0.1,1.1-0.1,2.6-0.1,4.2c0,2.1,0,4.1,0.1,5.9c0.1,2.4,0.3,4.9,0.5,6.8c0.3,3.8,1,8.1,1.9,12.7
	c0.8,3.4,1.4,5.7,1.4,5.7l0,0c0,0,0.1,0.6,0.5,1.6l1.2,4.1c1.3,3.7,2.9,8.1,5,12.3l3.4,6.2c0.8,1.5,1.7,2.8,2.5,3.9l0.8,1.2
	c0.9,1.3,1.6,2.4,2.2,3.2l1.1,1.5c0,0,0,0,0,0c0,0,0,0,0,0v0c0.6,0.8,1.7,2.4,3.4,4.4c0.2,0.3,0.5,0.6,0.7,0.9
	c-2.5,0.2-4.9,0.4-7,0.5c-2.9,0.2-6.1,0.2-9.5,0.2c-3,0-5.1-0.1-5.5-0.1c0,0,0,0,0,0c-0.3,0-2,0-4.6-0.2c-1.4-0.1-3-0.2-4.7-0.3
	c-2-0.2-3.7-0.4-5.2-0.6c-3.7-0.4-7.1-1.2-9.3-1.7c-0.8-0.2-1.7-0.4-2.4-0.6l-6.9-1.9c-1-0.3-2.1-0.6-3.3-0.9
	c-2.2-0.6-4.6-1.3-6.9-2c-3-0.9-5.8-1.9-8.1-2.7l-5.7-2.2c0,0,0,0,0,0c0,0,0,0,0,0c0,0-1.7-0.6-3.9-1.8c-1.7-0.8-3.7-1.9-6.1-3.3
	l-5.2-30.3c0.2-0.1,0.4-0.3,0.7-0.4c0.8-0.5,1.8-1.1,2.8-1.8c2.2-1.5,6.4-4.6,10.6-8.5l0.7-0.7c1.5-1.4,3-2.9,4.3-4.4l0.3-0.3
	c1.4-1.6,2.7-3,3.7-4.4l2.7-3.5l0.9-1.3c0,0,0,0,0,0l0.9-1.4c0.2-0.3,0.4-0.6,0.6-0.9c0.5-0.8,1.1-1.7,1.7-2.7l0.8-1.4
	c0.7-1.2,1.5-2.5,2.2-3.9c0.3-0.6,0.6-1.2,0.9-1.9c0.7-1.4,1.5-2.9,2.1-4.4c2.3-5.1,3.8-10,4.5-12.4l1.5-5.8c0,0,0,0,0,0
	c0,0,0,0,0,0l1.1-5.9c0.2-1.3,0.4-2.7,0.5-4.2l0.2-1.9c0.2-1.6,0.2-3.3,0.3-4.9c0-0.8,0-1.5,0.1-2.3c0-1.8-0.1-3.5-0.2-5.2
	c0-0.7-0.1-1.4-0.1-2.1c-0.1-1.6-0.4-3.2-0.6-4.7l-0.2-1.6c-0.2-1.3-0.4-2.4-0.6-3.3c-0.1-0.4-0.2-0.8-0.3-1.2l-0.4-1.7l0,0
	c0,0,0,0,0,0l-0.4-1.7c-0.2-0.8-0.5-1.8-0.9-2.9l-1.4-4.3l-2.7-6.4c-0.4-0.8-0.8-1.6-1.3-2.4l-2.3-4.2l-2.1-3.2
	c-1.2-1.9-2.4-3.6-3.6-5l-2.8-3.4c-0.7-0.8-1.1-1.3-1.2-1.3c0,0,0,0,0,0l-4.2-4.3c-0.9-0.9-1.9-1.8-3-2.7c-0.5-0.4-1.1-0.9-1.7-1.4
	l-1.8-1.5l-3.7-2.7c-3.1-2.3-6.4-4.3-9.1-5.8l-1.8-1.1c-1-0.6-2-1.1-2.8-1.4c-0.4-0.2-0.7-0.3-1-0.5l-1.4-0.7v0l-1.4-0.7
	c-0.9-0.4-2.3-1.1-4-1.8l-5.8-2.2l-7-2c-1.8-0.4-3.6-0.7-5.3-1c-0.7-0.1-1.3-0.2-2-0.4c-1.7-0.3-3.4-0.4-4.9-0.4
	c-0.6,0-1.2-0.1-1.8-0.1c-1.5-0.1-2.9-0.1-4,0c-0.4,0-0.7,0-1,0l-1.8,0.1c0,0,0,0,0,0c0,0,0,0,0,0L871,127c-0.9,0.1-2.2,0.3-3.6,0.6
	l-1.4,0.2c-4.3,0.7-9.8,2.7-14.6,5.1c-2.6,1.4-5.1,3.1-7,4.4l-1.5,1.2c-1.4,1.2-2.8,2.2-3.9,3.3l-3.4,3.4c-0.5,0.5-0.8,0.8-1,1.1
	l-0.3,0.4c0,0,0,0,0,0c0,0,0,0,0,0l-1.1,1.4c-0.2,0.3-0.5,0.6-0.7,0.9c-0.6,0.8-1.4,1.7-2.2,2.9c-0.3,0.5-0.6,0.9-0.9,1.4
	c-0.8,1.2-1.7,2.6-2.6,4.2c-0.3,0.6-0.7,1.3-1,2c-0.8,1.5-1.6,3.1-2.2,4.6c-2.3,5.2-3.8,10.2-4.4,12.8l-1,4.2
	c-0.3,1-0.4,1.6-0.4,1.7c0,0,0,0,0,0l-1,5.8c-0.6,4.9-0.9,9.1-1,12.8c-0.1,4.7,0.1,9.3,0.4,12.7l0.1,1.6c0.1,1,0.2,1.9,0.2,2.6
	l0.2,1.6l0,0l0.9,5.7l0.1,0.7c0.7,3.3,1.5,7.5,2.7,11.5c0.5,1.9,1.1,3.6,1.6,5.4l0.4,1.1c0.6,1.8,1.3,3.8,2,5.5l1.6,3.8
	c0.4,0.9,0.6,1.5,0.6,1.5c0,0,0,0,0,0c0,0,0,0,0,0l2.5,5.1c0.4,0.9,1,1.9,1.5,3c-3.4-0.6-6.5-1.1-8.7-1.4l-4-0.5
	c-0.9-0.1-1.5-0.2-1.6-0.2l-1.9-0.2c-1-0.1-2.3-0.2-3.8-0.3c-3.8-0.3-8.8-0.2-13.4,0.2c-5.7,0.4-11.3,2-14.2,2.8l-1,0.3
	c-1.5,0.5-2.7,1-3.7,1.4l-3.3,1.5c-0.9,0.4-1.9,1-3.1,1.7l-1.2,0.7c-1.3,0.7-2.6,1.6-4,2.6c-0.6,0.4-1.2,0.8-1.9,1.3
	c-0.5,0.4-1,0.8-1.5,1.3c-1.5,1.2-3,2.4-4.3,3.8l-0.7,0.7c-0.7,0.7-1.4,1.4-2.1,2.1l-2.3,2.7c-1.2,1.3-2.1,2.6-2.9,3.7
	c-0.3,0.4-0.6,0.9-0.9,1.3c-0.9,1.2-1.6,2.2-2.1,3.1l-1.2,2c0,0,0,0,0,0c-0.1,0.2-1.4,2.1-3,5.1l-1.4,2.5l-2.9,6.3
	c-0.3,0.8-0.6,1.6-0.9,2.5l-0.8,2.2c-0.3,0.8-0.6,1.7-0.9,2.5l-0.9,3.5c-0.6,2.1-0.9,4.2-1.2,6l-0.1,0.5c-0.3,1.6-0.4,3.2-0.5,4.8
	l-0.1,1.8c0,0,0,0,0,0l-0.1,1.8c0,0.9,0,2,0.1,3.3l0.1,1.4c0.2,4.1,1.1,9.2,2.5,14.2l0.5,1.5c0.6,1.9,1.2,3.8,2,5.5l1.3,3.2l1.3,2.7
	c0.7,1.5,1.5,3,2.1,4l0.8,1.4h0v0l3.2,5.1c2.2,3.2,5.1,7,8,10.2c1.3,1.5,2.8,3.1,4.4,4.8h-34.7c-6.8,0-12.3,5.5-12.3,12.3
	c0,6.8,5.5,12.3,12.3,12.3h446.3c6.8,0,12.3-5.5,12.3-12.3C1184.7,396.7,1179.2,391.2,1172.4,391.2z M1074.2,391.2
	c-0.3-0.3-0.7-0.5-1-0.8c-6.5-4.9-12.9-10.2-13-10.2h0c0,0,0,0,0,0c-0.1-0.1-6.5-5.3-12.7-10.7c-1-0.9-2.1-1.8-3.1-2.7
	c3.6-0.7,7.1-1.4,9.6-1.9c5.6,4.8,11,9.2,11.1,9.3c0,0,0,0,0,0c0.1,0,6.4,5.2,12.8,10.1c3.4,2.6,6.9,5.2,9.4,7H1074.2z M810.7,391.2
	c-2.3-1.3-6.2-3.6-9.8-6.2c-5.7-3.9-10.9-8.3-11.4-8.9c0,0,0,0,0,0l-3.3-3c-1.9-1.8-3.5-3.4-5-5l28.1-70.4l38.4,93.5H810.7z
	 M1008.1,367.7c-3.2,0.2-6.9,0.3-10.8,0.3c-3.7,0-6.3-0.1-6.4-0.1c0,0-1.2,0-3-0.1l-3.1-2.1c-0.7-0.5-1.6-0.5-2.4-0.1l-2.8,1.6
	c-1.9-0.2-4-0.4-6.1-0.7c-5.2-0.6-9.9-1.7-12.2-2.3c-1.2-0.3-2.1-0.5-2.8-0.7l-2.3-0.6c0,0,0,0,0,0c0,0,0,0,0,0
	c-1.4-0.4-8.6-2.2-16-4.5c-3.5-1-7.1-2.3-10-3.4l-1.5-9l3.1,1.3l1.3,0.5c2.7,1,6.1,2.2,9.5,3.2c7.1,2.2,14.3,4.1,15.7,4.5v0
	c0,0,0,0,0,0l2.2,0.6c0.8,0.2,1.7,0.5,2.7,0.7c2.2,0.5,6.6,1.5,11.4,2.1c8.2,1.1,16.5,1.3,16.6,1.3c0,0,0,0,0,0c0,0,0,0,0,0
	c0.3,0,2.7,0.1,6.1,0.1c3.8,0,7.3-0.1,10.4-0.3c8.1-0.4,16.3-1.4,16.4-1.4c0,0,0,0,0,0c0,0,0,0,0.1,0l0,0c0.4,0,2.8-0.3,6-0.7
	c1.4,1.4,2.1,2.1,2.6,2.5c0,0,0.1,0.1,0.1,0.1c0,0,1.1,1.1,2.9,2.8l-0.4,1.7c-5.1,0.8-9.4,1.3-10.3,1.4c0,0,0,0-0.1,0l0,0
	C1024.9,366.3,1016.5,367.3,1008.1,367.7z M773.2,375.8c-0.7-0.8-1.5-1.6-2.1-2.3c-2.4-2.7-4.8-5.8-6.5-8.3l-1.9-2.9l-0.7-1.2
	c0,0,0,0,0,0l-0.7-1.2c-0.5-0.8-1-1.8-1.6-3l-1-2l-1-2.4c-0.5-1.1-0.9-2.3-1.3-3.6c-0.2-0.5-0.3-1.1-0.5-1.5c-1-3.6-1.6-7.3-1.7-10
	c0-0.5,0-1.1-0.1-1.5c0-0.7-0.1-1.3-0.1-1.8l0.1-1.3v0l0,0l0.1-1.3c0-1.1,0.1-2.2,0.3-3.3l0.1-0.7c0.2-1.2,0.4-2.5,0.8-4l0.6-2.6
	c0.2-0.6,0.4-1.1,0.6-1.7l0.7-2c0.2-0.6,0.4-1.1,0.6-1.6l2.2-4.8l1.2-2.1c1.1-2.1,2-3.6,2.4-4.1c0,0,0,0,0,0c0,0,0,0,0,0l1.1-1.7
	c0.4-0.6,0.9-1.4,1.6-2.3c0.3-0.4,0.6-0.8,0.9-1.2c0.6-0.9,1.3-1.8,2.1-2.7l1.7-2l2-2c0.8-0.9,1.7-1.6,2.7-2.4
	c0.5-0.4,1-0.8,1.3-1.1c0.6-0.4,1.1-0.8,1.6-1.1c0.8-0.6,1.6-1.1,2.4-1.5c2.3-1.4,4-2.1,4-2.1c0,0,0,0,0,0c0,0,0,0,0,0l1.1-0.5
	c0.4-0.2,1-0.4,1.7-0.6l1.4-0.5c3.8-1.1,7-1.8,10-2c3.6-0.3,7.5-0.4,10.5-0.2c1.2,0,2.3,0.1,3.1,0.2l1.7,0.1c0,0,0,0,0,0
	c0,0,2,0.2,4.9,0.6c4,0.6,7.6,1.2,10.8,1.8l15.9,3c0,0,0,0,0,0l0.4,0.1l2.9,3.5c1.3,1.6,3,3.6,4.7,5.8c-5.4-0.9-9.4-1.7-9.4-1.7
	c0,0,0,0,0,0c0,0,0,0,0,0l-15.8-3c-3.1-0.6-6.5-1.1-10.4-1.7l-3.3-0.4c-0.8-0.1-1.3-0.1-1.3-0.1l-1.5-0.1c-0.8-0.1-1.8-0.2-2.9-0.2
	c-2.7-0.2-6.1-0.1-9.3,0.1c-3.5,0.3-6.6,1.2-8.4,1.7c-0.5,0.2-0.9,0.3-1.3,0.5c-0.4,0.2-0.8,0.3-1.2,0.4l-0.8,0.4
	c-0.2,0.1-1.5,0.6-3.2,1.6c-0.7,0.3-1.3,0.8-1.9,1.2c-0.4,0.3-0.8,0.6-1.4,1c-0.4,0.3-0.8,0.7-1.2,1c-0.7,0.6-1.5,1.2-2.1,2
	l-1.7,1.7l-1.4,1.7c-0.7,0.8-1.3,1.6-1.9,2.4c-0.3,0.4-0.5,0.7-0.7,1c-0.6,0.8-1.1,1.5-1.5,2.1l-0.9,1.5c0,0,0,0,0,0c0,0,0,0,0,0
	c-0.3,0.5-1.2,1.8-2.2,3.8l-3,6.1c-0.2,0.5-0.3,0.9-0.5,1.4c-0.1,0.3-0.2,0.6-0.3,0.9c-0.1,0.3-0.2,0.6-0.3,0.9
	c-0.2,0.5-0.3,0.9-0.5,1.4l-0.5,2.1c-0.4,1.2-0.5,2.3-0.7,3.3l-0.1,0.7c-0.2,1-0.3,1.9-0.3,2.9l-0.1,1c0,0,0,0,0,0l-0.1,1.1
	c0,0.4,0,0.9,0,1.4c0,0.4,0,0.8,0.1,1.3c0.1,2.3,0.6,5.2,1.5,8.5c0.2,0.5,0.3,1,0.5,1.4c0.3,1,0.6,2,1.1,3l0.8,2.1l0.9,1.7
	c0.5,1.1,1,2,1.4,2.7l0.6,1v0l2.3,3.6c1.5,2.2,3.4,4.7,5.4,7L773.2,375.8z M882.3,298.6l-0.2-0.3c0,0,0,0,0,0l-3.3-3.8
	c-1-1.2-2.2-2.5-3.4-4c2.1,0.1,3.4,0.2,3.4,0.2l5.2,0.1c0.6,0,1.3,0,2,0l2,2.3c0,0,0,0,0,0c0,0,0,0,0,0c0.2,0.3,1.4,1.7,3.2,3.6
	c0.4,0.4,0.8,0.9,1.2,1.3c-0.7,0.1-1.4,0.2-2.1,0.2l-5.1,0.3L882.3,298.6z M866.8,305.7l-0.4-0.5c-1.2-1.4-2.7-3.1-4.2-5
	c2,0.3,3.8,0.5,5.5,0.7L866.8,305.7z M911.7,273.5c-0.6,0.5-1.3,0.8-1.8,1.1c-0.3,0.2-0.7,0.4-0.9,0.5l-1.1,0.7c0,0,0,0,0,0
	c0,0,0,0,0,0c-0.1,0-0.4,0.3-1,0.6l-3.2,1.5c-0.7,0.4-1.6,0.7-2.6,1.1c-0.6,0.2-1.2,0.4-1.8,0.7c-1,0.4-2.1,0.7-3.2,1
	c-0.7,0.2-1.4,0.4-1.9,0.5c-0.7,0.1-1.4,0.2-2.1,0.3c-1.2,0.2-2.3,0.4-3.3,0.4c-0.7,0-1.3,0.1-2,0.1c-0.7,0.1-1.5,0.1-2.2,0.1
	c-0.2,0-0.4,0-0.8,0l-1.1,0c-0.9-1-1.8-2.1-2.7-3.2c-1.1-1.3-2.2-2.7-3.3-4l0.1-0.8c1.3,0.1,2.3,0.1,2.5,0.1c0,0,0,0,0,0l5.7,0.1
	l2.8-0.2c0.9,0,1.7-0.2,2.6-0.3c0.6-0.1,1.1-0.2,1.9-0.3c0.6-0.2,1.2-0.3,1.7-0.5c0.8-0.2,1.7-0.4,2.6-0.8c0.5-0.2,1-0.4,1.5-0.6
	c0.8-0.3,1.6-0.6,2.2-0.9l2.6-1.2c0.6-0.3,0.9-0.5,1-0.6l1-0.6c0.2-0.1,0.4-0.3,0.7-0.4c0.5-0.3,1.2-0.7,1.8-1.1
	c0.8-0.5,1.7-1.2,2.7-2L911.7,273.5z M909.6,261.2c-1.5,1.2-2.9,2.2-4,3c-0.6,0.4-1.1,0.7-1.5,1c-0.3,0.2-0.6,0.3-0.8,0.4l-0.9,0.6
	c0,0,0,0,0,0c0,0,0,0,0,0c0,0-0.3,0.2-0.8,0.4l-2.5,1.2c-0.5,0.3-1.2,0.5-1.9,0.8c-0.5,0.2-1,0.4-1.5,0.6c-0.7,0.3-1.5,0.5-2.2,0.7
	c-0.6,0.1-1.1,0.3-1.7,0.5c-0.6,0.1-1.2,0.2-1.7,0.3c-0.8,0.1-1.5,0.3-2.2,0.3l-2.7,0.2l-5.5-0.1v0c0,0,0,0,0,0c-0.3,0-1-0.1-2-0.1
	l17.2-96.4L909.6,261.2z M875.6,281.9l0.5-2.7c0.5,0.6,1,1.2,1.5,1.9c0.3,0.3,0.6,0.7,0.8,1C877.8,282,876.8,281.9,875.6,281.9z
	 M897.3,162.4c0.1,0,0.1,0.1,0.2,0.1l2.1,1c0.2,0.1,0.5,0.3,0.9,0.4c0.5,0.3,1.2,0.6,1.9,0.9c0.6,0.4,1.2,0.7,1.9,1.1
	c1.9,1.1,4,2.4,6,3.9l3.8,2.9c0.5,0.4,0.9,0.8,1.4,1.1c0.7,0.5,1.3,1.1,1.8,1.6l2.8,2.9c0.1,0.1,4.3,4.8,7.1,10.1l2.4,5.1l0.9,2.5
	c0.2,0.5,0.3,1,0.4,1.4c0.2,0.5,0.3,0.9,0.4,1.2l0.5,2.1c0,0.3,0.1,0.6,0.2,0.9c0.1,0.5,0.3,1.1,0.4,1.8c0.1,0.5,0.1,1.1,0.2,1.6
	c0.1,0.7,0.2,1.5,0.3,2.3c0,0.6,0,1.3,0.1,1.9c0.1,0.9,0.1,1.8,0.1,2.7c0,0.7-0.1,1.3-0.1,1.9c0,0.9,0,1.9-0.1,2.7
	c-0.1,0.6-0.1,1.3-0.2,1.9c-0.1,0.8-0.2,1.6-0.3,2.3l-0.7,4l-1,4c-0.5,1.7-1.6,5-3.1,8.5c-0.4,0.9-0.8,1.8-1.3,2.7
	c-0.3,0.6-0.6,1.2-0.8,1.7c-0.4,0.8-0.9,1.6-1.3,2.3c-0.3,0.5-0.6,1-0.8,1.4c-0.4,0.7-0.8,1.2-1.1,1.7c-0.2,0.3-0.4,0.6-0.5,0.8
	l-0.6,1l0,0l-2.5,3.3c-0.6,0.8-1.3,1.6-2.1,2.5l-0.6,0.7c-0.6,0.8-1.4,1.5-2.1,2.2L897.3,162.4z M892.6,161l-19.5,109.4l-4.9-6.1
	c-0.4-0.5-0.8-1-1.1-1.5l-2.7-3.6c-0.6-0.8-1.2-1.7-1.7-2.6c-0.4-0.6-0.7-1.1-1.1-1.7c-0.8-1.1-1.5-2.4-2.2-3.6l-0.9-1.6
	c-0.6-1.1-1.2-2.1-1.6-3.1l-1.9-4c0,0-0.2-0.4-0.4-1.1l-1.2-3c-0.5-1.2-1-2.7-1.5-4.1l-0.4-1.1c-0.4-1.2-0.9-2.5-1.2-3.9
	c-0.8-2.8-1.4-5.7-1.9-8l-0.9-5.6c0,0,0,0,0,0l-0.2-1.2c-0.1-0.4-0.1-1-0.2-1.7l-0.1-1.5c-0.3-2.4-0.4-5.8-0.3-9.4
	c0-3.2,0.4-6.4,0.7-9.2l0.7-4.2c0,0,0,0,0,0c0,0,0,0,0,0c0-0.1,0.1-0.4,0.2-1l0.7-2.9c0.7-2.8,1.8-5.8,2.9-8.3
	c0.3-0.8,0.7-1.6,1.2-2.4c0.3-0.5,0.6-1.1,0.8-1.5c0.4-0.7,0.8-1.4,1.2-2c0.3-0.4,0.6-0.9,0.8-1.3c0.3-0.5,0.7-1,1-1.3
	c0.2-0.3,0.4-0.5,0.5-0.7l0.6-0.8c0,0,0,0,0,0c0.1-0.2,3.6-4.3,7.8-6.4c0.5-0.2,1-0.4,1.4-0.7c0.6-0.3,1.2-0.6,1.9-0.8l0.8-0.3
	c0.8-0.3,1.5-0.5,2.2-0.6c0.5-0.1,0.9-0.2,1.3-0.2c0.4-0.1,0.7-0.1,1-0.2l1.9-0.1c0.2,0,0.4,0,0.7,0c0.4,0,0.9-0.1,1.7,0
	c0.5,0.1,0.9,0.1,1.4,0.1c0.7,0,1.4,0.1,2.2,0.2c0.6,0.1,1.2,0.2,1.9,0.3c0.8,0.1,1.6,0.3,2.5,0.5l4.4,1.2l1.9,0.8
	C892.7,160.7,892.6,160.8,892.6,161z M872.3,274.6l-1.2,6.9c-1.1-0.1-2.3-0.2-3.6-0.4c-1.1-1.3-2.1-2.5-2.9-3.6l-3.2-3.9
	c0,0,0,0,0,0l-0.8-1c-0.1-0.1-0.2-0.2-0.3-0.3c1.4,0.2,2.8,0.4,4.2,0.6c2.2,0.3,4.5,0.6,7,0.9C871.8,274,872.1,274.3,872.3,274.6z
	 M862.2,289l0.8,0.1l2,2.4c1.2,1.4,2.4,2.8,3.5,4.2l-0.3,1.9c-2.1-0.2-4.6-0.5-7.1-0.9c-0.7-0.1-1.5-0.2-2.2-0.3
	c-2.6-3.1-5.2-6.2-7.1-8.6l-0.4-0.5C854.6,287.9,858.4,288.5,862.2,289z M890.4,291l-0.4-0.4c1.3-0.1,2.5-0.3,3.8-0.5
	c0.7-0.1,1.4-0.2,2.2-0.4c0.7-0.2,1.4-0.4,2.1-0.6c1.4-0.4,2.8-0.7,4.1-1.2c0.6-0.3,1.3-0.5,1.9-0.7c1.2-0.4,2.3-0.8,3.3-1.4
	l3.5-1.7c0.8-0.4,1.3-0.7,1.4-0.8l1.1-0.6l1.4,8.2c0,0-0.1,0-0.1,0l-4.1,2c-1.1,0.6-2.4,1-3.8,1.6c-0.7,0.2-1.4,0.5-2,0.8
	c-1.5,0.6-3.2,1-4.9,1.5c-0.7,0.2-1.4,0.4-2,0.5c-0.5,0.1-1,0.2-1.5,0.2c-0.9-1-1.8-2-2.6-2.9C891.7,292.5,890.4,291,890.4,291z
	 M852.1,260.9c-0.9-1.3-1.7-2.7-2.5-4.1l-0.9-1.6c-0.7-1.3-1.4-2.5-1.9-3.6l-2.1-4.4c0,0,0,0,0,0c0-0.1-0.2-0.5-0.5-1.2l-1.4-3.3
	c-0.6-1.4-1.2-3.1-1.7-4.6l-0.4-1.1c-0.5-1.4-1-2.9-1.3-4.4c-1-3.3-1.7-6.6-2.2-9.3l-0.9-5.9c0,0,0,0,0,0c0,0,0,0,0,0l-0.2-1.3
	c-0.1-0.5-0.1-1.2-0.2-2l-0.1-1.5c-0.3-2.8-0.4-6.6-0.4-10.6c0.1-3.8,0.5-7.7,0.8-10.5l0.8-4.8c0,0,0,0,0,0c0,0,0,0,0,0
	c0,0,0.1-0.5,0.3-1.2l0.8-3.4c0.5-1.9,1.6-5.8,3.4-9.9c0.4-1.1,1-2.1,1.5-3.2c0.3-0.6,0.6-1.2,0.9-1.7c0.5-1,1.1-1.9,1.6-2.7
	c0.3-0.5,0.6-1,0.9-1.4c0.5-0.7,1-1.3,1.4-1.9c0.2-0.3,0.5-0.6,0.6-0.8l0.8-1c0,0,0,0,0-0.1c0,0,0,0,0,0c0,0,0.2-0.3,0.7-0.8
	l2.4-2.4c0.6-0.6,1.3-1.2,2.1-1.8c0.5-0.4,1-0.8,1.4-1.2c1.3-0.9,2.9-2,4.5-2.8c3.3-1.6,6.7-2.8,9.3-3.3c0.5-0.1,1.1-0.2,1.5-0.3
	c0.7-0.1,1.3-0.2,1.7-0.3l1.3-0.1c0,0,0,0,0,0l0,0l1.2-0.1c0.3,0,0.5,0,0.8,0c0.7,0,1.4-0.1,2.4,0c0.5,0.1,1.1,0.1,1.7,0.1
	c1,0,2,0.1,3.1,0.3c0.7,0.1,1.3,0.2,2,0.4c1.1,0.2,2.3,0.4,3.4,0.7l5.3,1.5l4.7,1.8c1.3,0.5,2.4,1,3.1,1.4l1.2,0.6c0,0,0,0,0,0
	l1.2,0.6c0.3,0.1,0.6,0.3,0.9,0.5c0.6,0.3,1.4,0.6,2.1,1.1c0.6,0.4,1.2,0.7,1.9,1.1c2.2,1.3,4.8,2.8,7.1,4.6l2.3,1.6l2.1,1.8
	c0.5,0.4,1,0.9,1.5,1.3c0.8,0.7,1.6,1.3,2.2,2l3.4,3.4c0.2,0.3,5.3,5.8,8.7,12.3l1.3,2.4l1.7,3.9l1.6,4.6c0.2,0.7,0.4,1.3,0.5,1.7
	l0.3,1.3c0,0,0,0,0,0l0.3,1.2c0.1,0.3,0.1,0.6,0.2,1c0.2,0.7,0.3,1.4,0.4,2.3c0.1,0.5,0.1,1.1,0.2,1.6c0.1,1,0.3,2.1,0.4,3.2
	c0,0.7,0.1,1.3,0.1,2c0.1,1.2,0.1,2.4,0.1,3.5c0,0.7-0.1,1.4-0.1,2.1c0,1.2-0.1,2.4-0.2,3.5c-0.1,0.7-0.2,1.3-0.2,2
	c-0.1,1-0.2,2-0.3,2.9l-0.9,4.7l-1.2,4.6c-0.6,1.9-1.8,5.8-3.6,9.9c-0.5,1.1-1,2.2-1.6,3.3c-0.3,0.6-0.6,1.2-0.9,1.8
	c-0.5,1-1.1,1.9-1.6,2.8c-0.3,0.5-0.6,1-0.9,1.5c-0.4,0.8-0.9,1.5-1.3,2c-0.2,0.3-0.4,0.6-0.6,0.8l-0.7,1.1c0,0,0,0,0,0l-2.9,3.9
	c-0.7,1-1.6,2-2.6,3.1l-0.5,0.6c-0.9,1.1-1.9,2.1-3,3.1l-0.9,0.8c-1.4,1.4-2.9,2.6-4.3,3.7l-1.5-9c0.2-0.1,0.3-0.3,0.5-0.4l0.9-0.8
	c0.9-0.9,1.8-1.8,2.6-2.7l0.6-0.6c0.9-0.9,1.7-1.8,2.3-2.7l1.9-2.5l0.6-1c0,0,0,0,0,0l0.7-1c0.1-0.2,0.3-0.4,0.5-0.7
	c0.4-0.5,0.8-1.2,1.2-1.9c0.2-0.4,0.5-0.9,0.8-1.4c0.4-0.8,0.9-1.6,1.4-2.5c0.3-0.6,0.5-1.1,0.8-1.7c0.5-0.9,0.9-1.9,1.4-2.8
	c1.6-3.7,2.7-7.2,3.3-8.9l1.1-4.2l0.8-4.1c0.1-0.8,0.2-1.6,0.3-2.5c0.1-0.6,0.1-1.2,0.2-1.8c0.1-1,0.1-2,0.2-3c0-0.6,0-1.2,0.1-1.9
	c0-1,0-2-0.1-3c0-0.6-0.1-1.3-0.1-1.9c-0.1-0.9-0.2-1.8-0.3-2.6c-0.1-0.5-0.1-1.1-0.2-1.5c-0.1-0.9-0.3-1.6-0.4-2.2
	c-0.1-0.3-0.1-0.5-0.2-0.8l-0.5-2.2c-0.1-0.4-0.3-0.9-0.4-1.4c-0.1-0.4-0.3-0.9-0.4-1.4l-0.6-2l-1.5-3.5L930,187
	c-3-5.7-7.4-10.6-7.6-10.8c0,0,0,0,0,0c0,0,0,0,0,0l-2.9-2.9c-0.6-0.6-1.3-1.2-2-1.8c-0.4-0.3-0.9-0.7-1.3-1.1l-1.9-1.6l-2-1.4
	c-2.1-1.6-4.3-2.9-6.3-4.1c-0.7-0.4-1.3-0.7-1.8-1.1c-0.8-0.5-1.5-0.8-2.1-1.1c-0.3-0.1-0.6-0.3-0.8-0.4l-2.1-1
	c-0.6-0.3-1.7-0.9-2.9-1.3l-4.1-1.6l-4.6-1.3c-0.9-0.2-1.9-0.4-2.8-0.5c-0.6-0.1-1.2-0.2-1.8-0.3c-0.9-0.2-1.8-0.2-2.5-0.2
	c-0.5,0-0.9,0-1.3-0.1c-0.9-0.1-1.6-0.1-2.2,0c-0.2,0-0.4,0-0.6,0l-2,0.1c-0.4,0-0.8,0.1-1.3,0.2c-0.4,0.1-0.8,0.2-1.1,0.2
	c-0.9,0.1-1.8,0.4-2.8,0.7l-0.7,0.2c-0.9,0.2-1.7,0.6-2.5,1c-0.4,0.2-0.8,0.4-1.4,0.6c-4.7,2.3-8.5,6.8-8.9,7.3c0,0,0,0,0,0
	c0,0,0,0,0,0l-0.7,0.8c-0.1,0.2-0.3,0.4-0.5,0.6c-0.4,0.4-0.8,1-1.2,1.6c-0.2,0.4-0.5,0.8-0.8,1.2c-0.4,0.7-0.9,1.4-1.4,2.2
	c-0.2,0.5-0.5,1-0.8,1.5c-0.5,0.9-0.9,1.7-1.3,2.7c-1.6,3.5-2.6,7-3,8.7L845,187c-0.2,0.7-0.3,1.2-0.3,1.3l-0.7,4.3
	c-0.4,3-0.7,6.3-0.7,9.7c-0.1,3.8,0.1,7.3,0.3,9.8l0.1,1.4c0.1,0.7,0.1,1.3,0.2,1.8l0.2,1.2c0,0,0,0,0,0l0.7,4.5l0.3,1.2
	c0.5,2.4,1.1,5.4,2,8.3c0.3,1.4,0.8,2.7,1.2,4l0.4,1.1c0.5,1.5,1,3.1,1.6,4.4l1.2,3c0.3,0.8,0.5,1.2,0.5,1.2c0,0,0,0,0,0
	c0,0,0,0,0,0l1.9,4c0.5,1.1,1.1,2.2,1.7,3.3l0.9,1.6c0.7,1.3,1.4,2.6,2.3,3.8c0.4,0.5,0.7,1.1,1.1,1.6c0.6,1,1.2,1.9,1.9,2.7
	l2.7,3.6c0.5,0.7,1.1,1.4,1.6,2c0.2,0.3,0.5,0.6,0.6,0.8l2,2.5c-1.2-0.1-2.4-0.3-3.6-0.5c-2.6-0.4-5.3-0.8-7.7-1.2l-2-2.7
	c-0.7-0.9-1.3-1.9-2-3C852.9,262.1,852.5,261.5,852.1,260.9z M777.8,364.3c-1.5-1.8-2.9-3.7-4.1-5.4l-1.6-2.5l-0.6-1c0,0,0,0,0,0
	l-0.6-1c-0.4-0.6-0.8-1.5-1.3-2.5l-0.7-1.4l-1-2.3c-0.4-0.8-0.7-1.7-1-2.6c-0.2-0.5-0.3-1-0.5-1.4c-0.8-2.9-1.3-5.7-1.3-7.7
	c0-0.5,0-1-0.1-1.4c0-0.5-0.1-0.9,0-1.1l0.1-1c0,0,0,0,0,0c0,0,0,0,0,0l0-1c0-0.8,0.1-1.6,0.3-2.5l0.1-0.7c0.1-0.9,0.3-1.8,0.6-2.9
	l0.5-2c0.1-0.4,0.3-0.8,0.4-1.2c0.1-0.3,0.2-0.6,0.3-0.9c0.1-0.3,0.2-0.6,0.3-0.9c0.1-0.4,0.3-0.8,0.4-1.2l1.7-3.7l1.1-2.1
	c1-1.9,1.8-3.1,2.1-3.6c0,0,0,0,0,0c0,0,0,0,0,0l0.9-1.5c0.3-0.5,0.8-1.2,1.3-1.9c0.3-0.3,0.5-0.7,0.8-1.1c0.5-0.7,1-1.4,1.7-2.1
	l1.4-1.6l1.6-1.6c0.6-0.6,1.2-1.2,1.9-1.7c0.4-0.4,0.9-0.7,1.1-0.9c0.5-0.3,0.9-0.6,1.4-0.9c0.5-0.4,1-0.8,1.6-1
	c1.6-1,2.8-1.5,2.8-1.5c0,0,0,0,0,0c0,0,0,0,0,0l0.8-0.4c0.3-0.1,0.6-0.2,1-0.4c0.4-0.1,0.9-0.3,1.3-0.5c2.2-0.6,4.8-1.3,7.7-1.5
	c2.2-0.2,4.4-0.3,6.5-0.2L777.8,364.3z M812,291.8l1.5,0.1c0,0,0,0,0,0c0,0,0,0,0,0c0,0,0.4,0,1.2,0.1l3.3,0.4
	c3.9,0.6,7.2,1.1,10.3,1.7l15.8,3c0,0,0,0,0,0c0.2,0,6.2,1.2,13.2,2.3c2.4,2.9,4.7,5.7,6.6,7.8l2.2,2.5l-14.2,79.7l-40.1-97.7
	C811.8,291.8,811.9,291.8,812,291.8z M872.1,301.3c0.2,0,0.4,0,0.5,0l0.8,0.1l2.2,2.5c0,0,0,0,0.1,0c0,0,0,0,0,0l0,0
	c0.3,0.4,1.5,1.8,3.3,3.7c2.2,2.5,4.9,5.4,7.7,8.2c2.2,2.3,4.5,4.5,6.5,6.4l1.6,1.5c0.8,0.8,1.5,1.4,2.1,1.9
	c0.3,0.2,0.5,0.4,0.7,0.6l1.1,0.9c0,0,0,0,0,0l1.7,1.4c0.6,0.6,1.4,1.2,2.4,2l4.2,3.2c1.1,0.8,2.2,1.5,3.3,2.3l1.8,1.2
	c3.9,2.4,7.5,4.4,10.1,5.6c0.6,0.3,1.1,0.5,1.6,0.8l1.6,9.2l-1.4-0.6c0,0,0,0,0,0c0,0,0,0,0,0c-0.4-0.1-2.3-0.9-5.1-2.3
	c-2.9-1.3-6.9-3.5-10.9-6l-1.7-1.1c-1.3-0.9-2.6-1.7-3.8-2.6l-4.6-3.5c-1-0.7-1.8-1.4-2.4-2l-1.8-1.5c0,0,0,0,0,0l-1.1-1
	c-0.2-0.2-0.5-0.5-0.8-0.7c-0.6-0.5-1.4-1.2-2.1-1.9l-1.6-1.5c-2.1-2-4.5-4.3-6.8-6.8c-3.1-3.2-6.1-6.5-7.9-8.5
	c-1.1-1.2-2-2.2-2.6-2.9L872.1,301.3z M1043.6,327.5c-1.3-1.4-2.5-2.8-3.6-4.1c-1.1-1.3-2.1-2.5-3-3.6c-1.7-2.1-2.7-3.5-2.7-3.5
	l-0.9-1.2c-0.4-0.6-1-1.4-1.6-2.4c-0.2-0.3-0.4-0.7-0.7-1c-0.5-0.8-1.1-1.7-1.7-2.7l-1.2-2l-1.1-2.2c-1.5-2.8-2.6-6.1-3.4-8.2
	l-0.9-3c-0.2-0.7-0.3-1-0.3-1.1l-1-4.1c-0.7-3.6-1.2-6.6-1.4-9.3c-0.2-1.6-0.3-3.4-0.4-5.1c-0.1-1.4-0.1-2.8-0.1-4.4v-0.3
	c0-1.1,0-2.1,0.1-2.8l0.1-2.4c0-0.7,0.1-1.6,0.2-2.7l0-0.3c0.1-1.5,0.3-3,0.6-4.3c0.2-1.7,0.6-3.5,0.9-4.9c0.6-2.7,1.4-5.7,2.5-8.9
	c0.2-0.7,0.5-1.4,0.7-1.9c0.1-0.3,0.3-0.6,0.3-0.8l0.4-1.1c0,0,0,0,0,0c0,0,0,0,0,0c0,0,0.1-0.4,0.4-0.9l1.3-2.7
	c0.3-0.7,0.7-1.3,1.1-2c0.3-0.5,0.6-1,0.9-1.5c0.5-0.8,1-1.6,1.5-2.4c0.3-0.5,0.7-1,1-1.5c1.9-2.6,4-4.9,5.5-6.4l2.1-1.9
	c0.4-0.4,0.7-0.6,0.7-0.6c0,0,0,0,0,0c0,0,0,0,0,0l0.8-0.6c0.2-0.2,0.5-0.4,0.7-0.6c0.4-0.3,0.9-0.7,1.5-1.1
	c1.7-1.1,4.3-2.8,7.3-4.1c5.5-2.5,11.9-3.8,11.9-3.8l4-0.6l0.8-0.1c1.6-0.2,3.6-0.3,5.7-0.4l-28.9,120.3
	C1044,328,1043.8,327.7,1043.6,327.5z M1075.7,216.5l22,101.3c-0.9,0.5-1.9,0.9-2.9,1.4c-3.1,1.4-6.7,3-9.4,4.1
	c-2.6,1.1-4.3,1.7-4.3,1.7c0,0,0,0,0,0c0,0,0,0,0,0l-4.4,1.6l-1.4,0.5c-2.4,0.8-5.5,1.8-8.5,2.7c-6.6,2-13.4,3.6-14.7,3.9
	c0,0,0,0,0,0l0,0c0,0-0.7,0.2-1.9,0.4c-0.7-0.7-1.4-1.5-2.1-2.2L1075.7,216.5z M1078.4,207.8l2.5,0.2c0.6,0,1.3,0.1,1.8,0.1
	c0.9,0,1.8,0.1,2.7,0.2l4.7,0.5l4.6,0.7c3.2,0.4,7.1,1.2,9.8,1.8c3.6,0.8,7.1,1.8,9.4,2.5l4.1,1.4c0,0,0.4,0.1,1.1,0.4l2.9,1.2
	c0.7,0.3,1.4,0.6,2.2,1c0.5,0.3,1.1,0.5,1.7,0.8c1.2,0.6,2.5,1.3,3.7,2l0.4,0.3c3.2,2,5.4,3.7,6.9,5c0.9,0.8,1.5,1.3,1.9,1.8l3,3.3
	c1.4,1.9,2.9,4,3.8,6.4c1.1,2.4,1.9,5,2.2,7.1l0.5,3.6c0,0,0.1,0.3,0.1,0.8l0.1,2.6l0,0.3c-0.1,2.3-0.3,5.1-0.9,8.1
	c-0.1,1-0.4,2-0.7,2.9c-0.1,0.6-0.3,1.1-0.4,1.6l-0.7,2.3l-1.6,4.6c-0.2,0.5-0.3,0.9-0.4,1c0,0,0,0,0,0c0,0,0,0,0,0l-1.8,3.9
	c-1,2.1-2.6,5.3-4.6,8.5l-0.6,1c-0.7,1.2-1.4,2.3-2.1,3.2l-0.6,0.9c-0.6,0.9-1.2,1.7-1.8,2.3l-1.9,2.3c-0.4,0.5-0.7,0.7-0.7,0.8
	c0,0,0,0,0,0c0,0,0,0,0,0l-2.9,3l-3.2,2.9l-3.9,3.2c-5.4,4.3-11.7,7.9-11.8,8c0,0-2.5,1.5-5.9,3.3L1078.4,207.8z M1041.1,341
	c-0.4-0.4-0.8-0.9-1.3-1.3c0.6-0.1,1.1-0.2,1.7-0.3L1041.1,341z M1046.5,346.3C1046.5,346.3,1046.4,346.3,1046.5,346.3
	c-0.1-0.1-0.7-0.7-1.6-1.6l1.5-6.4c0.9-0.2,1.8-0.4,2.6-0.5c1.8,1.8,2.9,2.9,2.9,2.9c0,0,1.5,1.5,3.8,3.6c-0.8,0.2-1.2,0.3-1.2,0.3
	c0,0,0,0,0,0C1054.1,344.7,1050.8,345.4,1046.5,346.3z M1059.4,343.4c-3.1-2.8-5.3-5-5.3-5c0,0-0.5-0.5-1.4-1.4
	c1.3-0.3,8.2-2,14.8-4c3.1-0.9,6.2-1.9,8.6-2.8l5.9-2.1h0c0,0,1.8-0.6,4.5-1.7c2.8-1.1,6.4-2.7,9.6-4.1c0.8-0.4,1.5-0.7,2.2-1.1
	l1.7,7.8c-0.2,0.1-0.4,0.2-0.6,0.3c-3.1,1.4-7,3.2-10,4.3c-2.7,1.1-4.6,1.8-4.6,1.8c0,0,0,0,0,0s0,0,0,0l-4.6,1.7l-1.4,0.5
	c-2.6,0.9-5.8,2-9,2.9C1066,341.6,1062.2,342.7,1059.4,343.4z M1031.6,330.6c-1.2-1.4-2.3-2.7-3.2-3.9c-1.8-2.2-2.9-3.8-3-3.9
	c0,0,0,0,0,0c0,0,0,0,0,0l-1-1.4c-0.5-0.7-1.1-1.5-1.8-2.6l-0.7-1.1c-0.6-1-1.3-2-1.9-3.1l-2.7-4.9c-1.7-3.3-2.9-6.7-4-9.7l-1-3.4
	c-0.2-0.8-0.3-1.2-0.4-1.2c0,0,0,0,0,0l-1.1-4.7c-0.8-3.9-1.3-7.4-1.6-10.5c-0.2-1.7-0.4-3.8-0.4-5.7c-0.1-1.6-0.1-3.2-0.1-5l0-0.3
	c0-1.3,0-2.4,0.1-3.2l0.1-1.3l0,0c0,0,0,0,0,0l0.1-1.4c0-0.8,0.1-1.9,0.3-3.2l0-0.3c0.2-1.8,0.4-3.4,0.6-4.9
	c0.2-1.5,0.5-3.3,1.1-5.6c0.8-3.9,2-7.7,2.9-10.2c0.3-0.9,0.6-1.6,0.9-2.3c0.2-0.4,0.3-0.7,0.4-0.9l0.5-1.2c0,0,0,0,0,0
	c0,0,0,0,0-0.1c0-0.1,0.2-0.5,0.5-1.1l1.5-3.2c0.4-0.8,0.9-1.6,1.4-2.5c0.3-0.6,0.7-1.1,1-1.7c0.6-1,1.3-2,2-3.1
	c0.4-0.5,0.7-1.1,1-1.5c2.3-3,4.8-5.9,6.8-7.8l2.5-2.3c0.5-0.5,0.9-0.7,0.9-0.8c0,0,0,0,0,0c0,0,0,0,0,0l1-0.8
	c0.3-0.2,0.5-0.4,0.8-0.7c0.5-0.4,1.1-0.9,1.9-1.4c1.7-1.2,5.1-3.3,9-5.1c6.5-3,13.6-4.4,14.4-4.6c0,0,0,0,0,0l4.7-0.8l0.4,0
	c2.6-0.3,5.9-0.6,9.3-0.6l0.9,0l2.8,0l2.8,0.2c0.7,0.1,1.3,0.1,2,0.1c1.1,0.1,2.1,0.1,3,0.2l4.9,0.5h0l4.9,0.7
	c2.7,0.4,6.5,1.1,10.6,2c3,0.7,6.4,1.6,10.3,2.8l4.6,1.6c0,0,0,0,0,0c0,0,0,0,0,0c0.1,0,0.5,0.2,1.2,0.5l3.3,1.3
	c0.8,0.3,1.7,0.8,2.7,1.2c0.6,0.3,1.2,0.6,1.8,0.8c1.6,0.8,3.3,1.8,4.9,2.7c3.7,2.3,6.6,4.4,8.4,6.1c1.1,0.9,1.9,1.7,2.5,2.3
	l0.9,0.9c0,0,0,0,0,0v0l3,3.5c1.5,2,3.7,5.2,5.2,8.6c1.4,3.2,2.5,6.7,3,9.6l0.6,4.6c0,0,0,0,0,0c0,0,0,0,0,0c0,0,0.1,0.4,0.1,1.1
	l0.1,3.4c-0.1,3.3-0.4,6.8-1.2,10.3c-0.2,1.2-0.5,2.5-0.8,3.7c-0.2,0.6-0.3,1.2-0.4,1.7c-0.5,1.7-1,3.3-1.5,4.7l-1.3,3.3
	c-0.3,0.7-0.4,1.1-0.5,1.1c0,0,0,0,0,0c0,0,0,0,0,0s-0.8,1.8-2,4.4c-1.1,2.3-2.9,5.9-5.1,9.4l-0.7,1.1c-0.8,1.3-1.6,2.6-2.4,3.7
	l-0.7,0.9c-0.8,1.1-1.5,2.1-2.2,3l-2.2,2.7c-0.5,0.6-0.8,0.9-0.8,0.9c0,0,0,0,0,0c0,0,0,0,0,0l-3.3,3.5l-3.6,3.4l-4.4,3.6
	c-6.1,4.7-12.9,8.7-12.9,8.7c0,0,0,0,0,0c0,0,0,0,0,0c-0.1,0-4.1,2.4-9.1,5l-1.7-7.9c3.9-2.1,6.8-3.8,6.8-3.8l0,0
	c2-1,8.6-5.3,12.2-8.2l4.1-3.3l3.3-3.1l3-3.1c0,0,0,0,0,0c0.2-0.2,0.5-0.5,0.8-0.9l1.9-2.3c0.7-0.8,1.3-1.6,1.9-2.6l0.6-0.9
	c0.7-0.9,1.5-2.2,2.2-3.4l0.6-1.1c2-3.3,3.7-6.6,4.7-8.8l1.8-4v0c0-0.1,0.2-0.5,0.5-1.2l1.1-3l1.3-4.2c0.1-0.5,0.3-1,0.4-1.6
	c0.3-1.1,0.6-2.1,0.7-3.2c0.7-3.2,0.9-6.4,1-8.7c0,0,0-0.3,0-0.3l-0.1-2.8c0-0.4,0-0.8-0.1-1.1l-0.5-3.7c-0.4-2.3-1.2-5.2-2.4-7.8
	c-1.1-2.6-2.7-4.9-4.3-7.1l-1.8-2.1l-1.4-1.4c-0.4-0.5-1.1-1.2-2.1-2c-1.5-1.4-3.9-3.2-7.3-5.3l-0.4-0.2c-1.3-0.8-2.7-1.5-4-2.2
	c-0.6-0.3-1.1-0.5-1.7-0.8c-0.8-0.4-1.6-0.8-2.4-1.1l-2.9-1.2c-0.6-0.2-1-0.4-1.1-0.5c0,0,0,0,0,0l-4.2-1.5c-2.4-0.7-6-1.8-9.7-2.6
	c-2.8-0.6-6.8-1.4-10.1-1.9l-3.4-0.5l-6-0.7c-0.9-0.1-1.9-0.2-2.9-0.2c-0.6,0-1.2-0.1-1.8-0.1l-2.6-0.2l-1.5,0
	c-0.3-0.2-0.7-0.4-1.2-0.4c0,0,0,0,0,0c-0.4,0-0.8,0.1-1.2,0.4c-2.8,0-5.4,0.3-7.5,0.5l-5.1,0.8c-0.7,0.1-7,1.4-12.7,4
	c-3.2,1.4-6,3.2-7.7,4.4c-0.7,0.4-1.3,0.9-1.8,1.3c-0.2,0.2-0.4,0.3-0.6,0.5l-0.8,0.6c0,0-0.4,0.3-1,0.8l-2.1,2
	c-1.7,1.6-3.9,4.1-6,6.9c-0.3,0.5-0.7,1-1,1.5c-0.6,0.8-1.1,1.7-1.7,2.6c-0.3,0.5-0.6,1-0.9,1.5c-0.5,0.8-0.9,1.5-1.2,2.2l-1.3,2.7
	c-0.3,0.6-0.5,1-0.5,1.2l-0.4,1.1c-0.1,0.2-0.2,0.5-0.3,0.8c-0.3,0.6-0.6,1.3-0.8,2.1c-1.2,3.3-2.1,6.4-2.6,9.2
	c-0.3,1.4-0.7,3.3-1,5.1c-0.3,1.4-0.4,2.9-0.6,4.5l-0.1,0.5c-0.1,1.1-0.2,2.1-0.2,2.8l-0.1,2.4c-0.1,0.7-0.1,1.7-0.1,2.8l0,0.5
	c0,1.7,0,3.2,0.1,4.6c0,1.7,0.2,3.5,0.4,5.3c0.3,2.8,0.7,6,1.5,9.7l1,4.2c0,0,0.1,0.4,0.3,1.2l0.9,3c0.8,2.3,2,5.7,3.6,8.7l1.1,2.2
	l1.2,2.1c0.6,1,1.2,2,1.8,2.8l0.6,1c0.6,1,1.3,1.9,1.7,2.5l0.9,1.2c0,0.1,1.1,1.5,2.8,3.7c0.8,1.1,1.9,2.4,3,3.7
	c1.1,1.4,2.4,2.8,3.7,4.2c0.7,0.7,1.4,1.5,2.1,2.3l-0.9,3.9c-1.7,0.3-3.4,0.7-5.2,1c-0.6-0.6-1.2-1.2-1.7-1.9
	C1034.1,333.5,1032.8,332,1031.6,330.6z M1035.9,340.4c1.6,1.7,3,3.2,4.3,4.5l-0.5,2.2c-1.7-1.7-3.8-3.9-6-6.2
	C1034.4,340.6,1035.1,340.5,1035.9,340.4z M1035.1,358.2C1035.1,358.2,1035.1,358.2,1035.1,358.2
	C1035.1,358.1,1035.1,358.1,1035.1,358.2c-0.1-0.1-0.4-0.4-1-0.9c1.1-0.2,2.1-0.3,3.1-0.5l-0.7,2.9
	C1035.8,358.8,1035.3,358.3,1035.1,358.2z M1042.2,355.9c0.5-0.1,1.1-0.2,1.6-0.3c1.9,1.8,4.4,4.1,7.2,6.5c-2.6,0.5-5.9,1.2-9.2,1.8
	l-0.4,0.1c-0.3-0.3-0.6-0.5-0.9-0.8L1042.2,355.9z M1047.8,354.8c0.8-0.2,1.6-0.3,2.3-0.5c1.8,1.7,3.8,3.5,5.9,5.3
	c0.4,0.4,0.8,0.7,1.2,1.1c-0.6,0.1-1.3,0.3-2.3,0.5l-0.2-0.2C1052.2,358.9,1049.8,356.6,1047.8,354.8z M1054.1,353.5
	c1.5-0.3,2.3-0.5,2.3-0.5c0,0,0,0,0,0c0.3-0.1,3.1-0.7,6.8-1.7l0.1,0.1c2.1,1.9,4.5,3.9,7.1,6.1c-3.5,1-6.8,1.9-9.2,2.4
	c-1-0.9-2-1.7-3-2.6C1056.8,355.9,1055.4,354.7,1054.1,353.5z M1087.8,371.2c6.2,4.7,12.7,9.4,12.7,9.4c0.1,0,6.3,4.6,12.7,8.9
	l0.4,1.7H1102c-3.4-2.4-5.9-4.2-6-4.3h0c0,0,0,0,0,0c-0.1,0-6.6-4.7-12.9-9.6c-6.3-4.8-12.5-9.9-12.6-9.9c0,0,0,0,0,0c0,0,0,0,0,0
	c0,0-2.6-2.1-6.1-5.1c2.6-0.7,5.8-1.5,9.2-2.5c1.2,1,1.9,1.5,1.9,1.5C1075.5,361.5,1081.6,366.4,1087.8,371.2z M1077.3,358.7
	c3-0.9,5.8-1.9,8.2-2.7l6.3-2.3c0,0,0,0,0,0c0.1,0,2.1-0.7,5-2c1.9-0.8,4.4-1.8,7.5-3.2l7.9,36.2c-5.2-3.6-9.7-6.8-9.8-6.9
	c-0.1,0-6.5-4.7-12.7-9.4c-6.2-4.7-12.3-9.6-12.3-9.7L1077.3,358.7z M1117.6,388.5l-9.1-41.8c7.5-3.5,14.6-7.8,14.9-7.9h0
	c0.1,0,7.8-4.5,15-10.2l1.5-1.2c0.6-0.5,1.3-1,1.9-1.6l-21.7,64.3C1119.2,389.6,1118.4,389.1,1117.6,388.5z M1095.6,348.8
	c-2.7,1.1-4.6,1.8-4.9,1.9c0,0,0,0,0,0c0,0,0,0,0,0l-5,1.8l-1.2,0.4c-2.8,1-6.3,2.2-9.9,3.2l-0.3,0.1c-1.9-1.6-4.5-3.8-7.2-6
	c1.7-0.5,3.4-1,5.2-1.5c3.4-1,6.8-2.1,9.5-3.1l6.1-2.2c0.1,0,2-0.7,4.8-1.9c2.2-0.9,5.2-2.2,9.3-4l1.7,7.8
	C1100.3,346.8,1097.6,348,1095.6,348.8z M1029.6,341.4c2.3,2.6,4.7,5,6.6,6.9c-3.6,0.6-7,1.1-9.5,1.4c-1.1-1.2-2.3-2.4-3.4-3.7
	c-1.1-1.2-2.1-2.4-3-3.4c1.2-0.1,1.9-0.2,2-0.2C1022.4,342.3,1025.5,341.9,1029.6,341.4z M916.6,330.3c-0.6-0.4-1.2-0.8-1.8-1.2
	c-1-0.7-2-1.3-2.9-2l-4-3.1c-0.8-0.6-1.5-1.2-2.1-1.7l-1.6-1.4c0,0,0,0,0,0l-1-0.9c-0.2-0.2-0.5-0.4-0.7-0.6c-0.5-0.5-1.2-1-1.9-1.7
	l-1.7-1.6c-1.9-1.8-4-3.9-6.1-6.1c-2.7-2.7-5.1-5.4-7.5-8c0,0-0.1-0.1-0.1-0.1l5.2-0.3c1.5-0.1,3-0.3,4.5-0.6
	c1.1,1.2,2.3,2.4,3.4,3.6c2,2.1,4,4.1,5.8,5.8l1.6,1.6c0.7,0.7,1.3,1.2,1.9,1.7c0.2,0.2,0.5,0.4,0.7,0.6l0.9,0.8
	c0.1,0.1,0.3,0.2,0.4,0.2c2.2,2.4,8.5,6.7,10.4,8l1.7,10.1C920.3,332.5,918.5,331.5,916.6,330.3z M911.5,312.6
	C911.5,312.6,911.5,312.6,911.5,312.6C911.5,312.6,911.5,312.6,911.5,312.6l-0.9-0.8c-0.2-0.2-0.4-0.4-0.7-0.6
	c-0.5-0.4-1.1-0.9-1.7-1.6l-1.7-1.6c-1.7-1.7-3.7-3.5-5.7-5.7c-0.7-0.7-1.3-1.4-2-2c0.5-0.1,1.1-0.3,1.7-0.4
	c1.8-0.5,3.6-0.9,5.3-1.6c0.7-0.3,1.4-0.5,2-0.8c1.5-0.6,2.9-1.1,4.1-1.7l3.3-1.6l4.2,24.7C915.1,315.8,911.5,312.6,911.5,312.6z
	 M847.8,270c0.2,0.3,0.3,0.5,0.5,0.7l3.2,4.3c0.6,0.9,1.2,1.6,1.7,2.1c0.2,0.3,0.5,0.5,0.6,0.8l0.9,1.1c0,0,0,0,0,0l0.2,0.2
	c-4.1-0.7-7.2-1.3-7.2-1.3c0,0,0,0,0,0l-4.3-0.8l-1.4-1.9c-0.8-1.1-1.6-2.3-2.4-3.6c-0.4-0.6-0.8-1.3-1.3-1.9
	c-0.4-0.6-0.8-1.2-1.1-1.8L847.8,270z M773.2,387.9c2,1.8,3.3,3,3.3,3c0,0,0,0,0,0c0,0,0,0,0,0c0.1,0,0.2,0.2,0.3,0.3h-4.9
	L773.2,387.9z M790.6,391.2c-4.2-3.1-7.6-6-8.4-6.7c0,0,0,0,0,0c0,0,0,0,0,0s-1.5-1.3-3.6-3.3c-0.7-0.6-1.3-1.2-1.9-1.8l3.2-7.9
	c1.2,1.3,2.6,2.6,4.1,4.1l3.4,3.1c0,0,0,0,0,0c0,0,0,0,0,0c0.1,0,5.6,4.9,11.7,9.1c1.5,1,3.4,2.3,5.4,3.5H790.6z M869.8,314.1
	c0.3,0.3,0.6,0.6,0.9,1c1.9,2.1,4.8,5.4,7.9,8.5c2.3,2.5,4.9,4.9,6.9,6.9l1.6,1.5c0.8,0.8,1.6,1.5,2.2,2c0.3,0.3,0.6,0.5,0.8,0.7
	l1.2,1c0,0,0,0,0,0l1.8,1.5c0.7,0.6,1.5,1.3,2.6,2.1l4.7,3.6c1.2,0.9,2.6,1.8,4,2.7l1.7,1.1c4.1,2.6,8.2,4.9,11.2,6.2
	c2.8,1.4,4.7,2.2,5.3,2.4c0,0,0,0,0,0l3.3,1.4l5.9,34.3h-75.7L869.8,314.1z M930.8,358.7c2.6,0.9,5.5,1.9,8.4,2.8
	c2.7,0.9,5.4,1.6,7.8,2.3c1.2,0.3,2.4,0.7,3.4,1l5,1.3c0,0,0,0,0,0l2.2,0.6c0.8,0.2,1.7,0.5,2.9,0.7c2.4,0.6,7.2,1.7,12.5,2.3
	c0.6,0.1,1.1,0.1,1.7,0.2l-36.4,21.2h-2.1L930.8,358.7z M982.6,370.8c0.7,0.1,1.3,0.1,1.9,0.1l30,20.3h-67L982.6,370.8z
	 M1022.5,391.2l-29.5-20c1.1,0,2.6,0,4.3,0c4,0,7.6-0.1,10.9-0.3c11.2-0.5,15.4-1,17.1-1.6l0,0.1c0.1,0,4-0.4,9.2-1.2l-5.5,22.8
	H1022.5z M1039.3,367.6c0.3,0,0.6-0.1,0.9-0.2c1.6,1.4,3.3,3,5,4.4c6.2,5.5,12.6,10.7,12.8,10.8c0,0,0,0,0,0c0.1,0,5.1,4.1,10.7,8.5
	h-35.1L1039.3,367.6z M1124.4,391.2l21.1-62.4l8.3,62.4H1124.4z M1012.2,332.5C1012.2,332.5,1012.2,332.5,1012.2,332.5
	C1012.2,332.5,1012.2,332.5,1012.2,332.5l-1.1-1.6c-0.5-0.7-1.3-1.7-2.1-3l-0.8-1.2c-0.7-1.1-1.6-2.4-2.4-3.8l-3.3-6.1
	c-2.1-4-3.5-8.1-4.8-11.8l-1.2-4c-0.3-0.9-0.4-1.5-0.4-1.5c0,0,0,0,0,0c0,0-0.6-2.2-1.3-5.5c-0.9-4.5-1.5-8.6-1.9-12.3
	c-0.2-1.9-0.4-4.3-0.5-6.6c-0.1-1.8-0.1-3.7-0.1-5.8c0-1.6,0-3.1,0.1-4.1l0.1-1.6c0,0,0,0,0,0l0.1-1.6c0-1,0.2-2.5,0.4-4.1
	c0.2-2,0.4-3.9,0.8-5.8c0.3-1.8,0.7-3.9,1.2-6.6c1.1-5,2.7-9.8,3.5-12.2c0.4-1.1,0.7-2,1.1-2.8c0.2-0.4,0.3-0.8,0.4-1.1l0.6-1.4l0,0
	c0,0,0,0,0,0c0,0,0-0.1,0-0.1c0-0.1,0.2-0.6,0.6-1.3l1.9-3.9c0.5-1,1.2-2.2,1.9-3.4c0.4-0.6,0.7-1.2,1.1-1.8
	c0.8-1.4,1.8-2.8,2.8-4.3l1-1.5c2.8-3.8,6-7.4,8.6-9.9l3.2-3c0.5-0.4,0.9-0.7,1.1-0.9c0.1,0,0.1-0.1,0.2-0.1c0,0,0,0,0,0l1.3-1
	c0.3-0.2,0.6-0.5,1-0.8c0.7-0.6,1.5-1.2,2.5-1.8c0.5-0.3,1-0.7,1.5-1c1.2-0.8,2.4-1.6,3.7-2.3c0.7-0.3,1.3-0.7,2-1.1
	c1.4-0.8,2.8-1.5,4.3-2.1c5.1-2.3,9.9-3.8,12.3-4.4l4.2-1c0.9-0.2,1.4-0.3,1.5-0.3c0,0,0,0,0,0c0,0,0,0,0,0l5.8-0.9
	c3.5-0.4,7.6-0.8,11.6-0.8l1,0l3.4,0l3.3,0.2c0.7,0,1.4,0.1,2.1,0.1c1.3,0.1,2.5,0.1,3.6,0.3l5.4,0.6l5.3,0.8
	c3.1,0.4,7.2,1.2,11.8,2.2c3.5,0.8,7.4,1.8,11.7,3.1l5.3,1.8l0,0c0,0,0.5,0.2,1.4,0.6l3.8,1.6c1.1,0.5,2.3,1,3.6,1.6l1.8,0.8
	c2,1,4.2,2.3,6,3.3c3.1,1.9,7.5,4.9,10.7,7.8c1.4,1.2,2.5,2.2,3.2,3l1.2,1.2l1.1,1.2l2.9,3.5c3.2,4.2,5.6,8.2,7.2,12
	c1.9,4.3,3.5,9.3,4.1,13.3l0.5,2.5l0.4,3.7c0,0,0,0,0,0c0,0,0,0,0,0c0,0,0.1,0.6,0.1,1.6l0.1,4.5c-0.2,5.2-0.7,9.5-1.5,13.2
	c-0.3,1.7-0.7,3.3-1.1,4.8c-0.2,0.6-0.3,1.3-0.5,1.9c-0.6,2.1-1.3,4-1.8,5.7l-1.5,3.9c-0.3,0.8-0.5,1.3-0.6,1.4c0,0,0,0,0,0
	c0,0,0,0,0,0c-0.1,0.2-0.9,2.2-2.3,5.1c-1.1,2.2-3.2,6.5-5.8,10.8c-2.2,3.7-5,7.8-7.2,10.4l-2.7,3.3c-0.6,0.7-1,1.1-1,1.1
	c0,0,0,0,0,0c0,0,0,0,0,0c-0.1,0.1-1.2,1.3-2.8,3c-0.1,0-0.2-0.1-0.2-0.1c-1-0.1-2,0.5-2.4,1.5l-0.5,1.5l-2.4,2.2
	c-1.2,1-2.4,2-3.7,3l-1.5,1.2c-7,5.5-14.5,9.8-14.6,9.9c0,0,0,0,0,0c0,0,0,0,0,0c-0.1,0-6.7,4-13.9,7.5l-1.7-7.9
	c6.2-3.1,11.6-6.3,11.6-6.3c0.2-0.1,7.4-4.3,13.9-9.4l4.8-3.9l4-3.7c2.1-2.1,3.1-3.2,3.6-3.7c0,0,0,0,0,0c0,0,0.4-0.4,1.1-1.1
	l2.4-2.9c0.9-1,1.8-2.2,2.7-3.5l0.6-0.9c1-1.3,1.8-2.7,2.7-4.1l0.7-1.1c2.5-4,4.5-8.1,5.5-10.2c1.3-2.9,2.1-4.8,2.1-4.8v0
	c0-0.1,0.3-0.6,0.5-1.4l1.4-3.6c0.5-1.5,1.1-3.3,1.6-5.2c0.1-0.6,0.3-1.2,0.4-1.8c0.4-1.4,0.7-2.8,1-4.3c0.9-4.2,1.2-8.5,1.3-11.9
	l-0.1-3.9c0-0.6-0.1-1-0.1-1.4c0,0,0-0.1,0-0.1l-0.1-1.5l-0.6-3.9c-0.6-3.5-1.9-7.8-3.6-11.6c-1.4-3.2-3.4-6.6-6.3-10.4l-1.7-2.1
	l-1.9-2.1c0,0,0,0,0,0c0,0,0,0,0,0l-1-1c-0.7-0.7-1.6-1.6-2.9-2.7c-2.7-2.5-6.7-5.2-9.6-7c-1.8-1-3.6-2.1-5.5-3
	c-0.6-0.3-1.2-0.6-1.8-0.8c-1.1-0.5-2.2-1-3.1-1.4l-3.5-1.4c-0.9-0.4-1.4-0.5-1.4-0.5c0,0,0,0,0,0c0,0,0,0,0,0l-5-1.7
	c-4.2-1.3-7.8-2.3-11.1-3c-4.4-1-8.3-1.7-11.2-2.1l-5.1-0.7c0,0,0,0,0,0c0,0,0,0,0,0l-5.1-0.6c-1-0.1-2.2-0.2-3.4-0.3
	c-0.6,0-1.3-0.1-2-0.1l-3.1-0.2l-3.1,0l-1,0c-3.9,0-7.7,0.4-10.7,0.7l-5.2,0.8c-0.1,0-0.6,0.1-1.5,0.3l-3.7,0.9
	c-2.2,0.6-6.6,1.9-11.1,3.9c-1.4,0.5-2.6,1.2-3.8,1.9c-0.6,0.3-1.2,0.7-1.8,1c-1.2,0.7-2.3,1.4-3.3,2c-0.5,0.3-1,0.6-1.4,0.9
	c-1,0.6-1.7,1.2-2.3,1.7c-0.3,0.2-0.6,0.5-0.8,0.7l-1.1,0.9c0,0,0,0,0,0c-0.3,0.2-0.6,0.4-1.2,1l-2.8,2.6c-2.4,2.3-5.2,5.5-7.8,9
	c-0.4,0.5-0.7,1.1-1.1,1.6c-0.8,1.2-1.7,2.4-2.4,3.7c-0.3,0.6-0.7,1.2-1,1.7c-0.6,1.1-1.2,2.1-1.6,3l-1.7,3.4
	c-0.4,0.9-0.6,1.4-0.6,1.4l-0.5,1.3c-0.1,0.3-0.2,0.6-0.4,0.9c-0.3,0.7-0.7,1.6-1,2.6c-1,2.7-2.3,6.8-3.2,11.2
	c-0.6,2.5-0.9,4.4-1.2,6.1c-0.3,1.7-0.5,3.4-0.7,5.5c-0.2,1.5-0.3,2.8-0.3,3.7l-0.1,1.4l0,0v0l-0.1,1.4c-0.1,0.9-0.1,2.1-0.1,3.8
	c0,1.9,0,3.7,0.1,5.4c0.1,2.1,0.2,4.3,0.4,6.2c0.3,3.4,0.9,7.3,1.8,11.5l1.2,5.1c0,0,0,0,0,0c0,0,0,0,0,0c0,0,0.1,0.5,0.4,1.4
	l1.1,3.7c0.8,2.4,2.4,6.8,4.4,10.8l1.5,2.9l1.5,2.6c0.7,1.3,1.5,2.4,2.2,3.5l0.7,1.1c0.8,1.2,1.5,2.2,2,2.9l1,1.4c0,0,0,0,0,0
	c0,0,0,0,0,0c0.3,0.4,1.4,2,3.2,4.1c0.9,1.2,2.1,2.6,3.4,4.1c0.6,0.8,1.3,1.5,2,2.3c-3.1,0.4-5.1,0.6-5.1,0.6c0,0,0,0-0.1,0
	c-0.3,0-1.9,0.2-4.1,0.4c-0.8-0.9-1.5-1.8-2.1-2.6C1013.5,334.4,1012.2,332.6,1012.2,332.5z M929.3,328.4c2.3,1.2,3.9,1.8,4.1,1.9
	c0,0,0,0,0,0l4.2,1.7l1.6,0.6c2.3,0.8,5.2,1.9,8.2,2.8c6.4,2,13.1,3.8,15.1,4.3l2.2,0.6c0.8,0.2,1.7,0.5,2.5,0.6
	c2.3,0.6,5.8,1.3,9.6,1.8c1.5,0.2,3.3,0.4,5.4,0.6c1.7,0.2,3.4,0.3,4.8,0.4c2.6,0.2,4.4,0.2,4.7,0.2c0,0,0,0,0,0
	c0.3,0,2.5,0.1,5.6,0.1c3.5,0,6.7-0.1,9.6-0.2c2.8-0.1,6-0.4,9.4-0.7l0.3,0.4c1.2,1.5,2.6,3.1,4.2,4.8c0.6,0.7,1.2,1.3,1.8,2
	c-1.8,0.2-8.6,0.9-15.4,1.3c-3,0.2-6.4,0.3-10,0.3c-3.2,0-5.4-0.1-5.8-0.1c0,0,0,0,0,0c-0.1,0-7.9-0.2-15.7-1.2
	c-4.4-0.5-8.4-1.4-10.5-1.9c-1-0.2-1.8-0.4-2.6-0.6l-2.2-0.6c0,0,0,0,0,0c0,0,0,0,0,0c-1.4-0.4-8.5-2.2-15.3-4.4
	c-3.2-0.9-6.3-2.1-8.8-3l-6-2.4c0,0,0,0,0,0c0,0,0,0,0,0c0,0-1.3-0.5-3.3-1.5l-1.6-9.6C926.8,327.2,928.1,327.9,929.3,328.4z
	 M829.8,254L829.8,254c0,0-0.2-0.5-0.6-1.4l-1.6-3.8c-0.7-1.7-1.4-3.7-2-5.3l-0.4-1.1c-0.6-1.7-1.2-3.4-1.6-5.2c-1.2-4-2-8-2.7-11.3
	l-1-6.2c0,0,0,0,0,0l-0.2-1.5c-0.1-0.6-0.2-1.5-0.2-2.4l-0.1-1.6c-0.3-3.3-0.5-7.8-0.4-12.4c0.1-3.6,0.4-7.7,1-12.4l1-5.7
	c0,0,0,0,0,0c0,0,0,0,0,0c0,0,0.1-0.6,0.3-1.5l1-4.1c0.6-2.4,2-7.2,4.3-12.3c0.6-1.5,1.4-2.9,2.1-4.4c0.4-0.7,0.7-1.4,1-2
	c0.8-1.4,1.6-2.7,2.4-3.9c0.3-0.5,0.7-1,0.9-1.5c0.7-1,1.4-1.9,2-2.7c0.3-0.4,0.5-0.7,0.7-0.9l1.1-1.4l0.3-0.4
	c0.2-0.2,0.4-0.5,0.8-0.9l3.3-3.4c1-1,2.3-2,3.6-3.1l1.4-1.2c1.8-1.2,4.1-2.8,6.6-4.1c4.5-2.3,9.6-4.1,13.7-4.8l1.4-0.3
	c1.3-0.2,2.4-0.4,3.2-0.5l1.8-0.1h0l1.8-0.1c0.3,0,0.6,0,1-0.1c1-0.1,2.2-0.1,3.6,0c0.6,0,1.2,0.1,1.8,0.1c1.5,0.1,3,0.2,4.6,0.4
	c0.7,0.1,1.3,0.2,2,0.4c1.7,0.3,3.4,0.6,5,1l6.7,1.9l5.7,2.2c1.7,0.6,3,1.3,3.8,1.7l1.4,0.7c0,0,0,0,0,0l1.4,0.7
	c0.3,0.2,0.7,0.3,1.1,0.5c0.7,0.4,1.6,0.8,2.6,1.3l1.8,1.1c2.7,1.6,5.8,3.4,8.8,5.7l2.8,2l2.6,2.2c0.6,0.5,1.1,1,1.7,1.4
	c1,0.9,2,1.7,2.8,2.5l4.2,4.3c0,0,0,0,0,0c0,0,0,0,0,0c0,0,0.4,0.4,1,1.1l2.8,3.4c1.1,1.2,2.2,2.9,3.3,4.6l2.1,3.1l2.3,4.2
	c0.4,0.7,0.8,1.5,1.1,2.1l2.6,6.2l1.4,4.3c0.3,1.1,0.6,2,0.8,2.7l0.4,1.6c0,0,0,0,0,0l0.4,1.6c0.1,0.4,0.2,0.8,0.3,1.2
	c0.2,0.9,0.4,1.9,0.6,3l0.2,1.6c0.2,1.4,0.4,2.9,0.5,4.4c0,0.7,0.1,1.4,0.1,2.1c0.1,1.6,0.2,3.3,0.2,4.9c0,0.8,0,1.5-0.1,2.3
	c0,1.6-0.1,3.2-0.2,4.6l-0.2,2c-0.2,1.5-0.3,2.8-0.5,4l-1.1,5.8l-1.5,5.6c-0.7,2.3-2.2,7-4.4,12c-0.6,1.4-1.3,2.9-2,4.2
	c-0.3,0.6-0.6,1.3-0.9,1.9c-0.7,1.3-1.4,2.6-2.1,3.7l-0.9,1.5c-0.6,1-1.1,1.8-1.6,2.5c-0.3,0.4-0.5,0.7-0.7,1l-0.9,1.3l0,0l-3.5,4.7
	c-0.9,1.3-2.2,2.7-3.6,4.2l-0.3,0.3c-1.2,1.4-2.6,2.7-4,4.2l-0.7,0.7c-4,3.8-8.1,6.8-10.2,8.2c-0.8,0.6-1.6,1-2.3,1.5l-1.4-8.4
	c2-1.4,5.3-3.9,8.5-7l0.8-0.8c1.2-1.2,2.5-2.4,3.5-3.7l0.4-0.5c1.2-1.3,2.3-2.5,3.1-3.7l2.4-3.1l0.8-1.2c0,0,0,0,0,0l0.8-1.2
	c0.2-0.3,0.4-0.5,0.6-0.8c0.5-0.7,1-1.5,1.5-2.4l0.8-1.4c0.6-1,1.2-2.1,1.9-3.3c0.3-0.6,0.6-1.2,0.9-1.8c0.6-1.2,1.2-2.5,1.8-3.7
	c2-4.6,3.4-8.8,4-11l1.3-5.1c0,0,0,0,0,0c0,0,0,0,0,0l1-5.2c0.2-1,0.3-2.2,0.4-3.5c0.1-0.6,0.1-1.3,0.2-1.9c0.2-1.3,0.2-2.7,0.2-4.1
	c0-0.7,0-1.4,0.1-2.2c0-1.4-0.1-2.8-0.1-4.2c0-0.7-0.1-1.4-0.1-2.1c-0.1-1.3-0.3-2.6-0.5-3.7c-0.1-0.6-0.2-1.2-0.2-1.7
	c-0.1-1.1-0.4-2.1-0.5-2.9c-0.1-0.4-0.2-0.7-0.2-1l-0.3-1.4c0,0,0,0,0,0l-0.3-1.5c-0.2-0.6-0.4-1.4-0.7-2.3l-1.3-4l-2.4-5.6
	l-3.1-5.7l-2-3c-1-1.5-1.9-2.9-2.9-4l-2.4-2.9c-0.6-0.7-0.9-1.1-1-1.2c0,0,0,0,0,0l-3.7-3.7c-0.7-0.8-1.7-1.6-2.6-2.4
	c-0.5-0.4-1-0.8-1.5-1.3l-1.5-1.3l-3.4-2.5c-2.7-2-5.6-3.7-8-5.1c-0.7-0.4-1.3-0.7-1.9-1.1c-0.9-0.5-1.8-0.9-2.5-1.3
	c-0.3-0.2-0.7-0.3-1-0.5l-1.3-0.6c0,0,0,0,0,0l0,0l-1.3-0.6c-0.8-0.4-2-1-3.6-1.6l-5.1-2l-6-1.7c-1.4-0.4-2.8-0.6-4.2-0.8
	c-0.7-0.1-1.4-0.2-2-0.4c-1.4-0.2-2.7-0.3-3.9-0.4c-0.6,0-1.2-0.1-1.7-0.1c-1.2-0.1-2.3-0.1-3.2,0c-0.3,0-0.6,0-0.9,0l-1.5,0.1
	c0,0,0,0,0,0l-1.5,0.1c-0.7,0.1-1.5,0.2-2.5,0.4l-1.5,0.3c-3.4,0.6-7.6,2-11.6,4.1c-2,1.1-3.9,2.3-5.6,3.5c-0.5,0.4-1,0.8-1.5,1.3
	c-1,0.8-2,1.6-2.8,2.4l-2.7,2.8c-0.6,0.6-0.9,0.9-1.1,1.3l-0.9,1.2c-0.2,0.2-0.4,0.5-0.6,0.8c-0.5,0.6-1.1,1.4-1.8,2.4
	c-0.3,0.5-0.6,0.9-0.9,1.4c-0.7,1-1.4,2.1-2,3.3c-0.3,0.6-0.6,1.2-0.9,1.8c-0.7,1.2-1.3,2.5-1.8,3.8c-2,4.6-3.3,8.9-3.9,11.1
	l-0.9,3.7c-0.2,0.9-0.3,1.4-0.3,1.5c0,0,0,0,0,0l-0.9,5.2c-0.4,2.9-0.8,7.2-0.9,11.6c-0.1,4.3,0.1,8.5,0.4,11.6l0.1,1.5
	c0.1,0.9,0.1,1.7,0.2,2.3l0.2,1.4c0,0,0,0,0,0l0.8,5.2l0.2,0.9c0.6,3,1.4,6.6,2.4,10.2c0.4,1.7,1,3.3,1.5,4.8l0.4,1.1
	c0.5,1.6,1.2,3.5,1.9,5.1l1.4,3.5c0.4,0.9,0.6,1.4,0.6,1.4c0,0,0,0,0,0c0,0,0,0,0,0l2.2,4.7c0.6,1.3,1.3,2.6,2.1,4l0.9,1.5
	c0.8,1.5,1.7,3.1,2.7,4.6c0.1,0.2,0.3,0.4,0.4,0.6l-10.3-2l-0.4-0.8c-0.9-1.6-1.7-3-2.3-4.4L829.8,254z M758.8,384.3
	c-2.8-3.2-5.6-6.8-7.7-9.9l-2.3-3.5l-0.8-1.4v0l-0.8-1.4c-0.6-0.9-1.3-2.3-2-3.8l-1.3-2.6l-1.3-3.1c-0.7-1.6-1.3-3.3-1.8-5.2
	l-0.5-1.5c-1.3-4.6-2.2-9.6-2.3-13.4l-0.1-1.6c-0.1-1.2-0.1-2.2-0.1-3l0.1-1.8c0,0,0,0,0,0l0.1-1.8c0-1.5,0.2-3,0.5-4.5l0.1-0.6
	c0.3-1.7,0.5-3.7,1.1-5.7l0.9-3.5c0.2-0.8,0.5-1.6,0.8-2.3l0.8-2.2c0.3-0.8,0.5-1.5,0.8-2.2l2.8-6.1l1.3-2.4
	c1.6-2.9,2.8-4.9,2.8-4.9c0,0,0,0,0,0c0,0,0,0,0,0l1.3-2c0.5-0.8,1.1-1.8,2-2.9c0.3-0.4,0.6-0.9,1-1.3c0.8-1.1,1.7-2.3,2.8-3.5
	l2.3-2.7c0.6-0.7,1.3-1.3,1.9-1.9l0.7-0.7c1.2-1.3,2.6-2.4,4-3.6c0.5-0.4,1-0.9,1.4-1.2c0.6-0.4,1.2-0.8,1.8-1.3
	c1.3-0.9,2.5-1.8,3.7-2.4l1.3-0.7c1.1-0.6,2.1-1.2,2.8-1.5l3.3-1.5c0.9-0.4,2-0.8,3.4-1.3l0.9-0.3c2.7-0.8,8-2.3,13.4-2.7
	c4.4-0.4,9.2-0.5,12.9-0.2c1.5,0.1,2.8,0.2,3.7,0.3l1.9,0.2c0,0,0,0,0,0c0,0,0,0,0,0c0,0,0.6,0,1.5,0.2l3.9,0.5
	c2.8,0.4,7,1,11.2,1.8c0.8,1.4,1.7,2.9,2.7,4.4c0.4,0.6,0.8,1.3,1.2,1.9c0.6,0.9,1.2,1.8,1.8,2.7l-6.8-1.3
	c-4.1-0.8-8.4-1.4-11.2-1.8c-3.1-0.4-5.2-0.6-5.2-0.6c0,0,0,0,0,0c0,0,0,0,0,0l-1.8-0.2c-0.9-0.1-2.1-0.2-3.4-0.2
	c-3.3-0.2-7.7-0.2-11.7,0.2c-3.5,0.3-7.5,1.1-11.8,2.4l-1.4,0.5c-0.9,0.3-1.7,0.6-2.3,0.9l-1.3,0.6c-0.2,0.1-2.2,0.9-4.9,2.5
	c-1,0.5-2,1.2-3.1,2c-0.5,0.4-1.1,0.8-1.8,1.2c-0.5,0.4-0.9,0.8-1.4,1.2c-1.1,0.9-2.3,1.9-3.4,3l-0.8,0.8c-0.5,0.5-1,1-1.5,1.5
	l-2,2.3c-1,1.1-1.8,2.2-2.5,3.2c-0.3,0.4-0.6,0.8-0.9,1.2c-0.8,1-1.4,1.9-1.8,2.7l-1.1,1.8c0,0,0,0,0,0c0,0,0,0,0,0h0
	c-0.4,0.6-1.4,2.2-2.6,4.5l-1.3,2.3l-2.5,5.4c-0.3,0.7-0.5,1.3-0.8,2l-0.7,2c-0.2,0.7-0.5,1.4-0.7,2.1l-0.7,3
	c-0.5,1.7-0.7,3.4-1,4.9l-0.1,0.7c-0.2,1.3-0.4,2.7-0.4,4l-0.1,1.5l0,0l0,0l-0.1,1.5c0,0.6,0,1.5,0.1,2.4l0.1,1.5
	c0.2,3.3,0.9,7.7,2.1,11.9c0.2,0.5,0.3,1.1,0.5,1.6c0.5,1.5,1,3,1.6,4.4l0.9,2.1l1.4,2.9c0.6,1.4,1.3,2.6,1.8,3.5l0.7,1.3
	c0,0,0,0,0,0l2.9,4.5c1.9,2.9,4.5,6.2,7.1,9.2c1.5,1.7,3.2,3.5,5.1,5.4l-2.7,6.7h-1.7C762.9,388.8,760.7,386.5,758.8,384.3z"/>
<g>
	<rect x="27.5" y="391.1" fill="#6881B7" width="715.2" height="6.7"/>
	<path fill="#6881B7" d="M711.5,299.5c-10.3,0-30,0.1-50.8,0.2c-20.8,0.1-42.2,0.3-53.4,0.3c-3.4,0-6.1-1.5-8.1-4.4
		c-2-3-3.1-7.2-3.1-11.8c0-8.2,4-20.5,15.2-20.5h91c13.4,0,19.5-14.7,19.5-28.4c0-15.3-7.2-26-17.5-26h-89.9c-13,0-18.8-8.5-18.8-17
		c0-9.4,7.1-19.5,22.5-19.5c19.8,0,38.2-0.3,54.5-0.6c12.1-0.2,22.6-0.4,30.9-0.4c13.1,0,21.9-13.9,21.9-26.9
		c0-6.8-2.4-12.9-6.8-17.3c-5-5-12.5-7.7-21.7-7.7H585.4c-31.3,0-51.9,34.8-73.6,71.6c-12.8,21.7-26,44-41.3,58.2
		c-18.8,17.4-49.9,42.8-82.3,63.1c-6.2-11.1-11.9-23.3-17.4-35.1c-14.4-30.8-25.7-55.1-41.9-55.1c-4.3,0-8.5,1.8-12.6,5.4
		c-6.4,5.7-16.5,19.5-29.3,37.1c-10,13.7-21.2,29.1-32.9,43.7c-12.9-17.3-22.5-37.2-28.7-51c-2.5-5.6-11.7-25.2-24-42.6
		c-12.9-18.4-24.2-27.3-34.4-27.3c-5.3,0-10,2.4-13.9,7.2c-8.5,10.2-15.2,30.1-23,53.1c-11.4,33.4-24.2,71.3-45.1,87.1
		c-18.6,14.1-34.4,21.6-57.6,25.2v11.6c1.9,0,3.9,0,5.9,0c53.4,0,124-0.3,157.4-1.6c16.4-0.7,36.6-15.9,63.3-47.8
		c17.4,20.4,36,30.7,55.3,30.7c18.8,0,44.3-9.6,75.8-28.4c10.8,17.7,21.1,28.3,32.3,33.3c5.5,2.5,21.4,5.7,95.8,5.7
		c50.6,0,110.6-1.5,150.3-2.5c19.7-0.5,35.3-0.9,41.7-0.9c8.7,0,15.9-3.5,20.7-10.2c4-5.5,6.2-12.9,6.2-20.9
		C732.2,314.7,725,299.5,711.5,299.5z M190.5,361.4c-29.5,1.2-88.6,1.6-138.8,1.6c13.7-4.6,25.6-11.5,38.6-21.3
		c23-17.3,36.3-56.6,48-91.2c7.2-21.3,14-41.4,21.5-50.3c2.3-2.7,4.6-4,7.3-4c13.9,0,36,32.7,50.6,64.9c6.6,14.6,16.9,35.9,31,54.3
		C223.6,345.3,204.1,360.8,190.5,361.4z M309.4,344.2c-17,0-33.7-9.7-49.7-28.9c12.3-15.2,24-31.2,34.4-45.5
		c12-16.4,22.3-30.7,28-35.7c2.5-2.2,4.7-3.3,6.9-3.3c10.7,0,22.6,25.5,34.1,50.1c5.6,12.1,11.4,24.5,17.8,36
		C351.1,334.8,326.4,344.2,309.4,344.2z M719.1,344.8c-3.2,4.4-7.9,6.7-13.8,6.7c-6.5,0-21.4,0.4-41.9,0.9
		c-39.7,1-99.6,2.5-150.1,2.5c-67.1,0-87.2-2.7-92.2-5c-9.4-4.2-18.8-14-28.5-30c32.9-20.7,64.7-46.5,83.8-64.2
		c16.2-15,29.8-38,42.9-60.2c20.5-34.7,39.8-67.4,66.2-67.4h111.3c18,0,19.9,11.5,19.9,16.4c0,8.6-5.7,18.3-13.3,18.3
		c-8.4,0-18.9,0.2-31.1,0.4c-16.3,0.3-34.7,0.6-54.4,0.6c-11.9,0-19.2,4.8-23.2,8.8c-5.1,5.1-8,12.1-8,19.3
		c0,12.7,9.4,25.6,27.4,25.6h89.9c5.9,0,8.9,8.8,8.9,17.4c0,9.6-3.8,19.8-10.9,19.8h-91c-15.5,0-23.8,15-23.8,29.1
		c0,6.3,1.6,12.2,4.6,16.6c3.6,5.3,9,8.2,15.2,8.2c11.3,0,32.7-0.1,53.5-0.3c20.8-0.1,40.5-0.3,50.8-0.3c7.5,0,12.1,10.8,12.1,20.8
		C723.6,335.1,722,340.8,719.1,344.8z"/>
	<path fill="#6881B7" d="M705.4,291.2c-10.5,0-28.7,0.1-48,0.3c-19.3,0.1-39.2,0.3-50.6,0.3c-9.7,0-14-8.8-14-17.4
		c0-12.7,8.9-25.5,26-25.5h91.5c7.1,0,11.1-5.3,11.1-14.4c0-13.6-9.5-33.7-22.7-33.7h-88.4c-6.2,0-11.4-1.8-14.9-5.1
		c-3.1-3-4.8-7.1-4.8-11.8c0-12.5,11.6-25.9,33.2-25.9c20,0,36.9-0.3,51.8-0.6c11.1-0.2,20.7-0.4,29.1-0.4c11,0,18.4-11.3,18.4-21.9
		c0-6.4-2.5-12.2-7.1-16.3c-5.4-4.9-13.3-7.4-23.4-7.4h-105c-38.2,0-59.9,37.4-80.8,73.7c-11.9,20.5-24.1,41.7-39.1,55.4
		c-16.2,14.8-48.4,42.8-83,65c-7.8-13-14.4-27.5-20.8-41.5c-12.3-26.8-22.9-49.9-36.4-49.9c-3.5,0-7.1,1.6-10.6,4.7
		c-6.3,5.4-16.4,19.2-29.2,36.6c-11.6,15.7-24.7,33.5-38.4,49.8c-11.7-15.2-19.3-33.5-25-46.9c-1.6-3.9-3.2-7.6-4.6-10.7
		c-8.7-18.9-36-68.1-57.6-68.1c-4.4,0-8.4,2-11.8,6c-8.6,10.2-16.5,32.2-24.8,55.5c-11.6,32.6-24.8,69.5-43.4,85.2
		c-17.2,14.5-32.7,21.9-54.6,25.5v2.4c22.5-3.6,38.4-11.2,56.1-26.1c19.1-16.1,32.4-53.4,44.1-86.2c8.2-23.1,16-44.9,24.4-54.8
		c2.9-3.5,6.2-5.2,10-5.2c18.1,0,43.7,40.9,55.5,66.8c1.4,3.1,2.9,6.7,4.6,10.6c5.7,13.7,13.5,32.3,25.6,47.9
		c-25.9,30.5-45.7,45.7-60.5,46.3c-33.7,1.4-105.3,1.6-159.4,1.6c-0.1,0-0.2,0-0.3,0v2.3c0.1,0,0.2,0,0.3,0
		c54.1,0,125.7-0.3,159.5-1.6c15.5-0.6,35.7-15.9,61.9-46.7c15.9,19.6,35,29.3,58.5,29.6c0.3,0,0.5,0,0.8,0
		c18.9,0,44.3-10,75.4-29.7c11.2,18.3,22.5,29.7,34.8,34.9c8.4,3.6,39.8,5.3,96.2,5.3c51.1,0,111.6-1.5,151.7-2.4
		c20.7-0.5,35.6-0.9,42.2-0.9c6.9,0,12.5-2.4,16.2-7c3.3-4,5-9.5,5-15.9C729.8,307.4,720,291.2,705.4,291.2z M307.7,335.9
		c-22.8-0.4-41.5-9.9-56.9-29.1c13.8-16.5,27.1-34.4,38.8-50.3c12.2-16.6,22.8-30.9,28.9-36.2c3.2-2.7,6.1-4.1,9.1-4.1
		c12,0,22.3,22.5,34.3,48.5c6.5,14.1,13.1,28.6,21,41.8C351.5,326.3,326.2,336.2,307.7,335.9z M723,337c-3.3,4.1-8.1,6.2-14.4,6.2
		c-6.6,0-21.5,0.4-42.2,0.9c-40,1-100.5,2.4-151.6,2.4c-55.3,0-87.3-1.7-95.2-5.1c-11.8-5-22.8-16.2-33.7-34
		c34.8-22.3,67.1-50.4,83.4-65.3c15.3-13.9,27.6-35.3,39.5-55.9c20.6-35.6,41.9-72.5,78.8-72.5h105c9.4,0,16.9,2.3,21.8,6.8
		c4.1,3.7,6.3,8.9,6.3,14.6c0,9.5-6.4,19.6-16,19.6c-8.5,0-18.1,0.2-29.2,0.4c-14.9,0.3-31.7,0.6-51.7,0.6c-13.5,0-21.9,5-26.5,9.1
		c-5.8,5.2-9.1,12.2-9.1,19.1c0,5.3,2,10,5.5,13.5c3.9,3.8,9.6,5.7,16.5,5.7h88.4c10.8,0,20.4,17.6,20.4,31.4c0,3.7-0.7,6.7-2.1,8.8
		c-1.5,2.2-3.7,3.3-6.6,3.3h-91.5c-18.6,0-28.3,14-28.3,27.9c0,9.5,5.1,19.8,16.4,19.8c11.4,0,31.3-0.1,50.6-0.3
		c19.3-0.1,37.5-0.2,48-0.2c13.2,0,22.1,15,22.1,29C727.4,328.4,725.9,333.3,723,337z"/>
	<rect x="107.7" y="355.9" fill="#6881B7" width="3" height="8.4"/>
	<rect x="84.1" y="323.8" fill="#6881B7" width="3" height="17.1"/>
	<rect x="149.3" y="186.7" fill="#6881B7" width="3" height="17.1"/>
	<polygon fill="#6881B7" points="122.6,284.5 119.6,284.5 119.6,258.9 122.6,255.1 	"/>
	<rect x="184.9" y="354.1" fill="#6881B7" width="3" height="8.4"/>
	<polygon fill="#6881B7" points="245.2,328 242.2,328 242.2,313.7 245.2,311.4 	"/>
	<polygon fill="#6881B7" points="286.7,275.4 283.7,275.4 283.7,261.1 286.7,258.8 	"/>
	<polygon fill="#6881B7" points="327,348.4 323.9,348.4 323.9,335.4 327,333.4 	"/>
	<polygon fill="#6881B7" points="421.8,295.7 418.7,295.7 418.7,282.8 421.8,280.7 	"/>
	<polygon fill="#6881B7" points="494.4,225.1 491.4,225.1 491.4,212.1 494.4,210.1 	"/>
	<polygon fill="#6881B7" points="555.3,137.6 552.3,137.6 552.3,124.6 555.3,122.6 	"/>
	<polygon fill="#6881B7" points="681.3,127.1 678,127.1 678,112.2 681.3,111.6 	"/>
	<polygon fill="#6881B7" points="645.7,170.2 642.6,170.2 642.6,157.2 645.7,157.4 	"/>
	<polygon fill="#6881B7" points="681.1,214.2 678,214.2 678,201.2 681.1,201.4 	"/>
	<polygon fill="#6881B7" points="641.1,260.2 638.1,260.2 638.1,247.3 641.1,247.5 	"/>
	<polygon fill="#6881B7" points="694,304.5 691,304.5 691,291.5 694,291.8 	"/>
	<polygon fill="#6881B7" points="660.9,357.7 657.9,357.7 657.9,344.7 660.9,344.9 	"/>
	<polygon fill="#6881B7" points="564,359.2 561,359.2 561,346.3 564,346.5 	"/>
	<polygon fill="#6881B7" points="460.7,359.2 457.6,359.2 457.6,346.3 460.7,346.5 	"/>
	<rect x="329.2" y="215.8" fill="#6881B7" width="3" height="14.3"/>
	<rect x="166.4" y="191.8" fill="#6881B7" width="3.7" height="202.6"/>
	<rect x="551.2" y="137.6" fill="#6881B7" width="3.7" height="259.4"/>
	<rect x="654.4" y="123.9" fill="#6881B7" width="3.7" height="273.2"/>
	<rect x="607.8" y="304.2" fill="#6881B7" width="3.7" height="91.1"/>
	<rect x="700.4" y="170.2" fill="#6881B7" width="3.7" height="225.2"/>
	<rect x="327.3" y="226.7" fill="#6881B7" width="3.7" height="164.4"/>
	<rect x="251.7" y="313.8" fill="#6881B7" width="3.7" height="80.6"/>
	<rect x="84.6" y="337.8" fill="#6881B7" width="3.7" height="59.2"/>
	<rect x="406.9" y="347.9" fill="#6881B7" width="3.7" height="43.1"/>
	<rect x="484.3" y="238.4" fill="#6881B7" width="3.7" height="153.5"/>
</g>
<path fill="#1B2352" d="M680.4,392.2l3.2-0.9c-1.2-1-2.1-2.3-2.6-3.9c-1.1-4,1.3-8.1,5.3-9.2l24.6-6.6c4-1.1,8.1,1.3,9.2,5.3
	c0.4,1.6,0.3,3.2-0.3,4.7l106.2-28.4c-1.2-1-2.1-2.3-2.6-3.9c-1.1-4,1.3-8.1,5.3-9.2l24.6-6.6c4-1.1,8.1,1.3,9.2,5.3
	c0.4,1.6,0.3,3.2-0.3,4.7l3.2-0.9c1.6-0.4,3.3,0.5,3.8,2.2c0.4,1.6-0.5,3.3-2.2,3.8l-84,22.5c12.9,2.3,22.6,13.5,22.6,27.1
	c-29.8,0-13.2,0-55,0c0-8.4,3.8-16,9.8-21L682,398.2c-1.6,0.4-3.3-0.5-3.8-2.2C677.8,394.4,678.8,392.7,680.4,392.2z"/>
<g>
	<path fill="#DCDCDD" d="M473.5,107.3c1.4,0,2.6-0.8,6.3,4.4c2.8,4,3.1,1.4,3.1,1.4s0-1.2,1.5,0.5c1.4,1.7,1.4,1.7,1.4,1.7
		s2.4-4.3,5.2-6.4c0.9-0.7,1.9-1.2,2.8-1.2c3.7,0,7.6,4.6,7.6,4.6s-7.4-3.5-11.6,0.7c-3.1,3.1-2,3.2-5.1,3.4
		c-3.1,0.2-5.2-4.4-9.2-6.3c-4.3-2.1-4.7,0.7-7.2,0.7C471,108.6,471.9,107.3,473.5,107.3z"/>
	<path fill="#DCDCDD" d="M371.5,75c-2.9,1-5.4,5.3-6.9,6.8c-1.4,1.3-4.7-1.7-6.2-3.2c-0.2-0.2-0.4-0.4-0.5-0.5
		c-1.2-1.2-5.4-1.2-5.4-1.2s4.4,1.6,5.9,3.1c1.5,1.5,5.8,3.2,5.8,3.2s2.3,0.4,2.3-0.6c0-0.9,0.9-1.8,1.6-2.5
		c0.8-0.8,4.5-4.6,6.4-4.6c1.9,0,1.9,0,1.9,0S374.3,74,371.5,75z"/>
	<path fill="#DCDCDD" d="M416.6,67.5c0,0,0.8-6.5,6.3-8.4c2.5-0.9,5.1,0.4,8.9,1.8c5.8,2.2,3.6-0.4,3.6-0.4s-0.6-0.5,0-1.2
		c0.8-0.9,3.1,1.7,4.3,1.6c2.5-0.1,5.5-0.9,7.9-3.7c4.7-5.6,8.4-2.3,13.3,0.9c5.3,3.5,7.5,6.1,7.5,6.1s-8.7-5.6-15.7-4.4
		c-3.8,0.7-7.7,6.9-12.1,6.9c-0.4,0,2.1,1.6,1.8,1.6c-0.6,0.1-1.3,0.4-1.8,0.6c-0.5,0.2-1.8-2.6-2.2-2.4c-1.4,0.6-4.4-0.4-6.5-1.2
		c-5.2-1.8-3.4-2.9-9.9-2C419.3,63.8,416.6,67.5,416.6,67.5z"/>
	<path fill="#DCDCDD" d="M390.3,141.1c-3.4,0-14.2,7.1-15.5,12.5c0.5,4.2-2.9,2.7-4,0c-0.2-0.5-1,0.4-1-0.2c0-0.9,1.8-1.1,1-2.1
		c-1.1-1.3-2.8-3.3-6.9-5.9c-8.5-5.2-16.9-4.7-16.9-4.7s11.9-1.2,17.7,2.1c7.3,4.2,8.6,9.1,8.6,9.1s4.5-10.5,11-12.4
		c5.1-1.5,13,1.1,13,1.1S393.7,141.1,390.3,141.1z"/>
</g>
<g>
	<path fill="#DCDCDD" d="M756,43.4c1.4,0,2.6-0.8,6.3,4.4c2.8,4,3.1,1.4,3.1,1.4s0-1.2,1.5,0.5c1.4,1.7,1.4,1.7,1.4,1.7
		s2.4-4.3,5.2-6.4c0.9-0.7,1.9-1.2,2.8-1.2c3.7,0,7.6,4.6,7.6,4.6s-7.4-3.5-11.6,0.7c-3.1,3.1-2,3.2-5.1,3.4
		c-3.1,0.2-5.2-4.4-9.2-6.3c-4.3-2.1-4.7,0.7-7.2,0.7C753.4,44.6,754.3,43.4,756,43.4z"/>
	<path fill="#DCDCDD" d="M1147.5,33c1.4,0,2.6-0.8,6.3,4.4c2.8,4,3.1,1.4,3.1,1.4s0-1.2,1.5,0.5c1.4,1.7,1.4,1.7,1.4,1.7
		s2.4-4.3,5.2-6.4c0.9-0.7,1.9-1.2,2.8-1.2c3.7,0,7.6,4.6,7.6,4.6s-7.4-3.5-11.6,0.7c-3.1,3.1-2,3.2-5.1,3.4
		c-3.1,0.2-5.2-4.4-9.2-6.3c-4.3-2.1-4.7,0.7-7.2,0.7C1144.9,34.3,1145.8,33,1147.5,33z"/>
	<path fill="#DCDCDD" d="M797.6,65.7c-2.9,1-5.4,5.3-6.9,6.8c-1.4,1.3-4.7-1.7-6.2-3.2c-0.2-0.2-0.4-0.4-0.5-0.5
		c-1.2-1.2-5.4-1.2-5.4-1.2s4.4,1.6,5.9,3.1c1.5,1.5,5.8,3.2,5.8,3.2s2.3,0.4,2.3-0.6c0-0.9,0.9-1.8,1.6-2.5
		c0.8-0.8,4.5-4.6,6.4-4.6c1.9,0,1.9,0,1.9,0S800.5,64.7,797.6,65.7z"/>
	<path fill="#DCDCDD" d="M797.8,31.2c0,0,0.8-6.5,6.3-8.4c2.5-0.9,5.1,0.4,8.9,1.8c5.8,2.2,3.6-0.4,3.6-0.4s-0.6-0.5,0-1.2
		c0.8-0.9,3.1,1.7,4.3,1.6c2.5-0.1,5.5-0.9,7.9-3.7c4.7-5.6,8.4-2.3,13.3,0.9c5.3,3.5,7.5,6.1,7.5,6.1s-8.7-5.6-15.7-4.4
		c-3.8,0.7-7.7,6.9-12.1,6.9c-0.4,0,2.1,1.6,1.8,1.6c-0.6,0.1-1.3,0.4-1.8,0.6c-0.5,0.2-1.8-2.6-2.2-2.4c-1.4,0.6-4.4-0.4-6.5-1.2
		c-5.2-1.8-3.4-2.9-9.9-2C800.5,27.6,797.8,31.2,797.8,31.2z"/>
	<path fill="#DCDCDD" d="M785.2,3.5c-3.4,0-14.2,7.1-15.5,12.5c0.5,4.2-2.9,2.7-4,0c-0.2-0.5-1,0.4-1-0.2c0-0.9,1.8-1.1,1-2.1
		c-1.1-1.3-2.8-3.3-6.9-5.9C750.3,2.6,742,3.1,742,3.1s11.9-1.2,17.7,2.1c7.3,4.2,8.6,9.1,8.6,9.1s4.5-10.5,11-12.4
		c5.1-1.5,13,1.1,13,1.1S788.6,3.5,785.2,3.5z"/>
</g>
<g>
	<rect x="980.4" y="230" fill="#0E1236" width="72.9" height="77.9"/>
	<polygon fill="#445E90" points="1053.4,307.8 1017.6,307.5 1017.6,307.5 1016.9,307.5 1016.2,307.5 1016.2,307.5 980.4,307.8 
		974.9,321.3 974.9,402.2 1016.2,402.2 1017.6,402.2 1058.9,402.2 1058.9,321.3 	"/>
	<path fill="#0E1236" d="M1125.1,283.6h-15c-1.1,0-2-0.9-2-2v-11.4c0-1.1,0.9-2,2-2c1.1,0,2,0.9,2,2v9.5h11v-9.5c0-1.1,0.9-2,2-2
		c1.1,0,2,0.9,2,2v11.4C1127.1,282.7,1126.2,283.6,1125.1,283.6z"/>
	<path fill="#0E1236" d="M920.3,267.9h-15c-1.1,0-2-0.9-2-2v-11.4c0-1.1,0.9-2,2-2c1.1,0,2,0.9,2,2v9.5h11v-9.5c0-1.1,0.9-2,2-2
		c1.1,0,2,0.9,2,2v11.4C922.3,267,921.4,267.9,920.3,267.9z"/>
	<path fill="#0E1236" d="M1163.5,296.1h-16.4c-1.2,0-2.2-1-2.2-2.2v-12.5c0-1.2,1-2.2,2.2-2.2c1.2,0,2.2,1,2.2,2.2v10.3h12.1v-10.3
		c0-1.2,1-2.2,2.2-2.2c1.2,0,2.2,1,2.2,2.2V294C1165.6,295.2,1164.7,296.1,1163.5,296.1z"/>
	<path fill="#0E1236" d="M884.4,280.5H868c-1.2,0-2.2-1-2.2-2.2v-12.5c0-1.2,1-2.2,2.2-2.2c1.2,0,2.2,1,2.2,2.2v10.3h12.1v-10.3
		c0-1.2,1-2.2,2.2-2.2c1.2,0,2.2,1,2.2,2.2v12.5C886.5,279.6,885.6,280.5,884.4,280.5z"/>
	<path fill="#0E1236" d="M1210,315.4H1186c-1.7,0-3.2-1.4-3.2-3.2V294c0-1.7,1.4-3.2,3.2-3.2c1.7,0,3.2,1.4,3.2,3.2v15.1h17.6V294
		c0-1.7,1.4-3.2,3.2-3.2c1.7,0,3.2,1.4,3.2,3.2v18.3C1213.1,314,1211.7,315.4,1210,315.4z"/>
	<path fill="#0E1236" d="M839.7,306.3h-23.9c-1.7,0-3.2-1.4-3.2-3.2v-18.3c0-1.7,1.4-3.2,3.2-3.2c1.7,0,3.2,1.4,3.2,3.2V300h17.6
		v-15.1c0-1.7,1.4-3.2,3.2-3.2c1.7,0,3.2,1.4,3.2,3.2v18.3C842.9,304.9,841.4,306.3,839.7,306.3z"/>
	<path fill="#0E1236" d="M1082,267.6h-15c-1,0-1.9-0.8-1.9-1.9v-11.4c0-1,0.8-1.9,1.9-1.9c1,0,1.9,0.8,1.9,1.9v9.6h11.3v-9.6
		c0-1,0.8-1.9,1.9-1.9c1,0,1.9,0.8,1.9,1.9v11.4C1083.9,266.7,1083.1,267.6,1082,267.6z"/>
	<path fill="#0E1236" d="M961.7,243.8h-15c-1,0-1.9-0.8-1.9-1.9v-11.4c0-1,0.8-1.9,1.9-1.9c1,0,1.9,0.8,1.9,1.9v9.6h11.3v-9.6
		c0-1,0.8-1.9,1.9-1.9c1,0,1.9,0.8,1.9,1.9v11.4C963.5,242.9,962.7,243.8,961.7,243.8z"/>
	<path fill="#0E1236" d="M1110.1,273.2c-0.6,0-1.1-0.4-1.2-1l-25-107.9c-0.1-0.6,0.2-1.3,0.8-1.5c0.6-0.2,1.3,0.1,1.5,0.7l40,104.9
		c0.2,0.6-0.1,1.4-0.7,1.6c-0.6,0.2-1.4-0.1-1.6-0.7l-33.6-88l21,90.3c0.2,0.7-0.3,1.3-0.9,1.5
		C1110.3,273.2,1110.2,273.2,1110.1,273.2z"/>
	<path fill="#0E1236" d="M1067,257.3c-0.6,0-1.1-0.4-1.2-1l-12-74.1c-0.1-0.6,0.3-1.2,0.9-1.4c0.6-0.2,1.2,0.2,1.5,0.8l27,71.1
		c0.2,0.6-0.1,1.4-0.7,1.6c-0.6,0.2-1.4-0.1-1.6-0.7l-22.7-59.7l10.1,62.1c0.1,0.7-0.4,1.3-1,1.4
		C1067.2,257.3,1067.1,257.3,1067,257.3z"/>
	<path fill="#0E1236" d="M1147.1,283.7c-0.5,0-1-0.4-1.2-0.9l-32-121.2c-0.2-0.6,0.2-1.3,0.8-1.5c0.6-0.2,1.3,0.1,1.5,0.7
		l48.4,120.3c0.3,0.6-0.1,1.4-0.7,1.6c-0.6,0.3-1.4-0.1-1.6-0.7l-41-101.9l26.9,102c0.2,0.7-0.2,1.3-0.9,1.5
		C1147.3,283.7,1147.2,283.7,1147.1,283.7z"/>
	<path fill="#0E1236" d="M1185.9,296.8c-0.5,0-1-0.3-1.2-0.8l-46.9-137.7c-0.2-0.6,0.1-1.3,0.7-1.5c0.6-0.3,1.3,0,1.6,0.6
		l69.5,133.7c0.3,0.6,0.1,1.3-0.5,1.7c-0.6,0.3-1.4,0.1-1.7-0.5l-62-119.2l41.6,122.2c0.2,0.6-0.1,1.3-0.8,1.6
		C1186.2,296.8,1186.1,296.8,1185.9,296.8z"/>
	<path fill="#0E1236" d="M920.3,255.1c-0.1,0-0.2,0-0.3,0c-0.7-0.2-1-0.9-0.9-1.5l21.5-77.5L906.5,254c-0.3,0.6-1,0.9-1.6,0.6
		c-0.6-0.3-0.9-1-0.6-1.6l41.1-94c0.3-0.6,0.9-0.9,1.5-0.7c0.6,0.2,0.9,0.9,0.8,1.5l-26.1,94.3C921.4,254.7,920.9,255.1,920.3,255.1
		z"/>
	<path fill="#0E1236" d="M961.7,231.7c-0.1,0-0.2,0-0.3,0c-0.7-0.2-1.1-0.8-0.9-1.5l10.1-41.6l-22.8,42.4c-0.3,0.6-1.1,0.8-1.7,0.5
		c-0.6-0.3-0.8-1.1-0.5-1.7l27.4-51c0.3-0.5,1-0.8,1.5-0.6c0.6,0.2,0.9,0.8,0.8,1.4l-12.4,50.9C962.7,231.3,962.2,231.7,961.7,231.7
		z"/>
	<path fill="#0E1236" d="M884.8,267.1c-0.1,0-0.2,0-0.3,0c-0.7-0.2-1-0.9-0.9-1.5l25.2-91.9l-39.7,91.7c-0.3,0.6-1,0.9-1.6,0.6
		c-0.6-0.3-0.9-1-0.6-1.6l46.7-107.8c0.3-0.6,0.9-0.9,1.5-0.7c0.6,0.2,1,0.9,0.8,1.5L886,266.2C885.8,266.8,885.3,267.1,884.8,267.1
		z"/>
	<path fill="#0E1236" d="M839.3,285.7c-0.1,0-0.2,0-0.3,0c-0.7-0.2-1-0.9-0.9-1.5l30.8-109.2l-52,107.8c-0.3,0.6-1,0.9-1.6,0.6
		c-0.6-0.3-0.9-1-0.6-1.6l58.1-120.6c0.3-0.6,1-0.9,1.5-0.6c0.6,0.2,0.9,0.9,0.8,1.5l-34.6,122.8
		C840.3,285.3,839.8,285.7,839.3,285.7z"/>
	<path fill="#738DBF" d="M946.4,114.5c0,0,34.8-28.3,68.4-28.3c33.6,0,65.9,28.4,65.9,28.4L946.4,114.5z"/>
	<path fill="#3E578A" d="M858.4,166.1l-2.1-35.4c0,0,54-19.4,163.6-19.4c109.6,0,146.7,16.5,146.7,16.5l-2.2,35.4L858.4,166.1z"/>
	<path fill="#0F1131" d="M979.2,193.8l-45.7-4.9c0,0-5-10.7-24.3-14c-19.3-3.3-50.7-8.7-50.7-8.7s21.8-17.7,154.1-18.5
		c132.3-0.8,154.1,16.9,154.1,16.9s-45.7,7-68.8,21.4c-24.5,1-54.8,13.2-54.8,13.2L979.2,193.8z"/>
	<path fill="#3E578A" d="M955.7,186.7l24.3,51.1l73.4-1.6l16.1-53.6c0,0-14-11.5-56.9-11.5C969.7,171.1,955.7,186.7,955.7,186.7z"/>
	<g>
		<path fill="#E9F6F8" d="M891.8,141.2c0,6.5-5.3,11.7-11.7,11.7c-6.5,0-11.7-5.3-11.7-11.7c0-6.5,5.3-11.7,11.7-11.7
			C886.5,129.4,891.8,134.7,891.8,141.2z"/>
		<path fill="#0F1131" d="M880.1,154.8c-7.5,0-13.6-6.1-13.6-13.6c0-7.5,6.1-13.6,13.6-13.6c7.5,0,13.6,6.1,13.6,13.6
			C893.7,148.7,887.6,154.8,880.1,154.8z M880.1,131.3c-5.5,0-9.9,4.4-9.9,9.9c0,5.5,4.4,9.9,9.9,9.9c5.4,0,9.9-4.4,9.9-9.9
			C890,135.7,885.5,131.3,880.1,131.3z"/>
	</g>
	<g>
		<circle fill="#E9F6F8" cx="924.6" cy="134.2" r="11.7"/>
		<path fill="#0F1131" d="M924.6,147.8c-7.5,0-13.6-6.1-13.6-13.6c0-7.5,6.1-13.6,13.6-13.6c7.5,0,13.6,6.1,13.6,13.6
			C938.2,141.7,932.1,147.8,924.6,147.8z M924.6,124.3c-5.4,0-9.9,4.4-9.9,9.9c0,5.5,4.4,9.9,9.9,9.9c5.5,0,9.9-4.4,9.9-9.9
			C934.5,128.7,930,124.3,924.6,124.3z"/>
	</g>
	<g>
		<circle fill="#E9F6F8" cx="968.2" cy="130.5" r="11.7"/>
		<path fill="#0F1131" d="M968.2,144.1c-7.5,0-13.6-6.1-13.6-13.6c0-7.5,6.1-13.6,13.6-13.6c7.5,0,13.6,6.1,13.6,13.6
			C981.8,138,975.7,144.1,968.2,144.1z M968.2,120.6c-5.5,0-9.9,4.4-9.9,9.9c0,5.4,4.4,9.9,9.9,9.9c5.4,0,9.9-4.4,9.9-9.9
			C978.1,125.1,973.6,120.6,968.2,120.6z"/>
	</g>
	<g>
		<path fill="#E9F6F8" d="M1023.3,129.4c0,6.5-5.3,11.7-11.7,11.7c-6.5,0-11.7-5.3-11.7-11.7c0-6.5,5.3-11.7,11.7-11.7
			C1018,117.7,1023.3,122.9,1023.3,129.4z"/>
		<path fill="#0F1131" d="M1011.5,143c-7.5,0-13.6-6.1-13.6-13.6c0-7.5,6.1-13.6,13.6-13.6c7.5,0,13.6,6.1,13.6,13.6
			C1025.1,136.9,1019,143,1011.5,143z M1011.5,119.5c-5.5,0-9.9,4.4-9.9,9.9c0,5.4,4.4,9.9,9.9,9.9c5.5,0,9.9-4.4,9.9-9.9
			C1021.4,124,1017,119.5,1011.5,119.5z"/>
	</g>
	<g>
		<path fill="#E9F6F8" d="M1068.6,129.4c0,6.5-5.3,11.7-11.7,11.7c-6.5,0-11.7-5.3-11.7-11.7c0-6.5,5.3-11.7,11.7-11.7
			C1063.3,117.7,1068.6,122.9,1068.6,129.4z"/>
		<path fill="#0F1131" d="M1056.8,143c-7.5,0-13.6-6.1-13.6-13.6c0-7.5,6.1-13.6,13.6-13.6c7.5,0,13.6,6.1,13.6,13.6
			C1070.4,136.9,1064.3,143,1056.8,143z M1056.8,119.5c-5.4,0-9.9,4.4-9.9,9.9c0,5.4,4.4,9.9,9.9,9.9c5.4,0,9.9-4.4,9.9-9.9
			C1066.7,124,1062.3,119.5,1056.8,119.5z"/>
	</g>
	<g>
		<circle fill="#E9F6F8" cx="1103.3" cy="133.1" r="11.7"/>
		<path fill="#0F1131" d="M1103.3,146.7c-7.5,0-13.6-6.1-13.6-13.6c0-7.5,6.1-13.6,13.6-13.6c7.5,0,13.6,6.1,13.6,13.6
			C1116.9,140.6,1110.8,146.7,1103.3,146.7z M1103.3,123.3c-5.4,0-9.9,4.4-9.9,9.9c0,5.4,4.4,9.9,9.9,9.9c5.5,0,9.9-4.4,9.9-9.9
			C1113.2,127.7,1108.8,123.3,1103.3,123.3z"/>
	</g>
	<g>
		<path fill="#E9F6F8" d="M1157,138.7c0,6.5-5.3,11.7-11.7,11.7c-6.5,0-11.7-5.3-11.7-11.7c0-6.5,5.3-11.7,11.7-11.7
			C1151.8,127,1157,132.3,1157,138.7z"/>
		<path fill="#0F1131" d="M1145.3,152.3c-7.5,0-13.6-6.1-13.6-13.6s6.1-13.6,13.6-13.6c7.5,0,13.6,6.1,13.6,13.6
			S1152.8,152.3,1145.3,152.3z M1145.3,128.8c-5.4,0-9.9,4.4-9.9,9.9c0,5.5,4.4,9.9,9.9,9.9c5.4,0,9.9-4.4,9.9-9.9
			C1155.2,133.3,1150.7,128.8,1145.3,128.8z"/>
	</g>
	<g>
		<g>
			<circle fill="#E9F6F8" cx="977.5" cy="236.2" r="9.3"/>
			<path fill="#0F1131" d="M977.5,247.3c-6.1,0-11.1-5-11.1-11.1c0-6.1,5-11.1,11.1-11.1c6.1,0,11.1,5,11.1,11.1
				C988.6,242.3,983.6,247.3,977.5,247.3z M977.5,228.8c-4.1,0-7.4,3.3-7.4,7.4c0,4.1,3.3,7.4,7.4,7.4c4.1,0,7.4-3.3,7.4-7.4
				C984.9,232.1,981.5,228.8,977.5,228.8z"/>
		</g>
		<g>
			<circle fill="#E9F6F8" cx="996" cy="236.2" r="9.3"/>
			<path fill="#0F1131" d="M996,247.3c-6.1,0-11.1-5-11.1-11.1c0-6.1,5-11.1,11.1-11.1c6.1,0,11.1,5,11.1,11.1
				C1007.1,242.3,1002.1,247.3,996,247.3z M996,228.8c-4.1,0-7.4,3.3-7.4,7.4c0,4.1,3.3,7.4,7.4,7.4c4.1,0,7.4-3.3,7.4-7.4
				C1003.4,232.1,1000.1,228.8,996,228.8z"/>
		</g>
		<g>
			<path fill="#E9F6F8" d="M1024.6,236.2c0,5.1-4.2,9.3-9.3,9.3c-5.1,0-9.3-4.2-9.3-9.3s4.2-9.3,9.3-9.3
				C1020.4,226.9,1024.6,231.1,1024.6,236.2z"/>
			<path fill="#0F1131" d="M1015.3,247.3c-6.1,0-11.1-5-11.1-11.1c0-6.1,5-11.1,11.1-11.1c6.1,0,11.1,5,11.1,11.1
				C1026.4,242.3,1021.5,247.3,1015.3,247.3z M1015.3,228.8c-4.1,0-7.4,3.3-7.4,7.4c0,4.1,3.3,7.4,7.4,7.4c4.1,0,7.4-3.3,7.4-7.4
				C1022.7,232.1,1019.4,228.8,1015.3,228.8z"/>
		</g>
		<g>
			<path fill="#E9F6F8" d="M1043.1,236.2c0,5.1-4.2,9.3-9.3,9.3c-5.1,0-9.3-4.2-9.3-9.3s4.1-9.3,9.3-9.3
				C1039,226.9,1043.1,231.1,1043.1,236.2z"/>
			<path fill="#0F1131" d="M1033.9,247.3c-6.1,0-11.1-5-11.1-11.1c0-6.1,5-11.1,11.1-11.1c6.1,0,11.1,5,11.1,11.1
				C1045,242.3,1040,247.3,1033.9,247.3z M1033.9,228.8c-4.1,0-7.4,3.3-7.4,7.4c0,4.1,3.3,7.4,7.4,7.4c4.1,0,7.4-3.3,7.4-7.4
				C1041.3,232.1,1038,228.8,1033.9,228.8z"/>
		</g>
		<g>
			<path fill="#E9F6F8" d="M1061.7,235.3c0,5.1-4.2,9.3-9.3,9.3c-5.1,0-9.3-4.1-9.3-9.3c0-5.1,4.2-9.3,9.3-9.3
				C1057.5,226,1061.7,230.2,1061.7,235.3z"/>
			<path fill="#0F1131" d="M1052.4,246.4c-6.1,0-11.1-5-11.1-11.1c0-6.1,5-11.1,11.1-11.1c6.1,0,11.1,5,11.1,11.1
				C1063.5,241.4,1058.5,246.4,1052.4,246.4z M1052.4,227.9c-4.1,0-7.4,3.3-7.4,7.4c0,4.1,3.3,7.4,7.4,7.4c4.1,0,7.4-3.3,7.4-7.4
				C1059.8,231.2,1056.5,227.9,1052.4,227.9z"/>
		</g>
	</g>
</g>
<g>
	<g>
		<polygon fill="#0F1131" points="235,338 229.9,11.3 231.2,11.3 236.2,338 		"/>
		
			<rect x="229.9" y="23" transform="matrix(0.9874 0.1584 -0.1584 0.9874 31.5333 -34.2396)" fill="#0F1131" width="1.2" height="315.2"/>
		
			<rect x="228.4" y="43.5" transform="matrix(0.949 0.3152 -0.3152 0.949 69.9498 -62.7541)" fill="#0F1131" width="1.3" height="282.8"/>
		<polygon fill="#0F1131" points="167.5,290.4 166.4,289.7 285.5,79 286.5,79.6 		"/>
		
			<rect x="222.3" y="82" transform="matrix(0.6947 0.7193 -0.7193 0.6947 198.264 -105.1059)" fill="#0F1131" width="1.2" height="198"/>
		
			<rect x="221.5" y="92.6" transform="matrix(0.4421 0.897 -0.897 0.4421 283.0963 -100.226)" fill="#0F1131" width="1.2" height="169.6"/>
		
			<rect x="222.3" y="93.5" transform="matrix(9.243716e-002 0.9957 -0.9957 9.243716e-002 373.9635 -65.5235)" fill="#0F1131" width="1.2" height="157.9"/>
		
			<rect x="143.3" y="166.1" transform="matrix(0.9868 0.1622 -0.1622 0.9868 29.9981 -33.9132)" fill="#0F1131" width="158.8" height="1.3"/>
		
			<rect x="124.7" y="160.1" transform="matrix(0.7163 0.6978 -0.6978 0.7163 175.677 -110.7)" fill="#0F1131" width="198.5" height="1.2"/>
		
			<rect x="137" y="163" transform="matrix(0.8867 0.4623 -0.4623 0.8867 100.7831 -84.058)" fill="#0F1131" width="169.8" height="1.2"/>
		
			<rect x="79.4" y="162.6" transform="matrix(0.2033 0.9791 -0.9791 0.2033 344.6607 -97.0425)" fill="#0F1131" width="305" height="1.3"/>
		
			<rect x="101.6" y="157.8" transform="matrix(0.4425 0.8968 -0.8968 0.4425 269.9633 -117.4137)" fill="#0F1131" width="255.5" height="1.3"/>
	</g>
	<path fill="#0F1131" d="M195.2,342.8c-21.9,0-42.4-17.7-57.6-50c-14.9-31.6-23.2-73.6-23.2-118.2c0-44.6,8.2-86.6,23.2-118.2
		c15.2-32.2,35.7-50,57.6-50c21.9,0,42.4,17.7,57.6,50c14.9,31.6,23.2,73.6,23.2,118.2c0,44.6-8.2,86.6-23.2,118.2
		C237.5,325.1,217.1,342.8,195.2,342.8z M195.2,11.5c-41.8,0-75.8,73.2-75.8,163.2c0,90,34,163.2,75.8,163.2
		c41.8,0,75.8-73.2,75.8-163.2C270.9,84.7,236.9,11.5,195.2,11.5z"/>
	<path fill="#0F1131" d="M221.7,342.8c-45.2,0-82-75.5-82-168.2c0-92.7,36.8-168.2,82-168.2c21.9,0,42.4,17.7,57.6,50
		c14.9,31.6,23.2,73.6,23.2,118.2c0,44.6-8.2,86.6-23.2,118.2C264.1,325.1,243.6,342.8,221.7,342.8z M221.7,11.5
		c-20,0-39.1,16.7-53.7,47.1c-15,31.1-23.3,72.3-23.3,116.1c0,43.7,8.3,85,23.3,116.1c14.7,30.4,33.8,47.1,53.7,47.1
		c41.8,0,75.8-73.2,75.8-163.2C297.5,84.7,263.5,11.5,221.7,11.5z"/>
	<g>
		<polygon fill="#0F1131" points="208.1,338.7 203.1,12.1 205.6,12 210.6,338.7 		"/>
		
			<rect x="203" y="23.8" transform="matrix(0.9874 0.1583 -0.1583 0.9874 31.2811 -30.0479)" fill="#0F1131" width="2.5" height="315.2"/>
		
			<rect x="201.5" y="44.2" transform="matrix(0.9487 0.3162 -0.3162 0.9487 69.0975 -54.5968)" fill="#0F1131" width="2.5" height="282.8"/>
		
			<rect x="199" y="64.3" transform="matrix(0.8707 0.4918 -0.4918 0.8707 117.0508 -74.5092)" fill="#0F1131" width="2.5" height="242.1"/>
		
			<rect x="195.5" y="82.7" transform="matrix(0.6951 0.7189 -0.7189 0.6951 190.609 -86.0258)" fill="#0F1131" width="2.5" height="198"/>
		
			<rect x="194.7" y="93.4" transform="matrix(0.4406 0.8977 -0.8977 0.4406 269.5227 -76.1927)" fill="#0F1131" width="2.5" height="169.6"/>
		
			<rect x="195.5" y="94.2" transform="matrix(9.283503e-002 0.9957 -0.9957 9.283503e-002 350.8114 -38.8253)" fill="#0F1131" width="2.5" height="157.9"/>
		
			<rect x="117.1" y="166.2" transform="matrix(0.9868 0.1622 -0.1622 0.9868 29.7681 -29.6513)" fill="#0F1131" width="158.8" height="2.5"/>
		
			<rect x="98.5" y="160.2" transform="matrix(0.7163 0.6978 -0.6978 0.7163 168.7411 -92.2004)" fill="#0F1131" width="198.5" height="2.5"/>
		
			<rect x="110.8" y="163.1" transform="matrix(0.8867 0.4623 -0.4623 0.8867 98.1485 -71.8566)" fill="#0F1131" width="169.8" height="2.5"/>
		<polygon fill="#0F1131" points="235.5,313.6 173.5,14.9 176,14.4 238,313.1 		"/>
		
			<rect x="75.4" y="157.9" transform="matrix(0.4425 0.8968 -0.8968 0.4425 255.9983 -93.5029)" fill="#0F1131" width="255.5" height="2.5"/>
	</g>
	<path fill="#0F1131" d="M256,399.5l-46.1-234.7c0,0,0,0,0,0l-0.8-4c-0.2-0.9-0.9-1.5-1.8-1.5c-0.9-0.1-1.7,0.5-1.9,1.4l-65.1,239
		c-0.2,0.6,0,1.2,0.3,1.6c0.4,0.5,0.9,0.7,1.5,0.7h20.2c0.9,0,1.7-0.6,1.8-1.5l43.2-222.3l21.6,222.2c0.1,1,0.9,1.7,1.9,1.7h23.3
		c0,0,0,0,0,0c1,0,1.9-0.8,1.9-1.9C256.2,399.9,256.1,399.7,256,399.5z"/>
	<path fill="#0F1131" d="M292.6,399.4l-55.4-237.9c-0.2-0.9-1-1.5-1.8-1.5c0,0,0,0,0,0c-0.9,0-1.6,0.6-1.8,1.5l-50.2,238.2
		c-0.1,0.6,0,1.1,0.4,1.6c0.4,0.4,0.9,0.7,1.5,0.7h20.2c0.9,0,1.7-0.7,1.9-1.6l28.5-218l31.2,218.1c0.1,0.9,0.9,1.6,1.9,1.6h22.1
		c0,0,0,0,0,0c1,0,1.9-0.8,1.9-1.9C292.7,399.9,292.7,399.6,292.6,399.4z"/>
	<ellipse fill="#0F1131" cx="205.4" cy="170.8" rx="12.8" ry="18.1"/>
	<ellipse fill="#0F1131" cx="236.8" cy="169.9" rx="12.8" ry="18"/>
	<g>
		<path fill="#0F1131" d="M190.1,23.8h-4.6v-6.2c0-0.9-0.8-1.7-1.7-1.7H165c-0.9,0-1.7,0.8-1.7,1.7v8.2c0,0.9,0.8,1.7,1.7,1.7h4.6
			v6.8c0,0.9,0.8,1.7,1.7,1.7h18.8c0.9,0,1.7-0.8,1.7-1.7v-8.9C191.8,24.6,191,23.8,190.1,23.8z"/>
		<g>
			<path fill="#0F1131" d="M300.7,168.5H296v-6.2c0-0.9-0.8-1.7-1.7-1.7h-18.8c-0.9,0-1.7,0.8-1.7,1.7v8.2c0,0.9,0.8,1.7,1.7,1.7
				h4.6v6.8c0,0.9,0.8,1.7,1.7,1.7h18.8c0.9,0,1.7-0.8,1.7-1.7v-8.9C302.4,169.3,301.6,168.5,300.7,168.5z"/>
			<path fill="#0F1131" d="M299.4,215.6h-4.6v-6.2c0-0.9-0.8-1.7-1.7-1.7h-18.8c-0.9,0-1.7,0.8-1.7,1.7v8.2c0,0.9,0.8,1.7,1.7,1.7
				h4.6v6.8c0,0.9,0.8,1.7,1.7,1.7h18.8c0.9,0,1.7-0.8,1.7-1.7v-8.9C301.1,216.4,300.4,215.6,299.4,215.6z"/>
			<path fill="#0F1131" d="M290.5,258.4h-4.6v-6.2c0-0.9-0.8-1.7-1.7-1.7h-18.8c-0.9,0-1.7,0.8-1.7,1.7v8.2c0,0.9,0.8,1.7,1.7,1.7
				h4.6v6.8c0,0.9,0.8,1.7,1.7,1.7h18.8c0.9,0,1.7-0.8,1.7-1.7v-8.9C292.2,259.2,291.4,258.4,290.5,258.4z"/>
			<path fill="#0F1131" d="M278.9,297.2h-4.6V291c0-0.9-0.8-1.7-1.7-1.7h-18.8c-0.9,0-1.7,0.8-1.7,1.7v8.2c0,0.9,0.8,1.7,1.7,1.7
				h4.6v6.8c0,0.9,0.8,1.7,1.7,1.7h18.8c0.9,0,1.7-0.8,1.7-1.7v-8.9C280.6,297.9,279.9,297.2,278.9,297.2z"/>
			<path fill="#0F1131" d="M259.9,325.3h-4.6v-6.2c0-0.9-0.8-1.7-1.7-1.7h-18.8c-0.9,0-1.7,0.8-1.7,1.7v8.2c0,0.9,0.8,1.7,1.7,1.7
				h4.6v6.8c0,0.9,0.8,1.7,1.7,1.7h18.8c0.9,0,1.7-0.8,1.7-1.7V327C261.6,326,260.8,325.3,259.9,325.3z"/>
			<path fill="#0F1131" d="M216.8,336.5h-4.6v-6.2c0-0.9-0.8-1.7-1.7-1.7h-18.8c-0.9,0-1.7,0.8-1.7,1.7v8.2c0,0.9,0.8,1.7,1.7,1.7
				h4.6v6.8c0,0.9,0.8,1.7,1.7,1.7h18.8c0.9,0,1.7-0.8,1.7-1.7v-8.9C218.6,337.2,217.8,336.5,216.8,336.5z"/>
			<path fill="#0F1131" d="M175.3,308.8h-4.6v-6.2c0-0.9-0.8-1.7-1.7-1.7h-18.8c-0.9,0-1.7,0.8-1.7,1.7v8.2c0,0.9,0.8,1.7,1.7,1.7
				h4.6v6.8c0,0.9,0.8,1.7,1.7,1.7h18.8c0.9,0,1.7-0.8,1.7-1.7v-8.9C177,309.6,176.2,308.8,175.3,308.8z"/>
			<path fill="#0F1131" d="M156,270.2h-4.6V264c0-0.9-0.8-1.7-1.7-1.7h-18.8c-0.9,0-1.7,0.8-1.7,1.7v8.2c0,0.9,0.8,1.7,1.7,1.7h4.6
				v6.8c0,0.9,0.8,1.7,1.7,1.7H156c0.9,0,1.7-0.8,1.7-1.7v-8.9C157.7,271,156.9,270.2,156,270.2z"/>
			<path fill="#0F1131" d="M145.3,228.5h-4.6v-6.2c0-0.9-0.8-1.7-1.7-1.7h-18.8c-0.9,0-1.7,0.8-1.7,1.7v8.2c0,0.9,0.8,1.7,1.7,1.7
				h4.6v6.8c0,0.9,0.8,1.7,1.7,1.7h18.8c0.9,0,1.7-0.8,1.7-1.7v-8.9C147,229.2,146.3,228.5,145.3,228.5z"/>
			<path fill="#0F1131" d="M140.4,183.8h-4.6v-6.2c0-0.9-0.8-1.7-1.7-1.7h-18.8c-0.9,0-1.7,0.8-1.7,1.7v8.2c0,0.9,0.8,1.7,1.7,1.7
				h4.6v6.8c0,0.9,0.8,1.7,1.7,1.7h18.8c0.9,0,1.7-0.8,1.7-1.7v-8.9C142.1,184.6,141.4,183.8,140.4,183.8z"/>
			<path fill="#0F1131" d="M142.5,139.1h-4.6V133c0-0.9-0.8-1.7-1.7-1.7h-18.8c-0.9,0-1.7,0.8-1.7,1.7v8.2c0,0.9,0.8,1.7,1.7,1.7
				h4.6v6.9c0,0.9,0.8,1.7,1.7,1.7h18.8c0.9,0,1.7-0.8,1.7-1.7v-8.9C144.2,139.9,143.4,139.1,142.5,139.1z"/>
			<path fill="#0F1131" d="M150.6,97.7h-4.6v-6.2c0-0.9-0.8-1.7-1.7-1.7h-18.8c-0.9,0-1.7,0.8-1.7,1.7v8.2c0,0.9,0.8,1.7,1.7,1.7
				h4.6v6.9c0,0.9,0.8,1.7,1.7,1.7h18.8c0.9,0,1.7-0.8,1.7-1.7v-8.9C152.3,98.5,151.5,97.7,150.6,97.7z"/>
			<path fill="#0F1131" d="M164.9,58h-4.6v-6.2c0-0.9-0.8-1.7-1.7-1.7h-18.8c-0.9,0-1.7,0.8-1.7,1.7V60c0,0.9,0.8,1.7,1.7,1.7h4.6
				v6.8c0,0.9,0.8,1.7,1.7,1.7h18.8c0.9,0,1.7-0.8,1.7-1.7v-8.9C166.6,58.7,165.8,58,164.9,58z"/>
			<path fill="#0F1131" d="M266.1,35.5h-4.6v-6.2c0-0.9-0.8-1.7-1.7-1.7h-18.8c-0.9,0-1.7,0.8-1.7,1.7v8.2c0,0.9,0.8,1.7,1.7,1.7
				h4.6v6.9c0,0.9,0.8,1.7,1.7,1.7h18.8c0.9,0,1.7-0.8,1.7-1.7v-8.9C267.8,36.2,267,35.5,266.1,35.5z"/>
			<path fill="#0F1131" d="M226.1,8.3h-4.6V2.1c0-0.9-0.8-1.7-1.7-1.7H201c-0.9,0-1.7,0.8-1.7,1.7v8.2c0,0.9,0.8,1.7,1.7,1.7h4.6
				v6.8c0,0.9,0.8,1.7,1.7,1.7h18.8c0.9,0,1.7-0.8,1.7-1.7V10C227.8,9.1,227,8.3,226.1,8.3z"/>
			<path fill="#0F1131" d="M284.7,73.7H280v-6.2c0-0.9-0.8-1.7-1.7-1.7h-18.8c-0.9,0-1.7,0.8-1.7,1.7v8.2c0,0.9,0.8,1.7,1.7,1.7h4.6
				v6.8c0,0.9,0.8,1.7,1.7,1.7h18.8c0.9,0,1.7-0.8,1.7-1.7v-8.9C286.4,74.4,285.6,73.7,284.7,73.7z"/>
			<path fill="#0F1131" d="M295.9,118.9h-4.6v-6.2c0-0.9-0.8-1.7-1.7-1.7h-18.8c-0.9,0-1.7,0.8-1.7,1.7v8.2c0,0.9,0.8,1.7,1.7,1.7
				h4.6v6.8c0,0.9,0.8,1.7,1.7,1.7h18.8c0.9,0,1.7-0.8,1.7-1.7v-8.9C297.6,119.7,296.8,118.9,295.9,118.9z"/>
		</g>
	</g>
	<rect x="205.6" y="165.4" fill="#0F1131" width="32.5" height="10.9"/>
</g>
<g>
	<path fill="#738DBF" d="M448.4,200.5c0,0,29.7-24.2,58.4-24.2c28.7,0,56.3,24.3,56.3,24.3L448.4,200.5z"/>
	<path fill="#3E578A" d="M373.2,244.6l-1.8-30.3c0,0,46.1-16.5,139.7-16.5s125.3,14.1,125.3,14.1l-1.9,30.2L373.2,244.6z"/>
	<path fill="#0F1131" d="M507.4,255.5c-73,0-134.2-10.8-134.2-10.8s18.7-15.1,131.6-15.8c112.9-0.7,129.7,13.2,129.7,13.2
		S580.4,255.5,507.4,255.5z"/>
	<path fill="#FFFFFF" d="M401.7,223.3c0,5.5-4.5,10-10,10s-10-4.5-10-10c0-5.5,4.5-10,10-10S401.7,217.7,401.7,223.3z"/>
	<circle fill="#FFFFFF" cx="429.7" cy="217.3" r="10"/>
	<circle fill="#FFFFFF" cx="466.9" cy="214.2" r="10"/>
	<path fill="#FFFFFF" d="M514,213.3c0,5.5-4.5,10-10,10c-5.5,0-10-4.5-10-10c0-5.5,4.5-10,10-10C509.5,203.2,514,207.7,514,213.3z"
		/>
	<path fill="#FFFFFF" d="M552.7,213.3c0,5.5-4.5,10-10,10c-5.5,0-10-4.5-10-10c0-5.5,4.5-10,10-10
		C548.2,203.2,552.7,207.7,552.7,213.3z"/>
	<path fill="#FFFFFF" d="M592.3,216.4c0,5.5-4.5,10-10,10c-5.5,0-10-4.5-10-10c0-5.5,4.5-10,10-10
		C587.8,206.4,592.3,210.9,592.3,216.4z"/>
	<path fill="#FFFFFF" d="M628.2,221.2c0,5.5-4.5,10-10,10c-5.5,0-10-4.5-10-10c0-5.5,4.5-10,10-10
		C623.7,211.2,628.2,215.7,628.2,221.2z"/>
	<g>
		<path fill="#0F1131" d="M391.7,234.9c-6.4,0-11.6-5.2-11.6-11.6c0-6.4,5.2-11.6,11.6-11.6c6.4,0,11.6,5.2,11.6,11.6
			C403.3,229.7,398.1,234.9,391.7,234.9z M391.7,214.8c-4.7,0-8.4,3.8-8.4,8.4s3.8,8.4,8.4,8.4c4.7,0,8.4-3.8,8.4-8.4
			S396.4,214.8,391.7,214.8z"/>
		<path fill="#0F1131" d="M429.7,228.9c-6.4,0-11.6-5.2-11.6-11.6c0-6.4,5.2-11.6,11.6-11.6c6.4,0,11.6,5.2,11.6,11.6
			C441.3,223.7,436.1,228.9,429.7,228.9z M429.7,208.9c-4.7,0-8.4,3.8-8.4,8.4c0,4.7,3.8,8.4,8.4,8.4c4.7,0,8.4-3.8,8.4-8.4
			C438.1,212.6,434.4,208.9,429.7,208.9z"/>
		<path fill="#0F1131" d="M466.9,225.8c-6.4,0-11.6-5.2-11.6-11.6c0-6.4,5.2-11.6,11.6-11.6c6.4,0,11.6,5.2,11.6,11.6
			C478.5,220.6,473.3,225.8,466.9,225.8z M466.9,205.7c-4.7,0-8.4,3.8-8.4,8.4c0,4.7,3.8,8.4,8.4,8.4c4.7,0,8.4-3.8,8.4-8.4
			C475.4,209.5,471.6,205.7,466.9,205.7z"/>
		<path fill="#0F1131" d="M503.9,224.9c-6.4,0-11.6-5.2-11.6-11.6c0-6.4,5.2-11.6,11.6-11.6c6.4,0,11.6,5.2,11.6,11.6
			C515.6,219.7,510.3,224.9,503.9,224.9z M503.9,204.8c-4.7,0-8.4,3.8-8.4,8.4c0,4.6,3.8,8.4,8.4,8.4c4.7,0,8.4-3.8,8.4-8.4
			C512.4,208.6,508.6,204.8,503.9,204.8z"/>
		<path fill="#0F1131" d="M542.6,224.9c-6.4,0-11.6-5.2-11.6-11.6c0-6.4,5.2-11.6,11.6-11.6c6.4,0,11.6,5.2,11.6,11.6
			C554.2,219.7,549,224.9,542.6,224.9z M542.6,204.8c-4.7,0-8.4,3.8-8.4,8.4c0,4.6,3.8,8.4,8.4,8.4c4.6,0,8.4-3.8,8.4-8.4
			C551.1,208.6,547.3,204.8,542.6,204.8z"/>
		<path fill="#0F1131" d="M582.3,228c-6.4,0-11.6-5.2-11.6-11.6c0-6.4,5.2-11.6,11.6-11.6c6.4,0,11.6,5.2,11.6,11.6
			C593.9,222.8,588.7,228,582.3,228z M582.3,208c-4.7,0-8.4,3.8-8.4,8.4c0,4.7,3.8,8.4,8.4,8.4c4.7,0,8.4-3.8,8.4-8.4
			C590.7,211.8,587,208,582.3,208z"/>
		<path fill="#0F1131" d="M618.1,232.8c-6.4,0-11.6-5.2-11.6-11.6c0-6.4,5.2-11.6,11.6-11.6c6.4,0,11.6,5.2,11.6,11.6
			C629.8,227.6,624.5,232.8,618.1,232.8z M618.1,212.8c-4.7,0-8.4,3.8-8.4,8.4c0,4.7,3.8,8.4,8.4,8.4c4.7,0,8.4-3.8,8.4-8.4
			C626.6,216.5,622.8,212.8,618.1,212.8z"/>
	</g>
	<path fill="#445E90" d="M517.1,375.2h-15.4c0,0,0-135.6,0-138.1c7.2-3.2,15.4,0,15.4,0V375.2z"/>
	<path fill="#445E90" d="M436.8,375.4h-9.4c0,0,0-126.7,0-129.2c4.4-3.2,9.4,0,9.4,0V375.4z"/>
	<path fill="#445E90" d="M596.3,373.6h-9.4c0,0,0-126.7,0-129.2c4.4-3.2,9.4,0,9.4,0V373.6z"/>
	<path fill="#0F1131" d="M646,385.4c0,8.1-6.6,14.7-14.7,14.7H379.4c-8.1,0-14.7-6.6-14.7-14.7l0,0c0-8.1,6.6-14.7,14.7-14.7h251.9
		C639.4,370.8,646,377.3,646,385.4L646,385.4z"/>
	<g>
		<path fill="#0F1131" d="M608.9,313.8c0,0,2.6-7.9,8.2-11.3c-2,2.9-1.7,3.1-1.7,3.1s5.3-5.2,8.2-5.2c-2.9,2.9-2.5,3-2.5,3
			s5.2-4.1,8.8-3.7c-1.6,0.7-1.7,1.3-2.2,1.7c1.9-0.5,6.9,0.5,6.9,0.5s-6,2.2-6,3.3c1.7,0,4.9,1.9,4.9,1.9s-7.8,0.7-9.5,2.4
			c1.6,0,3.2,1.3,3.2,1.3s-8,0.6-12.8,8.3c-1.1,1.1-7.8,5-7.8,5L608.9,313.8z"/>
		<polygon fill="#445E90" points="562.9,285.8 561.2,290.8 565.3,289.7 		"/>
		<path fill="#738DBF" d="M566.7,353.8l7.9-19.2c0,0-2.6-4-4.3-9.7c-1.6-5.7-2.6-12.8-2.6-12.8s-7,10.2-11.7,5.5
			c-4.8-4.8,0.6-8.5,1.7-11.2c2.3-5.5-4.2-11.6,5.4-14.9c0,0,5.4-7,16.7,7.7c7,9.1,4.9,12,4.9,12s9.4-1.7,20.2,1
			c10.9,2.7,11.5,11.9,11.5,15.5c0,3.6-4.1,7.7-4.1,7.7l5.7,17.9l-7.5,0.8l-6-18c0,0-6.4,1-10.4,1c-4,0-11.5-1.6-11.5-1.6l-7.6,17.9
			L566.7,353.8z"/>
		<polygon fill="#0F1131" points="561.5,310.4 572.7,295.8 573.1,297.1 573,298.4 563.1,311.6 		"/>
		<g>
			<path fill="#0F1131" d="M557.2,318.5l-0.1-0.1c0,0,3.8-2.1,3.8-3.3h0.1C561.1,316.4,557.3,318.4,557.2,318.5L557.2,318.5z"/>
		</g>
		<path fill="#0F1131" d="M558.3,311.8c0-0.6-0.4-1-1-1s-1,0.4-1,1c0,0.6,0.4,1,1,1S558.3,312.4,558.3,311.8z"/>
		<circle fill="#EBEBEB" cx="562.1" cy="301.7" r="2.2"/>
		<g>
			<path d="M562.8,301.9c0-1-0.4-1.9-1.1-2.4c-1,0.2-1.8,1.1-1.8,2.2c0,1.2,1,2.2,2.2,2.2C562.5,303.5,562.8,302.7,562.8,301.9z"/>
		</g>
		<path fill="#0F1131" d="M574.2,296.3c0,0-0.4,1.3-1.1,2.1c0,0-2.4-6.7-7-6.4c-4.6,0.2-6.3,4.3-6.3,4.3s-0.2-1.4,0-2.1
			c0,0-4.4,5.3-5.2,5c0,0,0.9-2.4,0.9-3.4c0,0-1.6,1.7-4.1,0.9c0,0,0.8,0.5,4.9-4.2c4.1-4.7,13.1-5.2,18.2-2.6
			c5.1,2.6,13.7,10.5,11.1,26.3c0,0-1.2-3-3.9-4.6c0,0-0.9,1.1-2.4,1.6c0,0,1.5-4.6-0.5-9.4c0,0-0.7,1.5-1.8,1.8c0,0-0.1-5.5-2.8-9
			V296.3z"/>
		<path fill="#0F1131" d="M565.5,314.8c0.4-0.4,0.7-0.8,1-1.1l-8.9-7.1c-0.2,0.4-0.5,0.9-0.8,1.3L565.5,314.8z"/>
		<path fill="#445E90" d="M563.4,292.6L563.4,292.6c0.8-0.3,1.6-0.6,2.7-0.6c0.7,0,1.4,0.1,2,0.4l0,0l-2.5-5.3L563.4,292.6z"/>
		<path fill="#0F1131" d="M565.6,357c-0.3,3.6,7,3,8.6-0.2c0.4-0.7,0.7-3.6,0.7-3.6s-5.3,0.3-8.1,0.4
			C565.7,356.4,565.7,356,565.6,357z"/>
		<path fill="#0F1131" d="M611.2,357.9c1.1,3.3,7.2,1.6,7.4-1.8c0-0.8-0.8-2.9-0.8-2.9s-4.3-0.1-7.5,0.8
			C610.5,356.9,610.9,356.9,611.2,357.9z"/>
		<path fill="#0F1131" d="M605.7,312.4c-8.1-2-15.4-1.8-19.5-1.5c0,0.6-0.1,1.1-0.1,1.6c0,8.5,5,14.6,11.1,14.6
			c6,0,10.8-5.7,11.1-13.9C607.4,312.9,606.6,312.6,605.7,312.4z"/>
		<path fill="#0F1131" d="M604.8,312.2c-7.2-1.8-13.7-1.7-17.3-1.4c0,0.5-0.1,1-0.1,1.5c0,7.5,4.4,13.6,9.8,13.6
			c5.3,0,9.6-5.8,9.8-13C606.4,312.6,605.6,312.4,604.8,312.2z"/>
	</g>
	<g>
		<path fill="#0F1131" d="M448.9,311.4c0,0,2.6-7.9,8.2-11.3c-2,2.9-1.7,3.1-1.7,3.1s5.3-5.2,8.2-5.2c-2.9,2.9-2.5,3-2.5,3
			s5.2-4.1,8.8-3.7c-1.6,0.7-1.7,1.3-2.2,1.7c1.9-0.5,6.9,0.5,6.9,0.5s-6,2.2-6,3.3c1.7,0,4.9,1.9,4.9,1.9s-7.8,0.7-9.5,2.4
			c1.6,0,3.2,1.3,3.2,1.3s-8,0.6-12.8,8.3c-1.1,1.1-7.8,5-7.8,5L448.9,311.4z"/>
		<polygon fill="#445E90" points="402.9,283.5 401.2,288.5 405.3,287.3 		"/>
		<path fill="#738DBF" d="M406.7,351.4l7.9-19.2c0,0-2.6-4-4.2-9.7c-1.6-5.7-2.6-12.8-2.6-12.8s-7,10.2-11.7,5.5
			c-4.8-4.8,0.6-8.5,1.7-11.2c2.3-5.5-4.2-11.6,5.4-14.9c0,0,5.4-7,16.7,7.7c7,9.1,4.9,12,4.9,12s9.4-1.7,20.2,1
			c10.9,2.7,11.5,11.9,11.5,15.5c0,3.6-4.1,7.7-4.1,7.7l5.7,17.9l-7.5,0.8l-6-18c0,0-6.4,1-10.4,1c-4,0-11.5-1.6-11.5-1.6l-7.6,17.9
			L406.7,351.4z"/>
		<polygon fill="#0F1131" points="401.5,308.1 412.7,293.5 413.1,294.8 413,296.1 403.1,309.2 		"/>
		<g>
			<path fill="#0F1131" d="M397.2,316.2l-0.1-0.1c0,0,3.8-2.1,3.8-3.3h0.1C401.1,314,397.3,316.1,397.2,316.2L397.2,316.2z"/>
		</g>
		<circle fill="#0F1131" cx="397.3" cy="309.5" r="1"/>
		<circle fill="#EBEBEB" cx="402.1" cy="299.4" r="2.2"/>
		<g>
			<path d="M402.8,299.6c0-1-0.4-1.9-1.1-2.4c-1,0.2-1.8,1.1-1.8,2.2c0,1.2,1,2.2,2.2,2.2C402.5,301.2,402.8,300.4,402.8,299.6z"/>
		</g>
		<path fill="#0F1131" d="M414.2,294c0,0-0.4,1.3-1.1,2.1c0,0-2.4-6.7-7-6.4c-4.6,0.2-6.3,4.3-6.3,4.3s-0.2-1.4,0-2.1
			c0,0-4.4,5.3-5.2,5c0,0,0.9-2.4,0.9-3.4c0,0-1.6,1.7-4.1,0.9c0,0,0.8,0.5,4.9-4.2c4.1-4.7,13.1-5.2,18.2-2.6
			c5.1,2.6,13.7,10.5,11.1,26.3c0,0-1.2-3-3.9-4.6c0,0-0.9,1.1-2.4,1.6c0,0,1.5-4.6-0.5-9.4c0,0-0.7,1.5-1.8,1.8c0,0-0.1-5.5-2.8-9
			V294z"/>
		<path fill="#0F1131" d="M405.5,312.5c0.4-0.4,0.7-0.8,1-1.1l-8.9-7.1c-0.2,0.4-0.5,0.9-0.8,1.3L405.5,312.5z"/>
		<path fill="#445E90" d="M403.4,290.3L403.4,290.3c0.8-0.3,1.6-0.6,2.7-0.6c0.7,0,1.4,0.1,2,0.4l0,0l-2.5-5.3L403.4,290.3z"/>
		<path fill="#0F1131" d="M405.6,354.7c-0.3,3.6,7,3,8.6-0.2c0.4-0.7,0.7-3.7,0.7-3.7s-2.3,0-8.2,0.6
			C405.7,354.1,405.7,353.7,405.6,354.7z"/>
		<path fill="#0F1131" d="M451.2,355.6c1.1,3.3,7.2,1.6,7.4-1.8c0-0.8-0.8-2.9-0.8-2.9s-4.3-0.1-7.5,0.8
			C450.5,354.5,450.9,354.6,451.2,355.6z"/>
		<path fill="#0F1131" d="M445.7,310.1c-8.1-2-15.4-1.8-19.5-1.5c0,0.6-0.1,1.1-0.1,1.6c0,8.5,5,14.6,11.1,14.6
			c6,0,10.8-5.7,11.1-13.9C447.4,310.6,446.6,310.3,445.7,310.1z"/>
		<path fill="#0F1131" d="M444.8,309.8c-7.2-1.8-13.7-1.7-17.3-1.4c0,0.5-0.1,1-0.1,1.5c0,7.5,4.4,13.6,9.8,13.6
			c5.3,0,9.6-5.9,9.8-13.1C446.4,310.2,445.6,310,444.8,309.8z"/>
	</g>
	<g>
		<path fill="#0F1131" d="M530.4,297.2c0,0,3.3-10,10.4-14.3c-2.5,3.6-2.2,3.9-2.2,3.9s6.7-6.5,10.4-6.5c-3.7,3.7-3.2,3.8-3.2,3.8
			s6.6-5.3,11.2-4.7c-2,0.8-2.2,1.6-2.7,2.2c2.4-0.6,8.7,0.6,8.7,0.6s-7.6,2.8-7.6,4.2c2.2,0,6.2,2.4,6.2,2.4s-9.9,0.9-12,3
			c2.1,0,4,1.7,4,1.7s-10.1,0.8-16.3,10.5c-1.4,1.4-9.9,6.3-9.9,6.3L530.4,297.2z"/>
		<polygon fill="#445E90" points="471.9,261.8 469.8,268.1 475,266.6 		"/>
		<path fill="#738DBF" d="M476.8,348l10-24.4c0,0-3.3-5.1-5.4-12.3c-2.1-7.2-3.3-16.2-3.3-16.2s-8.9,13-14.9,6.9
			c-6-6,0.8-10.8,2.1-14.2c2.9-7-5.3-14.7,6.8-18.9c0,0,6.9-8.8,21.2,9.8c8.9,11.6,6.2,15.2,6.2,15.2s11.9-2.2,25.7,1.3
			c13.8,3.5,14.6,15,14.6,19.6c0,4.6-5.2,9.8-5.2,9.8l7.2,22.7l-9.5,1l-7.7-22.9c0,0-8.1,1.3-13.1,1.3c-5.1,0-14.6-2.1-14.6-2.1
			l-9.7,22.7L476.8,348z"/>
		<polygon fill="#0F1131" points="470.3,293 484.5,274.4 484.9,276.1 484.8,277.7 472.2,294.4 		"/>
		<g>
			<path fill="#0F1131" d="M464.7,303.2l-0.1-0.2c0,0,4.9-2.7,4.9-4.2h0.2C469.7,300.5,464.9,303.1,464.7,303.2L464.7,303.2z"/>
		</g>
		<path fill="#0F1131" d="M466.1,294.8c0-0.7-0.6-1.3-1.3-1.3c-0.7,0-1.3,0.6-1.3,1.3c0,0.7,0.6,1.3,1.3,1.3
			C465.5,296.1,466.1,295.5,466.1,294.8z"/>
		<path fill="#FFFFFF" d="M473.9,282c0,1.6-1.3,2.9-2.9,2.9c-1.6,0-2.9-1.3-2.9-2.9c0-1.6,1.3-2.9,2.9-2.9
			C472.6,279.1,473.9,280.4,473.9,282z"/>
		<g>
			<path d="M471.8,282.2c0-1.3-0.6-2.5-1.4-3c-1.3,0.3-2.3,1.4-2.3,2.8c0,1.5,1.2,2.8,2.7,2.8C471.5,284.2,471.8,283.2,471.8,282.2z
				"/>
		</g>
		<path fill="#0F1131" d="M486.3,275.1c0,0-0.5,1.7-1.5,2.6c0,0-3-8.5-8.9-8.2c-5.9,0.3-8,5.4-8,5.4s-0.3-1.7,0-2.6
			c0,0-5.5,6.7-6.6,6.3c0,0,1.1-3,1.1-4.3c0,0-2.1,2.2-5.2,1.1c0,0,0.9,0.6,6.2-5.4c5.2-6,16.6-6.7,23.1-3.3
			c6.5,3.3,17.4,13.3,14.1,33.4c0,0-1.6-3.8-4.9-5.9c0,0-1.1,1.4-3,2.1c0,0,1.9-5.8-0.6-11.9c0,0-0.9,1.9-2.3,2.3
			c0,0-0.1-7-3.5-11.4V275.1z"/>
		<path fill="#0F1131" d="M475.2,298.6c0.5-0.5,0.9-1,1.3-1.5l-11.3-9c-0.3,0.5-0.6,1.1-1,1.7L475.2,298.6z"/>
		<path fill="#445E90" d="M472.6,270.4L472.6,270.4c1-0.4,2.1-0.7,3.4-0.8c0.9,0,1.8,0.1,2.6,0.5l0,0l-3.2-6.7L472.6,270.4z"/>
		<path fill="#0F1131" d="M475.4,352.1c-0.4,4.6,8.9,3.8,10.9-0.2c0.5-0.9,0.9-4.7,0.9-4.7s-6.8,0.5-10.4,0.7
			C475.5,351.4,475.5,350.8,475.4,352.1z"/>
		<path fill="#0F1131" d="M533.3,353.1c0.8,1.2,9.2,2.2,9.4-2.1c0.1-1-1-3.7-1-3.7s-5.4-0.2-9.5,0.9
			C532.3,350.6,532.4,351.9,533.3,353.1z"/>
		<path fill="#0F1131" d="M526.3,295.5c-10.3-2.6-19.6-2.3-24.8-1.9c-0.1,0.7-0.1,1.3-0.1,2.1c0,10.8,6.3,18.5,14,18.5
			c7.6,0,13.7-7.3,14-17.7C528.5,296.1,527.4,295.8,526.3,295.5z"/>
		<path fill="#0F1131" d="M525.2,295.2c-9.1-2.3-17.4-2.1-21.9-1.7c0,0.6-0.1,1.2-0.1,1.9c0,9.5,5.6,17.3,12.4,17.3
			c6.7,0,12.1-7.3,12.4-16.5C527.1,295.8,526.2,295.5,525.2,295.2z"/>
	</g>
	<g>
		<g>
			<polygon fill="#E9F6F8" points="416.5,376.4 419.1,381.8 425,382.6 420.7,386.8 421.7,392.7 416.5,389.9 411.2,392.7 
				412.2,386.8 407.9,382.6 413.8,381.8 			"/>
			<polygon fill="#E9F6F8" points="443,378 445.1,382.3 449.8,383 446.4,386.3 447.2,391 443,388.8 438.8,391 439.6,386.3 
				436.2,383 440.9,382.3 			"/>
			<polygon fill="#E9F6F8" points="469.5,376.4 472.2,381.8 478.1,382.6 473.8,386.8 474.8,392.7 469.5,389.9 464.2,392.7 
				465.2,386.8 461,382.6 466.9,381.8 			"/>
			<polygon fill="#E9F6F8" points="496,378 498.2,382.3 502.9,383 499.5,386.3 500.3,391 496,388.8 491.8,391 492.6,386.3 
				489.2,383 493.9,382.3 			"/>
			<polygon fill="#E9F6F8" points="522.6,376.4 525.2,381.8 531.1,382.6 526.8,386.8 527.9,392.7 522.6,389.9 517.3,392.7 
				518.3,386.8 514,382.6 519.9,381.8 			"/>
			<polygon fill="#E9F6F8" points="549.1,378 551.2,382.3 555.9,383 552.5,386.3 553.3,391 549.1,388.8 544.9,391 545.7,386.3 
				542.3,383 547,382.3 			"/>
			<polygon fill="#E9F6F8" points="575.6,376.4 578.3,381.8 584.2,382.6 579.9,386.8 580.9,392.7 575.6,389.9 570.4,392.7 
				571.4,386.8 567.1,382.6 573,381.8 			"/>
			<polygon fill="#E9F6F8" points="602.2,378 604.3,382.3 609,383 605.6,386.3 606.4,391 602.2,388.8 597.9,391 598.8,386.3 
				595.3,383 600.1,382.3 			"/>
		</g>
	</g>
</g>
<rect x="25.1" y="397.6" fill="#0E1133" width="1215.1" height="39"/>
</svg>
