<?xml version="1.0" encoding="utf-8"?>
<!-- Generator: Adobe Illustrator 17.1.0, SVG Export Plug-In . SVG Version: 6.00 Build 0)  -->
<!DOCTYPE svg PUBLIC "-//W3C//DTD SVG 1.1//EN" "http://www.w3.org/Graphics/SVG/1.1/DTD/svg11.dtd">
<svg version="1.1" id="Calque_1" xmlns="http://www.w3.org/2000/svg" xmlns:xlink="http://www.w3.org/1999/xlink" x="0px" y="0px"
	 viewBox="0 0 500 272" enable-background="new 0 0 500 272" xml:space="preserve">
<g>
	<g>
		<g>
			<g>
				<path fill-rule="evenodd" clip-rule="evenodd" fill="#C2AA2F" d="M197.6,193.4c-35.7-12.5-67.7-31.8-84.1-59.5
					c-16.4,27.7-48.3,47-84.1,59.5H197.6z"/>
				<path fill-rule="evenodd" clip-rule="evenodd" fill="#EDDD8E" d="M188.9,193.4c-32.1-13.1-60.4-32.4-75.4-59.5
					c-15,27.1-43.2,46.4-75.4,59.5H188.9z"/>
				<path fill-rule="evenodd" clip-rule="evenodd" fill="#CD2436" d="M175.6,193.4c-26.5-13.3-49.6-32.6-62-59.5
					c-12.4,26.9-35.5,46.2-62,59.5H175.6z"/>
				<path fill-rule="evenodd" clip-rule="evenodd" fill="#EDDD8E" d="M158.7,193.4c-19.3-13.7-35.9-33.1-45.1-59.5
					c-9.2,26.4-25.8,45.8-45.1,59.5H158.7z"/>
				<path fill-rule="evenodd" clip-rule="evenodd" fill="#CD2436" d="M143.7,193.4c-12.9-14.1-23.9-33.6-30.2-59.5
					c-6.2,25.9-17.3,45.4-30.2,59.5H143.7z"/>
				<path fill-rule="evenodd" clip-rule="evenodd" fill="#EDDD8E" d="M130.8,193.4c-7.3-14.3-13.6-33.8-17.2-59.5
					c-3.6,25.7-9.8,45.2-17.2,59.5H130.8z"/>
				<path fill-rule="evenodd" clip-rule="evenodd" fill="#CD2436" d="M119.7,193.4c-2.6-14.3-4.9-33.8-6.2-59.5
					c-1.3,25.7-3.5,45.2-6.2,59.5H119.7z"/>
				<rect x="112.6" y="63" fill-rule="evenodd" clip-rule="evenodd" fill="#C2AA2F" width="2" height="79.8"/>
				<ellipse fill-rule="evenodd" clip-rule="evenodd" fill="#C2AA2F" cx="113.6" cy="63" rx="6.4" ry="6"/>
				<path fill-rule="evenodd" clip-rule="evenodd" fill="#C2AA2F" d="M97.9,153.9c8.5-9.4,14.6-17.4,15.7-21.3
					c1.1,3.9,7.2,11.9,15.7,21.3c-4.9,0.9-10.2,1.4-15.7,1.4C108,155.3,102.8,154.8,97.9,153.9z"/>
				<ellipse fill-rule="evenodd" clip-rule="evenodd" fill="#F9DB3F" cx="111.9" cy="61.1" rx="2.8" ry="2.6"/>
				<path fill-rule="evenodd" clip-rule="evenodd" fill="#EDDD8E" d="M103,152.4c5.7-6.3,9.8-11.6,10.5-14.2
					c0.8,2.6,4.8,7.9,10.5,14.2c-3.3,0.6-6.8,0.9-10.5,0.9C109.9,153.4,106.3,153,103,152.4z"/>
			</g>
			<g>
				<path fill-rule="evenodd" clip-rule="evenodd" fill="#C2AA2F" d="M470.5,193.4c-35.7-12.5-67.7-31.8-84.1-59.5
					c-16.4,27.7-48.3,47-84.1,59.5H470.5z"/>
				<path fill-rule="evenodd" clip-rule="evenodd" fill="#EDDD8E" d="M461.8,193.4c-32.1-13.1-60.4-32.4-75.4-59.5
					c-15,27.1-43.2,46.4-75.4,59.5H461.8z"/>
				<path fill-rule="evenodd" clip-rule="evenodd" fill="#CD2436" d="M448.4,193.4c-26.5-13.3-49.6-32.6-62-59.5
					c-12.4,26.9-35.5,46.2-62,59.5H448.4z"/>
				<path fill-rule="evenodd" clip-rule="evenodd" fill="#EDDD8E" d="M431.5,193.4c-19.3-13.7-35.9-33.1-45.1-59.5
					c-9.2,26.4-25.8,45.8-45.1,59.5H431.5z"/>
				<path fill-rule="evenodd" clip-rule="evenodd" fill="#CD2436" d="M416.6,193.4c-12.9-14.1-23.9-33.6-30.2-59.5
					c-6.2,25.9-17.3,45.4-30.2,59.5H416.6z"/>
				<path fill-rule="evenodd" clip-rule="evenodd" fill="#EDDD8E" d="M403.6,193.4c-7.3-14.3-13.6-33.8-17.2-59.5
					c-3.6,25.7-9.8,45.2-17.2,59.5H403.6z"/>
				<path fill-rule="evenodd" clip-rule="evenodd" fill="#CD2436" d="M392.6,193.4c-2.6-14.3-4.9-33.8-6.2-59.5
					c-1.3,25.7-3.5,45.2-6.2,59.5H392.6z"/>
				<rect x="385.4" y="63" fill-rule="evenodd" clip-rule="evenodd" fill="#C2AA2F" width="2" height="79.8"/>
				<ellipse fill-rule="evenodd" clip-rule="evenodd" fill="#C2AA2F" cx="386.4" cy="63" rx="6.4" ry="6"/>
				<path fill-rule="evenodd" clip-rule="evenodd" fill="#C2AA2F" d="M370.7,153.9c8.5-9.4,14.6-17.4,15.7-21.3
					c1.1,3.9,7.2,11.9,15.7,21.3c-4.9,0.9-10.2,1.4-15.7,1.4C380.9,155.3,375.6,154.8,370.7,153.9z"/>
				<ellipse fill-rule="evenodd" clip-rule="evenodd" fill="#F9DB3F" cx="384.8" cy="61.1" rx="2.8" ry="2.6"/>
				<path fill-rule="evenodd" clip-rule="evenodd" fill="#EDDD8E" d="M375.9,152.4c5.7-6.3,9.8-11.6,10.5-14.2
					c0.8,2.6,4.8,7.9,10.5,14.2c-3.3,0.6-6.8,0.9-10.5,0.9C382.7,153.4,379.2,153,375.9,152.4z"/>
			</g>
		</g>
		<g>
			<path fill-rule="evenodd" clip-rule="evenodd" fill="#C2AA2F" d="M500,271.8c-16.9-17.3-25.7-43.2-17.5-86.4
				c-75.4-1-192.6-26.2-232.5-93.7c-39.9,67.5-157.2,92.8-232.5,93.7c8.3,43.2-0.6,69.1-17.5,86.4H500z"/>
			<path fill-rule="evenodd" clip-rule="evenodd" fill="#EDDD8E" d="M495.1,271.8c-14.6-14.3-22.9-37.1-18.5-82.4
				c-73.4-1-187.6-27.3-226.5-97.7c-38.9,70.4-153.1,96.7-226.5,97.7c5.6,45.9-1.9,68.5-16.2,82.4H495.1z"/>
			<path fill-rule="evenodd" clip-rule="evenodd" fill="#CD2436" d="M450.1,271.8c-9.3-18-13.2-43.2-7.6-80.7
				c-62.4-1-159.5-27.8-192.5-99.4C216.9,163.3,119.9,190,57.5,191c5.6,37.5,1.7,62.7-7.6,80.7H450.1z"/>
			<path fill-rule="evenodd" clip-rule="evenodd" fill="#EDDD8E" d="M404.3,271.8c-5.4-18.1-7.3-42.5-3.5-76.8
				c-48.9-1.1-124.9-28.9-150.8-103.4C224.1,166.1,148.1,193.9,99.2,195c3.9,34.3,2,58.6-3.5,76.8H404.3z"/>
			<path fill-rule="evenodd" clip-rule="evenodd" fill="#CD2436" d="M359.6,271.8c-2.8-18-3.6-41.3-1.1-72.5
				c-35.2-1.1-89.9-30.1-108.5-107.6c-18.6,77.6-73.3,106.5-108.5,107.6c2.4,31.2,1.7,54.5-1.1,72.5H359.6z"/>
			<path fill-rule="evenodd" clip-rule="evenodd" fill="#EDDD8E" d="M315,271.8c-1.4-17.8-1.6-40.4-0.3-69.8
				c-21-1.1-53.6-30.8-64.7-110.4c-11.1,79.5-43.7,109.2-64.7,110.4c1.3,29.4,1.1,52-0.3,69.8H315z"/>
			<path fill-rule="evenodd" clip-rule="evenodd" fill="#CD2436" d="M273.3,271.8c-0.5-17.8-0.6-40.4-0.1-69.8
				c-7.5-1.1-19.2-30.8-23.2-110.4c-4,79.5-15.7,109.2-23.2,110.4c0.5,29.4,0.4,52-0.1,69.8H273.3z"/>
			<rect x="248.8" y="7.4" fill-rule="evenodd" clip-rule="evenodd" fill="#C2AA2F" width="2.4" height="94.8"/>
			<ellipse fill-rule="evenodd" clip-rule="evenodd" fill="#C2AA2F" cx="250" cy="7.4" rx="7.6" ry="7.1"/>
			<path fill-rule="evenodd" clip-rule="evenodd" fill="#C2AA2F" d="M231.3,115.4c10.1-11.2,17.3-20.7,18.7-25.4
				c1.3,4.7,8.5,14.2,18.7,25.4c-5.8,1.1-12.1,1.7-18.7,1.7C243.4,117.1,237.2,116.5,231.3,115.4z"/>
			<path fill-rule="evenodd" clip-rule="evenodd" fill="#7C1319" d="M17.5,183.7c-0.2,1.1-0.4,2.3-0.4,3.5
				c0,10.8,10.2,19.5,22.7,19.5c8.4,0,15.8-3.9,19.7-9.8c2.3,8.6,11.4,15.1,22.1,15.1c8,0,15-3.5,19.1-8.9
				c3.3,7.3,11.5,12.5,21.2,12.5c9.2,0,17.2-4.7,20.7-11.5c2.6,8.2,11.4,14.3,21.9,14.3c9.4,0,17.5-4.9,21-12
				c2.8,8,11.5,13.8,21.7,13.8c9.7,0,18-5.2,21.2-12.5c3,7.7,11.5,13.3,21.5,13.3c10,0,18.5-5.6,21.5-13.3
				c3.3,7.3,11.5,12.5,21.2,12.5c10.2,0,18.9-5.8,21.7-13.8c3.4,7,11.5,12,21,12c10.5,0,19.3-6.1,21.9-14.3
				c3.6,6.8,11.5,11.5,20.7,11.5c9.7,0,18-5.2,21.2-12.5c4,5.3,11.1,8.9,19.1,8.9c10.8,0,19.8-6.4,22.1-15.1
				c3.9,5.8,11.3,9.8,19.7,9.8c12.5,0,22.7-8.7,22.7-19.5c0-1.2-0.1-2.4-0.4-3.5c-57.7,11.7-168.1,17.9-232.5,17.9
				S75.1,195.4,17.5,183.7z"/>
			<ellipse fill-rule="evenodd" clip-rule="evenodd" fill="#F9DB3F" cx="248.1" cy="5.2" rx="3.4" ry="3.1"/>
			<path fill-rule="evenodd" clip-rule="evenodd" fill="#EDDD8E" d="M237.5,113.7c6.8-7.5,11.6-13.8,12.5-16.9
				c0.9,3.1,5.7,9.4,12.5,16.9c-3.9,0.7-8.1,1.1-12.5,1.1C245.6,114.8,241.4,114.4,237.5,113.7z"/>
		</g>
	</g>
	<g>
		<path fill-rule="evenodd" clip-rule="evenodd" fill="#7C1319" d="M178,271.8c45.2-15,64.8-39.8,72.2-61.3
			c7.4,21.6,27,46.4,72.2,61.3H178z"/>
		<path fill-rule="evenodd" clip-rule="evenodd" fill="#EDDD8E" d="M310.5,271.8c-37.1-17.5-60-44.9-60.3-61.3
			c-0.3,16.4-23.2,43.8-60.3,61.3H310.5z"/>
		<path fill-rule="evenodd" clip-rule="evenodd" fill="#7C1319" d="M234.4,271.8c6-11.6,11.3-25.1,15.5-40c4.2,15,9.7,28.5,15.8,40
			H234.4z"/>
	</g>
</g>
</svg>
