<?xml version="1.0" encoding="utf-8"?>
<!-- Generator: Adobe Illustrator 17.1.0, SVG Export Plug-In . SVG Version: 6.00 Build 0)  -->
<!DOCTYPE svg PUBLIC "-//W3C//DTD SVG 1.1//EN" "http://www.w3.org/Graphics/SVG/1.1/DTD/svg11.dtd">
<svg version="1.1" id="Calque_1" xmlns="http://www.w3.org/2000/svg" xmlns:xlink="http://www.w3.org/1999/xlink" x="0px" y="0px"
	 viewBox="0 0 500 308" enable-background="new 0 0 500 308" xml:space="preserve">
<g>
	<g opacity="0.6">
		<g>
			<polygon fill="#BBD8EB" points="0,307.9 16.7,287.4 33.3,307.9 			"/>
			<polygon fill="#BBD8EB" points="33.3,307.9 50,287.4 66.7,307.9 			"/>
			<polygon fill="#BBD8EB" points="66.7,307.9 83.3,287.4 100,307.9 			"/>
			<polygon fill="#BBD8EB" points="100,307.9 116.7,287.4 133.3,307.9 			"/>
			<polygon fill="#BBD8EB" points="133.3,307.9 150,287.4 166.7,307.9 			"/>
			<polygon fill="#BBD8EB" points="366.7,307.9 383.3,287.4 400,307.9 			"/>
			<polygon fill="#BBD8EB" points="400,307.9 416.7,287.4 433.3,307.9 			"/>
			<polygon fill="#BBD8EB" points="433.3,307.9 450,287.4 466.7,307.9 			"/>
			<polygon fill="#BBD8EB" points="466.7,307.9 483.3,287.4 500,307.9 			"/>
		</g>
		<g>
			<polygon fill="#BBD8EB" points="50,287.4 33.3,307.9 16.7,287.4 33.3,266.9 			"/>
			<polygon fill="#BBD8EB" points="83.3,287.4 66.7,307.9 50,287.4 66.7,266.9 			"/>
			<polygon fill="#BBD8EB" points="116.7,287.4 100,307.9 83.3,287.4 100,266.9 			"/>
			<polygon fill="#BBD8EB" points="150,287.4 133.3,307.9 116.7,287.4 133.3,266.9 			"/>
			<polygon fill="#BBD8EB" points="183.3,287.4 166.7,307.9 150,287.4 166.7,266.9 			"/>
			<polygon fill="#BBD8EB" points="383.3,287.4 366.7,307.9 350,287.4 366.7,266.9 			"/>
			<polygon fill="#BBD8EB" points="416.7,287.4 400,307.9 383.3,287.4 400,266.9 			"/>
			<polygon fill="#BBD8EB" points="450,287.4 433.3,307.9 416.7,287.4 433.3,266.9 			"/>
			<polygon fill="#BBD8EB" points="483.3,287.4 466.7,307.9 450,287.4 466.7,266.9 			"/>
		</g>
		<g>
			<polygon fill="#BBD8EB" points="83.3,246.4 66.7,266.9 50,246.4 66.7,225.8 			"/>
			<polygon fill="#BBD8EB" points="116.7,246.4 100,266.9 83.3,246.4 100,225.8 			"/>
			<polygon fill="#BBD8EB" points="150,246.4 133.3,266.9 116.7,246.4 133.3,225.8 			"/>
			<polygon fill="#BBD8EB" points="183.3,246.4 166.7,266.9 150,246.4 166.7,225.8 			"/>
			<polygon fill="#BBD8EB" points="216.7,246.4 200,266.9 183.3,246.4 200,225.8 			"/>
			<polygon fill="#BBD8EB" points="250,246.4 233.3,266.9 216.7,246.4 233.3,225.8 			"/>
			<polygon fill="#BBD8EB" points="283.3,246.4 266.7,266.9 250,246.4 266.7,225.8 			"/>
			<polygon fill="#BBD8EB" points="316.7,246.4 300,266.9 283.3,246.4 300,225.8 			"/>
			<polygon fill="#BBD8EB" points="350,246.4 333.3,266.9 316.7,246.4 333.3,225.8 			"/>
			<polygon fill="#BBD8EB" points="383.3,246.4 366.7,266.9 350,246.4 366.7,225.8 			"/>
			<polygon fill="#BBD8EB" points="416.7,246.4 400,266.9 383.3,246.4 400,225.8 			"/>
			<polygon fill="#BBD8EB" points="450,246.4 433.3,266.9 416.7,246.4 433.3,225.8 			"/>
		</g>
		<g>
			<polygon fill="#BBD8EB" points="116.7,205.3 100,225.8 83.3,205.3 100,184.8 			"/>
			<polygon fill="#BBD8EB" points="150,205.3 133.3,225.8 116.7,205.3 133.3,184.8 			"/>
			<polygon fill="#BBD8EB" points="183.3,205.3 166.7,225.8 150,205.3 166.7,184.8 			"/>
			<polygon fill="#BBD8EB" points="216.7,205.3 200,225.8 183.3,205.3 200,184.8 			"/>
			<polygon fill="#BBD8EB" points="250,205.3 233.3,225.8 216.7,205.3 233.3,184.8 			"/>
			<polygon fill="#BBD8EB" points="283.3,205.3 266.7,225.8 250,205.3 266.7,184.8 			"/>
			<polygon fill="#BBD8EB" points="316.7,205.3 300,225.8 283.3,205.3 300,184.8 			"/>
			<polygon fill="#BBD8EB" points="350,205.3 333.3,225.8 316.7,205.3 333.3,184.8 			"/>
			<polygon fill="#BBD8EB" points="383.3,205.3 366.7,225.8 350,205.3 366.7,184.8 			"/>
			<polygon fill="#BBD8EB" points="416.7,205.3 400,225.8 383.3,205.3 400,184.8 			"/>
		</g>
		<g>
			<polygon fill="#BBD8EB" points="150,164.3 133.3,184.8 116.7,164.3 133.3,143.7 			"/>
			<polygon fill="#BBD8EB" points="183.3,164.3 166.7,184.8 150,164.3 166.7,143.7 			"/>
			<polygon fill="#BBD8EB" points="216.7,164.3 200,184.8 183.3,164.3 200,143.7 			"/>
			<polygon fill="#BBD8EB" points="250,164.3 233.3,184.8 216.7,164.3 233.3,143.7 			"/>
			<polygon fill="#BBD8EB" points="283.3,164.3 266.7,184.8 250,164.3 266.7,143.7 			"/>
			<polygon fill="#BBD8EB" points="316.7,164.3 300,184.8 283.3,164.3 300,143.7 			"/>
			<polygon fill="#BBD8EB" points="350,164.3 333.3,184.8 316.7,164.3 333.3,143.7 			"/>
			<polygon fill="#BBD8EB" points="383.3,164.3 366.7,184.8 350,164.3 366.7,143.7 			"/>
		</g>
		<g>
			<polygon fill="#BBD8EB" points="183.3,123.2 166.7,143.7 150,123.2 166.7,102.7 			"/>
			<polygon fill="#BBD8EB" points="216.7,123.2 200,143.7 183.3,123.2 200,102.7 			"/>
			<polygon fill="#BBD8EB" points="250,123.2 233.3,143.7 216.7,123.2 233.3,102.7 			"/>
			<polygon fill="#BBD8EB" points="283.3,123.2 266.7,143.7 250,123.2 266.7,102.7 			"/>
			<polygon fill="#BBD8EB" points="316.7,123.2 300,143.7 283.3,123.2 300,102.7 			"/>
			<polygon fill="#BBD8EB" points="350,123.2 333.3,143.7 316.7,123.2 333.3,102.7 			"/>
		</g>
		<g>
			<polygon fill="#BBD8EB" points="216.7,82.2 200,102.7 183.3,82.2 200,61.6 			"/>
			<polygon fill="#BBD8EB" points="250,82.2 233.3,102.7 216.7,82.2 233.3,61.6 			"/>
			<polygon fill="#BBD8EB" points="283.3,82.2 266.7,102.7 250,82.2 266.7,61.6 			"/>
			<polygon fill="#BBD8EB" points="316.7,82.2 300,102.7 283.3,82.2 300,61.6 			"/>
		</g>
		<g>
			<polygon fill="#BBD8EB" points="250,41.1 233.3,61.6 216.7,41.1 233.3,20.6 			"/>
			<polygon fill="#BBD8EB" points="283.3,41.1 266.7,61.6 250,41.1 266.7,20.6 			"/>
		</g>
		<g>
			<polygon fill="#BBD8EB" points="66.7,266.9 50,287.4 33.3,266.9 50,246.4 			"/>
			<polygon fill="#BBD8EB" points="100,266.9 83.3,287.4 66.7,266.9 83.3,246.4 			"/>
			<polygon fill="#BBD8EB" points="133.3,266.9 116.7,287.4 100,266.9 116.7,246.4 			"/>
			<polygon fill="#BBD8EB" points="166.7,266.9 150,287.4 133.3,266.9 150,246.4 			"/>
			<polygon fill="#BBD8EB" points="200,266.9 183.3,287.4 166.7,266.9 183.3,246.4 			"/>
			<polygon fill="#BBD8EB" points="233.3,266.9 216.7,287.4 200,266.9 216.7,246.4 			"/>
			<polygon fill="#BBD8EB" points="266.7,266.9 250,287.4 233.3,266.9 250,246.4 			"/>
			<polygon fill="#BBD8EB" points="300,266.9 283.3,287.4 266.7,266.9 283.3,246.4 			"/>
			<polygon fill="#BBD8EB" points="333.3,266.9 316.7,287.4 300,266.9 316.7,246.4 			"/>
			<polygon fill="#BBD8EB" points="366.7,266.9 350,287.4 333.3,266.9 350,246.4 			"/>
			<polygon fill="#BBD8EB" points="400,266.9 383.3,287.4 366.7,266.9 383.3,246.4 			"/>
			<polygon fill="#BBD8EB" points="433.3,266.9 416.7,287.4 400,266.9 416.7,246.4 			"/>
			<polygon fill="#BBD8EB" points="466.7,266.9 450,287.4 433.3,266.9 450,246.4 			"/>
		</g>
		<g>
			<polygon fill="#BBD8EB" points="100,225.8 83.3,246.4 66.7,225.8 83.3,205.3 			"/>
			<polygon fill="#BBD8EB" points="133.3,225.8 116.7,246.4 100,225.8 116.7,205.3 			"/>
			<polygon fill="#BBD8EB" points="166.7,225.8 150,246.4 133.3,225.8 150,205.3 			"/>
			<polygon fill="#BBD8EB" points="200,225.8 183.3,246.4 166.7,225.8 183.3,205.3 			"/>
			<polygon fill="#BBD8EB" points="233.3,225.8 216.7,246.4 200,225.8 216.7,205.3 			"/>
			<polygon fill="#BBD8EB" points="266.7,225.8 250,246.4 233.3,225.8 250,205.3 			"/>
			<polygon fill="#BBD8EB" points="300,225.8 283.3,246.4 266.7,225.8 283.3,205.3 			"/>
			<polygon fill="#BBD8EB" points="333.3,225.8 316.7,246.4 300,225.8 316.7,205.3 			"/>
			<polygon fill="#BBD8EB" points="366.7,225.8 350,246.4 333.3,225.8 350,205.3 			"/>
			<polygon fill="#BBD8EB" points="400,225.8 383.3,246.4 366.7,225.8 383.3,205.3 			"/>
			<polygon fill="#BBD8EB" points="433.3,225.8 416.7,246.4 400,225.8 416.7,205.3 			"/>
		</g>
		<g>
			<polygon fill="#BBD8EB" points="133.3,184.8 116.7,205.3 100,184.8 116.7,164.3 			"/>
			<polygon fill="#BBD8EB" points="166.7,184.8 150,205.3 133.3,184.8 150,164.3 			"/>
			<polygon fill="#BBD8EB" points="200,184.8 183.3,205.3 166.7,184.8 183.3,164.3 			"/>
			<polygon fill="#BBD8EB" points="233.3,184.8 216.7,205.3 200,184.8 216.7,164.3 			"/>
			<polygon fill="#BBD8EB" points="266.7,184.8 250,205.3 233.3,184.8 250,164.3 			"/>
			<polygon fill="#BBD8EB" points="300,184.8 283.3,205.3 266.7,184.8 283.3,164.3 			"/>
			<polygon fill="#BBD8EB" points="333.3,184.8 316.7,205.3 300,184.8 316.7,164.3 			"/>
			<polygon fill="#BBD8EB" points="366.7,184.8 350,205.3 333.3,184.8 350,164.3 			"/>
			<polygon fill="#BBD8EB" points="400,184.8 383.3,205.3 366.7,184.8 383.3,164.3 			"/>
		</g>
		<g>
			<polygon fill="#BBD8EB" points="166.7,143.7 150,164.3 133.3,143.7 150,123.2 			"/>
			<polygon fill="#BBD8EB" points="200,143.7 183.3,164.3 166.7,143.7 183.3,123.2 			"/>
			<polygon fill="#BBD8EB" points="233.3,143.7 216.7,164.3 200,143.7 216.7,123.2 			"/>
			<polygon fill="#BBD8EB" points="266.7,143.7 250,164.3 233.3,143.7 250,123.2 			"/>
			<polygon fill="#BBD8EB" points="300,143.7 283.3,164.3 266.7,143.7 283.3,123.2 			"/>
			<polygon fill="#BBD8EB" points="333.3,143.7 316.7,164.3 300,143.7 316.7,123.2 			"/>
			<polygon fill="#BBD8EB" points="366.7,143.7 350,164.3 333.3,143.7 350,123.2 			"/>
		</g>
		<g>
			<polygon fill="#BBD8EB" points="200,102.7 183.3,123.2 166.7,102.7 183.3,82.2 			"/>
			<polygon fill="#BBD8EB" points="233.3,102.7 216.7,123.2 200,102.7 216.7,82.2 			"/>
			<polygon fill="#BBD8EB" points="266.7,102.7 250,123.2 233.3,102.7 250,82.2 			"/>
			<polygon fill="#BBD8EB" points="300,102.7 283.3,123.2 266.7,102.7 283.3,82.2 			"/>
			<polygon fill="#BBD8EB" points="333.3,102.7 316.7,123.2 300,102.7 316.7,82.2 			"/>
		</g>
		<g>
			<polygon fill="#BBD8EB" points="233.3,61.6 216.7,82.2 200,61.6 216.7,41.1 			"/>
			<polygon fill="#BBD8EB" points="266.7,61.6 250,82.2 233.3,61.6 250,41.1 			"/>
			<polygon fill="#BBD8EB" points="300,61.6 283.3,82.2 266.7,61.6 283.3,41.1 			"/>
		</g>
		<polygon fill="#BBD8EB" points="266.7,20.6 250,41.1 233.3,20.6 250,0.1 		"/>
	</g>
	<path opacity="0.5" fill="#FFFFFF" d="M360.4,136L247.4,266.9h74.5l74.6-86.4L360.4,136z M320.5,86.9l-190.7,221h36.8l16.7-20.5h0
		l16.7-20.5h6.8l133.9-155.2L320.5,86.9z"/>
	<polygon opacity="0.7" fill="#FFFFFF" points="250,0.1 243.8,7.7 487.5,307.9 500,307.9 	"/>
	<g>
		<g>
			<polygon fill="none" stroke="#343F49" stroke-linecap="round" stroke-linejoin="round" stroke-miterlimit="10" points="0,307.9 
				16.7,287.4 33.3,307.9 			"/>
			<polygon fill="none" stroke="#343F49" stroke-linecap="round" stroke-linejoin="round" stroke-miterlimit="10" points="
				33.3,307.9 50,287.4 66.7,307.9 			"/>
			<polygon fill="none" stroke="#343F49" stroke-linecap="round" stroke-linejoin="round" stroke-miterlimit="10" points="
				66.7,307.9 83.3,287.4 100,307.9 			"/>
			<polygon fill="none" stroke="#343F49" stroke-linecap="round" stroke-linejoin="round" stroke-miterlimit="10" points="
				100,307.9 116.7,287.4 133.3,307.9 			"/>
			<polygon fill="none" stroke="#343F49" stroke-linecap="round" stroke-linejoin="round" stroke-miterlimit="10" points="
				133.3,307.9 150,287.4 166.7,307.9 			"/>
			<polygon fill="none" stroke="#343F49" stroke-linecap="round" stroke-linejoin="round" stroke-miterlimit="10" points="
				366.7,307.9 383.3,287.4 400,307.9 			"/>
			<polygon fill="none" stroke="#343F49" stroke-linecap="round" stroke-linejoin="round" stroke-miterlimit="10" points="
				400,307.9 416.7,287.4 433.3,307.9 			"/>
			<polygon fill="none" stroke="#343F49" stroke-linecap="round" stroke-linejoin="round" stroke-miterlimit="10" points="
				433.3,307.9 450,287.4 466.7,307.9 			"/>
			<polygon fill="none" stroke="#343F49" stroke-linecap="round" stroke-linejoin="round" stroke-miterlimit="10" points="
				466.7,307.9 483.3,287.4 500,307.9 			"/>
		</g>
		<g>
			<polygon fill="none" stroke="#343F49" stroke-linecap="round" stroke-linejoin="round" stroke-miterlimit="10" points="50,287.4 
				33.3,307.9 16.7,287.4 33.3,266.9 			"/>
			<polygon fill="none" stroke="#343F49" stroke-linecap="round" stroke-linejoin="round" stroke-miterlimit="10" points="
				83.3,287.4 66.7,307.9 50,287.4 66.7,266.9 			"/>
			<polygon fill="none" stroke="#343F49" stroke-linecap="round" stroke-linejoin="round" stroke-miterlimit="10" points="
				116.7,287.4 100,307.9 83.3,287.4 100,266.9 			"/>
			<polygon fill="none" stroke="#343F49" stroke-linecap="round" stroke-linejoin="round" stroke-miterlimit="10" points="
				150,287.4 133.3,307.9 116.7,287.4 133.3,266.9 			"/>
			<polygon fill="none" stroke="#343F49" stroke-linecap="round" stroke-linejoin="round" stroke-miterlimit="10" points="
				183.3,287.4 166.7,307.9 150,287.4 166.7,266.9 			"/>
			<polygon fill="none" stroke="#343F49" stroke-linecap="round" stroke-linejoin="round" stroke-miterlimit="10" points="
				383.3,287.4 366.7,307.9 350,287.4 366.7,266.9 			"/>
			<polygon fill="none" stroke="#343F49" stroke-linecap="round" stroke-linejoin="round" stroke-miterlimit="10" points="
				416.7,287.4 400,307.9 383.3,287.4 400,266.9 			"/>
			<polygon fill="none" stroke="#343F49" stroke-linecap="round" stroke-linejoin="round" stroke-miterlimit="10" points="
				450,287.4 433.3,307.9 416.7,287.4 433.3,266.9 			"/>
			<polygon fill="none" stroke="#343F49" stroke-linecap="round" stroke-linejoin="round" stroke-miterlimit="10" points="
				483.3,287.4 466.7,307.9 450,287.4 466.7,266.9 			"/>
		</g>
		<g>
			<polygon fill="none" stroke="#343F49" stroke-linecap="round" stroke-linejoin="round" stroke-miterlimit="10" points="
				83.3,246.4 66.7,266.9 50,246.4 66.7,225.8 			"/>
			<polygon fill="none" stroke="#343F49" stroke-linecap="round" stroke-linejoin="round" stroke-miterlimit="10" points="
				116.7,246.4 100,266.9 83.3,246.4 100,225.8 			"/>
			<polygon fill="none" stroke="#343F49" stroke-linecap="round" stroke-linejoin="round" stroke-miterlimit="10" points="
				150,246.4 133.3,266.9 116.7,246.4 133.3,225.8 			"/>
			<polygon fill="none" stroke="#343F49" stroke-linecap="round" stroke-linejoin="round" stroke-miterlimit="10" points="
				183.3,246.4 166.7,266.9 150,246.4 166.7,225.8 			"/>
			<polygon fill="none" stroke="#343F49" stroke-linecap="round" stroke-linejoin="round" stroke-miterlimit="10" points="
				216.7,246.4 200,266.9 183.3,246.4 200,225.8 			"/>
			<polygon fill="none" stroke="#343F49" stroke-linecap="round" stroke-linejoin="round" stroke-miterlimit="10" points="
				250,246.4 233.3,266.9 216.7,246.4 233.3,225.8 			"/>
			<polygon fill="none" stroke="#343F49" stroke-linecap="round" stroke-linejoin="round" stroke-miterlimit="10" points="
				283.3,246.4 266.7,266.9 250,246.4 266.7,225.8 			"/>
			<polygon fill="none" stroke="#343F49" stroke-linecap="round" stroke-linejoin="round" stroke-miterlimit="10" points="
				316.7,246.4 300,266.9 283.3,246.4 300,225.8 			"/>
			<polygon fill="none" stroke="#343F49" stroke-linecap="round" stroke-linejoin="round" stroke-miterlimit="10" points="
				350,246.4 333.3,266.9 316.7,246.4 333.3,225.8 			"/>
			<polygon fill="none" stroke="#343F49" stroke-linecap="round" stroke-linejoin="round" stroke-miterlimit="10" points="
				383.3,246.4 366.7,266.9 350,246.4 366.7,225.8 			"/>
			<polygon fill="none" stroke="#343F49" stroke-linecap="round" stroke-linejoin="round" stroke-miterlimit="10" points="
				416.7,246.4 400,266.9 383.3,246.4 400,225.8 			"/>
			<polygon fill="none" stroke="#343F49" stroke-linecap="round" stroke-linejoin="round" stroke-miterlimit="10" points="
				450,246.4 433.3,266.9 416.7,246.4 433.3,225.8 			"/>
		</g>
		<g>
			<polygon fill="none" stroke="#343F49" stroke-linecap="round" stroke-linejoin="round" stroke-miterlimit="10" points="
				116.7,205.3 100,225.8 83.3,205.3 100,184.8 			"/>
			<polygon fill="none" stroke="#343F49" stroke-linecap="round" stroke-linejoin="round" stroke-miterlimit="10" points="
				150,205.3 133.3,225.8 116.7,205.3 133.3,184.8 			"/>
			<polygon fill="none" stroke="#343F49" stroke-linecap="round" stroke-linejoin="round" stroke-miterlimit="10" points="
				183.3,205.3 166.7,225.8 150,205.3 166.7,184.8 			"/>
			<polygon fill="none" stroke="#343F49" stroke-linecap="round" stroke-linejoin="round" stroke-miterlimit="10" points="
				216.7,205.3 200,225.8 183.3,205.3 200,184.8 			"/>
			<polygon fill="none" stroke="#343F49" stroke-linecap="round" stroke-linejoin="round" stroke-miterlimit="10" points="
				250,205.3 233.3,225.8 216.7,205.3 233.3,184.8 			"/>
			<polygon fill="none" stroke="#343F49" stroke-linecap="round" stroke-linejoin="round" stroke-miterlimit="10" points="
				283.3,205.3 266.7,225.8 250,205.3 266.7,184.8 			"/>
			<polygon fill="none" stroke="#343F49" stroke-linecap="round" stroke-linejoin="round" stroke-miterlimit="10" points="
				316.7,205.3 300,225.8 283.3,205.3 300,184.8 			"/>
			<polygon fill="none" stroke="#343F49" stroke-linecap="round" stroke-linejoin="round" stroke-miterlimit="10" points="
				350,205.3 333.3,225.8 316.7,205.3 333.3,184.8 			"/>
			<polygon fill="none" stroke="#343F49" stroke-linecap="round" stroke-linejoin="round" stroke-miterlimit="10" points="
				383.3,205.3 366.7,225.8 350,205.3 366.7,184.8 			"/>
			<polygon fill="none" stroke="#343F49" stroke-linecap="round" stroke-linejoin="round" stroke-miterlimit="10" points="
				416.7,205.3 400,225.8 383.3,205.3 400,184.8 			"/>
		</g>
		<g>
			<polygon fill="none" stroke="#343F49" stroke-linecap="round" stroke-linejoin="round" stroke-miterlimit="10" points="
				150,164.3 133.3,184.8 116.7,164.3 133.3,143.7 			"/>
			<polygon fill="none" stroke="#343F49" stroke-linecap="round" stroke-linejoin="round" stroke-miterlimit="10" points="
				183.3,164.3 166.7,184.8 150,164.3 166.7,143.7 			"/>
			<polygon fill="none" stroke="#343F49" stroke-linecap="round" stroke-linejoin="round" stroke-miterlimit="10" points="
				216.7,164.3 200,184.8 183.3,164.3 200,143.7 			"/>
			<polygon fill="none" stroke="#343F49" stroke-linecap="round" stroke-linejoin="round" stroke-miterlimit="10" points="
				250,164.3 233.3,184.8 216.7,164.3 233.3,143.7 			"/>
			<polygon fill="none" stroke="#343F49" stroke-linecap="round" stroke-linejoin="round" stroke-miterlimit="10" points="
				283.3,164.3 266.7,184.8 250,164.3 266.7,143.7 			"/>
			<polygon fill="none" stroke="#343F49" stroke-linecap="round" stroke-linejoin="round" stroke-miterlimit="10" points="
				316.7,164.3 300,184.8 283.3,164.3 300,143.7 			"/>
			<polygon fill="none" stroke="#343F49" stroke-linecap="round" stroke-linejoin="round" stroke-miterlimit="10" points="
				350,164.3 333.3,184.8 316.7,164.3 333.3,143.7 			"/>
			<polygon fill="none" stroke="#343F49" stroke-linecap="round" stroke-linejoin="round" stroke-miterlimit="10" points="
				383.3,164.3 366.7,184.8 350,164.3 366.7,143.7 			"/>
		</g>
		<g>
			<polygon fill="none" stroke="#343F49" stroke-linecap="round" stroke-linejoin="round" stroke-miterlimit="10" points="
				183.3,123.2 166.7,143.7 150,123.2 166.7,102.7 			"/>
			<polygon fill="none" stroke="#343F49" stroke-linecap="round" stroke-linejoin="round" stroke-miterlimit="10" points="
				216.7,123.2 200,143.7 183.3,123.2 200,102.7 			"/>
			<polygon fill="none" stroke="#343F49" stroke-linecap="round" stroke-linejoin="round" stroke-miterlimit="10" points="
				250,123.2 233.3,143.7 216.7,123.2 233.3,102.7 			"/>
			<polygon fill="none" stroke="#343F49" stroke-linecap="round" stroke-linejoin="round" stroke-miterlimit="10" points="
				283.3,123.2 266.7,143.7 250,123.2 266.7,102.7 			"/>
			<polygon fill="none" stroke="#343F49" stroke-linecap="round" stroke-linejoin="round" stroke-miterlimit="10" points="
				316.7,123.2 300,143.7 283.3,123.2 300,102.7 			"/>
			<polygon fill="none" stroke="#343F49" stroke-linecap="round" stroke-linejoin="round" stroke-miterlimit="10" points="
				350,123.2 333.3,143.7 316.7,123.2 333.3,102.7 			"/>
		</g>
		<g>
			<polygon fill="none" stroke="#343F49" stroke-linecap="round" stroke-linejoin="round" stroke-miterlimit="10" points="
				216.7,82.2 200,102.7 183.3,82.2 200,61.6 			"/>
			<polygon fill="none" stroke="#343F49" stroke-linecap="round" stroke-linejoin="round" stroke-miterlimit="10" points="250,82.2 
				233.3,102.7 216.7,82.2 233.3,61.6 			"/>
			<polygon fill="none" stroke="#343F49" stroke-linecap="round" stroke-linejoin="round" stroke-miterlimit="10" points="
				283.3,82.2 266.7,102.7 250,82.2 266.7,61.6 			"/>
			<polygon fill="none" stroke="#343F49" stroke-linecap="round" stroke-linejoin="round" stroke-miterlimit="10" points="
				316.7,82.2 300,102.7 283.3,82.2 300,61.6 			"/>
		</g>
		<g>
			<polygon fill="none" stroke="#343F49" stroke-linecap="round" stroke-linejoin="round" stroke-miterlimit="10" points="250,41.1 
				233.3,61.6 216.7,41.1 233.3,20.6 			"/>
			<polygon fill="none" stroke="#343F49" stroke-linecap="round" stroke-linejoin="round" stroke-miterlimit="10" points="
				283.3,41.1 266.7,61.6 250,41.1 266.7,20.6 			"/>
		</g>
		<g>
			<polygon fill="none" stroke="#343F49" stroke-linecap="round" stroke-linejoin="round" stroke-miterlimit="10" points="
				66.7,266.9 50,287.4 33.3,266.9 50,246.4 			"/>
			<polygon fill="none" stroke="#343F49" stroke-linecap="round" stroke-linejoin="round" stroke-miterlimit="10" points="
				100,266.9 83.3,287.4 66.7,266.9 83.3,246.4 			"/>
			<polygon fill="none" stroke="#343F49" stroke-linecap="round" stroke-linejoin="round" stroke-miterlimit="10" points="
				133.3,266.9 116.7,287.4 100,266.9 116.7,246.4 			"/>
			<polygon fill="none" stroke="#343F49" stroke-linecap="round" stroke-linejoin="round" stroke-miterlimit="10" points="
				166.7,266.9 150,287.4 133.3,266.9 150,246.4 			"/>
			<polygon fill="none" stroke="#343F49" stroke-linecap="round" stroke-linejoin="round" stroke-miterlimit="10" points="
				200,266.9 183.3,287.4 166.7,266.9 183.3,246.4 			"/>
			<polygon fill="none" stroke="#343F49" stroke-linecap="round" stroke-linejoin="round" stroke-miterlimit="10" points="
				233.3,266.9 200,266.9 216.7,246.4 			"/>
			<polygon fill="none" stroke="#343F49" stroke-linecap="round" stroke-linejoin="round" stroke-miterlimit="10" points="
				266.7,266.9 233.3,266.9 250,246.4 			"/>
			<polygon fill="none" stroke="#343F49" stroke-linecap="round" stroke-linejoin="round" stroke-miterlimit="10" points="
				300,266.9 266.7,266.9 283.3,246.4 			"/>
			<polygon fill="none" stroke="#343F49" stroke-linecap="round" stroke-linejoin="round" stroke-miterlimit="10" points="
				333.3,266.9 300,266.9 316.7,246.4 			"/>
			<polygon fill="none" stroke="#343F49" stroke-linecap="round" stroke-linejoin="round" stroke-miterlimit="10" points="
				366.7,266.9 350,287.4 333.3,266.9 350,246.4 			"/>
			<polygon fill="none" stroke="#343F49" stroke-linecap="round" stroke-linejoin="round" stroke-miterlimit="10" points="
				400,266.9 383.3,287.4 366.7,266.9 383.3,246.4 			"/>
			<polygon fill="none" stroke="#343F49" stroke-linecap="round" stroke-linejoin="round" stroke-miterlimit="10" points="
				433.3,266.9 416.7,287.4 400,266.9 416.7,246.4 			"/>
			<polygon fill="none" stroke="#343F49" stroke-linecap="round" stroke-linejoin="round" stroke-miterlimit="10" points="
				466.7,266.9 450,287.4 433.3,266.9 450,246.4 			"/>
		</g>
		<g>
			<polygon fill="none" stroke="#343F49" stroke-linecap="round" stroke-linejoin="round" stroke-miterlimit="10" points="
				100,225.8 83.3,246.4 66.7,225.8 83.3,205.3 			"/>
			<polygon fill="none" stroke="#343F49" stroke-linecap="round" stroke-linejoin="round" stroke-miterlimit="10" points="
				133.3,225.8 116.7,246.4 100,225.8 116.7,205.3 			"/>
			<polygon fill="none" stroke="#343F49" stroke-linecap="round" stroke-linejoin="round" stroke-miterlimit="10" points="
				166.7,225.8 150,246.4 133.3,225.8 150,205.3 			"/>
			<polygon fill="none" stroke="#343F49" stroke-linecap="round" stroke-linejoin="round" stroke-miterlimit="10" points="
				200,225.8 183.3,246.4 166.7,225.8 183.3,205.3 			"/>
			<polygon fill="none" stroke="#343F49" stroke-linecap="round" stroke-linejoin="round" stroke-miterlimit="10" points="
				233.3,225.8 216.7,246.4 200,225.8 216.7,205.3 			"/>
			<polygon fill="none" stroke="#343F49" stroke-linecap="round" stroke-linejoin="round" stroke-miterlimit="10" points="
				266.7,225.8 250,246.4 233.3,225.8 250,205.3 			"/>
			<polygon fill="none" stroke="#343F49" stroke-linecap="round" stroke-linejoin="round" stroke-miterlimit="10" points="
				300,225.8 283.3,246.4 266.7,225.8 283.3,205.3 			"/>
			<polygon fill="none" stroke="#343F49" stroke-linecap="round" stroke-linejoin="round" stroke-miterlimit="10" points="
				333.3,225.8 316.7,246.4 300,225.8 316.7,205.3 			"/>
			<polygon fill="none" stroke="#343F49" stroke-linecap="round" stroke-linejoin="round" stroke-miterlimit="10" points="
				366.7,225.8 350,246.4 333.3,225.8 350,205.3 			"/>
			<polygon fill="none" stroke="#343F49" stroke-linecap="round" stroke-linejoin="round" stroke-miterlimit="10" points="
				400,225.8 383.3,246.4 366.7,225.8 383.3,205.3 			"/>
			<polygon fill="none" stroke="#343F49" stroke-linecap="round" stroke-linejoin="round" stroke-miterlimit="10" points="
				433.3,225.8 416.7,246.4 400,225.8 416.7,205.3 			"/>
		</g>
		<g>
			<polygon fill="none" stroke="#343F49" stroke-linecap="round" stroke-linejoin="round" stroke-miterlimit="10" points="
				133.3,184.8 116.7,205.3 100,184.8 116.7,164.3 			"/>
			<polygon fill="none" stroke="#343F49" stroke-linecap="round" stroke-linejoin="round" stroke-miterlimit="10" points="
				166.7,184.8 150,205.3 133.3,184.8 150,164.3 			"/>
			<polygon fill="none" stroke="#343F49" stroke-linecap="round" stroke-linejoin="round" stroke-miterlimit="10" points="
				200,184.8 183.3,205.3 166.7,184.8 183.3,164.3 			"/>
			<polygon fill="none" stroke="#343F49" stroke-linecap="round" stroke-linejoin="round" stroke-miterlimit="10" points="
				233.3,184.8 216.7,205.3 200,184.8 216.7,164.3 			"/>
			<polygon fill="none" stroke="#343F49" stroke-linecap="round" stroke-linejoin="round" stroke-miterlimit="10" points="
				266.7,184.8 250,205.3 233.3,184.8 250,164.3 			"/>
			<polygon fill="none" stroke="#343F49" stroke-linecap="round" stroke-linejoin="round" stroke-miterlimit="10" points="
				300,184.8 283.3,205.3 266.7,184.8 283.3,164.3 			"/>
			<polygon fill="none" stroke="#343F49" stroke-linecap="round" stroke-linejoin="round" stroke-miterlimit="10" points="
				333.3,184.8 316.7,205.3 300,184.8 316.7,164.3 			"/>
			<polygon fill="none" stroke="#343F49" stroke-linecap="round" stroke-linejoin="round" stroke-miterlimit="10" points="
				366.7,184.8 350,205.3 333.3,184.8 350,164.3 			"/>
			<polygon fill="none" stroke="#343F49" stroke-linecap="round" stroke-linejoin="round" stroke-miterlimit="10" points="
				400,184.8 383.3,205.3 366.7,184.8 383.3,164.3 			"/>
		</g>
		<g>
			<polygon fill="none" stroke="#343F49" stroke-linecap="round" stroke-linejoin="round" stroke-miterlimit="10" points="
				166.7,143.7 150,164.3 133.3,143.7 150,123.2 			"/>
			<polygon fill="none" stroke="#343F49" stroke-linecap="round" stroke-linejoin="round" stroke-miterlimit="10" points="
				200,143.7 183.3,164.3 166.7,143.7 183.3,123.2 			"/>
			<polygon fill="none" stroke="#343F49" stroke-linecap="round" stroke-linejoin="round" stroke-miterlimit="10" points="
				233.3,143.7 216.7,164.3 200,143.7 216.7,123.2 			"/>
			<polygon fill="none" stroke="#343F49" stroke-linecap="round" stroke-linejoin="round" stroke-miterlimit="10" points="
				266.7,143.7 250,164.3 233.3,143.7 250,123.2 			"/>
			<polygon fill="none" stroke="#343F49" stroke-linecap="round" stroke-linejoin="round" stroke-miterlimit="10" points="
				300,143.7 283.3,164.3 266.7,143.7 283.3,123.2 			"/>
			<polygon fill="none" stroke="#343F49" stroke-linecap="round" stroke-linejoin="round" stroke-miterlimit="10" points="
				333.3,143.7 316.7,164.3 300,143.7 316.7,123.2 			"/>
			<polygon fill="none" stroke="#343F49" stroke-linecap="round" stroke-linejoin="round" stroke-miterlimit="10" points="
				366.7,143.7 350,164.3 333.3,143.7 350,123.2 			"/>
		</g>
		<g>
			<polygon fill="none" stroke="#343F49" stroke-linecap="round" stroke-linejoin="round" stroke-miterlimit="10" points="
				200,102.7 183.3,123.2 166.7,102.7 183.3,82.2 			"/>
			<polygon fill="none" stroke="#343F49" stroke-linecap="round" stroke-linejoin="round" stroke-miterlimit="10" points="
				233.3,102.7 216.7,123.2 200,102.7 216.7,82.2 			"/>
			<polygon fill="none" stroke="#343F49" stroke-linecap="round" stroke-linejoin="round" stroke-miterlimit="10" points="
				266.7,102.7 250,123.2 233.3,102.7 250,82.2 			"/>
			<polygon fill="none" stroke="#343F49" stroke-linecap="round" stroke-linejoin="round" stroke-miterlimit="10" points="
				300,102.7 283.3,123.2 266.7,102.7 283.3,82.2 			"/>
			<polygon fill="none" stroke="#343F49" stroke-linecap="round" stroke-linejoin="round" stroke-miterlimit="10" points="
				333.3,102.7 316.7,123.2 300,102.7 316.7,82.2 			"/>
		</g>
		<g>
			<polygon fill="none" stroke="#343F49" stroke-linecap="round" stroke-linejoin="round" stroke-miterlimit="10" points="
				233.3,61.6 216.7,82.2 200,61.6 216.7,41.1 			"/>
			<polygon fill="none" stroke="#343F49" stroke-linecap="round" stroke-linejoin="round" stroke-miterlimit="10" points="
				266.7,61.6 250,82.2 233.3,61.6 250,41.1 			"/>
			<polygon fill="none" stroke="#343F49" stroke-linecap="round" stroke-linejoin="round" stroke-miterlimit="10" points="300,61.6 
				283.3,82.2 266.7,61.6 283.3,41.1 			"/>
		</g>
		<polygon fill="none" stroke="#343F49" stroke-linecap="round" stroke-linejoin="round" stroke-miterlimit="10" points="
			266.7,20.6 250,41.1 233.3,20.6 250,0.1 		"/>
	</g>
	<g opacity="0.8">
		<g>
			<polygon fill="#BBD8EB" points="166.7,307.9 183.3,287.4 200,307.9 			"/>
			<polygon fill="#BBD8EB" points="200,307.9 216.7,287.4 233.3,307.9 			"/>
			<polygon fill="#BBD8EB" points="233.3,307.9 250,287.4 250,307.9 			"/>
			<polygon fill="#BBD8EB" points="283.3,307.9 283.3,287.4 300,307.9 			"/>
			<polygon fill="#BBD8EB" points="300,307.9 316.7,287.4 333.3,307.9 			"/>
			<polygon fill="#BBD8EB" points="333.3,307.9 350,287.4 366.7,307.9 			"/>
		</g>
		<g>
			<polygon fill="#BBD8EB" points="350,287.4 333.3,307.9 316.7,287.4 			"/>
			<polygon fill="#BBD8EB" points="316.7,287.4 300,307.9 283.3,287.4 			"/>
			<polygon fill="#BBD8EB" points="250,287.4 233.3,307.9 216.7,287.4 			"/>
			<polygon fill="#BBD8EB" points="216.7,287.4 200,307.9 183.3,287.4 			"/>
		</g>
		<g>
			<polygon fill="#BBD8EB" points="333.3,266.9 316.7,287.4 300,266.9 			"/>
			<polygon fill="#BBD8EB" points="300,266.9 283.3,287.4 266.7,266.9 			"/>
			<polygon fill="#BBD8EB" points="266.7,266.9 250,287.4 233.3,266.9 			"/>
			<polygon fill="#BBD8EB" points="233.3,266.9 216.7,287.4 200,266.9 			"/>
		</g>
		<polygon fill="#BBD8EB" points="183.3,287.4 200,266.9 216.7,287.4 		"/>
		<polygon fill="#BBD8EB" points="216.7,287.4 233.3,266.9 250,287.4 		"/>
		<polygon fill="#BBD8EB" points="250,287.4 266.7,266.9 283.3,287.4 		"/>
		<polygon fill="#BBD8EB" points="283.3,287.4 300,266.9 316.7,287.4 		"/>
		<polygon fill="#BBD8EB" points="316.7,287.4 333.3,266.9 350,287.4 		"/>
	</g>
	<polygon opacity="0.4" fill="#7E868D" points="333.3,266.9 200,266.9 194.4,273.8 338.9,273.8 	"/>
	<g>
		<g>
			<polygon fill="none" stroke="#343F49" stroke-linecap="round" stroke-linejoin="round" stroke-miterlimit="10" points="
				166.7,307.9 183.3,287.4 200,307.9 			"/>
			<polygon fill="none" stroke="#343F49" stroke-linecap="round" stroke-linejoin="round" stroke-miterlimit="10" points="
				200,307.9 216.7,287.4 233.3,307.9 			"/>
			<polygon fill="none" stroke="#343F49" stroke-linecap="round" stroke-linejoin="round" stroke-miterlimit="10" points="
				233.3,307.9 250,287.4 266.7,307.9 			"/>
			<polygon fill="none" stroke="#343F49" stroke-linecap="round" stroke-linejoin="round" stroke-miterlimit="10" points="
				266.7,307.9 283.3,287.4 300,307.9 			"/>
			<polygon fill="none" stroke="#343F49" stroke-linecap="round" stroke-linejoin="round" stroke-miterlimit="10" points="
				300,307.9 316.7,287.4 333.3,307.9 			"/>
			<polygon fill="none" stroke="#343F49" stroke-linecap="round" stroke-linejoin="round" stroke-miterlimit="10" points="
				333.3,307.9 350,287.4 366.7,307.9 			"/>
		</g>
		<g>
			<polygon fill="none" stroke="#343F49" stroke-linecap="round" stroke-linejoin="round" stroke-miterlimit="10" points="
				350,287.4 333.3,307.9 316.7,287.4 			"/>
			<polygon fill="none" stroke="#343F49" stroke-linecap="round" stroke-linejoin="round" stroke-miterlimit="10" points="
				316.7,287.4 300,307.9 283.3,287.4 			"/>
			<polygon fill="none" stroke="#343F49" stroke-linecap="round" stroke-linejoin="round" stroke-miterlimit="10" points="
				283.3,287.4 266.7,307.9 250,287.4 			"/>
			<polygon fill="none" stroke="#343F49" stroke-linecap="round" stroke-linejoin="round" stroke-miterlimit="10" points="
				250,287.4 233.3,307.9 216.7,287.4 			"/>
			<polygon fill="none" stroke="#343F49" stroke-linecap="round" stroke-linejoin="round" stroke-miterlimit="10" points="
				216.7,287.4 200,307.9 183.3,287.4 			"/>
		</g>
		<g>
			<polygon fill="none" stroke="#343F49" stroke-linecap="round" stroke-linejoin="round" stroke-miterlimit="10" points="
				333.3,266.9 316.7,287.4 300,266.9 			"/>
			<polygon fill="none" stroke="#343F49" stroke-linecap="round" stroke-linejoin="round" stroke-miterlimit="10" points="
				300,266.9 283.3,287.4 266.7,266.9 			"/>
			<polygon fill="none" stroke="#343F49" stroke-linecap="round" stroke-linejoin="round" stroke-miterlimit="10" points="
				266.7,266.9 250,287.4 233.3,266.9 			"/>
			<polygon fill="none" stroke="#343F49" stroke-linecap="round" stroke-linejoin="round" stroke-miterlimit="10" points="
				233.3,266.9 216.7,287.4 200,266.9 			"/>
		</g>
		<polygon fill="none" stroke="#343F49" stroke-linecap="round" stroke-linejoin="round" stroke-miterlimit="10" points="
			183.3,287.4 200,266.9 216.7,287.4 		"/>
		<polygon fill="none" stroke="#343F49" stroke-linecap="round" stroke-linejoin="round" stroke-miterlimit="10" points="
			216.7,287.4 233.3,266.9 250,287.4 		"/>
		<polygon fill="none" stroke="#343F49" stroke-linecap="round" stroke-linejoin="round" stroke-miterlimit="10" points="250,287.4 
			266.7,266.9 283.3,287.4 		"/>
		<polygon fill="none" stroke="#343F49" stroke-linecap="round" stroke-linejoin="round" stroke-miterlimit="10" points="
			283.3,287.4 300,266.9 316.7,287.4 		"/>
		<polygon fill="none" stroke="#343F49" stroke-linecap="round" stroke-linejoin="round" stroke-miterlimit="10" points="
			316.7,287.4 333.3,266.9 350,287.4 		"/>
	</g>
	<g>
		<rect x="250" y="287.4" opacity="0.8" fill="#BBD8EB" width="33.3" height="20.5"/>
		
			<rect x="250" y="287.4" fill="none" stroke="#343F49" stroke-linecap="round" stroke-linejoin="round" stroke-miterlimit="10" width="33.3" height="20.5"/>
		
			<line fill="none" stroke="#343F49" stroke-linecap="round" stroke-linejoin="round" stroke-miterlimit="10" x1="266.7" y1="307.9" x2="266.7" y2="287.4"/>
	</g>
</g>
</svg>
