<?xml version="1.0" encoding="utf-8"?>
<!-- Generator: Adobe Illustrator 17.1.0, SVG Export Plug-In . SVG Version: 6.00 Build 0)  -->
<!DOCTYPE svg PUBLIC "-//W3C//DTD SVG 1.1//EN" "http://www.w3.org/Graphics/SVG/1.1/DTD/svg11.dtd">
<svg version="1.1" id="Calque_1" xmlns="http://www.w3.org/2000/svg" xmlns:xlink="http://www.w3.org/1999/xlink" x="0px" y="0px"
	 viewBox="0 0 206 165" enable-background="new 0 0 206 165" xml:space="preserve">
<g>
	<path fill="#FFFFFF" d="M205.4,82.5h-20.3V62h-20.5V41.4H144V20.9h-20.5v20.5H82.6V20.9H62v20.5H41.5V62H20.9v20.5H0.4v61.6h20.5
		V103h20.5v20.5v20.5H62v-20.5h82.2v20.5h20.5v-20.5V103h20.3v41.1h20.5V82.5H205.4z M82.6,82.5H62V62h20.5V82.5z M144,82.5h-20.5
		V62H144V82.5z"/>
	<rect x="62" y="144.1" fill="#FFFFFF" width="20.5" height="20.5"/>
	<rect x="123.4" y="144.1" fill="#FFFFFF" width="20.5" height="20.5"/>
	<rect x="41.5" y="0.3" fill="#FFFFFF" width="20.5" height="20.5"/>
	<rect x="144" y="0.3" fill="#FFFFFF" width="20.5" height="20.5"/>
</g>
</svg>
